<?xml version="1.0" encoding="UTF-8"?>
<svg version="1.1" viewBox="0 0 1140 912" xmlns="http://www.w3.org/2000/svg" xmlns:cc="http://creativecommons.org/ns#" xmlns:dc="http://purl.org/dc/elements/1.1/" xmlns:rdf="http://www.w3.org/1999/02/22-rdf-syntax-ns#">
<metadata>
<rdf:RDF>
<cc:Work rdf:about="">
<dc:format>image/svg+xml</dc:format>
<dc:type rdf:resource="http://purl.org/dc/dcmitype/StillImage"/>
<dc:title/>
</cc:Work>
</rdf:RDF>
</metadata>
<flowRoot fill="black" font-family="sans-serif" font-size="13.333px" letter-spacing="0px" word-spacing="0px" style="line-height:1.25" xml:space="preserve"><flowRegion><rect x="54.102" y="104.34" width="664.68" height="359.39"/></flowRegion><flowPara/></flowRoot>
<path d="m331.24 209.86c-4.1812 0.0315-8.3947 0.59742-11.975 1.7489-6.7166 2.16-15.54 9.7413-18.683 16.054-4.3268 8.6883-4.3894 20.756-0.18972 36.579 2.8454 10.72 3.025 15.771 0.71079 19.995-1.2331 2.2508-5.3966 7.4472-13.797 17.196v-14.257c0-4.5851-1.9504-8.4852-5.8504-11.7-3.7418-3.0567-7.9316-4.5853-12.569-4.5853h-10.198c-4.7432 0-9.012 1.502-12.807 4.506-4.058 3.2148-6.0869 7.1416-6.0869 11.779v44.427c0 4.6378 2.0288 8.5645 6.0869 11.779 0.90717 0.71551 1.8463 1.3423 2.8154 1.8844-5.0483 5.5748-9.9591 10.911-15.187 16.503-2.8466 3.0446-5.9732 6.4247-6.9481 7.5112-2.1353 2.3798-9.8852 10.708-15.374 16.522-2.1941 2.3239-5.2401 5.5516-6.7685 7.1724-4.6071 4.8856-12.841 13.402-15.879 16.424-1.5715 1.5631-3.7831 3.8201-4.9146 5.0156-2.0111 2.1247-8.6867 8.8781-18.622 18.84-2.7237 2.7308-5.1438 5.1994-5.3774 5.4852-0.25549 0.31258-5.3109 1.3957-12.69 2.7185-17.162 3.0765-20.871 4.2004-28.111 8.5208-8.4098 5.0186-11.9 9.0541-14.318 16.552-1.7309 5.3688-1.6456 11.984 0.22157 17.125 1.1155 3.0714 5.3531 8.6389 8.558 11.244 4.3032 3.4978 10.707 6.4475 18.307 8.434 1.1133 0.29114 2.2266 0.58228 3.3399 0.87342 0.76501 1.7701 1.53 3.5402 2.295 5.3103 1.6752 3.8772 2.9198 6.2466 4.611 8.7769 2.58 3.8598 8.6242 10.967 11.485 13.506 5.5228 4.9003 16.436 7.7331 24.11 6.2583 1.8742-0.36018 4.4208-1.1242 5.6593-1.6981 9.0615-4.1986 15.818-14.451 19.202-29.134 2.7212-11.81 2.5454-23.261-0.48177-31.323-0.52376-1.3949-1.1973-3.6585-1.4961-5.0298-0.18114-0.83096-0.36229-1.6619-0.54343-2.4929 0.79098-1.0916 1.582-2.1832 2.3729-3.2748 5.7738-6.7186 11.548-13.437 17.321-20.156v44.809h43.479c4.6378 0 8.3533-1.7392 11.146-5.2175 2.5824-3.2148 3.8738-7.194 3.8738-11.937v-21.581c0-7.6418-2.7403-12.253-8.2213-13.834 3.9-1.8446 5.8497-5.5866 5.8497-11.226v-19.447c0-4.9013-1.2648-8.9855-3.7945-12.253-1.4388-1.9091-5.147-4.2194-5.147-4.2194 17.121-19.923 34.243-39.845 51.364-59.768 0 0 6.4557-6.9452 9.63-10.41 1.9239-2.0996 3.8478-4.1993 5.7718-6.2989 2.9292-0.29182 5.8585-0.58363 8.7878-0.87545 16.9-1.6836 27.679-4.3786 37.325-9.3325 13.11-6.7329 20.771-15.194 23.885-26.38 2.4222-8.6991 1.2651-16.536-3.205-21.703-4.2511-4.914-10.848-7.8045-23.389-10.248-6.1733-1.2028-11.298-2.4694-13.341-3.2965-2.3404-0.94752-2.9424-2.177-3.9687-8.1108-1.212-7.0075-2.2343-9.5394-5.8178-14.405-2.3462-3.1856-3.1079-4.0096-4.9044-5.3056-3.7064-2.6738-10.585-4.1046-17.553-4.052zm3.1678 6.2861c-5.0168 0 8.5956 1.2692 11.482 3.7918 2.1254 1.8576 5.3763 6.8603 6.0794 9.3549 0.58825 2.087 1.0969 5.9896 1.198 9.1984 0.19755 6.2686 4.907 16.549 8.5743 18.717 2.1114 1.2478 2.136-0.63629 0.0522-4.0005-3.2657-5.2724-3.0462-7.2636 0.57596-5.2297 1.5569 0.87422 6.9591 2.2853 14.071 3.676 5.9288 1.1593 11.499 2.6536 13.381 3.5892 0.76568 0.38087 2.028 1.2511 2.8046 1.9332 6.4596 5.673 6.8764 15.076 1.0882 24.542-3.2804 5.3648-7.9837 9.9795-13.92 13.657-4.344 2.6911-6.8022 3.8388-11.228 5.2426-6.6897 2.1216-22.595 5.1262-31.989 6.0428-4.2612 0.41576-4.7488 0.5439-6.5137 1.7143-2.1168 1.4037-16.742 16.769-16.742 16.769-9.904 11.403-19.808 22.806-29.712 34.209-24.825 28.584-49.65 57.167-74.475 85.751 0 0-17.421 21.645-17.667 22.783-0.16694 0.77155 0.46679 2.7235 2.2747 7.0084 1.391 3.2968 2.906 9.2674 3.2789 12.922 0.3562 3.4915-0.0171 10.913-0.74468 14.81-1.7662 9.4615-5.126 17.17-9.7208 22.303-1.4188 1.5851-4.6738 4.0271-6.5801 4.9363-7.0714 3.3724-15.933 2.1954-22.327-2.9658-4.934-3.9829-11.783-13.108-14.352-19.12-1.1781-2.7579-1.2653-4.1313-0.30763-4.8462 1.284-0.95852 3.1006 2e-3 6.0171 3.1813 2.9479 3.2137 4.0504 3.0206 2.1216-0.372-1.1228-1.9748-3.6258-4.4215-5.4933-5.37-0.78699-0.39969-4.2454-1.3532-7.6853-2.1188-9.7527-2.1708-17.025-5.0252-21.069-8.268-2.057-1.6498-4.6866-5.0509-5.6532-7.3126-2.1948-5.1357-1.4282-14.233 1.6215-19.244 0.95054-1.562 1.5782-2.1386 5.6498-5.1904 3.5248-2.642 5.1822-3.6961 7.1913-4.5724 5.2233-2.2782 10.769-3.7568 21.415-5.7094 5.9277-1.0873 11.82-2.2778 13.094-2.646 2.1994-0.63549 2.4348-0.78119 4.6456-2.8805 7.1944-6.8314 31.724-31.693 37.263-37.767 1.3093-1.4358 3.7581-4.0272 5.4418-5.7589 1.6837-1.7317 4.9058-5.1146 7.1602-7.5173 2.2544-2.4026 7.3202-7.7518 11.258-11.887 3.9373-4.1353 10.861-11.549 10.861-11.549 22.588-25.634 45.175-51.267 67.763-76.901 0 0 4.6585-6.8497 5.0434-10.944 0.43426-4.6196 0.0564-7.1396-2.2273-14.859-4.8537-16.407-4.5834-29.213 0.78534-37.243 4.2362-6.3356 10.134-9.9237 18.415-11.203 2.9443-0.45475 10.082-0.65659 7.8018-0.65659h-2e-5zm-246.87 31.029c-1.054 0-1.9761 0.39526-2.7666 1.1858-0.79052 0.79053-1.1858 1.7133-1.1858 2.7673v97.077h14.545v-45.06h31.147v45.06h14.546v-97.077c0-1.054-0.39526-1.9768-1.1858-2.7673-0.79053-0.79053-1.7133-1.1858-2.7673-1.1858h-10.593v43.4h-31.147v-43.4h-10.593zm119.13 11.068v76.602c0 8.9066 5.1119 13.36 15.336 13.36h9.6442v-11.462c-1.5284 0-2.9513 0.0259-4.2689 0.0786-1.2648 0.0527-2.3716-0.0788-3.3202-0.39504-2.0554-0.68512-3.0831-2.609-3.0831-5.7711v-72.412h-14.308zm-36.444 12.648c-4.7432 0-9.012 1.502-12.807 4.506-4.058 3.2148-6.0868 7.1416-6.0868 11.779v44.427c0 4.6378 2.0288 8.5645 6.0868 11.779 3.7418 2.9513 8.0107 4.4267 12.807 4.4267h10.198c4.7432 0 8.933-1.502 12.569-4.506 3.9-3.2675 5.8504-7.1677 5.8504-11.7v-44.427c0-4.5851-1.9504-8.4852-5.8504-11.7-3.7418-3.0567-7.9316-4.5853-12.569-4.5853h-10.198zm0.94863 11.7h7.5105c2.1608 0 3.7943 0.71148 4.9011 2.1344 1.1594 1.3703 1.7394 3.0569 1.7394 5.0596v39.21c0 2.0027-0.57996 3.7159-1.7394 5.1389-1.1067 1.3702-2.7403 2.0552-4.9011 2.0552h-7.5105c-2.2135 0-3.8204-0.6849-4.8218-2.0552-1.0014-1.423-1.5022-3.1362-1.5022-5.1389v-39.21c0-2.0027 0.50089-3.6894 1.5022-5.0596 1.0013-1.423 2.6083-2.1344 4.8218-2.1344zm88.46 0h7.5105c2.1608 0 3.7943 0.71148 4.9011 2.1344 1.1594 1.3703 1.7394 3.0569 1.7394 5.0596v27.165c-1.3182 1.5076-2.2065 2.5237-3.4605 3.9578-4.7693 5.4544-9.068 10.328-13.154 14.917-0.98989-0.33366-1.7767-0.89577-2.358-1.6913-1.0013-1.423-1.5022-3.1362-1.5022-5.1389v-39.21c0-2.0027 0.5009-3.6894 1.5022-5.0596 1.0013-1.423 2.6083-2.1344 4.8218-2.1344zm-2.8649 118.95c2.0928-2.4351 4.7527 2.4608 4.7527 5.7636v18.34c0 1.5284-0.44774 2.9254-1.3437 4.1903-0.84323 1.2648-2.0815 1.8973-3.7153 1.8973h-22.609v-3.5262c7.6386-8.8883 15.277-17.777 22.916-26.665zm159.7 10.665c-4.5851 0-8.3796 1.7392-11.384 5.2175-2.7405 3.2675-4.111 7.2468-4.111 11.937v43.163c0 4.7432 1.5286 8.7749 4.5853 12.095 3.1094 3.4256 7.0096 5.1382 11.7 5.1382h18.736c2.5824 0 4.8749-0.47432 6.8776-1.423 6.008-2.8986 9.0911-8.3267 9.2492-16.285h-13.597c0.0527 1.8446-0.47408 3.2934-1.5808 4.3475-1.054 1.0013-2.477 1.5022-4.2689 1.5022h-12.016c-4.2689 0-6.4033-2.1078-6.4033-6.324v-14.309h23.084c4.6378 0 8.2742-1.7126 10.909-5.1382 2.477-3.1621 3.7153-7.0623 3.7153-11.7v-10.277c0-4.7959-1.3439-8.9066-4.0317-12.332-2.8986-3.7418-6.6931-5.6125-11.384-5.6125h-20.079zm-111.39 0.23716c-4.7432 0-9.012 1.502-12.807 4.506-4.058 3.2148-6.0875 7.1409-6.0875 11.779v44.428c0 4.6378 2.0295 8.5638 6.0875 11.779 3.7418 2.9513 8.0107 4.4274 12.807 4.4274h10.198c4.7432 0 8.933-1.502 12.569-4.506 3.8999-3.2675 5.8497-7.1677 5.8497-11.7v-44.428c0-4.5851-1.9498-8.4846-5.8497-11.699-3.7418-3.0567-7.9316-4.5853-12.569-4.5853h-10.198zm36.443 0.23715c-0.0264 0 0.0529 51.332 0.0793 76.997h13.518v-56.522c0-0.94864 0.13153-1.9504 0.39504-3.0045 0.84323-3.8472 2.8196-5.7704 5.929-5.7704h11.542c2.1608 0 3.795 0.71148 4.9017 2.1344 1.1594 1.3702 1.7387 3.0563 1.7387 5.0589v58.104h13.518v-60.713c0-4.6378-1.686-8.5114-5.0589-11.621-3.2675-3.1094-7.1943-4.6639-11.779-4.6639h-13.439c-3.1094 0-6.1925 1.5286-9.2492 4.5853v-4.5853h-12.095zm-35.495 11.463h7.5098c2.1608 0 3.7943 0.71148 4.9011 2.1344 1.1594 1.3702 1.7394 3.0563 1.7394 5.0589v39.21c0 2.0027-0.57996 3.7153-1.7394 5.1382-1.1068 1.3703-2.7403 2.0558-4.9011 2.0558h-7.5098c-2.2135 0-3.8211-0.68558-4.8225-2.0558-1.0013-1.4229-1.5022-3.1355-1.5022-5.1382v-39.21c0-2.0027 0.50089-3.6887 1.5022-5.0589 1.0013-1.423 2.609-2.1344 4.8225-2.1344zm114.63 0.31576h10.909c2.0026 0 3.6894 0.5009 5.0596 1.5022 1.4229 1.0013 2.1344 2.609 2.1344 4.8225v8.142c0 2.1608-0.71148 3.8209-2.1344 4.9803-1.3703 1.1067-3.057 1.6601-5.0596 1.6601h-17.313v-14.467c0-4.427 2.1344-6.6404 6.4033-6.6404zm-186.8 19.843h23.242c4.5324 0 6.7983 1.9763 6.7983 5.929v21.265c0 4.1634-2.0022 6.2454-6.0076 6.2454h-24.032v-33.439z" fill="none" stroke="#000" stroke-width="1.2303"/>
</svg>
