  0
SECTION
  2
HEADER
  9
$ACADVER
  1
AC1014
  9
$HANDSEED
  5
FFFF
  9
$MEASUREMENT
 70
     1
  0
ENDSEC
  0
SECTION
  2
TABLES
  0
TABLE
  2
VPORT
  5
8
330
0
100
AcDbSymbolTable
 70
     4
  0
VPORT
  5
2E
330
8
100
AcDbSymbolTableRecord
100
AcDbViewportTableRecord
  2
*ACTIVE
 70
     0
 10
0.0
 20
0.0
 11
1.0
 21
1.0
 12
210.0
 22
148.5
 13
0.0
 23
0.0
 14
10.0
 24
10.0
 15
10.0
 25
10.0
 16
0.0
 26
0.0
 36
1.0
 17
0.0
 27
0.0
 37
0.0
 40
341.0
 41
1.24
 42
50.0
 43
0.0
 44
0.0
 50
0.0
 51
0.0
 71
     0
 72
   100
 73
     1
 74
     3
 75
     0
 76
     0
 77
     0
 78
     0
  0
ENDTAB
  0
TABLE
  2
LTYPE
  5
5
330
0
100
AcDbSymbolTable
 70
     1
  0
LTYPE
  5
14
330
5
100
AcDbSymbolTableRecord
100
AcDbLinetypeTableRecord
  2
BYBLOCK
 70
     0
  3

 72
    65
 73
     0
 40
0.0
  0
LTYPE
  5
15
330
5
100
AcDbSymbolTableRecord
100
AcDbLinetypeTableRecord
  2
BYLAYER
 70
     0
  3

 72
    65
 73
     0
 40
0.0
  0
LTYPE
  5
16
330
5
100
AcDbSymbolTableRecord
100
AcDbLinetypeTableRecord
  2
CONTINUOUS
 70
     0
  3
Solid line
 72
    65
 73
     0
 40
0.0
  0
ENDTAB
  0
TABLE
  2
LAYER
  5
2
100
AcDbSymbolTable
 70
1
  0
LAYER
  5
50
100
AcDbSymbolTableRecord
100
AcDbLayerTableRecord
  2
0
 70
0
  6
CONTINUOUS
  0
ENDTAB
  0
TABLE
  2
STYLE
  5
3
330
0
100
AcDbSymbolTable
 70
     1
  0
STYLE
  5
11
330
3
100
AcDbSymbolTableRecord
100
AcDbTextStyleTableRecord
  2
STANDARD
 70
     0
 40
0.0
 41
1.0
 50
0.0
 71
     0
 42
2.5
  3
txt
  4

  0
ENDTAB
  0
TABLE
  2
VIEW
  5
6
330
0
100
AcDbSymbolTable
 70
     0
  0
ENDTAB
  0
TABLE
  2
UCS
  5
7
330
0
100
AcDbSymbolTable
 70
     0
  0
ENDTAB
  0
TABLE
  2
APPID
  5
9
330
0
100
AcDbSymbolTable
 70
     2
  0
APPID
  5
12
330
9
100
AcDbSymbolTableRecord
100
AcDbRegAppTableRecord
  2
ACAD
 70
     0
  0
ENDTAB
  0
TABLE
  2
DIMSTYLE
  5
A
330
0
100
AcDbSymbolTable
 70
     1
  0
DIMSTYLE
105
27
330
A
100
AcDbSymbolTableRecord
100
AcDbDimStyleTableRecord
  2
ISO-25
 70
     0
  3

  4

  5

  6

  7

 40
1.0
 41
2.5
 42
0.625
 43
3.75
 44
1.25
 45
0.0
 46
0.0
 47
0.0
 48
0.0
140
2.5
141
2.5
142
0.0
143
0.03937007874016
144
1.0
145
0.0
146
1.0
147
0.625
 71
     0
 72
     0
 73
     0
 74
     0
 75
     0
 76
     0
 77
     1
 78
     8
170
     0
171
     3
172
     1
173
     0
174
     0
175
     0
176
     0
177
     0
178
     0
270
     2
271
     2
272
     2
273
     2
274
     3
340
11
275
     0
280
     0
281
     0
282
     0
283
     0
284
     8
285
     0
286
     0
287
     3
288
     0
  0
ENDTAB
  0
TABLE
  2
BLOCK_RECORD
  5
1
330
0
100
AcDbSymbolTable
 70
     1
  0
BLOCK_RECORD
  5
1F
330
1
100
AcDbSymbolTableRecord
100
AcDbBlockTableRecord
  2
*MODEL_SPACE
  0
BLOCK_RECORD
  5
1B
330
1
100
AcDbSymbolTableRecord
100
AcDbBlockTableRecord
  2
*PAPER_SPACE
  0
ENDTAB
  0
ENDSEC
  0
SECTION
  2
BLOCKS
  0
BLOCK
  5
20
330
1F
100
AcDbEntity
  8
0
100
AcDbBlockBegin
  2
*MODEL_SPACE
 70
     0
 10
0.0
 20
0.0
 30
0.0
  3
*MODEL_SPACE
  1

  0
ENDBLK
  5
21
330
1F
100
AcDbEntity
  8
0
100
AcDbBlockEnd
  0
BLOCK
  5
1C
330
1B
100
AcDbEntity
 67
     1
  8
0
100
AcDbBlockBegin
  2
*PAPER_SPACE
  1

  0
ENDBLK
  5
1D
330
1B
100
AcDbEntity
 67
     1
  8
0
100
AcDbBlockEnd
  0
ENDSEC
  0
SECTION
  2
ENTITIES
  0
SPLINE
  5
100
100
AcDbEntity
  8
0
 62
7
100
AcDbSpline
 70
8
 71
3
 72
8
 73
4
 74
0
 40
0
 40
0
 40
0
 40
0
 40
1
 40
1
 40
1
 40
1
 10
91.516478
 20
183.107161
 30
0.0
 10
92.078831
 20
182.615668
 30
0.0
 10
92.938955
 20
181.292050
 30
0.0
 10
93.124986
 20
180.632007
 30
0.0
  0
SPLINE
  5
101
100
AcDbEntity
  8
0
 62
7
100
AcDbSpline
 70
8
 71
3
 72
8
 73
4
 74
0
 40
0
 40
0
 40
0
 40
0
 40
1
 40
1
 40
1
 40
1
 10
93.124986
 20
180.632007
 30
0.0
 10
93.280627
 20
180.079825
 30
0.0
 10
93.415197
 20
179.047267
 30
0.0
 10
93.441954
 20
178.198272
 30
0.0
  0
SPLINE
  5
102
100
AcDbEntity
  8
0
 62
7
100
AcDbSpline
 70
8
 71
3
 72
8
 73
4
 74
0
 40
0
 40
0
 40
0
 40
0
 40
1
 40
1
 40
1
 40
1
 10
93.441954
 20
178.198272
 30
0.0
 10
93.494222
 20
176.539694
 30
0.0
 10
94.740278
 20
173.819579
 30
0.0
 10
95.710573
 20
173.246177
 30
0.0
  0
SPLINE
  5
103
100
AcDbEntity
  8
0
 62
7
100
AcDbSpline
 70
8
 71
3
 72
8
 73
4
 74
0
 40
0
 40
0
 40
0
 40
0
 40
1
 40
1
 40
1
 40
1
 10
95.710573
 20
173.246177
 30
0.0
 10
96.269220
 20
172.916038
 30
0.0
 10
96.275726
 20
173.414529
 30
0.0
 10
95.724385
 20
174.304650
 30
0.0
  0
SPLINE
  5
104
100
AcDbEntity
  8
0
 62
7
100
AcDbSpline
 70
8
 71
3
 72
8
 73
4
 74
0
 40
0
 40
0
 40
0
 40
0
 40
1
 40
1
 40
1
 40
1
 10
95.724385
 20
174.304650
 30
0.0
 10
94.860324
 20
175.699645
 30
0.0
 10
94.918416
 20
176.226465
 30
0.0
 10
95.876774
 20
175.688339
 30
0.0
  0
SPLINE
  5
105
100
AcDbEntity
  8
0
 62
7
100
AcDbSpline
 70
8
 71
3
 72
8
 73
4
 74
0
 40
0
 40
0
 40
0
 40
0
 40
1
 40
1
 40
1
 40
1
 10
95.876774
 20
175.688339
 30
0.0
 10
96.288714
 20
175.457035
 30
0.0
 10
97.718031
 20
175.083690
 30
0.0
 10
99.599721
 20
174.715742
 30
0.0
  0
SPLINE
  5
106
100
AcDbEntity
  8
0
 62
7
100
AcDbSpline
 70
8
 71
3
 72
8
 73
4
 74
0
 40
0
 40
0
 40
0
 40
0
 40
1
 40
1
 40
1
 40
1
 10
99.599721
 20
174.715742
 30
0.0
 10
101.168372
 20
174.409015
 30
0.0
 10
102.642257
 20
174.013646
 30
0.0
 10
103.139981
 20
173.766091
 30
0.0
  0
SPLINE
  5
107
100
AcDbEntity
  8
0
 62
7
100
AcDbSpline
 70
8
 71
3
 72
8
 73
4
 74
0
 40
0
 40
0
 40
0
 40
0
 40
1
 40
1
 40
1
 40
1
 10
103.139981
 20
173.766091
 30
0.0
 10
103.342567
 20
173.665319
 30
0.0
 10
103.676545
 20
173.435068
 30
0.0
 10
103.882023
 20
173.254604
 30
0.0
  0
SPLINE
  5
108
100
AcDbEntity
  8
0
 62
7
100
AcDbSpline
 70
8
 71
3
 72
8
 73
4
 74
0
 40
0
 40
0
 40
0
 40
0
 40
1
 40
1
 40
1
 40
1
 10
103.882023
 20
173.254604
 30
0.0
 10
105.591118
 20
171.753623
 30
0.0
 10
105.701402
 20
169.265777
 30
0.0
 10
104.169948
 20
166.761229
 30
0.0
  0
SPLINE
  5
109
100
AcDbEntity
  8
0
 62
7
100
AcDbSpline
 70
8
 71
3
 72
8
 73
4
 74
0
 40
0
 40
0
 40
0
 40
0
 40
1
 40
1
 40
1
 40
1
 10
104.169948
 20
166.761229
 30
0.0
 10
103.302009
 20
165.341789
 30
0.0
 10
102.057586
 20
164.120830
 30
0.0
 10
100.486983
 20
163.147825
 30
0.0
  0
SPLINE
  5
10a
100
AcDbEntity
  8
0
 62
7
100
AcDbSpline
 70
8
 71
3
 72
8
 73
4
 74
0
 40
0
 40
0
 40
0
 40
0
 40
1
 40
1
 40
1
 40
1
 10
100.486983
 20
163.147825
 30
0.0
 10
99.337641
 20
162.435799
 30
0.0
 10
98.687234
 20
162.132137
 30
0.0
 10
97.516119
 20
161.760728
 30
0.0
  0
SPLINE
  5
10b
100
AcDbEntity
  8
0
 62
7
100
AcDbSpline
 70
8
 71
3
 72
8
 73
4
 74
0
 40
0
 40
0
 40
0
 40
0
 40
1
 40
1
 40
1
 40
1
 10
97.516119
 20
161.760728
 30
0.0
 10
95.746131
 20
161.199391
 30
0.0
 10
91.537867
 20
160.404418
 30
0.0
 10
89.052270
 20
160.161901
 30
0.0
  0
SPLINE
  5
10c
100
AcDbEntity
  8
0
 62
7
100
AcDbSpline
 70
8
 71
3
 72
8
 73
4
 74
0
 40
0
 40
0
 40
0
 40
0
 40
1
 40
1
 40
1
 40
1
 10
89.052270
 20
160.161901
 30
0.0
 10
87.924820
 20
160.051898
 30
0.0
 10
87.795820
 20
160.017994
 30
0.0
 10
87.328846
 20
159.708321
 30
0.0
  0
SPLINE
  5
10d
100
AcDbEntity
  8
0
 62
7
100
AcDbSpline
 70
8
 71
3
 72
8
 73
4
 74
0
 40
0
 40
0
 40
0
 40
0
 40
1
 40
1
 40
1
 40
1
 10
87.328846
 20
159.708321
 30
0.0
 10
86.768784
 20
159.336923
 30
0.0
 10
82.899173
 20
155.271478
 30
0.0
 10
82.899173
 20
155.271478
 30
0.0
  0
SPLINE
  5
10e
100
AcDbEntity
  8
0
 62
7
100
AcDbSpline
 70
8
 71
3
 72
8
 73
4
 74
0
 40
0
 40
0
 40
0
 40
0
 40
1
 40
1
 40
1
 40
1
 10
82.899173
 20
155.271478
 30
0.0
 10
80.278745
 20
152.254421
 30
0.0
 10
77.658315
 20
149.237364
 30
0.0
 10
75.037887
 20
146.220307
 30
0.0
  0
SPLINE
  5
10f
100
AcDbEntity
  8
0
 62
7
100
AcDbSpline
 70
8
 71
3
 72
8
 73
4
 74
0
 40
0
 40
0
 40
0
 40
0
 40
1
 40
1
 40
1
 40
1
 10
55.332950
 20
123.531958
 30
0.0
 10
55.332950
 20
123.531958
 30
0.0
 10
50.723689
 20
117.805007
 30
0.0
 10
50.658562
 20
117.503998
 30
0.0
  0
SPLINE
  5
110
100
AcDbEntity
  8
0
 62
7
100
AcDbSpline
 70
8
 71
3
 72
8
 73
4
 74
0
 40
0
 40
0
 40
0
 40
0
 40
1
 40
1
 40
1
 40
1
 10
50.658562
 20
117.503998
 30
0.0
 10
50.614392
 20
117.299859
 30
0.0
 10
50.782067
 20
116.783414
 30
0.0
 10
51.260407
 20
115.649698
 30
0.0
  0
SPLINE
  5
111
100
AcDbEntity
  8
0
 62
7
100
AcDbSpline
 70
8
 71
3
 72
8
 73
4
 74
0
 40
0
 40
0
 40
0
 40
0
 40
1
 40
1
 40
1
 40
1
 10
51.260407
 20
115.649698
 30
0.0
 10
51.628440
 20
114.777430
 30
0.0
 10
52.029289
 20
113.197685
 30
0.0
 10
52.127946
 20
112.230633
 30
0.0
  0
SPLINE
  5
112
100
AcDbEntity
  8
0
 62
7
100
AcDbSpline
 70
8
 71
3
 72
8
 73
4
 74
0
 40
0
 40
0
 40
0
 40
0
 40
1
 40
1
 40
1
 40
1
 10
52.127946
 20
112.230633
 30
0.0
 10
52.222191
 20
111.306851
 30
0.0
 10
52.123422
 20
109.343328
 30
0.0
 10
51.930916
 20
108.312090
 30
0.0
  0
SPLINE
  5
113
100
AcDbEntity
  8
0
 62
7
100
AcDbSpline
 70
8
 71
3
 72
8
 73
4
 74
0
 40
0
 40
0
 40
0
 40
0
 40
1
 40
1
 40
1
 40
1
 10
51.930916
 20
108.312090
 30
0.0
 10
51.463596
 20
105.808738
 30
0.0
 10
50.574652
 20
103.769263
 30
0.0
 10
49.358955
 20
102.411062
 30
0.0
  0
SPLINE
  5
114
100
AcDbEntity
  8
0
 62
7
100
AcDbSpline
 70
8
 71
3
 72
8
 73
4
 74
0
 40
0
 40
0
 40
0
 40
0
 40
1
 40
1
 40
1
 40
1
 10
49.358955
 20
102.411062
 30
0.0
 10
48.983559
 20
101.991668
 30
0.0
 10
48.122358
 20
101.345550
 30
0.0
 10
47.617959
 20
101.105002
 30
0.0
  0
SPLINE
  5
115
100
AcDbEntity
  8
0
 62
7
100
AcDbSpline
 70
8
 71
3
 72
8
 73
4
 74
0
 40
0
 40
0
 40
0
 40
0
 40
1
 40
1
 40
1
 40
1
 10
47.617959
 20
101.105002
 30
0.0
 10
45.746988
 20
100.212731
 30
0.0
 10
43.402321
 20
100.524146
 30
0.0
 10
41.710655
 20
101.889713
 30
0.0
  0
SPLINE
  5
116
100
AcDbEntity
  8
0
 62
7
100
AcDbSpline
 70
8
 71
3
 72
8
 73
4
 74
0
 40
0
 40
0
 40
0
 40
0
 40
1
 40
1
 40
1
 40
1
 10
41.710655
 20
101.889713
 30
0.0
 10
40.405196
 20
102.943522
 30
0.0
 10
38.593009
 20
105.357917
 30
0.0
 10
37.913487
 20
106.948661
 30
0.0
  0
SPLINE
  5
117
100
AcDbEntity
  8
0
 62
7
100
AcDbSpline
 70
8
 71
3
 72
8
 73
4
 74
0
 40
0
 40
0
 40
0
 40
0
 40
1
 40
1
 40
1
 40
1
 10
37.913487
 20
106.948661
 30
0.0
 10
37.601782
 20
107.678358
 30
0.0
 10
37.578721
 20
108.041728
 30
0.0
 10
37.832094
 20
108.230876
 30
0.0
  0
SPLINE
  5
118
100
AcDbEntity
  8
0
 62
7
100
AcDbSpline
 70
8
 71
3
 72
8
 73
4
 74
0
 40
0
 40
0
 40
0
 40
0
 40
1
 40
1
 40
1
 40
1
 10
37.832094
 20
108.230876
 30
0.0
 10
38.171813
 20
108.484485
 30
0.0
 10
38.652474
 20
108.230347
 30
0.0
 10
39.424107
 20
107.389155
 30
0.0
  0
SPLINE
  5
119
100
AcDbEntity
  8
0
 62
7
100
AcDbSpline
 70
8
 71
3
 72
8
 73
4
 74
0
 40
0
 40
0
 40
0
 40
0
 40
1
 40
1
 40
1
 40
1
 10
39.424107
 20
107.389155
 30
0.0
 10
40.204080
 20
106.538853
 30
0.0
 10
40.495776
 20
106.589962
 30
0.0
 10
39.985434
 20
107.487580
 30
0.0
  0
SPLINE
  5
11a
100
AcDbEntity
  8
0
 62
7
100
AcDbSpline
 70
8
 71
3
 72
8
 73
4
 74
0
 40
0
 40
0
 40
0
 40
0
 40
1
 40
1
 40
1
 40
1
 10
39.985434
 20
107.487580
 30
0.0
 10
39.688370
 20
108.010076
 30
0.0
 10
39.026108
 20
108.657435
 30
0.0
 10
38.532006
 20
108.908379
 30
0.0
  0
SPLINE
  5
11b
100
AcDbEntity
  8
0
 62
7
100
AcDbSpline
 70
8
 71
3
 72
8
 73
4
 74
0
 40
0
 40
0
 40
0
 40
0
 40
1
 40
1
 40
1
 40
1
 10
38.532006
 20
108.908379
 30
0.0
 10
38.323782
 20
109.014130
 30
0.0
 10
37.408739
 20
109.266405
 30
0.0
 10
36.498599
 20
109.468991
 30
0.0
  0
SPLINE
  5
11c
100
AcDbEntity
  8
0
 62
7
100
AcDbSpline
 70
8
 71
3
 72
8
 73
4
 74
0
 40
0
 40
0
 40
0
 40
0
 40
1
 40
1
 40
1
 40
1
 10
36.498599
 20
109.468991
 30
0.0
 10
33.918197
 20
110.043360
 30
0.0
 10
31.994004
 20
110.798578
 30
0.0
 10
30.924220
 20
111.656574
 30
0.0
  0
SPLINE
  5
11d
100
AcDbEntity
  8
0
 62
7
100
AcDbSpline
 70
8
 71
3
 72
8
 73
4
 74
0
 40
0
 40
0
 40
0
 40
0
 40
1
 40
1
 40
1
 40
1
 10
30.924220
 20
111.656574
 30
0.0
 10
30.379974
 20
112.093076
 30
0.0
 10
29.684213
 20
112.992964
 30
0.0
 10
29.428482
 20
113.591374
 30
0.0
  0
SPLINE
  5
11e
100
AcDbEntity
  8
0
 62
7
100
AcDbSpline
 70
8
 71
3
 72
8
 73
4
 74
0
 40
0
 40
0
 40
0
 40
0
 40
1
 40
1
 40
1
 40
1
 10
29.428482
 20
113.591374
 30
0.0
 10
28.847785
 20
114.950203
 30
0.0
 10
29.050607
 20
117.357176
 30
0.0
 10
29.857499
 20
118.683130
 30
0.0
  0
SPLINE
  5
11f
100
AcDbEntity
  8
0
 62
7
100
AcDbSpline
 70
8
 71
3
 72
8
 73
4
 74
0
 40
0
 40
0
 40
0
 40
0
 40
1
 40
1
 40
1
 40
1
 10
29.857499
 20
118.683130
 30
0.0
 10
30.108996
 20
119.096412
 30
0.0
 10
30.275072
 20
119.248960
 30
0.0
 10
31.352344
 20
120.056421
 30
0.0
  0
SPLINE
  5
120
100
AcDbEntity
  8
0
 62
7
100
AcDbSpline
 70
8
 71
3
 72
8
 73
4
 74
0
 40
0
 40
0
 40
0
 40
0
 40
1
 40
1
 40
1
 40
1
 10
31.352344
 20
120.056421
 30
0.0
 10
32.284948
 20
120.755450
 30
0.0
 10
32.723463
 20
121.034347
 30
0.0
 10
33.255051
 20
121.266207
 30
0.0
  0
SPLINE
  5
121
100
AcDbEntity
  8
0
 62
7
100
AcDbSpline
 70
8
 71
3
 72
8
 73
4
 74
0
 40
0
 40
0
 40
0
 40
0
 40
1
 40
1
 40
1
 40
1
 10
33.255051
 20
121.266207
 30
0.0
 10
34.637054
 20
121.868986
 30
0.0
 10
36.104423
 20
122.260199
 30
0.0
 10
38.921047
 20
122.776829
 30
0.0
  0
SPLINE
  5
122
100
AcDbEntity
  8
0
 62
7
100
AcDbSpline
 70
8
 71
3
 72
8
 73
4
 74
0
 40
0
 40
0
 40
0
 40
0
 40
1
 40
1
 40
1
 40
1
 10
38.921047
 20
122.776829
 30
0.0
 10
40.489423
 20
123.064503
 30
0.0
 10
42.048340
 20
123.379510
 30
0.0
 10
42.385469
 20
123.476919
 30
0.0
  0
SPLINE
  5
123
100
AcDbEntity
  8
0
 62
7
100
AcDbSpline
 70
8
 71
3
 72
8
 73
4
 74
0
 40
0
 40
0
 40
0
 40
0
 40
1
 40
1
 40
1
 40
1
 10
42.385469
 20
123.476919
 30
0.0
 10
42.967407
 20
123.645060
 30
0.0
 10
43.029664
 20
123.683609
 30
0.0
 10
43.614618
 20
124.239044
 30
0.0
  0
SPLINE
  5
124
100
AcDbEntity
  8
0
 62
7
100
AcDbSpline
 70
8
 71
3
 72
8
 73
4
 74
0
 40
0
 40
0
 40
0
 40
0
 40
1
 40
1
 40
1
 40
1
 10
43.614618
 20
124.239044
 30
0.0
 10
45.518147
 20
126.046510
 30
0.0
 10
52.008323
 20
132.624478
 30
0.0
 10
53.473810
 20
134.231618
 30
0.0
  0
SPLINE
  5
125
100
AcDbEntity
  8
0
 62
7
100
AcDbSpline
 70
8
 71
3
 72
8
 73
4
 74
0
 40
0
 40
0
 40
0
 40
0
 40
1
 40
1
 40
1
 40
1
 10
53.473810
 20
134.231618
 30
0.0
 10
53.820224
 20
134.611515
 30
0.0
 10
54.468138
 20
135.297140
 30
0.0
 10
54.913615
 20
135.755327
 30
0.0
  0
SPLINE
  5
126
100
AcDbEntity
  8
0
 62
7
100
AcDbSpline
 70
8
 71
3
 72
8
 73
4
 74
0
 40
0
 40
0
 40
0
 40
0
 40
1
 40
1
 40
1
 40
1
 10
54.913615
 20
135.755327
 30
0.0
 10
55.359088
 20
136.213511
 30
0.0
 10
56.211610
 20
137.108565
 30
0.0
 10
56.808074
 20
137.744269
 30
0.0
  0
SPLINE
  5
127
100
AcDbEntity
  8
0
 62
7
100
AcDbSpline
 70
8
 71
3
 72
8
 73
4
 74
0
 40
0
 40
0
 40
0
 40
0
 40
1
 40
1
 40
1
 40
1
 10
56.808074
 20
137.744269
 30
0.0
 10
57.404537
 20
138.379970
 30
0.0
 10
58.744890
 20
139.795261
 30
0.0
 10
59.786647
 20
140.889392
 30
0.0
  0
SPLINE
  5
128
100
AcDbEntity
  8
0
 62
7
100
AcDbSpline
 70
8
 71
3
 72
8
 73
4
 74
0
 40
0
 40
0
 40
0
 40
0
 40
1
 40
1
 40
1
 40
1
 10
59.786647
 20
140.889392
 30
0.0
 10
60.828402
 20
141.983523
 30
0.0
 10
62.660157
 20
143.945054
 30
0.0
 10
62.660157
 20
143.945054
 30
0.0
  0
LWPOLYLINE
  5
129
100
AcDbEntity
  8
0
 62
7
100
AcDbPolyline
 90
2
 70
0
 10
75.037887
 20
146.220307
 30
0.0
 10
55.332950
 20
123.531958
 30
0.0
  0
SPLINE
  5
12a
100
AcDbEntity
  8
0
 62
7
100
AcDbSpline
 70
8
 71
3
 72
8
 73
4
 74
0
 40
0
 40
0
 40
0
 40
0
 40
1
 40
1
 40
1
 40
1
 10
80.589141
 20
164.291817
 30
0.0
 10
80.589141
 20
164.291817
 30
0.0
 10
81.821697
 20
166.104144
 30
0.0
 10
81.923528
 20
167.187380
 30
0.0
  0
SPLINE
  5
12b
100
AcDbEntity
  8
0
 62
7
100
AcDbSpline
 70
8
 71
3
 72
8
 73
4
 74
0
 40
0
 40
0
 40
0
 40
0
 40
1
 40
1
 40
1
 40
1
 10
81.923528
 20
167.187380
 30
0.0
 10
82.038425
 20
168.409639
 30
0.0
 10
81.938450
 20
169.076394
 30
0.0
 10
81.334229
 20
171.118832
 30
0.0
  0
SPLINE
  5
12c
100
AcDbEntity
  8
0
 62
7
100
AcDbSpline
 70
8
 71
3
 72
8
 73
4
 74
0
 40
0
 40
0
 40
0
 40
0
 40
1
 40
1
 40
1
 40
1
 10
81.334229
 20
171.118832
 30
0.0
 10
80.050026
 20
175.459760
 30
0.0
 10
80.121543
 20
178.848234
 30
0.0
 10
81.542017
 20
180.972643
 30
0.0
  0
SPLINE
  5
12d
100
AcDbEntity
  8
0
 62
7
100
AcDbSpline
 70
8
 71
3
 72
8
 73
4
 74
0
 40
0
 40
0
 40
0
 40
0
 40
1
 40
1
 40
1
 40
1
 10
81.542017
 20
180.972643
 30
0.0
 10
82.662855
 20
182.648929
 30
0.0
 10
84.223339
 20
183.598286
 30
0.0
 10
86.414332
 20
183.936693
 30
0.0
  0
SPLINE
  5
12e
100
AcDbEntity
  8
0
 62
7
100
AcDbSpline
 70
8
 71
3
 72
8
 73
4
 74
0
 40
0
 40
0
 40
0
 40
0
 40
1
 40
1
 40
1
 40
1
 10
86.414332
 20
183.936693
 30
0.0
 10
87.193348
 20
184.057012
 30
0.0
 10
87.193490
 20
184.116263
 30
0.0
 10
88.116561
 20
184.110416
 30
0.0
  0
SPLINE
  5
12f
100
AcDbEntity
  8
0
 62
7
100
AcDbSpline
 70
8
 71
3
 72
8
 73
4
 74
0
 40
0
 40
0
 40
0
 40
0
 40
1
 40
1
 40
1
 40
1
 10
88.116561
 20
184.110416
 30
0.0
 10
89.068862
 20
184.081182
 30
0.0
 10
90.752819
 20
183.774601
 30
0.0
 10
91.516478
 20
183.107161
 30
0.0
  0
LWPOLYLINE
  5
130
100
AcDbEntity
  8
0
 62
7
100
AcDbPolyline
 90
2
 70
0
 10
62.660157
 20
143.945054
 30
0.0
 10
80.589141
 20
164.291817
 30
0.0
  0
SPLINE
  5
131
100
AcDbEntity
  8
0
 62
7
100
AcDbSpline
 70
8
 71
3
 72
8
 73
4
 74
0
 40
0
 40
0
 40
0
 40
0
 40
1
 40
1
 40
1
 40
1
 10
23.161173
 20
175.900786
 30
0.0
 10
22.882294
 20
175.900786
 30
0.0
 10
22.638332
 20
175.796207
 30
0.0
 10
22.429168
 20
175.587046
 30
0.0
  0
SPLINE
  5
132
100
AcDbEntity
  8
0
 62
7
100
AcDbSpline
 70
8
 71
3
 72
8
 73
4
 74
0
 40
0
 40
0
 40
0
 40
0
 40
1
 40
1
 40
1
 40
1
 10
22.429168
 20
175.587046
 30
0.0
 10
22.220010
 20
175.377885
 30
0.0
 10
22.115429
 20
175.133743
 30
0.0
 10
22.115429
 20
174.854862
 30
0.0
  0
SPLINE
  5
133
100
AcDbEntity
  8
0
 62
7
100
AcDbSpline
 70
8
 71
3
 72
8
 73
4
 74
0
 40
0
 40
0
 40
0
 40
0
 40
1
 40
1
 40
1
 40
1
 10
22.115429
 20
174.854862
 30
0.0
 10
22.115429
 20
166.293247
 30
0.0
 10
22.115429
 20
157.731629
 30
0.0
 10
22.115429
 20
149.170014
 30
0.0
  0
SPLINE
  5
134
100
AcDbEntity
  8
0
 62
7
100
AcDbSpline
 70
8
 71
3
 72
8
 73
4
 74
0
 40
0
 40
0
 40
0
 40
0
 40
1
 40
1
 40
1
 40
1
 10
22.115429
 20
149.170014
 30
0.0
 10
23.398244
 20
149.170014
 30
0.0
 10
24.681058
 20
149.170014
 30
0.0
 10
25.963872
 20
149.170014
 30
0.0
  0
SPLINE
  5
135
100
AcDbEntity
  8
0
 62
7
100
AcDbSpline
 70
8
 71
3
 72
8
 73
4
 74
0
 40
0
 40
0
 40
0
 40
0
 40
1
 40
1
 40
1
 40
1
 10
25.963872
 20
149.170014
 30
0.0
 10
25.963872
 20
153.144072
 30
0.0
 10
25.963872
 20
157.118132
 30
0.0
 10
25.963872
 20
161.092190
 30
0.0
  0
SPLINE
  5
136
100
AcDbEntity
  8
0
 62
7
100
AcDbSpline
 70
8
 71
3
 72
8
 73
4
 74
0
 40
0
 40
0
 40
0
 40
0
 40
1
 40
1
 40
1
 40
1
 10
25.963872
 20
161.092190
 30
0.0
 10
28.710871
 20
161.092190
 30
0.0
 10
31.457874
 20
161.092190
 30
0.0
 10
34.204873
 20
161.092190
 30
0.0
  0
SPLINE
  5
137
100
AcDbEntity
  8
0
 62
7
100
AcDbSpline
 70
8
 71
3
 72
8
 73
4
 74
0
 40
0
 40
0
 40
0
 40
0
 40
1
 40
1
 40
1
 40
1
 10
34.204873
 20
161.092190
 30
0.0
 10
34.204873
 20
157.118132
 30
0.0
 10
34.204873
 20
153.144072
 30
0.0
 10
34.204873
 20
149.170014
 30
0.0
  0
SPLINE
  5
138
100
AcDbEntity
  8
0
 62
7
100
AcDbSpline
 70
8
 71
3
 72
8
 73
4
 74
0
 40
0
 40
0
 40
0
 40
0
 40
1
 40
1
 40
1
 40
1
 10
34.204873
 20
149.170014
 30
0.0
 10
35.487748
 20
149.170014
 30
0.0
 10
38.053499
 20
149.170014
 30
0.0
 10
38.053499
 20
149.170014
 30
0.0
  0
SPLINE
  5
139
100
AcDbEntity
  8
0
 62
7
100
AcDbSpline
 70
8
 71
3
 72
8
 73
4
 74
0
 40
0
 40
0
 40
0
 40
0
 40
1
 40
1
 40
1
 40
1
 10
38.053499
 20
149.170014
 30
0.0
 10
38.053499
 20
157.731629
 30
0.0
 10
38.053499
 20
166.293247
 30
0.0
 10
38.053499
 20
174.854862
 30
0.0
  0
SPLINE
  5
13a
100
AcDbEntity
  8
0
 62
7
100
AcDbSpline
 70
8
 71
3
 72
8
 73
4
 74
0
 40
0
 40
0
 40
0
 40
0
 40
1
 40
1
 40
1
 40
1
 10
38.053499
 20
174.854862
 30
0.0
 10
38.053499
 20
175.133743
 30
0.0
 10
37.948920
 20
175.377885
 30
0.0
 10
37.739757
 20
175.587046
 30
0.0
  0
SPLINE
  5
13b
100
AcDbEntity
  8
0
 62
7
100
AcDbSpline
 70
8
 71
3
 72
8
 73
4
 74
0
 40
0
 40
0
 40
0
 40
0
 40
1
 40
1
 40
1
 40
1
 10
37.739757
 20
175.587046
 30
0.0
 10
37.530595
 20
175.796207
 30
0.0
 10
37.286454
 20
175.900786
 30
0.0
 10
37.007575
 20
175.900786
 30
0.0
  0
SPLINE
  5
13c
100
AcDbEntity
  8
0
 62
7
100
AcDbSpline
 70
8
 71
3
 72
8
 73
4
 74
0
 40
0
 40
0
 40
0
 40
0
 40
1
 40
1
 40
1
 40
1
 10
37.007575
 20
175.900786
 30
0.0
 10
36.073342
 20
175.900786
 30
0.0
 10
35.139106
 20
175.900786
 30
0.0
 10
34.204873
 20
175.900786
 30
0.0
  0
SPLINE
  5
13d
100
AcDbEntity
  8
0
 62
7
100
AcDbSpline
 70
8
 71
3
 72
8
 73
4
 74
0
 40
0
 40
0
 40
0
 40
0
 40
1
 40
1
 40
1
 40
1
 10
34.204873
 20
175.900786
 30
0.0
 10
34.204873
 20
172.073141
 30
0.0
 10
34.204873
 20
168.245496
 30
0.0
 10
34.204873
 20
164.417851
 30
0.0
  0
SPLINE
  5
13e
100
AcDbEntity
  8
0
 62
7
100
AcDbSpline
 70
8
 71
3
 72
8
 73
4
 74
0
 40
0
 40
0
 40
0
 40
0
 40
1
 40
1
 40
1
 40
1
 10
34.204873
 20
164.417851
 30
0.0
 10
31.457874
 20
164.417851
 30
0.0
 10
28.710871
 20
164.417851
 30
0.0
 10
25.963872
 20
164.417851
 30
0.0
  0
SPLINE
  5
13f
100
AcDbEntity
  8
0
 62
7
100
AcDbSpline
 70
8
 71
3
 72
8
 73
4
 74
0
 40
0
 40
0
 40
0
 40
0
 40
1
 40
1
 40
1
 40
1
 10
25.963872
 20
164.417851
 30
0.0
 10
25.963872
 20
168.245496
 30
0.0
 10
25.963872
 20
175.900786
 30
0.0
 10
25.963872
 20
175.900786
 30
0.0
  0
SPLINE
  5
140
100
AcDbEntity
  8
0
 62
7
100
AcDbSpline
 70
8
 71
3
 72
8
 73
4
 74
0
 40
0
 40
0
 40
0
 40
0
 40
1
 40
1
 40
1
 40
1
 10
25.963872
 20
175.900786
 30
0.0
 10
25.029639
 20
175.900786
 30
0.0
 10
24.095406
 20
175.900786
 30
0.0
 10
23.161173
 20
175.900786
 30
0.0
  0
LWPOLYLINE
  5
141
100
AcDbEntity
  8
0
 62
7
100
AcDbPolyline
 90
1
 70
1
 10
91.516478
 20
183.107161
 30
0.0
  0
SPLINE
  5
142
100
AcDbEntity
  8
0
 62
7
100
AcDbSpline
 70
8
 71
3
 72
8
 73
4
 74
0
 40
0
 40
0
 40
0
 40
0
 40
1
 40
1
 40
1
 40
1
 10
54.681795
 20
172.972415
 30
0.0
 10
54.681795
 20
172.972415
 30
0.0
 10
54.681795
 20
159.460615
 30
0.0
 10
54.681795
 20
152.704715
 30
0.0
  0
SPLINE
  5
143
100
AcDbEntity
  8
0
 62
7
100
AcDbSpline
 70
8
 71
3
 72
8
 73
4
 74
0
 40
0
 40
0
 40
0
 40
0
 40
1
 40
1
 40
1
 40
1
 10
54.681795
 20
152.704715
 30
0.0
 10
54.681795
 20
150.348169
 30
0.0
 10
56.034310
 20
149.170014
 30
0.0
 10
58.739458
 20
149.170014
 30
0.0
  0
SPLINE
  5
144
100
AcDbEntity
  8
0
 62
7
100
AcDbSpline
 70
8
 71
3
 72
8
 73
4
 74
0
 40
0
 40
0
 40
0
 40
0
 40
1
 40
1
 40
1
 40
1
 10
58.739458
 20
149.170014
 30
0.0
 10
59.590027
 20
149.170014
 30
0.0
 10
60.440594
 20
149.170014
 30
0.0
 10
61.291163
 20
149.170014
 30
0.0
  0
SPLINE
  5
145
100
AcDbEntity
  8
0
 62
7
100
AcDbSpline
 70
8
 71
3
 72
8
 73
4
 74
0
 40
0
 40
0
 40
0
 40
0
 40
1
 40
1
 40
1
 40
1
 10
61.291163
 20
149.170014
 30
0.0
 10
61.291163
 20
150.180918
 30
0.0
 10
61.291163
 20
151.191825
 30
0.0
 10
61.291163
 20
152.202729
 30
0.0
  0
SPLINE
  5
146
100
AcDbEntity
  8
0
 62
7
100
AcDbSpline
 70
8
 71
3
 72
8
 73
4
 74
0
 40
0
 40
0
 40
0
 40
0
 40
1
 40
1
 40
1
 40
1
 10
61.291163
 20
152.202729
 30
0.0
 10
60.886787
 20
152.202729
 30
0.0
 10
60.510296
 20
152.195877
 30
0.0
 10
60.161694
 20
152.181933
 30
0.0
  0
SPLINE
  5
147
100
AcDbEntity
  8
0
 62
7
100
AcDbSpline
 70
8
 71
3
 72
8
 73
4
 74
0
 40
0
 40
0
 40
0
 40
0
 40
1
 40
1
 40
1
 40
1
 10
60.161694
 20
152.181933
 30
0.0
 10
59.827038
 20
152.167990
 30
0.0
 10
59.534211
 20
152.202782
 30
0.0
 10
59.283219
 20
152.286454
 30
0.0
  0
SPLINE
  5
148
100
AcDbEntity
  8
0
 62
7
100
AcDbSpline
 70
8
 71
3
 72
8
 73
4
 74
0
 40
0
 40
0
 40
0
 40
0
 40
1
 40
1
 40
1
 40
1
 10
59.283219
 20
152.286454
 30
0.0
 10
58.739400
 20
152.467725
 30
0.0
 10
58.467490
 20
152.976744
 30
0.0
 10
58.467490
 20
153.813388
 30
0.0
  0
SPLINE
  5
149
100
AcDbEntity
  8
0
 62
7
100
AcDbSpline
 70
8
 71
3
 72
8
 73
4
 74
0
 40
0
 40
0
 40
0
 40
0
 40
1
 40
1
 40
1
 40
1
 10
58.467490
 20
153.813388
 30
0.0
 10
58.467490
 20
160.199731
 30
0.0
 10
58.467490
 20
166.586072
 30
0.0
 10
58.467490
 20
172.972415
 30
0.0
  0
SPLINE
  5
14a
100
AcDbEntity
  8
0
 62
7
100
AcDbSpline
 70
8
 71
3
 72
8
 73
4
 74
0
 40
0
 40
0
 40
0
 40
0
 40
1
 40
1
 40
1
 40
1
 10
58.467490
 20
172.972415
 30
0.0
 10
57.205592
 20
172.972415
 30
0.0
 10
55.943693
 20
172.972415
 30
0.0
 10
54.681795
 20
172.972415
 30
0.0
  0
LWPOLYLINE
  5
14b
100
AcDbEntity
  8
0
 62
7
100
AcDbPolyline
 90
1
 70
1
 10
23.161173
 20
175.900786
 30
0.0
  0
SPLINE
  5
14c
100
AcDbEntity
  8
0
 62
7
100
AcDbSpline
 70
8
 71
3
 72
8
 73
4
 74
0
 40
0
 40
0
 40
0
 40
0
 40
1
 40
1
 40
1
 40
1
 10
45.290348
 20
166.530316
 30
0.0
 10
45.952730
 20
166.530316
 30
0.0
 10
46.615115
 20
166.530316
 30
0.0
 10
47.277496
 20
166.530316
 30
0.0
  0
SPLINE
  5
14d
100
AcDbEntity
  8
0
 62
7
100
AcDbSpline
 70
8
 71
3
 72
8
 73
4
 74
0
 40
0
 40
0
 40
0
 40
0
 40
1
 40
1
 40
1
 40
1
 10
47.277496
 20
166.530316
 30
0.0
 10
47.849205
 20
166.530316
 30
0.0
 10
48.281410
 20
166.342071
 30
0.0
 10
48.574235
 20
165.965582
 30
0.0
  0
SPLINE
  5
14e
100
AcDbEntity
  8
0
 62
7
100
AcDbSpline
 70
8
 71
3
 72
8
 73
4
 74
0
 40
0
 40
0
 40
0
 40
0
 40
1
 40
1
 40
1
 40
1
 10
48.574235
 20
165.965582
 30
0.0
 10
48.881004
 20
165.603034
 30
0.0
 10
49.034451
 20
165.156766
 30
0.0
 10
49.034451
 20
164.626891
 30
0.0
  0
SPLINE
  5
14f
100
AcDbEntity
  8
0
 62
7
100
AcDbSpline
 70
8
 71
3
 72
8
 73
4
 74
0
 40
0
 40
0
 40
0
 40
0
 40
1
 40
1
 40
1
 40
1
 10
49.034451
 20
164.626891
 30
0.0
 10
49.034451
 20
161.168802
 30
0.0
 10
49.034451
 20
157.710714
 30
0.0
 10
49.034451
 20
154.252626
 30
0.0
  0
SPLINE
  5
150
100
AcDbEntity
  8
0
 62
7
100
AcDbSpline
 70
8
 71
3
 72
8
 73
4
 74
0
 40
0
 40
0
 40
0
 40
0
 40
1
 40
1
 40
1
 40
1
 10
49.034451
 20
154.252626
 30
0.0
 10
49.034451
 20
153.722753
 30
0.0
 10
48.881004
 20
153.269450
 30
0.0
 10
48.574235
 20
152.892961
 30
0.0
  0
SPLINE
  5
151
100
AcDbEntity
  8
0
 62
7
100
AcDbSpline
 70
8
 71
3
 72
8
 73
4
 74
0
 40
0
 40
0
 40
0
 40
0
 40
1
 40
1
 40
1
 40
1
 10
48.574235
 20
152.892961
 30
0.0
 10
48.281410
 20
152.530416
 30
0.0
 10
47.849205
 20
152.349203
 30
0.0
 10
47.277496
 20
152.349203
 30
0.0
  0
SPLINE
  5
152
100
AcDbEntity
  8
0
 62
7
100
AcDbSpline
 70
8
 71
3
 72
8
 73
4
 74
0
 40
0
 40
0
 40
0
 40
0
 40
1
 40
1
 40
1
 40
1
 10
47.277496
 20
152.349203
 30
0.0
 10
46.615115
 20
152.349203
 30
0.0
 10
45.952730
 20
152.349203
 30
0.0
 10
45.290348
 20
152.349203
 30
0.0
  0
SPLINE
  5
153
100
AcDbEntity
  8
0
 62
7
100
AcDbSpline
 70
8
 71
3
 72
8
 73
4
 74
0
 40
0
 40
0
 40
0
 40
0
 40
1
 40
1
 40
1
 40
1
 10
45.290348
 20
152.349203
 30
0.0
 10
44.704696
 20
152.349203
 30
0.0
 10
44.279524
 20
152.530416
 30
0.0
 10
44.014588
 20
152.892961
 30
0.0
  0
SPLINE
  5
154
100
AcDbEntity
  8
0
 62
7
100
AcDbSpline
 70
8
 71
3
 72
8
 73
4
 74
0
 40
0
 40
0
 40
0
 40
0
 40
1
 40
1
 40
1
 40
1
 10
44.014588
 20
152.892961
 30
0.0
 10
43.749648
 20
153.269450
 30
0.0
 10
43.617121
 20
153.722753
 30
0.0
 10
43.617121
 20
154.252626
 30
0.0
  0
SPLINE
  5
155
100
AcDbEntity
  8
0
 62
7
100
AcDbSpline
 70
8
 71
3
 72
8
 73
4
 74
0
 40
0
 40
0
 40
0
 40
0
 40
1
 40
1
 40
1
 40
1
 10
43.617121
 20
154.252626
 30
0.0
 10
43.617121
 20
157.710714
 30
0.0
 10
43.617121
 20
161.168802
 30
0.0
 10
43.617121
 20
164.626891
 30
0.0
  0
SPLINE
  5
156
100
AcDbEntity
  8
0
 62
7
100
AcDbSpline
 70
8
 71
3
 72
8
 73
4
 74
0
 40
0
 40
0
 40
0
 40
0
 40
1
 40
1
 40
1
 40
1
 10
43.617121
 20
164.626891
 30
0.0
 10
43.617121
 20
165.156766
 30
0.0
 10
43.749648
 20
165.603034
 30
0.0
 10
44.014588
 20
165.965582
 30
0.0
  0
SPLINE
  5
157
100
AcDbEntity
  8
0
 62
7
100
AcDbSpline
 70
8
 71
3
 72
8
 73
4
 74
0
 40
0
 40
0
 40
0
 40
0
 40
1
 40
1
 40
1
 40
1
 10
44.014588
 20
165.965582
 30
0.0
 10
44.279524
 20
166.342071
 30
0.0
 10
44.704696
 20
166.530316
 30
0.0
 10
45.290348
 20
166.530316
 30
0.0
  0
LWPOLYLINE
  5
158
100
AcDbEntity
  8
0
 62
7
100
AcDbPolyline
 90
1
 70
1
 10
54.681795
 20
172.972415
 30
0.0
  0
SPLINE
  5
159
100
AcDbEntity
  8
0
 62
7
100
AcDbSpline
 70
8
 71
3
 72
8
 73
4
 74
0
 40
0
 40
0
 40
0
 40
0
 40
1
 40
1
 40
1
 40
1
 10
45.039357
 20
169.625957
 30
0.0
 10
43.784390
 20
169.625957
 30
0.0
 10
42.654921
 20
169.228553
 30
0.0
 10
41.650946
 20
168.433742
 30
0.0
  0
SPLINE
  5
15a
100
AcDbEntity
  8
0
 62
7
100
AcDbSpline
 70
8
 71
3
 72
8
 73
4
 74
0
 40
0
 40
0
 40
0
 40
0
 40
1
 40
1
 40
1
 40
1
 10
41.650946
 20
168.433742
 30
0.0
 10
40.577254
 20
167.583154
 30
0.0
 10
40.040467
 20
166.544199
 30
0.0
 10
40.040467
 20
165.317122
 30
0.0
  0
SPLINE
  5
15b
100
AcDbEntity
  8
0
 62
7
100
AcDbSpline
 70
8
 71
3
 72
8
 73
4
 74
0
 40
0
 40
0
 40
0
 40
0
 40
1
 40
1
 40
1
 40
1
 10
40.040467
 20
165.317122
 30
0.0
 10
40.040467
 20
161.398881
 30
0.0
 10
40.040467
 20
157.480638
 30
0.0
 10
40.040467
 20
153.562397
 30
0.0
  0
SPLINE
  5
15c
100
AcDbEntity
  8
0
 62
7
100
AcDbSpline
 70
8
 71
3
 72
8
 73
4
 74
0
 40
0
 40
0
 40
0
 40
0
 40
1
 40
1
 40
1
 40
1
 10
40.040467
 20
153.562397
 30
0.0
 10
40.040467
 20
152.335317
 30
0.0
 10
40.577254
 20
151.296365
 30
0.0
 10
41.650946
 20
150.445777
 30
0.0
  0
SPLINE
  5
15d
100
AcDbEntity
  8
0
 62
7
100
AcDbSpline
 70
8
 71
3
 72
8
 73
4
 74
0
 40
0
 40
0
 40
0
 40
0
 40
1
 40
1
 40
1
 40
1
 10
41.650946
 20
150.445777
 30
0.0
 10
42.640978
 20
149.664909
 30
0.0
 10
43.770447
 20
149.274535
 30
0.0
 10
45.039357
 20
149.274535
 30
0.0
  0
SPLINE
  5
15e
100
AcDbEntity
  8
0
 62
7
100
AcDbSpline
 70
8
 71
3
 72
8
 73
4
 74
0
 40
0
 40
0
 40
0
 40
0
 40
1
 40
1
 40
1
 40
1
 10
45.039357
 20
149.274535
 30
0.0
 10
45.938750
 20
149.274535
 30
0.0
 10
46.838140
 20
149.274535
 30
0.0
 10
47.737533
 20
149.274535
 30
0.0
  0
SPLINE
  5
15f
100
AcDbEntity
  8
0
 62
7
100
AcDbSpline
 70
8
 71
3
 72
8
 73
4
 74
0
 40
0
 40
0
 40
0
 40
0
 40
1
 40
1
 40
1
 40
1
 10
47.737533
 20
149.274535
 30
0.0
 10
48.992496
 20
149.274535
 30
0.0
 10
50.101050
 20
149.671939
 30
0.0
 10
51.063192
 20
150.466753
 30
0.0
  0
SPLINE
  5
160
100
AcDbEntity
  8
0
 62
7
100
AcDbSpline
 70
8
 71
3
 72
8
 73
4
 74
0
 40
0
 40
0
 40
0
 40
0
 40
1
 40
1
 40
1
 40
1
 10
51.063192
 20
150.466753
 30
0.0
 10
52.095053
 20
151.331284
 30
0.0
 10
52.611102
 20
152.363207
 30
0.0
 10
52.611102
 20
153.562397
 30
0.0
  0
SPLINE
  5
161
100
AcDbEntity
  8
0
 62
7
100
AcDbSpline
 70
8
 71
3
 72
8
 73
4
 74
0
 40
0
 40
0
 40
0
 40
0
 40
1
 40
1
 40
1
 40
1
 10
52.611102
 20
153.562397
 30
0.0
 10
52.611102
 20
157.480638
 30
0.0
 10
52.611102
 20
161.398881
 30
0.0
 10
52.611102
 20
165.317122
 30
0.0
  0
SPLINE
  5
162
100
AcDbEntity
  8
0
 62
7
100
AcDbSpline
 70
8
 71
3
 72
8
 73
4
 74
0
 40
0
 40
0
 40
0
 40
0
 40
1
 40
1
 40
1
 40
1
 10
52.611102
 20
165.317122
 30
0.0
 10
52.611102
 20
166.530255
 30
0.0
 10
52.095053
 20
167.562175
 30
0.0
 10
51.063192
 20
168.412766
 30
0.0
  0
SPLINE
  5
163
100
AcDbEntity
  8
0
 62
7
100
AcDbSpline
 70
8
 71
3
 72
8
 73
4
 74
0
 40
0
 40
0
 40
0
 40
0
 40
1
 40
1
 40
1
 40
1
 10
51.063192
 20
168.412766
 30
0.0
 10
50.073163
 20
169.221520
 30
0.0
 10
48.964609
 20
169.625957
 30
0.0
 10
47.737533
 20
169.625957
 30
0.0
  0
SPLINE
  5
164
100
AcDbEntity
  8
0
 62
7
100
AcDbSpline
 70
8
 71
3
 72
8
 73
4
 74
0
 40
0
 40
0
 40
0
 40
0
 40
1
 40
1
 40
1
 40
1
 10
47.737533
 20
169.625957
 30
0.0
 10
46.838140
 20
169.625957
 30
0.0
 10
45.938750
 20
169.625957
 30
0.0
 10
45.039357
 20
169.625957
 30
0.0
  0
LWPOLYLINE
  5
165
100
AcDbEntity
  8
0
 62
7
100
AcDbPolyline
 90
1
 70
1
 10
45.290348
 20
166.530316
 30
0.0
  0
SPLINE
  5
166
100
AcDbEntity
  8
0
 62
7
100
AcDbSpline
 70
8
 71
3
 72
8
 73
4
 74
0
 40
0
 40
0
 40
0
 40
0
 40
1
 40
1
 40
1
 40
1
 10
68.043597
 20
152.445477
 30
0.0
 10
67.781689
 20
152.533757
 30
0.0
 10
67.573512
 20
152.682482
 30
0.0
 10
67.419699
 20
152.892961
 30
0.0
  0
SPLINE
  5
167
100
AcDbEntity
  8
0
 62
7
100
AcDbSpline
 70
8
 71
3
 72
8
 73
4
 74
0
 40
0
 40
0
 40
0
 40
0
 40
1
 40
1
 40
1
 40
1
 10
67.419699
 20
152.892961
 30
0.0
 10
67.154764
 20
153.269450
 30
0.0
 10
67.022234
 20
153.722753
 30
0.0
 10
67.022234
 20
154.252626
 30
0.0
  0
LWPOLYLINE
  5
168
100
AcDbEntity
  8
0
 62
7
100
AcDbPolyline
 90
1
 70
1
 10
45.039357
 20
169.625957
 30
0.0
  0
SPLINE
  5
169
100
AcDbEntity
  8
0
 62
7
100
AcDbSpline
 70
8
 71
3
 72
8
 73
4
 74
0
 40
0
 40
0
 40
0
 40
0
 40
1
 40
1
 40
1
 40
1
 10
67.022234
 20
164.626891
 30
0.0
 10
67.022234
 20
165.156766
 30
0.0
 10
67.154764
 20
165.603034
 30
0.0
 10
67.419699
 20
165.965582
 30
0.0
  0
SPLINE
  5
16a
100
AcDbEntity
  8
0
 62
7
100
AcDbSpline
 70
8
 71
3
 72
8
 73
4
 74
0
 40
0
 40
0
 40
0
 40
0
 40
1
 40
1
 40
1
 40
1
 10
67.419699
 20
165.965582
 30
0.0
 10
67.684637
 20
166.342071
 30
0.0
 10
68.109812
 20
166.530316
 30
0.0
 10
68.695462
 20
166.530316
 30
0.0
  0
LWPOLYLINE
  5
16b
100
AcDbEntity
  8
0
 62
7
100
AcDbPolyline
 90
2
 70
0
 10
67.022234
 20
154.252626
 30
0.0
 10
67.022234
 20
164.626891
 30
0.0
  0
SPLINE
  5
16c
100
AcDbEntity
  8
0
 62
7
100
AcDbSpline
 70
8
 71
3
 72
8
 73
4
 74
0
 40
0
 40
0
 40
0
 40
0
 40
1
 40
1
 40
1
 40
1
 10
70.682609
 20
166.530316
 30
0.0
 10
71.254318
 20
166.530316
 30
0.0
 10
71.686526
 20
166.342071
 30
0.0
 10
71.979348
 20
165.965582
 30
0.0
  0
SPLINE
  5
16d
100
AcDbEntity
  8
0
 62
7
100
AcDbSpline
 70
8
 71
3
 72
8
 73
4
 74
0
 40
0
 40
0
 40
0
 40
0
 40
1
 40
1
 40
1
 40
1
 10
71.979348
 20
165.965582
 30
0.0
 10
72.286119
 20
165.603034
 30
0.0
 10
72.439562
 20
165.156766
 30
0.0
 10
72.439562
 20
164.626891
 30
0.0
  0
LWPOLYLINE
  5
16e
100
AcDbEntity
  8
0
 62
7
100
AcDbPolyline
 90
2
 70
0
 10
68.695462
 20
166.530316
 30
0.0
 10
70.682609
 20
166.530316
 30
0.0
  0
SPLINE
  5
16f
100
AcDbEntity
  8
0
 62
7
100
AcDbSpline
 70
8
 71
3
 72
8
 73
4
 74
0
 40
0
 40
0
 40
0
 40
0
 40
1
 40
1
 40
1
 40
1
 10
76.016215
 20
165.317122
 30
0.0
 10
76.016215
 20
166.530255
 30
0.0
 10
75.500166
 20
167.562175
 30
0.0
 10
74.468305
 20
168.412766
 30
0.0
  0
SPLINE
  5
170
100
AcDbEntity
  8
0
 62
7
100
AcDbSpline
 70
8
 71
3
 72
8
 73
4
 74
0
 40
0
 40
0
 40
0
 40
0
 40
1
 40
1
 40
1
 40
1
 10
74.468305
 20
168.412766
 30
0.0
 10
73.478276
 20
169.221520
 30
0.0
 10
72.369722
 20
169.625957
 30
0.0
 10
71.142646
 20
169.625957
 30
0.0
  0
LWPOLYLINE
  5
171
100
AcDbEntity
  8
0
 62
7
100
AcDbPolyline
 90
4
 70
0
 10
72.439562
 20
164.626891
 30
0.0
 10
72.439562
 20
157.439521
 30
0.0
 10
76.016215
 20
161.545053
 30
0.0
 10
76.016215
 20
165.317122
 30
0.0
  0
SPLINE
  5
172
100
AcDbEntity
  8
0
 62
7
100
AcDbSpline
 70
8
 71
3
 72
8
 73
4
 74
0
 40
0
 40
0
 40
0
 40
0
 40
1
 40
1
 40
1
 40
1
 10
68.444470
 20
169.625957
 30
0.0
 10
67.189503
 20
169.625957
 30
0.0
 10
66.060032
 20
169.228553
 30
0.0
 10
65.056062
 20
168.433742
 30
0.0
  0
SPLINE
  5
173
100
AcDbEntity
  8
0
 62
7
100
AcDbSpline
 70
8
 71
3
 72
8
 73
4
 74
0
 40
0
 40
0
 40
0
 40
0
 40
1
 40
1
 40
1
 40
1
 10
65.056062
 20
168.433742
 30
0.0
 10
63.982370
 20
167.583154
 30
0.0
 10
63.445580
 20
166.544199
 30
0.0
 10
63.445580
 20
165.317122
 30
0.0
  0
LWPOLYLINE
  5
174
100
AcDbEntity
  8
0
 62
7
100
AcDbPolyline
 90
2
 70
0
 10
71.142646
 20
169.625957
 30
0.0
 10
68.444470
 20
169.625957
 30
0.0
  0
SPLINE
  5
175
100
AcDbEntity
  8
0
 62
7
100
AcDbSpline
 70
8
 71
3
 72
8
 73
4
 74
0
 40
0
 40
0
 40
0
 40
0
 40
1
 40
1
 40
1
 40
1
 10
63.445580
 20
153.562397
 30
0.0
 10
63.445580
 20
152.335317
 30
0.0
 10
63.982370
 20
151.296365
 30
0.0
 10
65.056062
 20
150.445777
 30
0.0
  0
SPLINE
  5
176
100
AcDbEntity
  8
0
 62
7
100
AcDbSpline
 70
8
 71
3
 72
8
 73
4
 74
0
 40
0
 40
0
 40
0
 40
0
 40
1
 40
1
 40
1
 40
1
 10
65.056062
 20
150.445777
 30
0.0
 10
65.296084
 20
150.256465
 30
0.0
 10
65.544554
 20
150.090616
 30
0.0
 10
65.800973
 20
149.947196
 30
0.0
  0
LWPOLYLINE
  5
177
100
AcDbEntity
  8
0
 62
7
100
AcDbPolyline
 90
2
 70
0
 10
63.445580
 20
165.317122
 30
0.0
 10
63.445580
 20
153.562397
 30
0.0
  0
SPLINE
  5
178
100
AcDbEntity
  8
0
 62
7
100
AcDbSpline
 70
8
 71
3
 72
8
 73
4
 74
0
 40
0
 40
0
 40
0
 40
0
 40
1
 40
1
 40
1
 40
1
 10
90.362090
 20
132.109652
 30
0.0
 10
90.355105
 20
132.109652
 30
0.0
 10
90.376087
 20
118.528171
 30
0.0
 10
90.383072
 20
111.737431
 30
0.0
  0
SPLINE
  5
179
100
AcDbEntity
  8
0
 62
7
100
AcDbSpline
 70
8
 71
3
 72
8
 73
4
 74
0
 40
0
 40
0
 40
0
 40
0
 40
1
 40
1
 40
1
 40
1
 10
90.383072
 20
111.737431
 30
0.0
 10
91.575289
 20
111.737431
 30
0.0
 10
93.959725
 20
111.737431
 30
0.0
 10
93.959725
 20
111.737431
 30
0.0
  0
SPLINE
  5
17a
100
AcDbEntity
  8
0
 62
7
100
AcDbSpline
 70
8
 71
3
 72
8
 73
4
 74
0
 40
0
 40
0
 40
0
 40
0
 40
1
 40
1
 40
1
 40
1
 10
93.959725
 20
111.737431
 30
0.0
 10
93.959725
 20
116.722395
 30
0.0
 10
93.959725
 20
121.707357
 30
0.0
 10
93.959725
 20
126.692321
 30
0.0
  0
SPLINE
  5
17b
100
AcDbEntity
  8
0
 62
7
100
AcDbSpline
 70
8
 71
3
 72
8
 73
4
 74
0
 40
0
 40
0
 40
0
 40
0
 40
1
 40
1
 40
1
 40
1
 10
93.959725
 20
126.692321
 30
0.0
 10
93.959725
 20
126.943316
 30
0.0
 10
93.994526
 20
127.208373
 30
0.0
 10
94.064246
 20
127.487251
 30
0.0
  0
SPLINE
  5
17c
100
AcDbEntity
  8
0
 62
7
100
AcDbSpline
 70
8
 71
3
 72
8
 73
4
 74
0
 40
0
 40
0
 40
0
 40
0
 40
1
 40
1
 40
1
 40
1
 10
94.064246
 20
127.487251
 30
0.0
 10
94.287351
 20
128.505170
 30
0.0
 10
94.810255
 20
129.014008
 30
0.0
 10
95.632955
 20
129.014008
 30
0.0
  0
SPLINE
  5
17d
100
AcDbEntity
  8
0
 62
7
100
AcDbSpline
 70
8
 71
3
 72
8
 73
4
 74
0
 40
0
 40
0
 40
0
 40
0
 40
1
 40
1
 40
1
 40
1
 10
95.632955
 20
129.014008
 30
0.0
 10
96.650852
 20
129.014008
 30
0.0
 10
97.668747
 20
129.014008
 30
0.0
 10
98.686644
 20
129.014008
 30
0.0
  0
SPLINE
  5
17e
100
AcDbEntity
  8
0
 62
7
100
AcDbSpline
 70
8
 71
3
 72
8
 73
4
 74
0
 40
0
 40
0
 40
0
 40
0
 40
1
 40
1
 40
1
 40
1
 10
98.686644
 20
129.014008
 30
0.0
 10
99.258350
 20
129.014008
 30
0.0
 10
99.690738
 20
128.825763
 30
0.0
 10
99.983563
 20
128.449274
 30
0.0
  0
SPLINE
  5
17f
100
AcDbEntity
  8
0
 62
7
100
AcDbSpline
 70
8
 71
3
 72
8
 73
4
 74
0
 40
0
 40
0
 40
0
 40
0
 40
1
 40
1
 40
1
 40
1
 10
99.983563
 20
128.449274
 30
0.0
 10
100.290331
 20
128.086728
 30
0.0
 10
100.443596
 20
127.640638
 30
0.0
 10
100.443596
 20
127.110763
 30
0.0
  0
SPLINE
  5
180
100
AcDbEntity
  8
0
 62
7
100
AcDbSpline
 70
8
 71
3
 72
8
 73
4
 74
0
 40
0
 40
0
 40
0
 40
0
 40
1
 40
1
 40
1
 40
1
 10
100.443596
 20
127.110763
 30
0.0
 10
100.443596
 20
121.986318
 30
0.0
 10
100.443596
 20
116.861876
 30
0.0
 10
100.443596
 20
111.737431
 30
0.0
  0
SPLINE
  5
181
100
AcDbEntity
  8
0
 62
7
100
AcDbSpline
 70
8
 71
3
 72
8
 73
4
 74
0
 40
0
 40
0
 40
0
 40
0
 40
1
 40
1
 40
1
 40
1
 10
100.443596
 20
111.737431
 30
0.0
 10
101.635814
 20
111.737431
 30
0.0
 10
104.020250
 20
111.737431
 30
0.0
 10
104.020250
 20
111.737431
 30
0.0
  0
SPLINE
  5
182
100
AcDbEntity
  8
0
 62
7
100
AcDbSpline
 70
8
 71
3
 72
8
 73
4
 74
0
 40
0
 40
0
 40
0
 40
0
 40
1
 40
1
 40
1
 40
1
 10
104.020250
 20
111.737431
 30
0.0
 10
104.020250
 20
117.091952
 30
0.0
 10
104.020250
 20
122.446473
 30
0.0
 10
104.020250
 20
127.800994
 30
0.0
  0
SPLINE
  5
183
100
AcDbEntity
  8
0
 62
7
100
AcDbSpline
 70
8
 71
3
 72
8
 73
4
 74
0
 40
0
 40
0
 40
0
 40
0
 40
1
 40
1
 40
1
 40
1
 10
104.020250
 20
127.800994
 30
0.0
 10
104.020250
 20
129.028071
 30
0.0
 10
103.574159
 20
130.052961
 30
0.0
 10
102.681738
 20
130.875659
 30
0.0
  0
SPLINE
  5
184
100
AcDbEntity
  8
0
 62
7
100
AcDbSpline
 70
8
 71
3
 72
8
 73
4
 74
0
 40
0
 40
0
 40
0
 40
0
 40
1
 40
1
 40
1
 40
1
 10
102.681738
 20
130.875659
 30
0.0
 10
101.817207
 20
131.698360
 30
0.0
 10
100.778254
 20
132.109652
 30
0.0
 10
99.565121
 20
132.109652
 30
0.0
  0
SPLINE
  5
185
100
AcDbEntity
  8
0
 62
7
100
AcDbSpline
 70
8
 71
3
 72
8
 73
4
 74
0
 40
0
 40
0
 40
0
 40
0
 40
1
 40
1
 40
1
 40
1
 10
99.565121
 20
132.109652
 30
0.0
 10
98.379894
 20
132.109652
 30
0.0
 10
97.194669
 20
132.109652
 30
0.0
 10
96.009441
 20
132.109652
 30
0.0
  0
SPLINE
  5
186
100
AcDbEntity
  8
0
 62
7
100
AcDbSpline
 70
8
 71
3
 72
8
 73
4
 74
0
 40
0
 40
0
 40
0
 40
0
 40
1
 40
1
 40
1
 40
1
 10
96.009441
 20
132.109652
 30
0.0
 10
95.186743
 20
132.109652
 30
0.0
 10
94.371014
 20
131.705212
 30
0.0
 10
93.562260
 20
130.896455
 30
0.0
  0
SPLINE
  5
187
100
AcDbEntity
  8
0
 62
7
100
AcDbSpline
 70
8
 71
3
 72
8
 73
4
 74
0
 40
0
 40
0
 40
0
 40
0
 40
1
 40
1
 40
1
 40
1
 10
93.562260
 20
130.896455
 30
0.0
 10
93.562260
 20
131.300855
 30
0.0
 10
93.562260
 20
131.705252
 30
0.0
 10
93.562260
 20
132.109652
 30
0.0
  0
SPLINE
  5
188
100
AcDbEntity
  8
0
 62
7
100
AcDbSpline
 70
8
 71
3
 72
8
 73
4
 74
0
 40
0
 40
0
 40
0
 40
0
 40
1
 40
1
 40
1
 40
1
 10
93.562260
 20
132.109652
 30
0.0
 10
92.495537
 20
132.109652
 30
0.0
 10
91.428813
 20
132.109652
 30
0.0
 10
90.362090
 20
132.109652
 30
0.0
  0
LWPOLYLINE
  5
189
100
AcDbEntity
  8
0
 62
7
100
AcDbPolyline
 90
2
 70
0
 10
65.800973
 20
149.947196
 30
0.0
 10
68.043597
 20
152.445477
 30
0.0
  0
SPLINE
  5
18a
100
AcDbEntity
  8
0
 62
7
100
AcDbSpline
 70
8
 71
3
 72
8
 73
4
 74
0
 40
0
 40
0
 40
0
 40
0
 40
1
 40
1
 40
1
 40
1
 10
80.970821
 20
129.076757
 30
0.0
 10
81.633145
 20
129.076757
 30
0.0
 10
82.295468
 20
129.076757
 30
0.0
 10
82.957792
 20
129.076757
 30
0.0
  0
SPLINE
  5
18b
100
AcDbEntity
  8
0
 62
7
100
AcDbSpline
 70
8
 71
3
 72
8
 73
4
 74
0
 40
0
 40
0
 40
0
 40
0
 40
1
 40
1
 40
1
 40
1
 10
82.957792
 20
129.076757
 30
0.0
 10
83.529498
 20
129.076757
 30
0.0
 10
83.961703
 20
128.888511
 30
0.0
 10
84.254531
 20
128.512022
 30
0.0
  0
SPLINE
  5
18c
100
AcDbEntity
  8
0
 62
7
100
AcDbSpline
 70
8
 71
3
 72
8
 73
4
 74
0
 40
0
 40
0
 40
0
 40
0
 40
1
 40
1
 40
1
 40
1
 10
84.254531
 20
128.512022
 30
0.0
 10
84.561296
 20
128.149477
 30
0.0
 10
84.714744
 20
127.703387
 30
0.0
 10
84.714744
 20
127.173511
 30
0.0
  0
SPLINE
  5
18d
100
AcDbEntity
  8
0
 62
7
100
AcDbSpline
 70
8
 71
3
 72
8
 73
4
 74
0
 40
0
 40
0
 40
0
 40
0
 40
1
 40
1
 40
1
 40
1
 10
84.714744
 20
127.173511
 30
0.0
 10
84.714744
 20
123.715362
 30
0.0
 10
84.714744
 20
120.257215
 30
0.0
 10
84.714744
 20
116.799066
 30
0.0
  0
SPLINE
  5
18e
100
AcDbEntity
  8
0
 62
7
100
AcDbSpline
 70
8
 71
3
 72
8
 73
4
 74
0
 40
0
 40
0
 40
0
 40
0
 40
1
 40
1
 40
1
 40
1
 10
84.714744
 20
116.799066
 30
0.0
 10
84.714744
 20
116.269193
 30
0.0
 10
84.561296
 20
115.816068
 30
0.0
 10
84.254531
 20
115.439582
 30
0.0
  0
SPLINE
  5
18f
100
AcDbEntity
  8
0
 62
7
100
AcDbSpline
 70
8
 71
3
 72
8
 73
4
 74
0
 40
0
 40
0
 40
0
 40
0
 40
1
 40
1
 40
1
 40
1
 10
84.254531
 20
115.439582
 30
0.0
 10
83.961703
 20
115.077034
 30
0.0
 10
83.529498
 20
114.895641
 30
0.0
 10
82.957792
 20
114.895641
 30
0.0
  0
SPLINE
  5
190
100
AcDbEntity
  8
0
 62
7
100
AcDbSpline
 70
8
 71
3
 72
8
 73
4
 74
0
 40
0
 40
0
 40
0
 40
0
 40
1
 40
1
 40
1
 40
1
 10
82.957792
 20
114.895641
 30
0.0
 10
82.295468
 20
114.895641
 30
0.0
 10
81.633145
 20
114.895641
 30
0.0
 10
80.970821
 20
114.895641
 30
0.0
  0
SPLINE
  5
191
100
AcDbEntity
  8
0
 62
7
100
AcDbSpline
 70
8
 71
3
 72
8
 73
4
 74
0
 40
0
 40
0
 40
0
 40
0
 40
1
 40
1
 40
1
 40
1
 10
80.970821
 20
114.895641
 30
0.0
 10
80.385171
 20
114.895641
 30
0.0
 10
79.959816
 20
115.077034
 30
0.0
 10
79.694879
 20
115.439582
 30
0.0
  0
SPLINE
  5
192
100
AcDbEntity
  8
0
 62
7
100
AcDbSpline
 70
8
 71
3
 72
8
 73
4
 74
0
 40
0
 40
0
 40
0
 40
0
 40
1
 40
1
 40
1
 40
1
 10
79.694879
 20
115.439582
 30
0.0
 10
79.429941
 20
115.816068
 30
0.0
 10
79.297414
 20
116.269193
 30
0.0
 10
79.297414
 20
116.799066
 30
0.0
  0
SPLINE
  5
193
100
AcDbEntity
  8
0
 62
7
100
AcDbSpline
 70
8
 71
3
 72
8
 73
4
 74
0
 40
0
 40
0
 40
0
 40
0
 40
1
 40
1
 40
1
 40
1
 10
79.297414
 20
116.799066
 30
0.0
 10
79.297414
 20
120.257215
 30
0.0
 10
79.297414
 20
123.715362
 30
0.0
 10
79.297414
 20
127.173511
 30
0.0
  0
SPLINE
  5
194
100
AcDbEntity
  8
0
 62
7
100
AcDbSpline
 70
8
 71
3
 72
8
 73
4
 74
0
 40
0
 40
0
 40
0
 40
0
 40
1
 40
1
 40
1
 40
1
 10
79.297414
 20
127.173511
 30
0.0
 10
79.297414
 20
127.703387
 30
0.0
 10
79.429941
 20
128.149477
 30
0.0
 10
79.694879
 20
128.512022
 30
0.0
  0
SPLINE
  5
195
100
AcDbEntity
  8
0
 62
7
100
AcDbSpline
 70
8
 71
3
 72
8
 73
4
 74
0
 40
0
 40
0
 40
0
 40
0
 40
1
 40
1
 40
1
 40
1
 10
79.694879
 20
128.512022
 30
0.0
 10
79.959816
 20
128.888511
 30
0.0
 10
80.385171
 20
129.076757
 30
0.0
 10
80.970821
 20
129.076757
 30
0.0
  0
LWPOLYLINE
  5
196
100
AcDbEntity
  8
0
 62
7
100
AcDbPolyline
 90
1
 70
1
 10
90.362090
 20
132.109652
 30
0.0
  0
SPLINE
  5
197
100
AcDbEntity
  8
0
 62
7
100
AcDbSpline
 70
8
 71
3
 72
8
 73
4
 74
0
 40
0
 40
0
 40
0
 40
0
 40
1
 40
1
 40
1
 40
1
 10
80.719827
 20
132.172398
 30
0.0
 10
79.464860
 20
132.172398
 30
0.0
 10
78.335394
 20
131.774991
 30
0.0
 10
77.331419
 20
130.980180
 30
0.0
  0
SPLINE
  5
198
100
AcDbEntity
  8
0
 62
7
100
AcDbSpline
 70
8
 71
3
 72
8
 73
4
 74
0
 40
0
 40
0
 40
0
 40
0
 40
1
 40
1
 40
1
 40
1
 10
77.331419
 20
130.980180
 30
0.0
 10
76.257727
 20
130.129592
 30
0.0
 10
75.720763
 20
129.090820
 30
0.0
 10
75.720763
 20
127.863743
 30
0.0
  0
SPLINE
  5
199
100
AcDbEntity
  8
0
 62
7
100
AcDbSpline
 70
8
 71
3
 72
8
 73
4
 74
0
 40
0
 40
0
 40
0
 40
0
 40
1
 40
1
 40
1
 40
1
 10
75.720763
 20
127.863743
 30
0.0
 10
75.720763
 20
123.945441
 30
0.0
 10
75.720763
 20
120.027136
 30
0.0
 10
75.720763
 20
116.108835
 30
0.0
  0
SPLINE
  5
19a
100
AcDbEntity
  8
0
 62
7
100
AcDbSpline
 70
8
 71
3
 72
8
 73
4
 74
0
 40
0
 40
0
 40
0
 40
0
 40
1
 40
1
 40
1
 40
1
 10
75.720763
 20
116.108835
 30
0.0
 10
75.720763
 20
114.881758
 30
0.0
 10
76.257727
 20
113.842983
 30
0.0
 10
77.331419
 20
112.992397
 30
0.0
  0
SPLINE
  5
19b
100
AcDbEntity
  8
0
 62
7
100
AcDbSpline
 70
8
 71
3
 72
8
 73
4
 74
0
 40
0
 40
0
 40
0
 40
0
 40
1
 40
1
 40
1
 40
1
 10
77.331419
 20
112.992397
 30
0.0
 10
78.321448
 20
112.211527
 30
0.0
 10
79.450917
 20
111.820976
 30
0.0
 10
80.719827
 20
111.820976
 30
0.0
  0
SPLINE
  5
19c
100
AcDbEntity
  8
0
 62
7
100
AcDbSpline
 70
8
 71
3
 72
8
 73
4
 74
0
 40
0
 40
0
 40
0
 40
0
 40
1
 40
1
 40
1
 40
1
 10
80.719827
 20
111.820976
 30
0.0
 10
81.619220
 20
111.820976
 30
0.0
 10
82.518612
 20
111.820976
 30
0.0
 10
83.418005
 20
111.820976
 30
0.0
  0
SPLINE
  5
19d
100
AcDbEntity
  8
0
 62
7
100
AcDbSpline
 70
8
 71
3
 72
8
 73
4
 74
0
 40
0
 40
0
 40
0
 40
0
 40
1
 40
1
 40
1
 40
1
 10
83.418005
 20
111.820976
 30
0.0
 10
84.672969
 20
111.820976
 30
0.0
 10
85.781526
 20
112.218383
 30
0.0
 10
86.743664
 20
113.013191
 30
0.0
  0
SPLINE
  5
19e
100
AcDbEntity
  8
0
 62
7
100
AcDbSpline
 70
8
 71
3
 72
8
 73
4
 74
0
 40
0
 40
0
 40
0
 40
0
 40
1
 40
1
 40
1
 40
1
 10
86.743664
 20
113.013191
 30
0.0
 10
87.775523
 20
113.877725
 30
0.0
 10
88.291395
 20
114.909645
 30
0.0
 10
88.291395
 20
116.108835
 30
0.0
  0
SPLINE
  5
19f
100
AcDbEntity
  8
0
 62
7
100
AcDbSpline
 70
8
 71
3
 72
8
 73
4
 74
0
 40
0
 40
0
 40
0
 40
0
 40
1
 40
1
 40
1
 40
1
 10
88.291395
 20
116.108835
 30
0.0
 10
88.291395
 20
120.027136
 30
0.0
 10
88.291395
 20
123.945441
 30
0.0
 10
88.291395
 20
127.863743
 30
0.0
  0
SPLINE
  5
1a0
100
AcDbEntity
  8
0
 62
7
100
AcDbSpline
 70
8
 71
3
 72
8
 73
4
 74
0
 40
0
 40
0
 40
0
 40
0
 40
1
 40
1
 40
1
 40
1
 10
88.291395
 20
127.863743
 30
0.0
 10
88.291395
 20
129.076876
 30
0.0
 10
87.775523
 20
130.108619
 30
0.0
 10
86.743664
 20
130.959204
 30
0.0
  0
SPLINE
  5
1a1
100
AcDbEntity
  8
0
 62
7
100
AcDbSpline
 70
8
 71
3
 72
8
 73
4
 74
0
 40
0
 40
0
 40
0
 40
0
 40
1
 40
1
 40
1
 40
1
 10
86.743664
 20
130.959204
 30
0.0
 10
85.753636
 20
131.767961
 30
0.0
 10
84.645085
 20
132.172398
 30
0.0
 10
83.418005
 20
132.172398
 30
0.0
  0
SPLINE
  5
1a2
100
AcDbEntity
  8
0
 62
7
100
AcDbSpline
 70
8
 71
3
 72
8
 73
4
 74
0
 40
0
 40
0
 40
0
 40
0
 40
1
 40
1
 40
1
 40
1
 10
83.418005
 20
132.172398
 30
0.0
 10
82.518612
 20
132.172398
 30
0.0
 10
81.619220
 20
132.172398
 30
0.0
 10
80.719827
 20
132.172398
 30
0.0
  0
LWPOLYLINE
  5
1a3
100
AcDbEntity
  8
0
 62
7
100
AcDbPolyline
 90
1
 70
1
 10
80.970821
 20
129.076757
 30
0.0
  0
SPLINE
  5
1a4
100
AcDbEntity
  8
0
 62
7
100
AcDbSpline
 70
8
 71
3
 72
8
 73
4
 74
0
 40
0
 40
0
 40
0
 40
0
 40
1
 40
1
 40
1
 40
1
 10
111.299043
 20
128.993212
 30
0.0
 10
112.261184
 20
128.993212
 30
0.0
 10
113.223323
 20
128.993212
 30
0.0
 10
114.185465
 20
128.993212
 30
0.0
  0
SPLINE
  5
1a5
100
AcDbEntity
  8
0
 62
7
100
AcDbSpline
 70
8
 71
3
 72
8
 73
4
 74
0
 40
0
 40
0
 40
0
 40
0
 40
1
 40
1
 40
1
 40
1
 10
114.185465
 20
128.993212
 30
0.0
 10
114.715332
 20
128.993212
 30
0.0
 10
115.161605
 20
128.860682
 30
0.0
 10
115.524156
 20
128.595747
 30
0.0
  0
SPLINE
  5
1a6
100
AcDbEntity
  8
0
 62
7
100
AcDbSpline
 70
8
 71
3
 72
8
 73
4
 74
0
 40
0
 40
0
 40
0
 40
0
 40
1
 40
1
 40
1
 40
1
 10
115.524156
 20
128.595747
 30
0.0
 10
115.900639
 20
128.330809
 30
0.0
 10
116.088885
 20
127.905454
 30
0.0
 10
116.088885
 20
127.319805
 30
0.0
  0
SPLINE
  5
1a7
100
AcDbEntity
  8
0
 62
7
100
AcDbSpline
 70
8
 71
3
 72
8
 73
4
 74
0
 40
0
 40
0
 40
0
 40
0
 40
1
 40
1
 40
1
 40
1
 10
116.088885
 20
127.319805
 30
0.0
 10
116.088885
 20
126.601725
 30
0.0
 10
116.088885
 20
125.883646
 30
0.0
 10
116.088885
 20
125.165567
 30
0.0
  0
SPLINE
  5
1a8
100
AcDbEntity
  8
0
 62
7
100
AcDbSpline
 70
8
 71
3
 72
8
 73
4
 74
0
 40
0
 40
0
 40
0
 40
0
 40
1
 40
1
 40
1
 40
1
 10
116.088885
 20
125.165567
 30
0.0
 10
116.088885
 20
124.593861
 30
0.0
 10
115.900639
 20
124.154621
 30
0.0
 10
115.524156
 20
123.847852
 30
0.0
  0
SPLINE
  5
1a9
100
AcDbEntity
  8
0
 62
7
100
AcDbSpline
 70
8
 71
3
 72
8
 73
4
 74
0
 40
0
 40
0
 40
0
 40
0
 40
1
 40
1
 40
1
 40
1
 10
115.524156
 20
123.847852
 30
0.0
 10
115.161605
 20
123.555027
 30
0.0
 10
114.715332
 20
123.408615
 30
0.0
 10
114.185465
 20
123.408615
 30
0.0
  0
SPLINE
  5
1aa
100
AcDbEntity
  8
0
 62
7
100
AcDbSpline
 70
8
 71
3
 72
8
 73
4
 74
0
 40
0
 40
0
 40
0
 40
0
 40
1
 40
1
 40
1
 40
1
 10
114.185465
 20
123.408615
 30
0.0
 10
112.658589
 20
123.408615
 30
0.0
 10
109.604839
 20
123.408615
 30
0.0
 10
109.604839
 20
123.408615
 30
0.0
  0
SPLINE
  5
1ab
100
AcDbEntity
  8
0
 62
7
100
AcDbSpline
 70
8
 71
3
 72
8
 73
4
 74
0
 40
0
 40
0
 40
0
 40
0
 40
1
 40
1
 40
1
 40
1
 10
109.604839
 20
123.408615
 30
0.0
 10
109.604839
 20
124.684496
 30
0.0
 10
109.604839
 20
125.960378
 30
0.0
 10
109.604839
 20
127.236260
 30
0.0
  0
SPLINE
  5
1ac
100
AcDbEntity
  8
0
 62
7
100
AcDbSpline
 70
8
 71
3
 72
8
 73
4
 74
0
 40
0
 40
0
 40
0
 40
0
 40
1
 40
1
 40
1
 40
1
 10
109.604839
 20
127.236260
 30
0.0
 10
109.604839
 20
128.407562
 30
0.0
 10
110.169574
 20
128.993212
 30
0.0
 10
111.299043
 20
128.993212
 30
0.0
  0
LWPOLYLINE
  5
1ad
100
AcDbEntity
  8
0
 62
7
100
AcDbPolyline
 90
1
 70
1
 10
80.719827
 20
132.172398
 30
0.0
  0
SPLINE
  5
1ae
100
AcDbEntity
  8
0
 62
7
100
AcDbSpline
 70
8
 71
3
 72
8
 73
4
 74
0
 40
0
 40
0
 40
0
 40
0
 40
1
 40
1
 40
1
 40
1
 10
110.190550
 20
132.235146
 30
0.0
 10
108.977419
 20
132.235146
 30
0.0
 10
107.973442
 20
131.774991
 30
0.0
 10
107.178631
 20
130.854685
 30
0.0
  0
SPLINE
  5
1af
100
AcDbEntity
  8
0
 62
7
100
AcDbSpline
 70
8
 71
3
 72
8
 73
4
 74
0
 40
0
 40
0
 40
0
 40
0
 40
1
 40
1
 40
1
 40
1
 10
107.178631
 20
130.854685
 30
0.0
 10
106.453538
 20
129.990151
 30
0.0
 10
106.090934
 20
128.937316
 30
0.0
 10
106.090934
 20
127.696293
 30
0.0
  0
SPLINE
  5
1b0
100
AcDbEntity
  8
0
 62
7
100
AcDbSpline
 70
8
 71
3
 72
8
 73
4
 74
0
 40
0
 40
0
 40
0
 40
0
 40
1
 40
1
 40
1
 40
1
 10
106.090934
 20
127.696293
 30
0.0
 10
106.090934
 20
123.889564
 30
0.0
 10
106.090934
 20
120.082834
 30
0.0
 10
106.090934
 20
116.276104
 30
0.0
  0
SPLINE
  5
1b1
100
AcDbEntity
  8
0
 62
7
100
AcDbSpline
 70
8
 71
3
 72
8
 73
4
 74
0
 40
0
 40
0
 40
0
 40
0
 40
1
 40
1
 40
1
 40
1
 10
106.090934
 20
116.276104
 30
0.0
 10
106.090934
 20
115.021138
 30
0.0
 10
106.495371
 20
113.954417
 30
0.0
 10
107.304128
 20
113.075942
 30
0.0
  0
SPLINE
  5
1b2
100
AcDbEntity
  8
0
 62
7
100
AcDbSpline
 70
8
 71
3
 72
8
 73
4
 74
0
 40
0
 40
0
 40
0
 40
0
 40
1
 40
1
 40
1
 40
1
 10
107.304128
 20
113.075942
 30
0.0
 10
108.126829
 20
112.169578
 30
0.0
 10
109.158749
 20
111.716455
 30
0.0
 10
110.399769
 20
111.716455
 30
0.0
  0
SPLINE
  5
1b3
100
AcDbEntity
  8
0
 62
7
100
AcDbSpline
 70
8
 71
3
 72
8
 73
4
 74
0
 40
0
 40
0
 40
0
 40
0
 40
1
 40
1
 40
1
 40
1
 10
110.399769
 20
111.716455
 30
0.0
 10
112.052140
 20
111.716455
 30
0.0
 10
113.704513
 20
111.716455
 30
0.0
 10
115.356883
 20
111.716455
 30
0.0
  0
SPLINE
  5
1b4
100
AcDbEntity
  8
0
 62
7
100
AcDbSpline
 70
8
 71
3
 72
8
 73
4
 74
0
 40
0
 40
0
 40
0
 40
0
 40
1
 40
1
 40
1
 40
1
 10
115.356883
 20
111.716455
 30
0.0
 10
116.040135
 20
111.716455
 30
0.0
 10
116.646703
 20
111.841952
 30
0.0
 10
117.176582
 20
112.092944
 30
0.0
  0
SPLINE
  5
1b5
100
AcDbEntity
  8
0
 62
7
100
AcDbSpline
 70
8
 71
3
 72
8
 73
4
 74
0
 40
0
 40
0
 40
0
 40
0
 40
1
 40
1
 40
1
 40
1
 10
117.176582
 20
112.092944
 30
0.0
 10
118.766204
 20
112.859868
 30
0.0
 10
119.581941
 20
114.296047
 30
0.0
 10
119.623769
 20
116.401601
 30
0.0
  0
SPLINE
  5
1b6
100
AcDbEntity
  8
0
 62
7
100
AcDbSpline
 70
8
 71
3
 72
8
 73
4
 74
0
 40
0
 40
0
 40
0
 40
0
 40
1
 40
1
 40
1
 40
1
 10
119.623769
 20
116.401601
 30
0.0
 10
118.424558
 20
116.401601
 30
0.0
 10
117.225347
 20
116.401601
 30
0.0
 10
116.026136
 20
116.401601
 30
0.0
  0
SPLINE
  5
1b7
100
AcDbEntity
  8
0
 62
7
100
AcDbSpline
 70
8
 71
3
 72
8
 73
4
 74
0
 40
0
 40
0
 40
0
 40
0
 40
1
 40
1
 40
1
 40
1
 10
116.026136
 20
116.401601
 30
0.0
 10
116.040080
 20
115.913559
 30
0.0
 10
115.900703
 20
115.530217
 30
0.0
 10
115.607878
 20
115.251336
 30
0.0
  0
SPLINE
  5
1b8
100
AcDbEntity
  8
0
 62
7
100
AcDbSpline
 70
8
 71
3
 72
8
 73
4
 74
0
 40
0
 40
0
 40
0
 40
0
 40
1
 40
1
 40
1
 40
1
 10
115.607878
 20
115.251336
 30
0.0
 10
115.329007
 20
114.986398
 30
0.0
 10
114.952505
 20
114.853868
 30
0.0
 10
114.478409
 20
114.853868
 30
0.0
  0
SPLINE
  5
1b9
100
AcDbEntity
  8
0
 62
7
100
AcDbSpline
 70
8
 71
3
 72
8
 73
4
 74
0
 40
0
 40
0
 40
0
 40
0
 40
1
 40
1
 40
1
 40
1
 10
114.478409
 20
114.853868
 30
0.0
 10
113.418620
 20
114.853868
 30
0.0
 10
112.358831
 20
114.853868
 30
0.0
 10
111.299043
 20
114.853868
 30
0.0
  0
SPLINE
  5
1ba
100
AcDbEntity
  8
0
 62
7
100
AcDbSpline
 70
8
 71
3
 72
8
 73
4
 74
0
 40
0
 40
0
 40
0
 40
0
 40
1
 40
1
 40
1
 40
1
 10
111.299043
 20
114.853868
 30
0.0
 10
110.169574
 20
114.853868
 30
0.0
 10
109.604839
 20
115.411570
 30
0.0
 10
109.604839
 20
116.527098
 30
0.0
  0
SPLINE
  5
1bb
100
AcDbEntity
  8
0
 62
7
100
AcDbSpline
 70
8
 71
3
 72
8
 73
4
 74
0
 40
0
 40
0
 40
0
 40
0
 40
1
 40
1
 40
1
 40
1
 10
109.604839
 20
116.527098
 30
0.0
 10
109.604839
 20
117.789055
 30
0.0
 10
109.604839
 20
120.312971
 30
0.0
 10
109.604839
 20
120.312971
 30
0.0
  0
SPLINE
  5
1bc
100
AcDbEntity
  8
0
 62
7
100
AcDbSpline
 70
8
 71
3
 72
8
 73
4
 74
0
 40
0
 40
0
 40
0
 40
0
 40
1
 40
1
 40
1
 40
1
 10
109.604839
 20
120.312971
 30
0.0
 10
111.640694
 20
120.312971
 30
0.0
 10
113.676546
 20
120.312971
 30
0.0
 10
115.712401
 20
120.312971
 30
0.0
  0
SPLINE
  5
1bd
100
AcDbEntity
  8
0
 62
7
100
AcDbSpline
 70
8
 71
3
 72
8
 73
4
 74
0
 40
0
 40
0
 40
0
 40
0
 40
1
 40
1
 40
1
 40
1
 10
115.712401
 20
120.312971
 30
0.0
 10
116.939483
 20
120.312971
 30
0.0
 10
117.901617
 20
120.766094
 30
0.0
 10
118.598823
 20
121.672456
 30
0.0
  0
SPLINE
  5
1be
100
AcDbEntity
  8
0
 62
7
100
AcDbSpline
 70
8
 71
3
 72
8
 73
4
 74
0
 40
0
 40
0
 40
0
 40
0
 40
1
 40
1
 40
1
 40
1
 10
118.598823
 20
121.672456
 30
0.0
 10
119.254188
 20
122.509103
 30
0.0
 10
119.581822
 20
123.541023
 30
0.0
 10
119.581822
 20
124.768099
 30
0.0
  0
SPLINE
  5
1bf
100
AcDbEntity
  8
0
 62
7
100
AcDbSpline
 70
8
 71
3
 72
8
 73
4
 74
0
 40
0
 40
0
 40
0
 40
0
 40
1
 40
1
 40
1
 40
1
 10
119.581822
 20
124.768099
 30
0.0
 10
119.581822
 20
125.674482
 30
0.0
 10
119.581822
 20
126.580868
 30
0.0
 10
119.581822
 20
127.487251
 30
0.0
  0
SPLINE
  5
1c0
100
AcDbEntity
  8
0
 62
7
100
AcDbSpline
 70
8
 71
3
 72
8
 73
4
 74
0
 40
0
 40
0
 40
0
 40
0
 40
1
 40
1
 40
1
 40
1
 10
119.581822
 20
127.487251
 30
0.0
 10
119.581822
 20
128.756161
 30
0.0
 10
119.226245
 20
129.843797
 30
0.0
 10
118.515098
 20
130.750164
 30
0.0
  0
SPLINE
  5
1c1
100
AcDbEntity
  8
0
 62
7
100
AcDbSpline
 70
8
 71
3
 72
8
 73
4
 74
0
 40
0
 40
0
 40
0
 40
0
 40
1
 40
1
 40
1
 40
1
 10
118.515098
 20
130.750164
 30
0.0
 10
117.748180
 20
131.740190
 30
0.0
 10
116.744205
 20
132.235146
 30
0.0
 10
115.503179
 20
132.235146
 30
0.0
  0
SPLINE
  5
1c2
100
AcDbEntity
  8
0
 62
7
100
AcDbSpline
 70
8
 71
3
 72
8
 73
4
 74
0
 40
0
 40
0
 40
0
 40
0
 40
1
 40
1
 40
1
 40
1
 10
115.503179
 20
132.235146
 30
0.0
 10
113.732302
 20
132.235146
 30
0.0
 10
111.961427
 20
132.235146
 30
0.0
 10
110.190550
 20
132.235146
 30
0.0
  0
LWPOLYLINE
  5
1c3
100
AcDbEntity
  8
0
 62
7
100
AcDbPolyline
 90
1
 70
1
 10
111.299043
 20
128.993212
 30
0.0
  0
LWPOLYLINE
  5
1c4
100
AcDbEntity
  8
0
 62
7
100
AcDbPolyline
 90
1
 70
1
 10
110.190550
 20
132.235146
 30
0.0
  0
SPLINE
  5
1c5
100
AcDbEntity
  8
0
 62
7
100
AcDbSpline
 70
8
 71
3
 72
8
 73
4
 74
0
 40
0
 40
0
 40
0
 40
0
 40
1
 40
1
 40
1
 40
1
 10
68.023695
 20
123.743151
 30
0.0
 10
69.222885
 20
123.743151
 30
0.0
 10
69.822420
 20
123.220250
 30
0.0
 10
69.822420
 20
122.174445
 30
0.0
  0
LWPOLYLINE
  5
1c6
100
AcDbEntity
  8
0
 62
7
100
AcDbPolyline
 90
2
 70
0
 10
61.874363
 20
123.743151
 30
0.0
 10
68.023695
 20
123.743151
 30
0.0
  0
SPLINE
  5
1c7
100
AcDbEntity
  8
0
 62
7
100
AcDbSpline
 70
8
 71
3
 72
8
 73
4
 74
0
 40
0
 40
0
 40
0
 40
0
 40
1
 40
1
 40
1
 40
1
 10
69.822420
 20
116.548072
 30
0.0
 10
69.822420
 20
115.446493
 30
0.0
 10
69.292668
 20
114.895641
 30
0.0
 10
68.232917
 20
114.895641
 30
0.0
  0
LWPOLYLINE
  5
1c8
100
AcDbEntity
  8
0
 62
7
100
AcDbPolyline
 90
2
 70
0
 10
69.822420
 20
122.174445
 30
0.0
 10
69.822420
 20
116.548072
 30
0.0
  0
LWPOLYLINE
  5
1c9
100
AcDbEntity
  8
0
 62
7
100
AcDbPolyline
 90
3
 70
0
 10
68.232917
 20
114.895641
 30
0.0
 10
61.874363
 20
114.895641
 30
0.0
 10
61.874363
 20
123.743151
 30
0.0
  0
SPLINE
  5
1ca
100
AcDbEntity
  8
0
 62
7
100
AcDbSpline
 70
8
 71
3
 72
8
 73
4
 74
0
 40
0
 40
0
 40
0
 40
0
 40
1
 40
1
 40
1
 40
1
 10
69.571428
 20
111.716455
 30
0.0
 10
70.798507
 20
111.716455
 30
0.0
 10
71.781564
 20
112.176608
 30
0.0
 10
72.520598
 20
113.096918
 30
0.0
  0
SPLINE
  5
1cb
100
AcDbEntity
  8
0
 62
7
100
AcDbSpline
 70
8
 71
3
 72
8
 73
4
 74
0
 40
0
 40
0
 40
0
 40
0
 40
1
 40
1
 40
1
 40
1
 10
72.520598
 20
113.096918
 30
0.0
 10
73.203858
 20
113.947504
 30
0.0
 10
73.545547
 20
115.000344
 30
0.0
 10
73.545547
 20
116.255308
 30
0.0
  0
LWPOLYLINE
  5
1cc
100
AcDbEntity
  8
0
 62
7
100
AcDbPolyline
 90
3
 70
0
 10
58.067694
 20
123.572296
 30
0.0
 10
58.067694
 20
111.716455
 30
0.0
 10
69.571428
 20
111.716455
 30
0.0
  0
SPLINE
  5
1cd
100
AcDbEntity
  8
0
 62
7
100
AcDbSpline
 70
8
 71
3
 72
8
 73
4
 74
0
 40
0
 40
0
 40
0
 40
0
 40
1
 40
1
 40
1
 40
1
 10
73.545547
 20
121.965403
 30
0.0
 10
73.545547
 20
123.987293
 30
0.0
 10
72.820514
 20
125.207279
 30
0.0
 10
71.370333
 20
125.625601
 30
0.0
  0
SPLINE
  5
1ce
100
AcDbEntity
  8
0
 62
7
100
AcDbSpline
 70
8
 71
3
 72
8
 73
4
 74
0
 40
0
 40
0
 40
0
 40
0
 40
1
 40
1
 40
1
 40
1
 10
71.370333
 20
125.625601
 30
0.0
 10
72.402195
 20
126.113643
 30
0.0
 10
72.918063
 20
127.103730
 30
0.0
 10
72.918063
 20
128.595747
 30
0.0
  0
LWPOLYLINE
  5
1cf
100
AcDbEntity
  8
0
 62
7
100
AcDbPolyline
 90
2
 70
0
 10
73.545547
 20
116.255308
 30
0.0
 10
73.545547
 20
121.965403
 30
0.0
  0
SPLINE
  5
1d0
100
AcDbEntity
  8
0
 62
7
100
AcDbSpline
 70
8
 71
3
 72
8
 73
4
 74
0
 40
0
 40
0
 40
0
 40
0
 40
1
 40
1
 40
1
 40
1
 10
72.918063
 20
133.741104
 30
0.0
 10
72.918063
 20
135.037904
 30
0.0
 10
72.583405
 20
136.118510
 30
0.0
 10
71.914091
 20
136.983041
 30
0.0
  0
SPLINE
  5
1d1
100
AcDbEntity
  8
0
 62
7
100
AcDbSpline
 70
8
 71
3
 72
8
 73
4
 74
0
 40
0
 40
0
 40
0
 40
0
 40
1
 40
1
 40
1
 40
1
 10
71.914091
 20
136.983041
 30
0.0
 10
71.533422
 20
137.488160
 30
0.0
 10
70.552273
 20
138.099422
 30
0.0
 10
70.552273
 20
138.099422
 30
0.0
  0
LWPOLYLINE
  5
1d2
100
AcDbEntity
  8
0
 62
7
100
AcDbPolyline
 90
2
 70
0
 10
72.918063
 20
128.595747
 30
0.0
 10
72.918063
 20
133.741104
 30
0.0
  0
SPLINE
  5
1d3
100
AcDbEntity
  8
0
 62
7
100
AcDbSpline
 70
8
 71
3
 72
8
 73
4
 74
0
 40
0
 40
0
 40
0
 40
0
 40
1
 40
1
 40
1
 40
1
 10
67.937465
 20
135.056848
 30
0.0
 10
68.491171
 20
135.701143
 30
0.0
 10
69.194939
 20
134.405756
 30
0.0
 10
69.194939
 20
133.531885
 30
0.0
  0
LWPOLYLINE
  5
1d4
100
AcDbEntity
  8
0
 62
7
100
AcDbPolyline
 90
2
 70
0
 10
70.552273
 20
138.099422
 30
0.0
 10
67.937465
 20
135.056848
 30
0.0
  0
SPLINE
  5
1d5
100
AcDbEntity
  8
0
 62
7
100
AcDbSpline
 70
8
 71
3
 72
8
 73
4
 74
0
 40
0
 40
0
 40
0
 40
0
 40
1
 40
1
 40
1
 40
1
 10
69.194939
 20
128.679469
 30
0.0
 10
69.194939
 20
128.275093
 30
0.0
 10
69.076475
 20
127.905454
 30
0.0
 10
68.839424
 20
127.570796
 30
0.0
  0
SPLINE
  5
1d6
100
AcDbEntity
  8
0
 62
7
100
AcDbSpline
 70
8
 71
3
 72
8
 73
4
 74
0
 40
0
 40
0
 40
0
 40
0
 40
1
 40
1
 40
1
 40
1
 10
68.839424
 20
127.570796
 30
0.0
 10
68.616319
 20
127.236138
 30
0.0
 10
68.288694
 20
127.068810
 30
0.0
 10
67.856428
 20
127.068810
 30
0.0
  0
LWPOLYLINE
  5
1d7
100
AcDbEntity
  8
0
 62
7
100
AcDbPolyline
 90
2
 70
0
 10
69.194939
 20
133.531885
 30
0.0
 10
69.194939
 20
128.679469
 30
0.0
  0
LWPOLYLINE
  5
1d8
100
AcDbEntity
  8
0
 62
7
100
AcDbPolyline
 90
4
 70
0
 10
67.856428
 20
127.068810
 30
0.0
 10
61.874363
 20
127.068810
 30
0.0
 10
61.874363
 20
128.001789
 30
0.0
 10
58.067694
 20
123.572296
 30
0.0
  0
ENDSEC
  0
SECTION
  2
OBJECTS
  0
DICTIONARY
  5
C
330
0
100
AcDbDictionary
  3
ACAD_GROUP
350
D
  3
ACAD_MLINESTYLE
350
17
  0
DICTIONARY
  5
D
330
C
100
AcDbDictionary
  0
DICTIONARY
  5
1A
330
C
100
AcDbDictionary
  0
DICTIONARY
  5
17
330
C
100
AcDbDictionary
  3
STANDARD
350
18
  0
DICTIONARY
  5
19
330
C
100
AcDbDictionary
  0
ENDSEC
  0
EOF
