<?xml version="1.0" encoding="UTF-8" standalone="no"?>
<!-- Created with Inkscape (http://www.inkscape.org/) -->

<svg
   xmlns:dc="http://purl.org/dc/elements/1.1/"
   xmlns:cc="http://creativecommons.org/ns#"
   xmlns:rdf="http://www.w3.org/1999/02/22-rdf-syntax-ns#"
   xmlns:svg="http://www.w3.org/2000/svg"
   xmlns="http://www.w3.org/2000/svg"
   xmlns:sodipodi="http://sodipodi.sourceforge.net/DTD/sodipodi-0.dtd"
   xmlns:inkscape="http://www.inkscape.org/namespaces/inkscape"
   version="1.1"
   id="svg5628"
   width="1140"
   height="912"
   viewBox="0 0 1140 912"
   sodipodi:docname="logo.svg"
   inkscape:version="0.92.4 5da689c313, 2019-01-14">
  <metadata
     id="metadata5634">
    <rdf:RDF>
      <cc:Work
         rdf:about="">
        <dc:format>image/svg+xml</dc:format>
        <dc:type
           rdf:resource="http://purl.org/dc/dcmitype/StillImage" />
        <dc:title />
      </cc:Work>
    </rdf:RDF>
  </metadata>
  <defs
     id="defs5632" />
  <sodipodi:namedview
     pagecolor="#ffffff"
     bordercolor="#666666"
     borderopacity="1"
     objecttolerance="10"
     gridtolerance="10"
     guidetolerance="10"
     inkscape:pageopacity="0"
     inkscape:pageshadow="2"
     inkscape:window-width="1918"
     inkscape:window-height="1062"
     id="namedview5630"
     showgrid="false"
     inkscape:zoom="256"
     inkscape:cx="-0.2574977"
     inkscape:cy="911.57654"
     inkscape:window-x="0"
     inkscape:window-y="16"
     inkscape:window-maximized="0"
     inkscape:current-layer="svg5628" />
  <flowRoot
     xml:space="preserve"
     id="flowRoot6183"
     style="fill:black;fill-opacity:1;stroke:none;font-family:sans-serif;font-style:normal;font-weight:normal;font-size:13.33333333px;line-height:1.25;letter-spacing:0px;word-spacing:0px"><flowRegion
       id="flowRegion6185"><rect
         id="rect6187"
         width="664.67798"
         height="359.38983"
         x="54.101696"
         y="104.33898" /></flowRegion><flowPara
       id="flowPara6189" /></flowRoot>  <path
     style="font-style:normal;font-weight:normal;font-size:472.84832764px;line-height:1.25;font-family:sans-serif;letter-spacing:0px;word-spacing:0px;fill:none;fill-opacity:1;stroke:#000000;stroke-width:0.00294389;stroke-opacity:1"
     d="m 0.16331251,-0.35822207 c -0.0100046,6.665e-5 -0.0200864,0.001432 -0.0286537,0.004187 -0.016071,0.005166 -0.0371829,0.0233083 -0.0447045,0.0384122 -0.0103521,0.0207889 -0.010503,0.0496646 -4.57e-4,0.0875237 0.006808,0.0256506 0.007238,0.037736 0.001701,0.0478435 -0.002949,0.005386 -0.0129127,0.0178192 -0.0330115,0.0411458 0,-0.0113716 0,-0.0227417 0,-0.0341126 0,-0.0109708 -0.004667,-0.0203029 -0.0139983,-0.0279954 -0.008954,-0.007314 -0.0189788,-0.0109708 -0.0300754,-0.0109708 -0.008133,0 -0.0162672,0 -0.0244007,0 -0.0113498,0 -0.0215636,0.003595 -0.030643,0.0107819 -0.009709,0.007692 -0.0145644,0.0170881 -0.0145644,0.028185 0,0.0354347 0,0.0708689 0,0.10630334 0,0.0110963 0.004855,0.0204927 0.0145644,0.028185 0.002169,0.001712 0.004417,0.00321 0.006736,0.004509 -0.0120788,0.0133389 -0.0238294,0.0261082 -0.0363386,0.0394872 -0.006811,0.007285 -0.0142923,0.0153728 -0.0166253,0.0179723 -0.005109,0.005694 -0.0236528,0.0256219 -0.0367859,0.0395324 -0.00525,0.005561 -0.012538,0.0132838 -0.0161955,0.0171617 -0.0110241,0.0116897 -0.0307243,0.032067 -0.0379956,0.0392992 -0.003761,0.00374 -0.009051,0.009141 -0.0117593,0.0120009 -0.004811,0.005083 -0.020785,0.021243 -0.0445585,0.0450792 -0.006517,0.006534 -0.0123084,0.0124408 -0.012867,0.0131245 -6.0932e-4,7.4715e-4 -0.0127074,0.00334 -0.0303638,0.006505 -0.0410633,0.007361 -0.049939,0.0100506 -0.067262,0.0203882 -0.020123,0.0120082 -0.0284738,0.0216641 -0.0342582,0.0396055 -0.004145,0.0128459 -0.003935,0.0286747 5.3322e-4,0.0409757 0.002671,0.007349 0.0128088,0.0206706 0.0204772,0.0269041 0.010296,0.008369 0.0256182,0.0154271 0.0438048,0.0201806 0.002662,6.9602e-4 0.005328,0.001393 0.007992,0.002091 0.001831,0.004235 0.00366,0.008471 0.005491,0.0127063 0.004009,0.009277 0.006986,0.0149466 0.0110328,0.021001 0.006173,0.009236 0.0206356,0.0262421 0.0274811,0.032316 0.0132148,0.0117252 0.0393268,0.0185032 0.0576881,0.0149746 0.004484,-8.633e-4 0.010578,-0.002691 0.0135413,-0.004064 0.0216819,-0.0100463 0.0378493,-0.0345768 0.0459448,-0.0697101 0.006512,-0.028258 0.006091,-0.0556578 -0.001153,-0.0749471 -0.001255,-0.003337 -0.002865,-0.008754 -0.00358,-0.0120349 -4.316e-4,-0.001988 -8.633e-4,-0.003977 -0.001302,-0.005965 0.001893,-0.002612 0.003785,-0.005224 0.005678,-0.007836 0.0138154,-0.0160757 0.0276304,-0.0321518 0.0414459,-0.0482277 0,0.0357393 0,0.0714785 0,0.10721774 0.0346777,0 0.0693557,0 0.104033338384,0 0.01109770162,0 0.01998700162,-0.004162 0.02667080162,-0.0124842 0.00618,-0.007693 0.009269,-0.0172137 0.009269,-0.0285627 0,-0.0172132 0,-0.034426 0,-0.0516389 0,-0.018285 -0.006556,-0.0293178 -0.0196715,-0.0331011 0.009331,-0.004414 0.0139968,-0.0133675 0.0139968,-0.0268605 0,-0.0155107 0,-0.0310214 0,-0.0465318 0,-0.0117277 -0.003024,-0.0214998 -0.009079,-0.0293181 -0.003442,-0.004569 -0.0123161,-0.010096 -0.0123161,-0.010096 0.0409666,-0.0476701 0.0819337,-0.09534 0.12290056,-0.14301007 0,0 0.0154468,-0.016618 0.0230424,-0.0249081 0.004604,-0.005024 0.009207,-0.0100478 0.0138104,-0.0150718 0.007009,-6.9638e-4 0.0140182,-0.001397 0.0210272,-0.002097 0.0404379,-0.004028 0.0662287,-0.0104765 0.0893104,-0.0223304 0.0313699,-0.0161102 0.0496984,-0.0363547 0.0571514,-0.0631213 0.005796,-0.0208147 0.003027,-0.0395653 -0.007669,-0.0519293 -0.0101721,-0.0117582 -0.0259565,-0.0186741 -0.055963,-0.0245207 -0.0147711,-0.00288 -0.0270343,-0.005908 -0.0319219,-0.007888 -0.0056,-0.002267 -0.00704,-0.005208 -0.009496,-0.0194071 -0.002898,-0.0167674 -0.005346,-0.0228255 -0.0139206,-0.0344677 -0.005614,-0.00762 -0.007436,-0.009594 -0.0117353,-0.0126949 -0.008869,-0.006397 -0.0253263,-0.00982 -0.0420003,-0.009695 z m 0.00758,0.0150412 c -0.0120041,0 0.020567,0.00304 0.0274731,0.009073 0.005085,0.004446 0.0128641,0.0164144 0.0145466,0.0223838 0.001408,0.004991 0.002626,0.0143315 0.002865,0.0220095 4.6788e-4,0.0149993 0.0117415,0.0395984 0.0205159,0.0447841 0.005053,0.002985 0.005111,-0.00152 1.3946e-4,-0.009572 -0.007814,-0.0126152 -0.007289,-0.0173796 0.001378,-0.0125138 0.003724,0.002093 0.0166513,0.005469 0.0336683,0.008795 0.0141861,0.002775 0.0275151,0.00635 0.0320162,0.008589 0.001831,9.1438e-4 0.004852,0.002992 0.00671,0.004625 0.0154561,0.0135739 0.0164534,0.0360729 0.002604,0.0587225 -0.007849,0.0128365 -0.019103,0.0238784 -0.0333067,0.0326778 -0.0103941,0.00644 -0.0162759,0.009186 -0.0268666,0.0125441 -0.0160068,0.005077 -0.0540641,0.0122653 -0.0765425,0.0144589 -0.0101961,9.9058e-4 -0.0113625,0.001302 -0.0155858,0.004102 -0.005065,0.003359 -0.0400595,0.0401244 -0.0400595,0.0401244 -0.0236978,0.0272845 -0.0473956,0.0545692 -0.0710933,0.0818539986 C -0.01004543,0.06786956 -0.06944576,0.13626304 -0.12884593,0.20465675 c 0,0 -0.0416837,0.0517915 -0.0422726,0.0545136 -4.0622e-4,0.001846 0.001117,0.006516 0.005443,0.0167692 0.003329,0.007889 0.006953,0.0221747 0.007845,0.0309203 8.4907e-4,0.008354 -4.45e-5,0.0261113 -0.001781,0.0354371 -0.004226,0.0226389 -0.0122653,0.0410829 -0.0232596,0.0533657 -0.003395,0.003793 -0.0111837,0.009636 -0.0157446,0.0118111 -0.0169201,0.008069 -0.0381241,0.005253 -0.0534227,-0.007096 -0.011805,-0.00953 -0.0281941,-0.0313647 -0.0343392,-0.0457503 -0.002818,-0.006599 -0.003029,-0.009885 -7.3628e-4,-0.0115958 0.003072,-0.002293 0.007418,4.89e-6 0.0143972,0.007612 0.007053,0.00769 0.009692,0.007228 0.005077,-8.901e-4 -0.002688,-0.004725 -0.008676,-0.0105797 -0.0131437,-0.0128488 -0.001882,-9.5624e-4 -0.010158,-0.003238 -0.018389,-0.00507 -0.0233351,-0.005194 -0.0407367,-0.0120238 -0.0504113,-0.0197831 -0.004924,-0.003947 -0.0112145,-0.0120855 -0.0135264,-0.0174972 -0.00525,-0.0122885 -0.003416,-0.0340558 0.003877,-0.046047 0.002278,-0.003738 0.003776,-0.005117 0.0135181,-0.0124194 0.008434,-0.006322 0.0123999,-0.008844 0.017207,-0.0109407 0.0124985,-0.005451 0.025768,-0.008989 0.0512401,-0.0136613 0.0141836,-0.002601 0.0282815,-0.00545 0.0313303,-0.006331 0.005263,-0.00152 0.005826,-0.001868 0.0111156,-0.006892 0.0172142,-0.0163456 0.075908,-0.0758333 0.089161,-0.0903673 0.003133,-0.003435 0.008992,-0.009636 0.0130208,-0.0137796 0.004028,-0.004143 0.0117379,-0.0122373 0.0171323,-0.0179871 0.005393,-0.005748 0.0175156,-0.0185479 0.0269366,-0.0284426 0.009421,-0.009894 0.0259867,-0.0276337 0.0259867,-0.0276337 0.0540465,-0.0613351 0.10809318,-0.12266996 0.16213963,-0.18400514 0,0 0.0111471,-0.0163895 0.0120676,-0.0261859 0.001041,-0.0110532 1.3945e-4,-0.0170829 -0.005329,-0.035554 -0.0116135,-0.0392569 -0.0109672,-0.0699005 0.001879,-0.0891124 0.0101366,-0.0151593 0.0242483,-0.0237454 0.0440624,-0.026805 0.007045,-0.001089 0.0241243,-0.001574 0.018668,-0.001574 0,0 0,0 0,0 z m -0.59069503,0.0742433 c -0.00252,0 -0.004731,9.5038e-4 -0.006623,0.002836 -0.001892,0.00189 -0.002839,0.004099 -0.002839,0.006621 0,0.0774266 0,0.15485323 0,0.23227974 0.0116014,0 0.0232019,0 0.0348033,0 0,-0.0359391 0,-0.0718782 0,-0.10781766 0.0248423,0 0.0496845,0 0.074527,0 0,0.0359395 0,0.0718785 0,0.10781766 0.0116023,0 0.034805,0 0.034805,0 0,-0.0774265 0,-0.15485318 0,-0.23227974 0,-0.00252 -9.5039e-4,-0.004729 -0.002836,-0.006621 -0.00189,-0.00189 -0.004099,-0.002836 -0.006622,-0.002836 -0.008449,0 -0.0168972,0 -0.0253459,0 0,0.0346149 0,0.0692303 0,0.10384532 -0.0248426,0 -0.0496848,0 -0.074527,0 0,-0.0346149 0,-0.10384532 0,-0.10384532 -0.008449,0 -0.0168976,0 -0.0253463,0 z m 0.28505528,0.0264825 c 0,0 0,0.12219339 0,0.18328995 0,0.0213113 0.0122311,0.0319658 0.0366953,0.0319658 0.007692,0 0.0153841,0 0.0230761,0 0,-0.009142 0,-0.0182842 0,-0.027426 -0.003657,0 -0.007062,6.67e-5 -0.0102139,1.775e-4 -0.003024,1.3949e-4 -0.005676,-1.775e-4 -0.007945,-9.5039e-4 -0.004919,-0.00164 -0.007378,-0.006243 -0.007378,-0.0138085 0,-0.0577547 0,-0.11550905 0,-0.17326375 -0.0114122,0 -0.0228237,0 -0.0342356,0 z m -0.0872011,0.0302636 c -0.0113498,0 -0.0215633,0.003595 -0.0306427,0.0107819 -0.00971,0.007692 -0.0145644,0.0170881 -0.0145644,0.028185 0,0.0354342 0,0.0708689 0,0.1063033 0,0.0110963 0.004855,0.0204926 0.0145644,0.028185 0.008954,0.007062 0.0191673,0.0105918 0.0306427,0.0105918 0.008133,0 0.0162672,0 0.0244011,0 0.0113487,0 0.0213743,-0.003595 0.0300754,-0.0107819 0.009331,-0.007819 0.0139983,-0.0171504 0.0139983,-0.0279954 0,-0.0354346 0,-0.0708689 0,-0.10630335 0,-0.0109708 -0.004667,-0.0203029 -0.0139983,-0.0279954 -0.008954,-0.007314 -0.0189784,-0.0109709 -0.0300754,-0.0109709 -0.008133,0 -0.0162672,0 -0.0244011,-5e-8 z m 0.002271,0.0279954 c 0.00599,0 0.0119802,0 0.0179705,0 0.005171,0 0.009079,0.001701 0.0117266,0.005107 0.002775,0.003279 0.004162,0.007314 0.004162,0.0121068 0,0.031273 0,0.0625463 0,0.0938192 0,0.004791 -0.001389,0.008891 -0.004162,0.0122957 -0.002648,0.003279 -0.006556,0.004919 -0.0117266,0.004919 -0.00599,0 -0.0119802,0 -0.0179705,0 -0.005295,0 -0.009141,-0.00164 -0.0115377,-0.004919 -0.002397,-0.003405 -0.003595,-0.007504 -0.003595,-0.0122957 0,-0.031273 0,-0.0625463 0,-0.0938192 0,-0.004791 0.001204,-0.008828 0.003595,-0.0121068 0.002397,-0.003405 0.006241,-0.005107 0.0115377,-0.005107 z m 0.21166302,0 c 0.00599,0 0.0119802,0 0.0179708,0 0.005171,0 0.009079,0.001701 0.0117263,0.005107 0.002775,0.003279 0.004162,0.007314 0.004162,0.0121068 0,0.0216663 0,0.0433325 0,0.0649987 -0.003155,0.003609 -0.005279,0.006039 -0.00828,0.00947 -0.0114122,0.0130512 -0.0216975,0.0247116 -0.0314747,0.0356932 -0.002368,-7.9793e-4 -0.004251,-0.002144 -0.005642,-0.004047 -0.002397,-0.003405 -0.003595,-0.007504 -0.003595,-0.0122957 0,-0.0312731 0,-0.0625463 0,-0.0938192 0,-0.004791 0.001204,-0.008828 0.003595,-0.0121068 0.002397,-0.003405 0.006241,-0.005107 0.0115376,-0.005107 z m -0.006855,0.28462869 c 0.005006,-0.005827 0.0113716,0.005888 0.0113716,0.0137908 0,0.0146279 0,0.029255 0,0.0438826 0,0.003657 -0.001077,0.007 -0.003217,0.0100263 -0.002016,0.003024 -0.004981,0.00454 -0.00889,0.00454 -0.0180328,0 -0.0360657,0 -0.0540986,0 0,-0.002811 0,-0.005625 0,-0.008437 0.0182773,-0.0212674 0.0365543,-0.0425346 0.0548315,-0.063802 z m 0.38211374,0.0255178 c -0.0109708,0 -0.0200502,0.004162 -0.0272381,0.0124844 -0.006557,0.007818 -0.009837,0.0173393 -0.009837,0.0285627 0,0.034426 0,0.0688519 0,0.10327785 0,0.0113495 0.003658,0.0209961 0.0109714,0.0289406 0.00744,0.008197 0.0167721,0.0122944 0.0279954,0.0122944 0.014943,0 0.0298864,0 0.0448294,0 0.00618,0 0.011665,-0.001135 0.0164563,-0.003405 0.0143755,-0.006936 0.0217525,-0.0199237 0.0221309,-0.0389651 -0.0108453,0 -0.0216897,0 -0.0325349,0 1.3314e-4,0.004414 -0.001139,0.00788 -0.003785,0.0104025 -0.00252,0.002397 -0.005928,0.003595 -0.0102147,0.003595 -0.009584,0 -0.0191681,0 -0.0287523,0 -0.0102142,0 -0.0153213,-0.005043 -0.0153213,-0.015132 0,-0.0114125 0,-0.0342373 0,-0.0342373 0.0184111,0 0.0368224,0 0.0552334,0 0.0110973,0 0.0197981,-0.004098 0.0261033,-0.0122943 0.005928,-0.007566 0.00889,-0.0168983 0.00889,-0.0279954 0,-0.008197 0,-0.0163938 0,-0.0245907 0,-0.0114753 -0.003215,-0.0213113 -0.009647,-0.0295082 -0.006933,-0.008953 -0.016015,-0.0134295 -0.0272379,-0.0134295 -0.0160148,0 -0.0320296,0 -0.0480446,1.8e-7 z m -0.26651706,5.658e-4 c -0.0113498,0 -0.0215633,0.003595 -0.030643,0.0107819 -0.009709,0.007693 -0.0145662,0.0170866 -0.0145662,0.0281836 0,0.035435 0,0.07087 0,0.1063049 0,0.0110971 0.004856,0.0204912 0.0145662,0.0281834 0.008954,0.007062 0.0191674,0.0105936 0.030643,0.0105936 0.008133,0 0.0162672,0 0.0244006,0 0.0113488,0 0.0213743,-0.003594 0.0300754,-0.0107818 0.009331,-0.007818 0.0139968,-0.0171505 0.0139968,-0.0279953 0,-0.035435 0,-0.07087 0,-0.10630494 0,-0.0109708 -0.004666,-0.0203015 -0.0139968,-0.0279935 -0.008954,-0.007314 -0.0189784,-0.0109715 -0.0300754,-0.0109715 -0.008133,0 -0.0162672,0 -0.0244006,-3.6e-7 z m 0.0871992,5.6581e-4 c -6.669e-5,0 1.3946e-4,0.12282345 2.0287e-4,0.18423507 0.0107819,0 0.0323452,0 0.0323452,0 0,-0.0450812 0,-0.0901625 0,-0.13524371 0,-0.002271 3.1696e-4,-0.004667 9.5039e-4,-0.007189 0.002016,-0.009206 0.006746,-0.0138071 0.0141864,-0.0138071 0.009205,0 0.0184108,0 0.027616,0 0.005171,0 0.00908,0.001701 0.0117288,0.005107 0.002775,0.003279 0.00416,0.007313 0.00416,0.0121046 0,0.0463426 0,0.0926853 0,0.13902792 0.0107819,0 0.0323453,0 0.0323453,0 0,-0.0484232 0,-0.0968467 0,-0.14526998 0,-0.011097 -0.004034,-0.0203653 -0.0121044,-0.0278057 -0.007817,-0.00744 -0.0172142,-0.0111594 -0.028185,-0.0111594 -0.0107184,0 -0.0214371,0 -0.0321554,0 -0.00744,0 -0.0148168,0.003658 -0.0221309,0.0109715 0,-0.003657 0,-0.007314 0,-0.0109715 -0.009647,0 -0.019294,0 -0.0289406,0 z m -0.0849294,0.0274277 c 0.00599,0 0.0119788,0 0.017969,0 0.005171,0 0.009079,0.001701 0.0117263,0.005107 0.002775,0.003279 0.004162,0.007313 0.004162,0.012105 0,0.0312737 0,0.0625471 0,0.0938208 0,0.004791 -0.001389,0.00889 -0.004162,0.0122943 -0.002648,0.003279 -0.006556,0.004919 -0.0117263,0.004919 -0.005989,0 -0.0119802,0 -0.017969,0 -0.005295,0 -0.009142,-0.00164 -0.0115388,-0.004919 -0.002397,-0.003405 -0.003595,-0.007503 -0.003595,-0.0122943 0,-0.0312737 0,-0.0625471 0,-0.0938208 0,-0.004791 0.001204,-0.008826 0.003595,-0.012105 0.002397,-0.003405 0.006243,-0.005107 0.0115388,-0.005107 z m 0.27427169,7.5441e-4 c 0.008701,0 0.0174022,0 0.0261032,0 0.00479,0 0.008827,0.001201 0.0121063,0.003595 0.003408,0.002397 0.005108,0.006242 0.005108,0.0115392 0,0.006494 0,0.0129878 0,0.0194818 0,0.005171 -0.0017,0.009142 -0.005108,0.0119167 -0.003282,0.002648 -0.00731,0.003972 -0.0121063,0.003972 -0.0138082,0 -0.0414247,0 -0.0414247,0 0,-0.0115384 0,-0.0230765 0,-0.0346149 0,-0.0105929 0.005107,-0.015889 0.0153215,-0.0158898 z m -0.44696974,0.0474788 c 0.018537,0 0.0370742,0 0.0556112,0 0.0108453,0 0.0162669,0.004728 0.0162669,0.0141865 0,0.0169607 0,0.0339211 0,0.050882 0,0.009962 -0.004791,0.0149434 -0.0143747,0.0149434 -0.0191678,0 -0.0383354,0 -0.0575033,0 0,-0.0266704 0,-0.0533412 -1e-7,-0.0800119 z"
     id="text6193"
     inkscape:connector-curvature="0"
     sodipodi:nodetypes="ssssscscsscssccssscssscssssscccssscsccccccscsscssccccccscccccccssccccccccccssscccccsscccssccscssccccscsccssccssscsscsccccccscsccccscssccccsccsssscsscsscsssscsscsscsscssccsccccsscscsscscccsssscssccccssscscsscssscsscsscsscsscscscssccccscsscccsscsscsscsscssccsscscssccsssccc" />
  <g
     aria-label="Bone"
     style="font-style:normal;font-weight:normal;font-size:232.41696167px;line-height:1.25;font-family:sans-serif;letter-spacing:0px;word-spacing:0px;fill:#000000;fill-opacity:1;stroke:none;stroke-width:1.74312723"
     id="text6197" />
</svg>
