<?xml version="1.0" encoding="UTF-8" standalone="no"?>
<!-- Created with Inkscape (http://www.inkscape.org/) -->

<svg
   xmlns:dc="http://purl.org/dc/elements/1.1/"
   xmlns:cc="http://creativecommons.org/ns#"
   xmlns:rdf="http://www.w3.org/1999/02/22-rdf-syntax-ns#"
   xmlns:svg="http://www.w3.org/2000/svg"
   xmlns="http://www.w3.org/2000/svg"
   xmlns:sodipodi="http://sodipodi.sourceforge.net/DTD/sodipodi-0.dtd"
   xmlns:inkscape="http://www.inkscape.org/namespaces/inkscape"
   version="1.1"
   id="svg5628"
   width="1140"
   height="912"
   viewBox="0 0 1140 912"
   sodipodi:docname="logo.svg"
   inkscape:version="0.92.4 5da689c313, 2019-01-14">
  <metadata
     id="metadata5634">
    <rdf:RDF>
      <cc:Work
         rdf:about="">
        <dc:format>image/svg+xml</dc:format>
        <dc:type
           rdf:resource="http://purl.org/dc/dcmitype/StillImage" />
        <dc:title />
      </cc:Work>
    </rdf:RDF>
  </metadata>
  <defs
     id="defs5632" />
  <sodipodi:namedview
     pagecolor="#ffffff"
     bordercolor="#666666"
     borderopacity="1"
     objecttolerance="10"
     gridtolerance="10"
     guidetolerance="10"
     inkscape:pageopacity="0"
     inkscape:pageshadow="2"
     inkscape:window-width="1918"
     inkscape:window-height="1058"
     id="namedview5630"
     showgrid="false"
     inkscape:zoom="32"
     inkscape:cx="13.835385"
     inkscape:cy="901.45082"
     inkscape:window-x="0"
     inkscape:window-y="20"
     inkscape:window-maximized="0"
     inkscape:current-layer="svg5628" />
  <flowRoot
     xml:space="preserve"
     id="flowRoot6183"
     style="fill:black;fill-opacity:1;stroke:none;font-family:sans-serif;font-style:normal;font-weight:normal;font-size:13.33333333px;line-height:1.25;letter-spacing:0px;word-spacing:0px"><flowRegion
       id="flowRegion6185"><rect
         id="rect6187"
         width="664.67798"
         height="359.38983"
         x="54.101696"
         y="104.33898" /></flowRegion><flowPara
       id="flowPara6189" /></flowRoot>  <path
     style="font-style:normal;font-weight:normal;font-size:472.84832764px;line-height:1.25;font-family:sans-serif;letter-spacing:0px;word-spacing:0px;fill:#000000;fill-opacity:1;stroke:#000000;stroke-width:0.06307311;stroke-opacity:1"
     d="m 13.981137,0.4493729 c -0.223998,0.001367 -0.449698,0.0293603 -0.641524,0.0858462 -0.359807,0.10591866 -0.832476,0.4778907 -1.000883,0.7875664 -0.231768,0.4262354 -0.235148,1.0182746 -0.01023,1.7945009 0.152467,0.525915 0.162094,0.7737022 0.03806,0.9809365 -0.06605,0.1104283 -0.289104,0.3653478 -0.739071,0.8436136 0,-0.2331525 0,-0.4662736 0,-0.6994117 0,-0.2249344 -0.104555,-0.4162708 -0.313396,-0.5739903 -0.200378,-0.1499591 -0.424914,-0.2249344 -0.673338,-0.2249344 -0.182019,0 -0.364196,0 -0.546305,0 -0.2541108,0 -0.4827882,0.073708 -0.6860545,0.2210607 -0.2173936,0.1577094 -0.3260681,0.3503578 -0.3260681,0.5778779 0,0.7265187 0,1.4530271 0,2.1795404 0,0.2275065 0.1085851,0.4201624 0.3260681,0.5778779 0.048583,0.035101 0.098958,0.065816 0.1508993,0.092449 C 9.2888609,7.3657935 9.0257946,7.6276028 8.7457128,7.9019127 8.5932463,8.0512775 8.4257345,8.2171017 8.3735019,8.2703994 8.259096,8.3871436 7.8439435,8.795726 7.5499159,9.0809333 7.4323757,9.1949506 7.2692072,9.3532914 7.1873209,9.4328 6.9405063,9.6724743 6.4994458,10.090271 6.3366515,10.238553 c -0.084203,0.07668 -0.2026396,0.187417 -0.2632746,0.246055 -0.1077126,0.104218 -0.4653478,0.435546 -0.9976038,0.92426 -0.1459064,0.133968 -0.2755682,0.255074 -0.2880745,0.269094 -0.013642,0.01531 -0.2845014,0.06848 -0.6798039,0.133372 -0.919351,0.150924 -1.1180658,0.206068 -1.505904,0.41802 -0.4505264,0.246206 -0.6374894,0.44418 -0.7669941,0.812033 -0.092802,0.263382 -0.0881,0.587924 0.011931,0.840132 0.0598,0.150696 0.2867714,0.423818 0.4584565,0.551613 0.2305133,0.171611 0.5735564,0.3163 0.9807294,0.413772 0.059599,0.01426 0.1192862,0.0285 0.1789299,0.04285 0.040993,0.08673 0.081942,0.173661 0.1229364,0.260513 0.089756,0.190267 0.156407,0.306459 0.2470093,0.430584 0.138205,0.189447 0.4620029,0.53804 0.6152642,0.662576 0.2958612,0.240398 0.8804732,0.379367 1.2915576,0.307033 0.1003904,-0.0177 0.2368268,-0.05515 0.3031712,-0.08324 0.4854278,-0.205974 0.8473938,-0.708933 1.028641,-1.429266 0.1457954,-0.579375 0.1363691,-1.141157 -0.025814,-1.536641 -0.028098,-0.06848 -0.064144,-0.1794 -0.080152,-0.246753 -0.00967,-0.0408 -0.019327,-0.0816 -0.02915,-0.122196 0.042382,-0.05351 0.084741,-0.107026 0.1271232,-0.160744 0.3093079,-0.329607 0.6186067,-0.659209 0.9279169,-0.988814 0,0.732764 0,1.465526 0,2.198289 0.7763928,0 1.5527858,0 2.3291638,0 0.248468,0 0.447481,-0.08529 0.597127,-0.25596 0.138362,-0.15767 0.207542,-0.35294 0.207542,-0.585629 0,-0.352918 0,-0.705837 0,-1.058753 0,-0.374898 -0.14687,-0.601104 -0.440407,-0.678673 0.208893,-0.09051 0.31338,-0.274079 0.31338,-0.550727 0,-0.318017 0,-0.636033 0,-0.954043 0,-0.2404545 -0.06761,-0.4408109 -0.203288,-0.6011099 -0.07702,-0.093677 -0.275739,-0.2069981 -0.275739,-0.2069981 0.917195,-0.9773815 1.83439,-1.9547588 2.751576,-2.9321395 0,0 0.345837,-0.3407195 0.515879,-0.5106916 0.102988,-0.1030071 0.206199,-0.2060113 0.309187,-0.3090175 0.156944,-0.014264 0.313844,-0.028644 0.470766,-0.042996 0.905352,-0.082585 1.482776,-0.2147991 1.999528,-0.4578397 0.702332,-0.330308 1.112671,-0.7453815 1.279533,-1.2941779 C 17.977649,3.3155741 17.915633,2.9311302 17.676074,2.6776306 17.448337,2.4365521 17.094955,2.2947552 16.423139,2.174882 16.092437,2.1158333 15.817884,2.0537502 15.70845,2.0131543 15.583073,1.9666739 15.550833,1.9063745 15.495758,1.6152499 15.43083,1.2714675 15.375979,1.1472581 15.184086,0.90855769 15.058484,0.75232462 15.017514,0.71185165 14.921355,0.64827381 14.722768,0.51711594 14.35434,0.44693407 13.981032,0.44949696 Z m 0.169706,0.30839016 c -0.268753,0 0.460467,0.0623291 0.615083,0.18602407 0.113958,0.0911566 0.288008,0.33654487 0.325687,0.45893567 0.03157,0.1023307 0.05889,0.2938392 0.06403,0.4512614 0.01048,0.3075311 0.262886,0.811887 0.459325,0.9182096 0.113069,0.061202 0.11441,-0.031165 0.0031,-0.1962561 -0.174855,-0.2586491 -0.163213,-0.3563345 0.03089,-0.2565705 0.08329,0.042914 0.372795,0.1121298 0.753782,0.1803248 0.317605,0.056897 0.616023,0.1301937 0.716794,0.1760993 0.04097,0.018745 0.108584,0.061344 0.150235,0.094826 0.346038,0.2783068 0.368361,0.7396039 0.05821,1.2039891 -0.17575,0.2631864 -0.42769,0.4895795 -0.745697,0.6699939 -0.232707,0.1320398 -0.364398,0.1883414 -0.601517,0.2571914 -0.358374,0.1040932 -1.210418,0.2514746 -1.713669,0.2964513 -0.228275,0.020304 -0.254402,0.026685 -0.34895,0.084104 -0.113474,0.068872 -0.896853,0.8226739 -0.896853,0.8226739 -0.530565,0.5594149 -1.061131,1.1188338 -1.591674,1.678255 -1.329885,1.4022655 -2.6597787,2.8045401 -3.9896673,4.2068181 0,0 -0.9332409,1.061883 -0.9464255,1.117694 -0.00909,0.03793 0.025008,0.133679 0.121862,0.343815 0.074532,0.16177 0.1556681,0.454655 0.1756387,0.633953 0.01901,0.171199 -9.962e-4,0.535355 -0.039874,0.726566 -0.094615,0.464169 -0.2746041,0.842326 -0.5207513,1.094164 -0.07601,0.07771 -0.2503878,0.19765 -0.3525001,0.242162 C 5.4990687,16.313907 5.0243401,16.256089 4.6818254,16.002876 4.4175277,15.807482 4.0505981,15.359799 3.9130177,15.064863 3.8499271,14.929542 3.8452024,14.862294 3.8965329,14.82711 c 0.068777,-0.04695 0.1660788,1.01e-4 0.3223336,0.156028 0.157907,0.15767 0.2169906,0.148238 0.1136674,-0.01826 -0.06018,-0.09677 -0.1942438,-0.216921 -0.2942695,-0.263445 -0.042135,-0.01959 -0.2274234,-0.06642 -0.4117042,-0.103937 -0.522441,-0.106411 -0.9120388,-0.246528 -1.12864,-0.405611 -0.1102415,-0.08099 -0.2510773,-0.24778 -0.3028375,-0.358742 -0.1175397,-0.251942 -0.07648,-0.698251 0.0868,-0.944103 0.051001,-0.07668 0.084539,-0.104975 0.3026517,-0.254628 0.1888256,-0.129578 0.2776167,-0.181246 0.3852411,-0.224324 0.2798243,-0.111762 0.5769102,-0.184301 1.1471956,-0.280099 0.3175514,-0.05333 0.633184,-0.111742 0.7014426,-0.129806 0.117831,-0.03116 0.1304358,-0.0383 0.2488629,-0.141307 C 5.4526798,11.523744 6.7667536,10.304066 7.06347,10.006075 7.1336131,9.9356479 7.2647887,9.8085083 7.3549879,9.723551 7.4451689,9.6386079 7.6177835,9.4726493 7.7385566,9.3547612 7.859298,9.2369088 8.1307069,8.9744729 8.3416302,8.7716017 8.5525311,8.5687438 8.9234435,8.2050272 8.9234435,8.2050272 10.133482,6.9474719 11.343502,5.6899216 12.553529,4.4323645 c 0,0 0.249566,-0.3360342 0.270186,-0.5368903 0.02328,-0.2266245 0.0031,-0.3502511 -0.119331,-0.7289645 -0.259999,-0.8048853 -0.245536,-1.433172 0.04209,-1.8270741 0.226953,-0.3108115 0.542879,-0.48685261 0.986487,-0.54958365 0.157616,-0.022329 0.540104,-0.0322718 0.417951,-0.0322718 0,0 0,0 0,0 z M 0.92598974,2.2799756 c -0.0564193,0 -0.10592055,0.019482 -0.14827983,0.058148 -0.0423593,0.038751 -0.0635613,0.084041 -0.0635613,0.1357519 0,1.5874796 0,3.17496 0,4.762438 0.25973945,0 0.51945879,0 0.77919829,0 0,-0.7368605 0,-1.4737207 0,-2.2105886 0.556185,0 1.1123679,0 1.6685574,0 0,0.7368687 0,1.4737269 0,2.2105886 0.2597595,0 0.7792363,0 0.7792363,0 0,-1.5874777 0,-3.174959 0,-4.762438 0,-0.051668 -0.021277,-0.096958 -0.063495,-0.1357519 -0.042314,-0.038751 -0.09177,-0.058148 -0.1482572,-0.058148 -0.1891616,0 -0.3783051,0 -0.5674601,0 0,0.7097102 0,1.4194308 0,2.1291435 -0.5561916,0 -1.1123745,0 -1.6685573,0 0,-0.7097105 0,-2.1291435 0,-2.1291435 -0.1891616,0 -0.3783141,0 -0.56746897,0 z M 7.3079868,2.822947 c 0,0 0,2.5053344 0,3.7579991 0,0.4369459 0.2738376,0.6553955 0.8215575,0.6553955 0.1721685,0 0.3444267,0 0.5166401,0 0,-0.1874397 0,-0.3748814 0,-0.5623159 -0.081943,0 -0.1580637,0.00137 -0.2286775,0.00363 C 8.3498934,6.6805196 8.290339,6.6740257 8.2397412,6.6581736 8.1295884,6.6245497 8.0745131,6.530172 8.0745131,6.3750574 c 0,-1.1841463 0,-2.3682854 0,-3.5524317 -0.2554991,0 -0.5109914,0 -0.7664882,0 z M 5.3556737,3.4434425 c -0.2541065,0 -0.4827728,0.073708 -0.686048,0.2210608 -0.2173936,0.1577093 -0.326077,0.3503577 -0.326077,0.5778779 0,0.7265081 0,1.4530268 0,2.1795395 0,0.2275065 0.1086975,0.4201604 0.326077,0.5778776 0.2004677,0.1447924 0.4291295,0.2171644 0.686048,0.2171644 0.1820867,0 0.3642002,0 0.5463071,0 0.2540819,0 0.4785414,-0.073708 0.6733471,-0.2210607 0.2089083,-0.1603126 0.3134027,-0.3516351 0.3134027,-0.5739906 0,-0.7265164 0,-1.4530269 0,-2.1795405 0,-0.2249344 -0.1044877,-0.416271 -0.3134027,-0.5739906 C 6.3748601,3.5184212 6.1504276,3.4434431 5.9019808,3.4434431 c -0.1820867,0 -0.3642002,0 -0.5463071,-6e-7 z m 0.050845,0.5739903 c 0.1341077,0 0.2682203,0 0.402335,0 0.1157715,0 0.2032663,0.034874 0.2625424,0.1047085 0.062129,0.067228 0.093182,0.1499592 0.093182,0.2482248 0,0.641191 0,1.2823883 0,1.9235776 0,0.098229 -0.031098,0.1822928 -0.093182,0.2520985 -0.059285,0.067228 -0.1467804,0.1008546 -0.2625424,0.1008546 -0.1341077,0 -0.2682204,0 -0.402335,0 -0.1185478,0 -0.2046545,-0.033624 -0.2583133,-0.1008546 -0.053666,-0.069814 -0.080487,-0.1538555 -0.080487,-0.2520985 0,-0.6411913 0,-1.2823886 0,-1.9235776 0,-0.098229 0.026956,-0.1809997 0.080487,-0.2482248 0.053666,-0.069814 0.139728,-0.1047085 0.2583133,-0.1047085 z m 4.7388443,0 c 0.134108,0 0.268216,0 0.402346,0 0.115749,0 0.203289,0.034874 0.262529,0.1047085 0.06202,0.067228 0.09314,0.1499592 0.09314,0.2482248 0,0.4442245 0,0.8884473 0,1.3326702 -0.07075,0.073994 -0.118211,0.1238188 -0.185377,0.1941633 C 10.462498,6.1647899 10.23223,6.4038622 10.013314,6.6290181 9.9602528,6.6126556 9.9181621,6.5850606 9.8870422,6.546043 9.83331,6.4762288 9.8064432,6.3921875 9.8064432,6.2939446 c 0,-0.6411933 0,-1.2823886 0,-1.9235777 0,-0.098229 0.026867,-0.1809996 0.080599,-0.2482247 C 9.9407744,4.052328 10.026747,4.0174337 10.145363,4.0174328 Z M 9.9920004,9.853183 c 0.1121676,-0.1194716 0.2546036,0.1207222 0.2546036,0.282753 0,0.299917 0,0.599816 0,0.899726 0,0.07498 -0.02418,0.143522 -0.07209,0.205569 -0.04522,0.062 -0.111496,0.09308 -0.1990353,0.09308 -0.4037341,0 -0.8074683,0 -1.2112026,0 0,-0.05763 0,-0.115329 0,-0.172983 0.409197,-0.436048 0.818394,-0.87209 1.227591,-1.3081356 z m 8.5550046,0.523192 c -0.245626,0 -0.448892,0.08533 -0.609822,0.255969 -0.146874,0.160293 -0.220304,0.355508 -0.220304,0.585622 0,0.705837 0,1.411672 0,2.117508 0,0.232711 0.08195,0.430482 0.245627,0.593379 0.16657,0.168125 0.375501,0.252064 0.626769,0.252064 0.334552,0 0.669106,0 1.003659,0 0.138365,0 0.261164,-0.02337 0.368428,-0.06992 0.321837,-0.142291 0.486997,-0.408502 0.495483,-0.798901 -0.242806,0 -0.485609,0 -0.728415,0 0.0029,0.09042 -0.02553,0.161564 -0.08463,0.213294 -0.05642,0.04921 -0.13277,0.07381 -0.228701,0.07381 -0.214483,0 -0.429145,0 -0.643718,0 -0.228677,0 -0.343015,-0.103336 -0.343015,-0.310252 0,-0.233981 0,-0.701962 0,-0.701962 0.412196,0 0.824393,0 1.236591,0 0.248446,0 0.44325,-0.08406 0.58441,-0.25207 0.13277,-0.155126 0.199034,-0.346467 0.199034,-0.573991 0,-0.168063 0,-0.336122 0,-0.504184 0,-0.235279 -0.07186,-0.436946 -0.216049,-0.605007 -0.155154,-0.183563 -0.358554,-0.275346 -0.609822,-0.275346 -0.358554,0 -0.717107,0 -1.075661,3e-6 z m -5.966953,0.0116 c -0.254111,0 -0.482766,0.07371 -0.686055,0.221061 -0.217393,0.157729 -0.326112,0.350327 -0.326112,0.577849 0,0.726525 0,1.45305 0,2.179573 0,0.227524 0.108808,0.420128 0.326112,0.577837 0.200379,0.144753 0.429123,0.21721 0.686055,0.21721 0.18202,0 0.364196,0 0.546305,0 0.254089,0 0.478535,-0.07361 0.673338,-0.221064 0.208886,-0.160332 0.313374,-0.351647 0.313374,-0.573982 0,-0.726525 0,-1.45305 0,-2.179574 0,-0.224934 -0.104556,-0.416242 -0.313374,-0.573951 -0.200378,-0.149959 -0.424891,-0.224949 -0.673338,-0.224949 -0.182019,0 -0.364196,0 -0.546305,-10e-6 z m 1.952266,0.0116 c -0.0015,0 0.0031,2.518252 0.0045,3.777377 0.241394,0 0.72416,0 0.72416,0 0,-0.924296 0,-1.848606 0,-2.772906 0,-0.04656 0.0071,-0.09569 0.02127,-0.147396 0.04523,-0.188749 0.151129,-0.283087 0.317606,-0.283087 0.206199,0 0.412196,0 0.618283,0 0.115751,0 0.203288,0.03487 0.262596,0.104708 0.06202,0.06723 0.09314,0.149939 0.09314,0.248182 0,0.950164 0,1.90033 0,2.850494 0.241393,0 0.72416,0 0.72416,0 0,-0.992818 0,-1.98565 0,-2.978475 0,-0.227524 -0.09023,-0.41755 -0.270992,-0.570101 -0.175079,-0.152543 -0.385399,-0.228802 -0.631024,-0.228802 -0.239961,0 -0.479945,0 -0.719906,0 -0.166572,0 -0.331733,0.075 -0.495483,0.224948 0,-0.07498 0,-0.149959 0,-0.224948 -0.21605,0 -0.431966,0 -0.647949,0 z m -1.901444,0.562355 c 0.134108,0 0.268194,0 0.402302,0 0.115748,0 0.203288,0.03488 0.262529,0.104709 0.06202,0.06723 0.09314,0.149939 0.09314,0.248188 0,0.641205 0,1.282405 0,1.92361 0,0.09821 -0.03112,0.182273 -0.09314,0.252065 -0.05933,0.06725 -0.14687,0.100874 -0.262529,0.100874 -0.134108,0 -0.268216,0 -0.402302,0 -0.11866,0 -0.204632,-0.03362 -0.258342,-0.100874 -0.05373,-0.06971 -0.0806,-0.153774 -0.0806,-0.252065 0,-0.641211 0,-1.282405 0,-1.92361 0,-0.09823 0.02687,-0.18096 0.0806,-0.248188 0.05373,-0.06981 0.139705,-0.104709 0.258342,-0.104709 z m 6.140568,0.01546 c 0.194781,0 0.389607,0 0.58441,0 0.107242,0 0.197692,0.02461 0.271036,0.07371 0.07635,0.04915 0.114411,0.127979 0.114411,0.23659 0,0.133145 0,0.266288 0,0.399436 0,0.106021 -0.03806,0.187439 -0.114411,0.244328 -0.07344,0.05429 -0.163659,0.08144 -0.271036,0.08144 -0.309142,0 -0.927449,0 -0.927449,0 0,-0.236573 0,-0.473138 0,-0.70971 0,-0.217188 0.114411,-0.325773 0.343039,-0.32579 z M 8.7644028,11.95085 c 0.415018,0 0.830036,0 1.2450542,0 0.242805,0 0.364196,0.09694 0.364196,0.290866 0,0.347745 0,0.695485 0,1.043235 0,0.20421 -0.107243,0.306377 -0.321837,0.306377 -0.429145,0 -0.8582679,0 -1.2874132,0 0,-0.546816 0,-1.093652 0,-1.640478 z"
     id="text6193"
     inkscape:connector-curvature="0"
     sodipodi:nodetypes="ssssscscsscssccssscssscssssscccssscsccccccscsscssccccccscccccccssccccccccccssscccccsscccssccscssccccscsccssccssscsscsccccccscsccccscssccccsccsssscsscsscsssscsscsscsscssccsccccsscscsscscccsssscssccccssscscsscssscsscsscsscsscscscssccccscsscccsscsscsscsscssccsscscssccsssccc" />
  <g
     aria-label="Bone"
     style="font-style:normal;font-weight:normal;font-size:232.41696167px;line-height:1.25;font-family:sans-serif;letter-spacing:0px;word-spacing:0px;fill:#000000;fill-opacity:1;stroke:none;stroke-width:1.74312723"
     id="text6197" />
</svg>
