<?xml version="1.0" encoding="UTF-8" standalone="no"?>
<!-- Created with Inkscape (http://www.inkscape.org/) -->

<svg
   xmlns:dc="http://purl.org/dc/elements/1.1/"
   xmlns:cc="http://creativecommons.org/ns#"
   xmlns:rdf="http://www.w3.org/1999/02/22-rdf-syntax-ns#"
   xmlns:svg="http://www.w3.org/2000/svg"
   xmlns="http://www.w3.org/2000/svg"
   xmlns:sodipodi="http://sodipodi.sourceforge.net/DTD/sodipodi-0.dtd"
   xmlns:inkscape="http://www.inkscape.org/namespaces/inkscape"
   version="1.1"
   id="svg5628"
   width="369.77814"
   height="316.86038"
   viewBox="0 0 369.77814 316.86038"
   sodipodi:docname="logo_filled.svg"
   inkscape:version="0.92.4 5da689c313, 2019-01-14"
   inkscape:export-filename="/home/tamas/general/rustacean/holobone/hardware/logo_filled.png"
   inkscape:export-xdpi="1000"
   inkscape:export-ydpi="1000">
  <metadata
     id="metadata5634">
    <rdf:RDF>
      <cc:Work
         rdf:about="">
        <dc:format>image/svg+xml</dc:format>
        <dc:type
           rdf:resource="http://purl.org/dc/dcmitype/StillImage" />
        <dc:title></dc:title>
      </cc:Work>
    </rdf:RDF>
  </metadata>
  <defs
     id="defs5632" />
  <sodipodi:namedview
     pagecolor="#ffffff"
     bordercolor="#666666"
     borderopacity="1"
     objecttolerance="10"
     gridtolerance="10"
     guidetolerance="10"
     inkscape:pageopacity="0"
     inkscape:pageshadow="2"
     inkscape:window-width="958"
     inkscape:window-height="1062"
     id="namedview5630"
     showgrid="false"
     inkscape:zoom="2"
     inkscape:cx="184.77579"
     inkscape:cy="151.96301"
     inkscape:window-x="0"
     inkscape:window-y="16"
     inkscape:window-maximized="0"
     inkscape:current-layer="svg5628" />
  <flowRoot
     xml:space="preserve"
     id="flowRoot6183"
     style="font-style:normal;font-weight:normal;font-size:13.33333302px;line-height:1.25;font-family:sans-serif;letter-spacing:0px;word-spacing:0px;fill:#000000;fill-opacity:1;stroke:none"
     transform="translate(-82.970706,-215.53301)"><flowRegion
       id="flowRegion6185"><rect
         id="rect6187"
         width="664.67798"
         height="359.38983"
         x="54.101696"
         y="104.33898" /></flowRegion><flowPara
       id="flowPara6189" /></flowRoot>  <path
     style="font-style:normal;font-weight:normal;font-size:472.84832764px;line-height:1.25;font-family:sans-serif;letter-spacing:0px;word-spacing:0px;fill:#000000;fill-opacity:1;stroke:#000000;stroke-width:1.2303381;stroke-opacity:1"
     d="m 262.91834,4.4084303 c 2.12543,1.85761 5.37629,6.8602597 6.0794,9.3549097 0.58825,2.08699 1.09686,5.98957 1.19799,9.19837 0.19755,6.26864 4.90705,16.54939 8.57431,18.71658 2.11142,1.24777 2.13601,-0.63629 0.0522,-4.00053 -3.26574,-5.27242 -3.04618,-7.26355 0.57596,-5.22969 1.55694,0.87422 6.95908,2.28529 14.07098,3.67596 5.92876,1.15928 11.49935,2.65359 13.38051,3.58923 0.76568,0.38087 2.02796,1.25111 2.80457,1.93318 6.45957,5.673 6.87639,15.07588 1.08822,24.54189 -3.2804,5.36481 -7.98373,9.97946 -13.91987,13.65696 -4.34397,2.69112 -6.8022,3.83882 -11.22846,5.24257 -6.68972,2.12159 -22.59497,5.12621 -31.98935,6.04281 -4.26123,0.41576 -4.74879,0.5439 -6.51373,1.71432 -2.11677,1.40371 -16.74207,16.76917 -16.74207,16.76917 -9.90398,11.40305 -19.80797,22.8061 -29.71195,34.20915 l -74.47535,85.75124 c 0,0 -17.42083,21.64517 -17.66698,22.78284 -0.16694,0.77155 0.46679,2.72347 2.27469,7.00838 1.39099,3.29676 2.90601,9.26745 3.27889,12.92245 0.3562,3.49146 -0.0171,10.91265 -0.74468,14.81024 -1.76625,9.46149 -5.12604,17.16974 -9.7208,22.3031 -1.41882,1.58511 -4.673746,4.02713 -6.580136,4.93629 -7.07139,3.37236 -15.93312,2.19536 -22.32682,-2.96584 -4.93402,-3.9829 -11.78323,-13.10817 -14.3515,-19.12043 -1.1781,-2.75791 -1.26526,-4.13128 -0.30763,-4.84617 1.28398,-0.95852 3.10065,0.002 6.01706,3.18131 2.94793,3.21374 4.0504,3.02057 2.12155,-0.372 -1.12276,-1.97479 -3.6258,-4.4215 -5.49327,-5.36995 -0.78699,-0.39969 -4.24542,-1.35317 -7.68532,-2.11885 -9.7527,-2.17084 -17.02524,-5.02521 -21.06852,-8.26803 -2.05699,-1.64977 -4.68664,-5.05092 -5.65318,-7.31263 -2.19476,-5.13573 -1.42819,-14.23295 1.62148,-19.24443 0.95054,-1.56201 1.57823,-2.13857 5.64981,-5.19039 3.5248,-2.642 5.18218,-3.6961 7.19133,-4.57242 5.22332,-2.27822 10.76928,-3.75682 21.41479,-5.70944 5.92772,-1.08727 11.81969,-2.27785 13.09388,-2.64601 2.19945,-0.63549 2.43475,-0.78119 4.6456,-2.88047 7.19444,-6.83137 31.724236,-31.69298 37.263086,-37.76721 1.30928,-1.43583 3.75809,-4.02717 5.44178,-5.7589 1.68368,-1.73172 4.90581,-5.1146 7.16016,-7.51726 2.25435,-2.40265 7.32025,-7.75178 11.2576,-11.88708 3.93734,-4.1353 10.86051,-11.54896 10.86051,-11.54896 l 67.76309,-76.90115 c 0,0 4.65848,-6.84974 5.04335,-10.94386 0.43426,-4.61956 0.0564,-7.13958 -2.22727,-14.85903 -4.85368,-16.40666 -4.58338,-29.21349 0.78534,-37.24275 4.23624,-6.3355697 10.13413,-9.9236897 18.41505,-11.2027097 2.94431,-0.45474996 2.94485,-0.67868996 6.43362,-0.65658996 3.59925,0.11049 9.96381,1.26921996 12.85008,3.79182996 z"
     id="path849"
     inkscape:connector-curvature="0"
     sodipodi:nodetypes="ccccsccccccsscccccccccsssccccsccsccscscsccccscsccc" />
  <path
     style="font-style:normal;font-weight:normal;font-size:472.84832764px;line-height:1.25;font-family:sans-serif;letter-spacing:0px;word-spacing:0px;fill:#000000;fill-opacity:1;stroke:#000000;stroke-width:1.2303381;stroke-opacity:1"
     d="m 4.567584,31.64512 c -1.05403,0 -1.97609,0.39526 -2.76663,1.18579 -0.79052,0.79053 -1.18578495,1.71327 -1.18578495,2.76731 0,32.35886 0,64.71773 0,97.07659 4.84843195,0 9.69686295,0 14.54529495,0 0,-15.02006 0,-30.04013 0,-45.06019 10.38236,0 20.76473,0 31.14709,0 0,15.02006 0,30.04013 0,45.06019 4.84866,0 14.54599,0 14.54599,0 0,-32.35886 0,-64.71773 0,-97.07659 0,-1.05404 -0.39526,-1.97678 -1.1858,-2.76731 -0.79053,-0.79053 -1.71327,-1.18579 -2.7673,-1.18579 -3.53096,0 -7.06193,0 -10.59289,0 0,14.46669 0,28.93338 0,43.40007 -10.38236,0 -20.76473,0 -31.14709,0 0,-14.46669 0,-43.40007 0,-43.40007 -3.53096,0 -7.06192,0 -10.59288,0 z"
     id="path847"
     inkscape:connector-curvature="0" />
  <path
     style="font-style:normal;font-weight:normal;font-size:472.84832764px;line-height:1.25;font-family:sans-serif;letter-spacing:0px;word-spacing:0px;fill:#000000;fill-opacity:1;stroke:#000000;stroke-width:1.2303381;stroke-opacity:1"
     d="m 123.70064,42.71298 c 0,0 0,51.06822 0,76.60233 0,8.90663 5.11187,13.3595 15.33605,13.3595 3.21475,0 6.42949,0 9.64424,0 0,-3.82074 0,-7.64149 0,-11.46223 -1.52835,0 -2.95131,0.0259 -4.26886,0.0786 -1.26484,0.0527 -2.37159,-0.0788 -3.32022,-0.39504 -2.05538,-0.68512 -3.08307,-2.60897 -3.08307,-5.77109 0,-24.13736 0,-48.27471 0,-72.41207 -4.76938,0 -9.53876,0 -14.30814,0 z"
     id="path845"
     inkscape:connector-curvature="0" />
  <path
     id="path841"
     style="font-style:normal;font-weight:normal;font-size:472.84832764px;line-height:1.25;font-family:sans-serif;letter-spacing:0px;word-spacing:0px;fill:#000000;fill-opacity:1;stroke:#000000;stroke-width:1.2303381;stroke-opacity:1"
     d="m 88.205414,67.06107 c 2.50349,0 5.00699,0 7.51048,0 2.16079,0 3.79432,0.71148 4.901056,2.13443 1.15944,1.37026 1.7394,3.05694 1.7394,5.05962 0,13.06994 0,26.13988 0,39.20982 0,2.00267 -0.57996,3.71594 -1.7394,5.13889 -1.106736,1.37025 -2.740266,2.05515 -4.901056,2.05515 -2.50349,0 -5.00699,0 -7.51048,0 -2.21349,0 -3.82044,-0.6849 -4.82177,-2.05515 -1.00135,-1.42295 -1.50224,-3.13622 -1.50224,-5.13889 0,-13.06994 0,-26.13988 0,-39.20982 0,-2.00268 0.50089,-3.68936 1.50224,-5.05962 1.00133,-1.42295 2.60828,-2.13443 4.82177,-2.13443 z m -0.94863,-11.70006 c -4.74318,0 -9.01204,1.502 -12.80659,4.50601 -4.05805,3.21482 -6.08685,7.14158 -6.08685,11.77935 0,14.8091 0,29.61821 0,44.42731 0,4.63778 2.0288,8.56453 6.08685,11.77935 3.74185,2.95131 8.01071,4.42674 12.80659,4.42674 3.39928,0 6.79855,0 10.19783,0 4.743166,0 8.932976,-1.502 12.569416,-4.50602 3.89995,-3.26752 5.85037,-7.1677 5.85037,-11.70007 0,-14.8091 0,-29.61821 0,-44.42731 0,-4.58507 -1.95042,-8.48524 -5.85037,-11.70007 -3.74184,-3.05671 -7.93165,-4.58529 -12.569416,-4.58529 -3.39928,0 -6.79855,0 -10.19783,0 z"
     inkscape:connector-curvature="0" />
  <path
     id="path861"
     style="font-style:normal;font-weight:normal;font-size:472.84832764px;line-height:1.25;font-family:sans-serif;letter-spacing:0px;word-spacing:0px;fill:#000000;fill-opacity:1;stroke:#000000;stroke-width:1.2303381;stroke-opacity:1"
     d="m 174.20194,120.29511 c -0.98989,-0.33366 -1.7767,-0.89577 -2.35804,-1.69128 -1.00133,-1.42295 -1.50223,-3.13622 -1.50223,-5.13889 V 74.25512 c 0,-2.00268 0.5009,-3.68936 1.50223,-5.05962 1.00134,-1.42295 2.6083,-2.13443 4.82178,-2.13443 h 7.51048 c 2.16079,0 3.79433,0.71148 4.90106,2.13443 1.15945,1.37026 1.73939,3.05694 1.73939,5.05962 v 27.16486 L 204.33467,85.90301 V 71.64637 c 0,-4.58507 -1.95042,-8.48524 -5.85037,-11.70007 -3.74184,-3.05671 -7.93165,-4.58529 -12.56942,-4.58529 h -10.19783 c -4.74318,0 -9.01205,1.502 -12.80658,4.50601 -4.05805,3.21482 -6.08686,7.14158 -6.08686,11.77935 v 44.42731 c 0,4.63778 2.02881,8.56453 6.08686,11.77935 0.90717,0.71551 1.84627,1.34234 2.81541,1.8844 z"
     inkscape:connector-curvature="0"
     sodipodi:nodetypes="ccsscsscsccscsscssccc" />
  <path
     style="font-style:normal;font-weight:normal;font-size:472.84832764px;line-height:1.25;font-family:sans-serif;letter-spacing:0px;word-spacing:0px;fill:#000000;fill-opacity:1;stroke:#000000;stroke-width:1.2303381;stroke-opacity:1"
     d="m 258.5553,197.15492 c -0.0264,0 0.0529,51.33158 0.0793,76.99737 4.50602,0 13.51806,0 13.51806,0 0,-18.84081 0,-37.68161 0,-56.52242 0,-0.94864 0.13153,-1.95043 0.39504,-3.00446 0.84323,-3.84725 2.81956,-5.77042 5.92898,-5.77042 3.84717,0 7.69433,0 11.5415,0 2.16078,0 3.795,0.71148 4.90174,2.13443 1.15944,1.37025 1.73871,3.05626 1.73871,5.05894 0,19.36798 0,38.73595 0,58.10393 4.50602,0 13.51806,0 13.51806,0 0,-20.23756 0,-40.47512 0,-60.71268 0,-4.63777 -1.68601,-8.51137 -5.05894,-11.62078 -3.26752,-3.10942 -7.19427,-4.66391 -11.77934,-4.66391 -4.4796,0 -8.95919,0 -13.43879,0 -3.10941,0 -6.19248,1.52859 -9.24919,4.58531 0,-1.52844 0,-3.05687 0,-4.58531 -4.03171,0 -8.06342,0 -12.09513,0 z"
     id="path831"
     inkscape:connector-curvature="0" />
  <path
     id="path829"
     style="font-style:normal;font-weight:normal;font-size:472.84832764px;line-height:1.25;font-family:sans-serif;letter-spacing:0px;word-spacing:0px;fill:#000000;fill-opacity:1;stroke:#000000;stroke-width:1.2303381;stroke-opacity:1"
     d="m 223.06074,208.61783 c 2.50327,0 5.00654,0 7.50981,0 2.16078,0 3.79431,0.71148 4.90106,2.13443 1.15943,1.37025 1.73939,3.05626 1.73939,5.05894 0,13.07017 0,26.14033 0,39.2105 0,2.00267 -0.57996,3.71527 -1.73939,5.13821 -1.10675,1.37026 -2.74028,2.05584 -4.90106,2.05584 -2.50327,0 -5.00654,0 -7.50981,0 -2.21348,0 -3.82112,-0.68558 -4.82246,-2.05584 -1.00134,-1.42294 -1.50223,-3.13554 -1.50223,-5.13821 0,-13.07017 0,-26.14033 0,-39.2105 0,-2.00268 0.50089,-3.68869 1.50223,-5.05894 1.00134,-1.42295 2.60898,-2.13443 4.82246,-2.13443 z m -0.94864,-11.70006 c -4.74318,0 -9.01203,1.50201 -12.80658,4.50602 -4.05805,3.21482 -6.08752,7.14089 -6.08752,11.77866 0,14.80933 0,29.61867 0,44.428 0,4.63777 2.02947,8.56385 6.08752,11.77866 3.74184,2.95132 8.0107,4.42742 12.80658,4.42742 3.39928,0 6.79856,0 10.19784,0 4.74317,0 8.93299,-1.50201 12.56942,-4.50601 3.89994,-3.26753 5.84969,-7.1677 5.84969,-11.70007 0,-14.80933 0,-29.61867 0,-44.428 0,-4.58507 -1.94975,-8.48457 -5.84969,-11.69938 -3.74184,-3.05672 -7.93164,-4.5853 -12.56942,-4.5853 -3.39928,0 -6.79856,0 -10.19784,0 z"
     inkscape:connector-curvature="0" />
  <path
     id="path827"
     style="font-style:normal;font-weight:normal;font-size:472.84832764px;line-height:1.25;font-family:sans-serif;letter-spacing:0px;word-spacing:0px;fill:#000000;fill-opacity:1;stroke:#000000;stroke-width:1.2303381;stroke-opacity:1"
     d="m 337.68709,208.93359 c 3.63644,0 7.27287,0 10.90931,0 2.00265,0 3.68935,0.5009 5.05962,1.50223 1.42293,1.00134 2.13441,2.60898 2.13441,4.82246 0,2.714 0,5.428 0,8.142 0,2.16078 -0.71148,3.8209 -2.13441,4.98034 -1.37027,1.10674 -3.05697,1.66011 -5.05962,1.66011 -5.77087,0 -17.3126,0 -17.3126,0 0,-4.82223 0,-9.64446 0,-14.46669 0,-4.42697 2.13443,-6.64045 6.40329,-6.64045 z m -4.18958,-12.25298 c -4.58506,0 -8.37962,1.73917 -11.38363,5.21749 -2.74051,3.26753 -4.11098,7.24675 -4.11098,11.93723 0,14.38764 0,28.77528 0,43.16292 0,4.74318 1.52858,8.77488 4.5853,12.0951 3.10942,3.42563 7.00959,5.13822 11.70006,5.13822 6.24518,0 12.49037,0 18.73555,0 2.58237,0 4.87491,-0.47432 6.8776,-1.42295 6.00802,-2.89861 9.09112,-8.32669 9.24921,-16.28469 -4.53245,0 -9.0649,0 -13.59735,0 0.0527,1.84457 -0.47408,3.29342 -1.58082,4.34746 -1.054,1.00134 -2.477,1.50224 -4.26886,1.50224 -4.0055,0 -8.011,0 -12.0165,0 -4.26886,0 -6.40329,-2.10785 -6.40329,-6.32402 0,-4.7696 0,-14.30881 0,-14.30881 7.69457,0 15.38913,0 23.0837,0 4.63779,0 8.2742,-1.71259 10.90931,-5.13821 2.47697,-3.16213 3.71527,-7.0623 3.71527,-11.70007 0,-3.4257 0,-6.85141 0,-10.27711 0,-4.79588 -1.34391,-8.90663 -4.03171,-12.33227 -2.89859,-3.74183 -6.69314,-5.61253 -11.38363,-5.61253 -6.69308,0 -13.38615,0 -20.07923,0 z"
     inkscape:connector-curvature="0" />
  <path
     id="text6193"
     style="font-style:normal;font-weight:normal;font-size:472.84832764px;line-height:1.25;font-family:sans-serif;letter-spacing:0px;word-spacing:0px;fill:#000000;fill-opacity:1;stroke:#000000;stroke-width:1.2303381;stroke-opacity:1"
     d="m 150.88515,228.77634 h 23.24157 c 4.53237,0 6.79833,1.97632 6.79833,5.92897 v 21.26503 c 0,4.16345 -2.00221,6.24541 -6.00757,6.24541 h -24.03233 z m -14.38741,0.64575 v 44.80948 h 43.47868 c 4.63778,0 8.35327,-1.73916 11.14647,-5.2175 2.5824,-3.21481 3.87382,-7.19405 3.87382,-11.93722 v -21.58146 c 0,-7.64179 -2.74028,-12.25276 -8.22128,-13.83382 3.89995,-1.84457 5.84969,-5.58663 5.84969,-11.22575 V 190.9888 c 0,-4.90129 -1.26485,-8.98547 -3.79454,-12.25299 -1.43875,-1.90911 -5.14703,-4.21939 -5.14703,-4.21939 l -9.88274,11.49949 c 2.09275,-2.43513 4.75266,2.46082 4.75266,5.76364 v 18.33984 c 0,1.52835 -0.44774,2.92541 -1.34368,4.19026 -0.84323,1.26485 -2.0815,1.89727 -3.71526,1.89727 h -22.60938 v -3.52622 z"
     inkscape:connector-curvature="0"
     sodipodi:nodetypes="cssssccccscsscsscccsscsccc" />
  <g
     aria-label="Bone"
     style="font-style:normal;font-weight:normal;font-size:232.41696167px;line-height:1.25;font-family:sans-serif;letter-spacing:0px;word-spacing:0px;fill:#000000;fill-opacity:1;stroke:none;stroke-width:1.74312723"
     id="text6197"
     transform="translate(-82.970706,-215.53301)" />
</svg>
