<?xml version="1.0" encoding="UTF-8" standalone="no"?>
<!-- Created with Inkscape (http://www.inkscape.org/) -->

<svg
   xmlns:dc="http://purl.org/dc/elements/1.1/"
   xmlns:cc="http://creativecommons.org/ns#"
   xmlns:rdf="http://www.w3.org/1999/02/22-rdf-syntax-ns#"
   xmlns:svg="http://www.w3.org/2000/svg"
   xmlns="http://www.w3.org/2000/svg"
   xmlns:sodipodi="http://sodipodi.sourceforge.net/DTD/sodipodi-0.dtd"
   xmlns:inkscape="http://www.inkscape.org/namespaces/inkscape"
   version="1.1"
   id="svg5628"
   width="1140"
   height="912"
   viewBox="0 0 1140 912"
   sodipodi:docname="test.svg"
   inkscape:version="0.92.4 5da689c313, 2019-01-14">
  <metadata
     id="metadata5634">
    <rdf:RDF>
      <cc:Work
         rdf:about="">
        <dc:format>image/svg+xml</dc:format>
        <dc:type
           rdf:resource="http://purl.org/dc/dcmitype/StillImage" />
        <dc:title></dc:title>
      </cc:Work>
    </rdf:RDF>
  </metadata>
  <defs
     id="defs5632" />
  <sodipodi:namedview
     pagecolor="#ffffff"
     bordercolor="#666666"
     borderopacity="1"
     objecttolerance="10"
     gridtolerance="10"
     guidetolerance="10"
     inkscape:pageopacity="0"
     inkscape:pageshadow="2"
     inkscape:window-width="1918"
     inkscape:window-height="1062"
     id="namedview5630"
     showgrid="false"
     inkscape:zoom="2"
     inkscape:cx="192.46018"
     inkscape:cy="539.78103"
     inkscape:window-x="0"
     inkscape:window-y="16"
     inkscape:window-maximized="0"
     inkscape:current-layer="svg5628" />
  <flowRoot
     xml:space="preserve"
     id="flowRoot6183"
     style="fill:black;fill-opacity:1;stroke:none;font-family:sans-serif;font-style:normal;font-weight:normal;font-size:13.33333333px;line-height:1.25;letter-spacing:0px;word-spacing:0px"><flowRegion
       id="flowRegion6185"><rect
         id="rect6187"
         width="664.67798"
         height="359.38983"
         x="54.101696"
         y="104.33898" /></flowRegion><flowPara
       id="flowPara6189" /></flowRoot>  <path
     style="font-style:normal;font-weight:normal;font-size:472.84832764px;line-height:1.25;font-family:sans-serif;letter-spacing:0px;word-spacing:0px;fill:none;fill-opacity:1;stroke:#000000;stroke-width:1.2303381;stroke-opacity:1"
     d="m 331.23941,209.86354 c -4.18116,0.0315 -8.39471,0.59742 -11.97517,1.74888 -6.71658,2.16004 -15.53982,9.74126 -18.68338,16.05362 -4.32676,8.6883 -4.38945,20.75625 -0.18972,36.57872 2.84542,10.72015 3.02501,15.77101 0.71079,19.99521 -1.23308,2.25077 -5.39656,7.44719 -13.79655,17.19605 0,-4.75221 0,-9.50443 0,-14.25664 0,-4.58507 -1.95042,-8.48524 -5.85037,-11.70007 -3.74184,-3.05671 -7.93165,-4.58529 -12.56942,-4.58529 -3.39928,0 -6.79855,0 -10.19783,0 -4.74318,0 -9.01205,1.502 -12.80658,4.50601 -4.05805,3.21482 -6.08686,7.14158 -6.08686,11.77935 0,14.8091 0,29.61821 0,44.42731 0,4.63778 2.02881,8.56453 6.08686,11.77935 0.90717,0.71551 1.84627,1.34234 2.81541,1.8844 -5.0483,5.57478 -9.95908,10.91147 -15.18698,16.50287 -2.84665,3.04458 -5.97325,6.42473 -6.94808,7.51116 -2.13534,2.37981 -9.88517,10.70822 -15.37399,16.52185 -2.19407,2.3239 -5.24013,5.55157 -6.76852,7.17235 -4.60709,4.88559 -12.8406,13.40169 -15.87948,16.42427 -1.57149,1.56306 -3.78306,3.82011 -4.91461,5.01558 -2.0111,2.12469 -8.68668,8.8781 -18.62239,18.8399 -2.7237,2.73085 -5.14384,5.19938 -5.37742,5.48515 -0.25549,0.31258 -5.31087,1.39566 -12.69003,2.71851 -17.16155,3.07654 -20.8709,4.2004 -28.1108,8.52079 -8.40984,5.01856 -11.90017,9.05407 -14.31761,16.55233 -1.73091,5.36878 -1.64559,11.98403 0.22157,17.12491 1.11552,3.07136 5.3531,8.63889 8.55805,11.24404 4.30315,3.49785 10.70656,6.44747 18.30731,8.43405 1.11329,0.29114 2.22659,0.58228 3.33988,0.87342 0.76501,1.77011 1.53001,3.54022 2.29502,5.31033 1.67525,3.87723 2.91979,6.24663 4.61105,8.77691 2.57996,3.85983 8.62425,10.96734 11.48527,13.50586 5.5228,4.90028 16.43578,7.73306 24.10958,6.25829 1.87416,-0.36018 4.42085,-1.12423 5.65928,-1.69806 9.06152,-4.19865 15.81845,-14.45071 19.20174,-29.13395 2.7212,-11.80979 2.54535,-23.26102 -0.48177,-31.3226 -0.52376,-1.39486 -1.19728,-3.65846 -1.49613,-5.0298 -0.18114,-0.83096 -0.36229,-1.66192 -0.54343,-2.49288 0.79098,-1.09161 1.58196,-2.18321 2.37294,-3.27482 5.7738,-6.7186 11.54761,-13.4372 17.32141,-20.1558 0,14.93649 0,29.87299 0,44.80948 14.49289,0 28.98579,0 43.47868,0 4.63778,0 8.35327,-1.73916 11.14647,-5.2175 2.5824,-3.21481 3.87382,-7.19405 3.87382,-11.93722 0,-7.19382 0,-14.38764 0,-21.58146 0,-7.64179 -2.74028,-12.25276 -8.22128,-13.83382 3.89995,-1.84457 5.84969,-5.58663 5.84969,-11.22575 0,-6.48234 0,-12.96468 0,-19.44702 0,-4.90129 -1.26485,-8.98547 -3.79454,-12.25299 -1.43875,-1.90911 -5.14703,-4.21939 -5.14703,-4.21939 17.12129,-19.9227 34.24259,-39.84541 51.36388,-59.76811 0,0 6.45572,-6.94516 9.63001,-10.40993 1.92392,-2.09965 3.84784,-4.19929 5.77176,-6.29894 2.92925,-0.29182 5.85851,-0.58363 8.78776,-0.87545 16.9003,-1.68356 27.679,-4.37861 37.32542,-9.33254 13.1105,-6.73292 20.77053,-15.19371 23.88529,-26.3802 2.42215,-8.69908 1.26508,-16.53553 -3.20503,-21.70275 -4.2511,-4.914 -10.84797,-7.80448 -23.38862,-10.24798 -6.17329,-1.20283 -11.29833,-2.46939 -13.3412,-3.29651 -2.34035,-0.94752 -2.94241,-2.17705 -3.96868,-8.11083 -1.21196,-7.00748 -2.23429,-9.5394 -5.81785,-14.40504 -2.34624,-3.18564 -3.10792,-4.00958 -4.90444,-5.30558 -3.70644,-2.67377 -10.58456,-4.10456 -17.55315,-4.05203 z m 3.16777,6.28607 c -5.0168,0 8.5956,1.26922 11.48187,3.79183 2.12543,1.85761 5.37629,6.86026 6.0794,9.35491 0.58825,2.08699 1.09686,5.98957 1.19799,9.19837 0.19755,6.26864 4.90705,16.54939 8.57431,18.71658 2.11142,1.24777 2.13601,-0.63629 0.0522,-4.00053 -3.26574,-5.27242 -3.04618,-7.26355 0.57596,-5.22969 1.55694,0.87422 6.95908,2.28529 14.07098,3.67596 5.92876,1.15928 11.49935,2.65359 13.38051,3.58923 0.76568,0.38087 2.02796,1.25111 2.80457,1.93318 6.45957,5.673 6.87639,15.07588 1.08822,24.54189 -3.2804,5.36481 -7.98373,9.97946 -13.91987,13.65696 -4.34397,2.69112 -6.8022,3.83882 -11.22846,5.24257 -6.68972,2.12159 -22.59497,5.12621 -31.98935,6.04281 -4.26123,0.41576 -4.74879,0.5439 -6.51373,1.71432 -2.11677,1.40371 -16.74207,16.76917 -16.74207,16.76917 -9.90398,11.40305 -19.80797,22.8061 -29.71195,34.20915 -24.82512,28.58375 -49.65023,57.16749 -74.47535,85.75124 0,0 -17.42083,21.64517 -17.66698,22.78284 -0.16694,0.77155 0.46679,2.72347 2.27469,7.00838 1.39099,3.29676 2.90601,9.26745 3.27889,12.92245 0.3562,3.49146 -0.0171,10.91265 -0.74468,14.81024 -1.76625,9.46149 -5.12604,17.16974 -9.7208,22.3031 -1.41882,1.58511 -4.67375,4.02713 -6.58014,4.93629 -7.07139,3.37236 -15.93312,2.19536 -22.32682,-2.96584 -4.93402,-3.9829 -11.78323,-13.10817 -14.3515,-19.12043 -1.1781,-2.75791 -1.26526,-4.13128 -0.30763,-4.84617 1.28398,-0.95852 3.10065,0.002 6.01706,3.18131 2.94793,3.21374 4.0504,3.02057 2.12155,-0.372 -1.12276,-1.97479 -3.6258,-4.4215 -5.49327,-5.36995 -0.78699,-0.39969 -4.24542,-1.35317 -7.68532,-2.11885 -9.7527,-2.17084 -17.02524,-5.02521 -21.06852,-8.26803 -2.05699,-1.64977 -4.68664,-5.05092 -5.65318,-7.31263 -2.19476,-5.13573 -1.42819,-14.23295 1.62148,-19.24443 0.95054,-1.56201 1.57823,-2.13857 5.64981,-5.19039 3.5248,-2.642 5.18218,-3.6961 7.19133,-4.57242 5.22332,-2.27822 10.76928,-3.75682 21.41479,-5.70944 5.92772,-1.08727 11.81969,-2.27785 13.09388,-2.64601 2.19945,-0.63549 2.43475,-0.78119 4.6456,-2.88047 7.19444,-6.83137 31.72424,-31.69298 37.26309,-37.76721 1.30928,-1.43583 3.75809,-4.02717 5.44178,-5.7589 1.68368,-1.73172 4.90581,-5.1146 7.16016,-7.51726 2.25435,-2.40265 7.32025,-7.75178 11.2576,-11.88708 3.93734,-4.1353 10.86051,-11.54896 10.86051,-11.54896 22.5877,-25.63372 45.17539,-51.26743 67.76309,-76.90115 0,0 4.65848,-6.84974 5.04335,-10.94386 0.43426,-4.61956 0.0564,-7.13958 -2.22727,-14.85903 -4.85368,-16.40666 -4.58338,-29.21349 0.78534,-37.24275 4.23624,-6.33557 10.13413,-9.92369 18.41505,-11.20271 2.94431,-0.45475 10.08221,-0.65659 7.80185,-0.65659 -10e-6,0 -10e-6,0 -2e-5,0 z M 87.53829,247.17813 c -1.05403,0 -1.97609,0.39526 -2.76663,1.18579 -0.79052,0.79053 -1.185785,1.71327 -1.185785,2.76731 0,32.35886 0,64.71773 0,97.07659 4.848432,0 9.696863,0 14.545295,0 0,-15.02006 0,-30.04013 0,-45.06019 10.38236,0 20.76473,0 31.14709,0 0,15.02006 0,30.04013 0,45.06019 4.84866,0 14.54599,0 14.54599,0 0,-32.35886 0,-64.71773 0,-97.07659 0,-1.05404 -0.39526,-1.97678 -1.1858,-2.76731 -0.79053,-0.79053 -1.71327,-1.18579 -2.7673,-1.18579 -3.53096,0 -7.06193,0 -10.59289,0 0,14.46669 0,28.93338 0,43.40007 -10.38236,0 -20.76473,0 -31.14709,0 0,-14.46669 0,-43.40007 0,-43.40007 -3.53096,0 -7.06192,0 -10.59288,0 z m 119.13306,11.06786 c 0,0 0,51.06822 0,76.60233 0,8.90663 5.11187,13.3595 15.33605,13.3595 3.21475,0 6.42949,0 9.64424,0 0,-3.82074 0,-7.64149 0,-11.46223 -1.52835,0 -2.95131,0.0259 -4.26886,0.0786 -1.26484,0.0527 -2.37159,-0.0788 -3.32022,-0.39504 -2.05538,-0.68512 -3.08307,-2.60897 -3.08307,-5.77109 0,-24.13736 0,-48.27471 0,-72.41207 -4.76938,0 -9.53876,0 -14.30814,0 z m -36.44386,12.64803 c -4.74318,0 -9.01204,1.502 -12.80659,4.50601 -4.05805,3.21482 -6.08685,7.14158 -6.08685,11.77935 0,14.8091 0,29.61821 0,44.42731 0,4.63778 2.0288,8.56453 6.08685,11.77935 3.74185,2.95131 8.01071,4.42674 12.80659,4.42674 3.39928,0 6.79855,0 10.19783,0 4.74317,0 8.93298,-1.502 12.56942,-4.50602 3.89995,-3.26752 5.85037,-7.1677 5.85037,-11.70007 0,-14.8091 0,-29.61821 0,-44.42731 0,-4.58507 -1.95042,-8.48524 -5.85037,-11.70007 -3.74184,-3.05671 -7.93165,-4.58529 -12.56942,-4.58529 -3.39928,0 -6.79855,0 -10.19783,0 z m 0.94863,11.70006 c 2.50349,0 5.00699,0 7.51048,0 2.16079,0 3.79432,0.71148 4.90106,2.13443 1.15944,1.37026 1.7394,3.05694 1.7394,5.05962 0,13.06994 0,26.13988 0,39.20982 0,2.00267 -0.57996,3.71594 -1.7394,5.13889 -1.10674,1.37025 -2.74027,2.05515 -4.90106,2.05515 -2.50349,0 -5.00699,0 -7.51048,0 -2.21349,0 -3.82044,-0.6849 -4.82177,-2.05515 -1.00135,-1.42295 -1.50224,-3.13622 -1.50224,-5.13889 0,-13.06994 0,-26.13988 0,-39.20982 0,-2.00268 0.50089,-3.68936 1.50224,-5.05962 1.00133,-1.42295 2.60828,-2.13443 4.82177,-2.13443 z m 88.46027,0 c 2.50349,0 5.00699,0 7.51048,0 2.16079,0 3.79433,0.71148 4.90106,2.13443 1.15945,1.37026 1.73939,3.05694 1.73939,5.05962 0,9.05495 0,18.10991 0,27.16486 -1.31822,1.50757 -2.20647,2.5237 -3.46048,3.95784 -4.76934,5.45442 -9.06803,10.32767 -13.15419,14.91729 -0.98989,-0.33366 -1.7767,-0.89577 -2.35804,-1.69128 -1.00133,-1.42295 -1.50223,-3.13622 -1.50223,-5.13889 0,-13.06994 0,-26.13988 0,-39.20982 0,-2.00268 0.5009,-3.68936 1.50223,-5.05962 1.00134,-1.42295 2.6083,-2.13443 4.82178,-2.13443 z m -2.86487,118.95484 c 2.09275,-2.43513 4.75266,2.46082 4.75266,5.76364 0,6.11328 0,12.22656 0,18.33984 0,1.52835 -0.44774,2.92541 -1.34368,4.19026 -0.84323,1.26485 -2.0815,1.89727 -3.71526,1.89727 -7.53646,0 -15.07292,0 -22.60938,0 0,-1.17541 0,-2.35081 0,-3.52622 7.63855,-8.88826 15.27711,-17.77653 22.91566,-26.66479 z m 159.6967,10.6647 c -4.58506,0 -8.37962,1.73917 -11.38363,5.21749 -2.74051,3.26753 -4.11098,7.24675 -4.11098,11.93723 0,14.38764 0,28.77528 0,43.16292 0,4.74318 1.52858,8.77488 4.5853,12.0951 3.10942,3.42563 7.00959,5.13822 11.70006,5.13822 6.24518,0 12.49037,0 18.73555,0 2.58237,0 4.87491,-0.47432 6.8776,-1.42295 6.00802,-2.89861 9.09112,-8.32669 9.24921,-16.28469 -4.53245,0 -9.0649,0 -13.59735,0 0.0527,1.84457 -0.47408,3.29342 -1.58082,4.34746 -1.054,1.00134 -2.477,1.50224 -4.26886,1.50224 -4.0055,0 -8.011,0 -12.0165,0 -4.26886,0 -6.40329,-2.10785 -6.40329,-6.32402 0,-4.7696 0,-14.30881 0,-14.30881 7.69457,0 15.38913,0 23.0837,0 4.63779,0 8.2742,-1.71259 10.90931,-5.13821 2.47697,-3.16213 3.71527,-7.0623 3.71527,-11.70007 0,-3.4257 0,-6.85141 0,-10.27711 0,-4.79588 -1.34391,-8.90663 -4.03171,-12.33227 -2.89859,-3.74183 -6.69314,-5.61253 -11.38363,-5.61253 -6.69308,0 -13.38615,0 -20.07923,0 z m -111.38541,0.23716 c -4.74318,0 -9.01203,1.50201 -12.80658,4.50602 -4.05805,3.21482 -6.08752,7.14089 -6.08752,11.77866 0,14.80933 0,29.61867 0,44.428 0,4.63777 2.02947,8.56385 6.08752,11.77866 3.74184,2.95132 8.0107,4.42742 12.80658,4.42742 3.39928,0 6.79856,0 10.19784,0 4.74317,0 8.93299,-1.50201 12.56942,-4.50601 3.89994,-3.26753 5.84969,-7.1677 5.84969,-11.70007 0,-14.80933 0,-29.61867 0,-44.428 0,-4.58507 -1.94975,-8.48457 -5.84969,-11.69938 -3.74184,-3.05672 -7.93164,-4.5853 -12.56942,-4.5853 -3.39928,0 -6.79856,0 -10.19784,0 z m 36.4432,0.23715 c -0.0264,0 0.0529,51.33158 0.0793,76.99737 4.50602,0 13.51806,0 13.51806,0 0,-18.84081 0,-37.68161 0,-56.52242 0,-0.94864 0.13153,-1.95043 0.39504,-3.00446 0.84323,-3.84725 2.81956,-5.77042 5.92898,-5.77042 3.84717,0 7.69433,0 11.5415,0 2.16078,0 3.795,0.71148 4.90174,2.13443 1.15944,1.37025 1.73871,3.05626 1.73871,5.05894 0,19.36798 0,38.73595 0,58.10393 4.50602,0 13.51806,0 13.51806,0 0,-20.23756 0,-40.47512 0,-60.71268 0,-4.63777 -1.68601,-8.51137 -5.05894,-11.62078 -3.26752,-3.10942 -7.19427,-4.66391 -11.77934,-4.66391 -4.4796,0 -8.95919,0 -13.43879,0 -3.10941,0 -6.19248,1.52859 -9.24919,4.58531 0,-1.52844 0,-3.05687 0,-4.58531 -4.03171,0 -8.06342,0 -12.09513,0 z m -35.49456,11.46291 c 2.50327,0 5.00654,0 7.50981,0 2.16078,0 3.79431,0.71148 4.90106,2.13443 1.15943,1.37025 1.73939,3.05626 1.73939,5.05894 0,13.07017 0,26.14033 0,39.2105 0,2.00267 -0.57996,3.71527 -1.73939,5.13821 -1.10675,1.37026 -2.74028,2.05584 -4.90106,2.05584 -2.50327,0 -5.00654,0 -7.50981,0 -2.21348,0 -3.82112,-0.68558 -4.82246,-2.05584 -1.00134,-1.42294 -1.50223,-3.13554 -1.50223,-5.13821 0,-13.07017 0,-26.14033 0,-39.2105 0,-2.00268 0.50089,-3.68869 1.50223,-5.05894 1.00134,-1.42295 2.60898,-2.13443 4.82246,-2.13443 z m 114.62635,0.31576 c 3.63644,0 7.27287,0 10.90931,0 2.00265,0 3.68935,0.5009 5.05962,1.50223 1.42293,1.00134 2.13441,2.60898 2.13441,4.82246 0,2.714 0,5.428 0,8.142 0,2.16078 -0.71148,3.8209 -2.13441,4.98034 -1.37027,1.10674 -3.05697,1.66011 -5.05962,1.66011 -5.77087,0 -17.3126,0 -17.3126,0 0,-4.82223 0,-9.64446 0,-14.46669 0,-4.42697 2.13443,-6.64045 6.40329,-6.64045 z m -186.80194,19.84275 c 7.74719,0 15.49438,0 23.24157,0 4.53237,0 6.79833,1.97632 6.79833,5.92897 0,7.08834 0,14.17669 0,21.26503 0,4.16345 -2.00221,6.24541 -6.00757,6.24541 -8.01078,0 -16.02155,0 -24.03233,0 0,-11.14647 0,-22.29294 0,-33.43941 z"
     id="text6193"
     inkscape:connector-curvature="0"
     sodipodi:nodetypes="ssssscscsscssccssscssscssssscccssscsccccccscsscssccccccscccccccssccccccccccssscccccsscccssccscssccccscsccssccssscsscsccccccscsccccscssccccsccsssscsscsscsssscsscsscsscssccsccccsscscsscscccsssscssccccssscscsscssscsscsscsscsscscscssccccscsscccsscsscsscsscssccsscscssccsssccc" />
  <g
     aria-label="Bone"
     style="font-style:normal;font-weight:normal;font-size:232.41696167px;line-height:1.25;font-family:sans-serif;letter-spacing:0px;word-spacing:0px;fill:#000000;fill-opacity:1;stroke:none;stroke-width:1.74312723"
     id="text6197" />
</svg>
