  0
SECTION
  2
HEADER
  9
$ACADVER
  1
AC1009
  9
$EXTMIN
 10
0.0
 20
0.0
 30
0.0
  9
$EXTMAX
 10
1000.0
 20
1000.0
 30
0.0
  9
$FILLMODE
 70
 0
  9
$SPLFRAME
 70
 1
  0
ENDSEC
  0
SECTION
  2
TABLES
  0
TABLE
  2
LAYER
 70
1
  0
LAYER
  2
0
 70
     0
 62
     7
  6
CONTINUOUS
  0
ENDTAB
  0
ENDSEC
  0
SECTION
  2
ENTITIES
  0
POLYLINE
  8
0
 62
     0
 66
     1
 10
0
 20
0
 30
0.0
 70
     1
 40
0.922754
 41
0.922754
  0
VERTEX
  8
0
 10
3.45042
 20
7.31392
 30
0.0
 40
0.012816
 41
0.012816
  0
VERTEX
  8
0
 10
3.43951
 20
7.31386
 30
0.0
 40
0.012816
 41
0.012816
  0
VERTEX
  8
0
 10
3.38569
 20
7.30919
 30
0.0
 40
0.012816
 41
0.012816
  0
VERTEX
  8
0
 10
3.33496
 20
7.29872
 30
0.0
 40
0.012816
 41
0.012816
  0
VERTEX
  8
0
 10
3.32568
 20
7.29568
 30
0.0
 40
0.012816
 41
0.012816
  0
VERTEX
  8
0
 10
3.31119
 20
7.29107
 30
0.0
 40
0.012816
 41
0.012816
  0
VERTEX
  8
0
 10
3.27035
 20
7.26938
 30
0.0
 40
0.012816
 41
0.012816
  0
VERTEX
  8
0
 10
3.21436
 20
7.22835
 30
0.0
 40
0.012816
 41
0.012816
  0
VERTEX
  8
0
 10
3.16542
 20
7.17919
 30
0.0
 40
0.012816
 41
0.012816
  0
VERTEX
  8
0
 10
3.13781
 20
7.14208
 30
0.0
 40
0.012816
 41
0.012816
  0
VERTEX
  8
0
 10
3.13108
 20
7.12847
 30
0.0
 40
0.012816
 41
0.012816
  0
VERTEX
  8
0
 10
3.12235
 20
7.11106
 30
0.0
 40
0.012816
 41
0.012816
  0
VERTEX
  8
0
 10
3.10558
 20
7.05399
 30
0.0
 40
0.012816
 41
0.012816
  0
VERTEX
  8
0
 10
3.09674
 20
6.96588
 30
0.0
 40
0.012816
 41
0.012816
  0
VERTEX
  8
0
 10
3.10454
 20
6.86382
 30
0.0
 40
0.012816
 41
0.012816
  0
VERTEX
  8
0
 10
3.12142
 20
6.77615
 30
0.0
 40
0.012816
 41
0.012816
  0
VERTEX
  8
0
 10
3.12907
 20
6.74744
 30
0.0
 40
0.012816
 41
0.012816
  0
VERTEX
  8
0
 10
3.1339
 20
6.72928
 30
0.0
 40
0.012816
 41
0.012816
  0
VERTEX
  8
0
 10
3.14611
 20
6.67399
 30
0.0
 40
0.012816
 41
0.012816
  0
VERTEX
  8
0
 10
3.15289
 20
6.61794
 30
0.0
 40
0.012816
 41
0.012816
  0
VERTEX
  8
0
 10
3.14962
 20
6.5746
 30
0.0
 40
0.012816
 41
0.012816
  0
VERTEX
  8
0
 10
3.14094
 20
6.54736
 30
0.0
 40
0.012816
 41
0.012816
  0
VERTEX
  8
0
 10
3.1365
 20
6.53917
 30
0.0
 40
0.012816
 41
0.012816
  0
VERTEX
  8
0
 10
3.13325
 20
6.53331
 30
0.0
 40
0.012816
 41
0.012816
  0
VERTEX
  8
0
 10
3.12088
 20
6.51563
 30
0.0
 40
0.012816
 41
0.012816
  0
VERTEX
  8
0
 10
3.09261
 20
6.47889
 30
0.0
 40
0.012816
 41
0.012816
  0
VERTEX
  8
0
 10
3.05029
 20
6.42757
 30
0.0
 40
0.012816
 41
0.012816
  0
VERTEX
  8
0
 10
3.00722
 20
6.37685
 30
0.0
 40
0.012816
 41
0.012816
  0
VERTEX
  8
0
 10
2.99278
 20
6.36003
 30
0.0
 40
0.012816
 41
0.012816
  0
VERTEX
  8
0
 10
2.99278
 20
6.39719
 30
0.0
 40
0.012816
 41
0.012816
  0
VERTEX
  8
0
 10
2.99278
 20
6.48074
 30
0.0
 40
0.012816
 41
0.012816
  0
VERTEX
  8
0
 10
2.99278
 20
6.50857
 30
0.0
 40
0.012816
 41
0.012816
  0
VERTEX
  8
0
 10
2.99278
 20
6.52518
 30
0.0
 40
0.012816
 41
0.012816
  0
VERTEX
  8
0
 10
2.97749
 20
6.57487
 30
0.0
 40
0.012816
 41
0.012816
  0
VERTEX
  8
0
 10
2.94194
 20
6.62207
 30
0.0
 40
0.012816
 41
0.012816
  0
VERTEX
  8
0
 10
2.93181
 20
6.63043
 30
0.0
 40
0.012816
 41
0.012816
  0
VERTEX
  8
0
 10
2.92204
 20
6.6384
 30
0.0
 40
0.012816
 41
0.012816
  0
VERTEX
  8
0
 10
2.86985
 20
6.66629
 30
0.0
 40
0.012816
 41
0.012816
  0
VERTEX
  8
0
 10
2.81808
 20
6.67817
 30
0.0
 40
0.012816
 41
0.012816
  0
VERTEX
  8
0
 10
2.80089
 20
6.67817
 30
0.0
 40
0.012816
 41
0.012816
  0
VERTEX
  8
0
 10
2.77431
 20
6.67817
 30
0.0
 40
0.012816
 41
0.012816
  0
VERTEX
  8
0
 10
2.71457
 20
6.67817
 30
0.0
 40
0.012816
 41
0.012816
  0
VERTEX
  8
0
 10
2.69467
 20
6.67817
 30
0.0
 40
0.012816
 41
0.012816
  0
VERTEX
  8
0
 10
2.67703
 20
6.67817
 30
0.0
 40
0.012816
 41
0.012816
  0
VERTEX
  8
0
 10
2.62424
 20
6.66644
 30
0.0
 40
0.012816
 41
0.012816
  0
VERTEX
  8
0
 10
2.57113
 20
6.63911
 30
0.0
 40
0.012816
 41
0.012816
  0
VERTEX
  8
0
 10
2.56125
 20
6.63124
 30
0.0
 40
0.012816
 41
0.012816
  0
VERTEX
  8
0
 10
2.55067
 20
6.62289
 30
0.0
 40
0.012816
 41
0.012816
  0
VERTEX
  8
0
 10
2.51367
 20
6.57547
 30
0.0
 40
0.012816
 41
0.012816
  0
VERTEX
  8
0
 10
2.49789
 20
6.52533
 30
0.0
 40
0.012816
 41
0.012816
  0
VERTEX
  8
0
 10
2.49789
 20
6.50857
 30
0.0
 40
0.012816
 41
0.012816
  0
VERTEX
  8
0
 10
2.49789
 20
6.3929
 30
0.0
 40
0.012816
 41
0.012816
  0
VERTEX
  8
0
 10
2.49789
 20
6.1326
 30
0.0
 40
0.012816
 41
0.012816
  0
VERTEX
  8
0
 10
2.49789
 20
6.04579
 30
0.0
 40
0.012816
 41
0.012816
  0
VERTEX
  8
0
 10
2.49789
 20
6.02908
 30
0.0
 40
0.012816
 41
0.012816
  0
VERTEX
  8
0
 10
2.51367
 20
5.97889
 30
0.0
 40
0.012816
 41
0.012816
  0
VERTEX
  8
0
 10
2.55067
 20
5.93147
 30
0.0
 40
0.012816
 41
0.012816
  0
VERTEX
  8
0
 10
2.56125
 20
5.92307
 30
0.0
 40
0.012816
 41
0.012816
  0
VERTEX
  8
0
 10
2.56358
 20
5.92122
 30
0.0
 40
0.012816
 41
0.012816
  0
VERTEX
  8
0
 10
2.58806
 20
5.90483
 30
0.0
 40
0.012816
 41
0.012816
  0
VERTEX
  8
0
 10
2.5906
 20
5.90343
 30
0.0
 40
0.012816
 41
0.012816
  0
VERTEX
  8
0
 10
2.57742
 20
5.88894
 30
0.0
 40
0.012816
 41
0.012816
  0
VERTEX
  8
0
 10
2.44601
 20
5.74615
 30
0.0
 40
0.012816
 41
0.012816
  0
VERTEX
  8
0
 10
2.4324
 20
5.73156
 30
0.0
 40
0.012816
 41
0.012816
  0
VERTEX
  8
0
 10
2.42676
 20
5.72558
 30
0.0
 40
0.012816
 41
0.012816
  0
VERTEX
  8
0
 10
2.41
 20
5.70757
 30
0.0
 40
0.012816
 41
0.012816
  0
VERTEX
  8
0
 10
2.38889
 20
5.68479
 30
0.0
 40
0.012816
 41
0.012816
  0
VERTEX
  8
0
 10
2.37142
 20
5.66585
 30
0.0
 40
0.012816
 41
0.012816
  0
VERTEX
  8
0
 10
2.36253
 20
5.65614
 30
0.0
 40
0.012816
 41
0.012816
  0
VERTEX
  8
0
 10
2.36003
 20
5.65326
 30
0.0
 40
0.012816
 41
0.012816
  0
VERTEX
  8
0
 10
2.35444
 20
5.64708
 30
0.0
 40
0.012816
 41
0.012816
  0
VERTEX
  8
0
 10
2.33365
 20
5.62446
 30
0.0
 40
0.012816
 41
0.012816
  0
VERTEX
  8
0
 10
2.29303
 20
5.58068
 30
0.0
 40
0.012816
 41
0.012816
  0
VERTEX
  8
0
 10
2.24588
 20
5.53017
 30
0.0
 40
0.012816
 41
0.012816
  0
VERTEX
  8
0
 10
2.21137
 20
5.49338
 30
0.0
 40
0.012816
 41
0.012816
  0
VERTEX
  8
0
 10
2.19988
 20
5.48118
 30
0.0
 40
0.012816
 41
0.012816
  0
VERTEX
  8
0
 10
2.19413
 20
5.47515
 30
0.0
 40
0.012816
 41
0.012816
  0
VERTEX
  8
0
 10
2.162
 20
5.44108
 30
0.0
 40
0.012816
 41
0.012816
  0
VERTEX
  8
0
 10
2.13331
 20
5.41069
 30
0.0
 40
0.012816
 41
0.012816
  0
VERTEX
  8
0
 10
2.12935
 20
5.40647
 30
0.0
 40
0.012816
 41
0.012816
  0
VERTEX
  8
0
 10
2.11897
 20
5.39551
 30
0.0
 40
0.012816
 41
0.012816
  0
VERTEX
  8
0
 10
2.08768
 20
5.36274
 30
0.0
 40
0.012816
 41
0.012816
  0
VERTEX
  8
0
 10
2.04053
 20
5.31369
 30
0.0
 40
0.012816
 41
0.012816
  0
VERTEX
  8
0
 10
1.99636
 20
5.26828
 30
0.0
 40
0.012816
 41
0.012816
  0
VERTEX
  8
0
 10
1.97185
 20
5.24328
 30
0.0
 40
0.012816
 41
0.012816
  0
VERTEX
  8
0
 10
1.96397
 20
5.2354
 30
0.0
 40
0.012816
 41
0.012816
  0
VERTEX
  8
0
 10
1.95985
 20
5.23133
 30
0.0
 40
0.012816
 41
0.012816
  0
VERTEX
  8
0
 10
1.93664
 20
5.20785
 30
0.0
 40
0.012816
 41
0.012816
  0
VERTEX
  8
0
 10
1.91569
 20
5.18631
 30
0.0
 40
0.012816
 41
0.012816
  0
VERTEX
  8
0
 10
1.91276
 20
5.18317
 30
0.0
 40
0.012816
 41
0.012816
  0
VERTEX
  8
0
 10
1.9075
 20
5.17763
 30
0.0
 40
0.012816
 41
0.012816
  0
VERTEX
  8
0
 10
1.88813
 20
5.15776
 30
0.0
 40
0.012816
 41
0.012816
  0
VERTEX
  8
0
 10
1.84668
 20
5.11567
 30
0.0
 40
0.012816
 41
0.012816
  0
VERTEX
  8
0
 10
1.78976
 20
5.05821
 30
0.0
 40
0.012816
 41
0.012816
  0
VERTEX
  8
0
 10
1.73649
 20
5.00472
 30
0.0
 40
0.012816
 41
0.012816
  0
VERTEX
  8
0
 10
1.71875
 20
4.98687
 30
0.0
 40
0.012816
 41
0.012816
  0
VERTEX
  8
0
 10
1.71365
 20
4.98178
 30
0.0
 40
0.012816
 41
0.012816
  0
VERTEX
  8
0
 10
1.69835
 20
4.96642
 30
0.0
 40
0.012816
 41
0.012816
  0
VERTEX
  8
0
 10
1.68104
 20
4.94879
 30
0.0
 40
0.012816
 41
0.012816
  0
VERTEX
  8
0
 10
1.66851
 20
4.93599
 30
0.0
 40
0.012816
 41
0.012816
  0
VERTEX
  8
0
 10
1.66336
 20
4.9305
 30
0.0
 40
0.012816
 41
0.012816
  0
VERTEX
  8
0
 10
1.66276
 20
4.92974
 30
0.0
 40
0.012816
 41
0.012816
  0
VERTEX
  8
0
 10
1.66206
 20
4.92893
 30
0.0
 40
0.012816
 41
0.012816
  0
VERTEX
  8
0
 10
1.65175
 20
4.92589
 30
0.0
 40
0.012816
 41
0.012816
  0
VERTEX
  8
0
 10
1.62446
 20
4.91954
 30
0.0
 40
0.012816
 41
0.012816
  0
VERTEX
  8
0
 10
1.58328
 20
4.91124
 30
0.0
 40
0.012816
 41
0.012816
  0
VERTEX
  8
0
 10
1.54378
 20
4.90381
 30
0.0
 40
0.012816
 41
0.012816
  0
VERTEX
  8
0
 10
1.5306
 20
4.90142
 30
0.0
 40
0.012816
 41
0.012816
  0
VERTEX
  8
0
 10
1.50288
 20
4.89649
 30
0.0
 40
0.012816
 41
0.012816
  0
VERTEX
  8
0
 10
1.41997
 20
4.88043
 30
0.0
 40
0.012816
 41
0.012816
  0
VERTEX
  8
0
 10
1.34538
 20
4.86193
 30
0.0
 40
0.012816
 41
0.012816
  0
VERTEX
  8
0
 10
1.29015
 20
4.84104
 30
0.0
 40
0.012816
 41
0.012816
  0
VERTEX
  8
0
 10
1.25049
 20
4.82032
 30
0.0
 40
0.012816
 41
0.012816
  0
VERTEX
  8
0
 10
1.23774
 20
4.81267
 30
0.0
 40
0.012816
 41
0.012816
  0
VERTEX
  8
0
 10
1.22309
 20
4.80393
 30
0.0
 40
0.012816
 41
0.012816
  0
VERTEX
  8
0
 10
1.18099
 20
4.77468
 30
0.0
 40
0.012816
 41
0.012816
  0
VERTEX
  8
0
 10
1.13976
 20
4.73617
 30
0.0
 40
0.012816
 41
0.012816
  0
VERTEX
  8
0
 10
1.11019
 20
4.69282
 30
0.0
 40
0.012816
 41
0.012816
  0
VERTEX
  8
0
 10
1.09294
 20
4.65375
 30
0.0
 40
0.012816
 41
0.012816
  0
VERTEX
  8
0
 10
1.0886
 20
4.64025
 30
0.0
 40
0.012816
 41
0.012816
  0
VERTEX
  8
0
 10
1.08409
 20
4.62631
 30
0.0
 40
0.012816
 41
0.012816
  0
VERTEX
  8
0
 10
1.07568
 20
4.55018
 30
0.0
 40
0.012816
 41
0.012816
  0
VERTEX
  8
0
 10
1.08605
 20
4.47526
 30
0.0
 40
0.012816
 41
0.012816
  0
VERTEX
  8
0
 10
1.09093
 20
4.46186
 30
0.0
 40
0.012816
 41
0.012816
  0
VERTEX
  8
0
 10
1.09353
 20
4.45458
 30
0.0
 40
0.012816
 41
0.012816
  0
VERTEX
  8
0
 10
1.10503
 20
4.43392
 30
0.0
 40
0.012816
 41
0.012816
  0
VERTEX
  8
0
 10
1.12733
 20
4.40153
 30
0.0
 40
0.012816
 41
0.012816
  0
VERTEX
  8
0
 10
1.15365
 20
4.37001
 30
0.0
 40
0.012816
 41
0.012816
  0
VERTEX
  8
0
 10
1.17301
 20
4.35047
 30
0.0
 40
0.012816
 41
0.012816
  0
VERTEX
  8
0
 10
1.18007
 20
4.34472
 30
0.0
 40
0.012816
 41
0.012816
  0
VERTEX
  8
0
 10
1.19124
 20
4.33567
 30
0.0
 40
0.012816
 41
0.012816
  0
VERTEX
  8
0
 10
1.26253
 20
4.29492
 30
0.0
 40
0.012816
 41
0.012816
  0
VERTEX
  8
0
 10
1.35097
 20
4.2621
 30
0.0
 40
0.012816
 41
0.012816
  0
VERTEX
  8
0
 10
1.37077
 20
4.25689
 30
0.0
 40
0.012816
 41
0.012816
  0
VERTEX
  8
0
 10
1.37364
 20
4.25613
 30
0.0
 40
0.012816
 41
0.012816
  0
VERTEX
  8
0
 10
1.40261
 20
4.24854
 30
0.0
 40
0.012816
 41
0.012816
  0
VERTEX
  8
0
 10
1.40554
 20
4.24778
 30
0.0
 40
0.012816
 41
0.012816
  0
VERTEX
  8
0
 10
1.4075
 20
4.24322
 30
0.0
 40
0.012816
 41
0.012816
  0
VERTEX
  8
0
 10
1.42746
 20
4.1971
 30
0.0
 40
0.012816
 41
0.012816
  0
VERTEX
  8
0
 10
1.42947
 20
4.19249
 30
0.0
 40
0.012816
 41
0.012816
  0
VERTEX
  8
0
 10
1.43381
 20
4.1824
 30
0.0
 40
0.012816
 41
0.012816
  0
VERTEX
  8
0
 10
1.4534
 20
4.1415
 30
0.0
 40
0.012816
 41
0.012816
  0
VERTEX
  8
0
 10
1.47304
 20
4.10769
 30
0.0
 40
0.012816
 41
0.012816
  0
VERTEX
  8
0
 10
1.47749
 20
4.10107
 30
0.0
 40
0.012816
 41
0.012816
  0
VERTEX
  8
0
 10
1.48351
 20
4.09201
 30
0.0
 40
0.012816
 41
0.012816
  0
VERTEX
  8
0
 10
1.50331
 20
4.06586
 30
0.0
 40
0.012816
 41
0.012816
  0
VERTEX
  8
0
 10
1.53618
 20
4.02561
 30
0.0
 40
0.012816
 41
0.012816
  0
VERTEX
  8
0
 10
1.56961
 20
3.98785
 30
0.0
 40
0.012816
 41
0.012816
  0
VERTEX
  8
0
 10
1.58985
 20
3.96679
 30
0.0
 40
0.012816
 41
0.012816
  0
VERTEX
  8
0
 10
1.59711
 20
3.96035
 30
0.0
 40
0.012816
 41
0.012816
  0
VERTEX
  8
0
 10
1.60861
 20
3.95014
 30
0.0
 40
0.012816
 41
0.012816
  0
VERTEX
  8
0
 10
1.64936
 20
3.92649
 30
0.0
 40
0.012816
 41
0.012816
  0
VERTEX
  8
0
 10
1.71431
 20
3.90289
 30
0.0
 40
0.012816
 41
0.012816
  0
VERTEX
  8
0
 10
1.78336
 20
3.89176
 30
0.0
 40
0.012816
 41
0.012816
  0
VERTEX
  8
0
 10
1.83242
 20
3.89219
 30
0.0
 40
0.012816
 41
0.012816
  0
VERTEX
  8
0
 10
1.84825
 20
3.89518
 30
0.0
 40
0.012816
 41
0.012816
  0
VERTEX
  8
0
 10
1.85314
 20
3.89615
 30
0.0
 40
0.012816
 41
0.012816
  0
VERTEX
  8
0
 10
1.88021
 20
3.90321
 30
0.0
 40
0.012816
 41
0.012816
  0
VERTEX
  8
0
 10
1.90397
 20
3.9114
 30
0.0
 40
0.012816
 41
0.012816
  0
VERTEX
  8
0
 10
1.90722
 20
3.91287
 30
0.0
 40
0.012816
 41
0.012816
  0
VERTEX
  8
0
 10
1.92503
 20
3.92117
 30
0.0
 40
0.012816
 41
0.012816
  0
VERTEX
  8
0
 10
1.97331
 20
3.95725
 30
0.0
 40
0.012816
 41
0.012816
  0
VERTEX
  8
0
 10
2.0294
 20
4.02365
 30
0.0
 40
0.012816
 41
0.012816
  0
VERTEX
  8
0
 10
2.07437
 20
4.11057
 30
0.0
 40
0.012816
 41
0.012816
  0
VERTEX
  8
0
 10
2.10101
 20
4.18946
 30
0.0
 40
0.012816
 41
0.012816
  0
VERTEX
  8
0
 10
2.10726
 20
4.21636
 30
0.0
 40
0.012816
 41
0.012816
  0
VERTEX
  8
0
 10
2.11431
 20
4.24713
 30
0.0
 40
0.012816
 41
0.012816
  0
VERTEX
  8
0
 10
2.12717
 20
4.39415
 30
0.0
 40
0.012816
 41
0.012816
  0
VERTEX
  8
0
 10
2.11008
 20
4.52165
 30
0.0
 40
0.012816
 41
0.012816
  0
VERTEX
  8
0
 10
2.10221
 20
4.54264
 30
0.0
 40
0.012816
 41
0.012816
  0
VERTEX
  8
0
 10
2.10086
 20
4.54628
 30
0.0
 40
0.012816
 41
0.012816
  0
VERTEX
  8
0
 10
2.09353
 20
4.5689
 30
0.0
 40
0.012816
 41
0.012816
  0
VERTEX
  8
0
 10
2.0874
 20
4.59147
 30
0.0
 40
0.012816
 41
0.012816
  0
VERTEX
  8
0
 10
2.08664
 20
4.595
 30
0.0
 40
0.012816
 41
0.012816
  0
VERTEX
  8
0
 10
2.08615
 20
4.59717
 30
0.0
 40
0.012816
 41
0.012816
  0
VERTEX
  8
0
 10
2.08143
 20
4.61882
 30
0.0
 40
0.012816
 41
0.012816
  0
VERTEX
  8
0
 10
2.081
 20
4.62099
 30
0.0
 40
0.012816
 41
0.012816
  0
VERTEX
  8
0
 10
2.08301
 20
4.62386
 30
0.0
 40
0.012816
 41
0.012816
  0
VERTEX
  8
0
 10
2.10362
 20
4.65229
 30
0.0
 40
0.012816
 41
0.012816
  0
VERTEX
  8
0
 10
2.10568
 20
4.65511
 30
0.0
 40
0.012816
 41
0.012816
  0
VERTEX
  8
0
 10
2.12071
 20
4.67264
 30
0.0
 40
0.012816
 41
0.012816
  0
VERTEX
  8
0
 10
2.27106
 20
4.8476
 30
0.0
 40
0.012816
 41
0.012816
  0
VERTEX
  8
0
 10
2.28614
 20
4.86507
 30
0.0
 40
0.012816
 41
0.012816
  0
VERTEX
  8
0
 10
2.28614
 20
4.74837
 30
0.0
 40
0.012816
 41
0.012816
  0
VERTEX
  8
0
 10
2.28614
 20
4.48583
 30
0.0
 40
0.012816
 41
0.012816
  0
VERTEX
  8
0
 10
2.28614
 20
4.39828
 30
0.0
 40
0.012816
 41
0.012816
  0
VERTEX
  8
0
 10
2.39936
 20
4.39828
 30
0.0
 40
0.012816
 41
0.012816
  0
VERTEX
  8
0
 10
2.65408
 20
4.39828
 30
0.0
 40
0.012816
 41
0.012816
  0
VERTEX
  8
0
 10
2.73904
 20
4.39828
 30
0.0
 40
0.012816
 41
0.012816
  0
VERTEX
  8
0
 10
2.75532
 20
4.39828
 30
0.0
 40
0.012816
 41
0.012816
  0
VERTEX
  8
0
 10
2.80425
 20
4.41189
 30
0.0
 40
0.012816
 41
0.012816
  0
VERTEX
  8
0
 10
2.84787
 20
4.44358
 30
0.0
 40
0.012816
 41
0.012816
  0
VERTEX
  8
0
 10
2.85514
 20
4.45264
 30
0.0
 40
0.012816
 41
0.012816
  0
VERTEX
  8
0
 10
2.86187
 20
4.46104
 30
0.0
 40
0.012816
 41
0.012816
  0
VERTEX
  8
0
 10
2.88542
 20
4.50885
 30
0.0
 40
0.012816
 41
0.012816
  0
VERTEX
  8
0
 10
2.89551
 20
4.55994
 30
0.0
 40
0.012816
 41
0.012816
  0
VERTEX
  8
0
 10
2.89551
 20
4.57699
 30
0.0
 40
0.012816
 41
0.012816
  0
VERTEX
  8
0
 10
2.89551
 20
4.63319
 30
0.0
 40
0.012816
 41
0.012816
  0
VERTEX
  8
0
 10
2.89551
 20
4.75965
 30
0.0
 40
0.012816
 41
0.012816
  0
VERTEX
  8
0
 10
2.89551
 20
4.80181
 30
0.0
 40
0.012816
 41
0.012816
  0
VERTEX
  8
0
 10
2.89551
 20
4.81526
 30
0.0
 40
0.012816
 41
0.012816
  0
VERTEX
  8
0
 10
2.89014
 20
4.85563
 30
0.0
 40
0.012816
 41
0.012816
  0
VERTEX
  8
0
 10
2.87408
 20
4.89757
 30
0.0
 40
0.012816
 41
0.012816
  0
VERTEX
  8
0
 10
2.84728
 20
4.92768
 30
0.0
 40
0.012816
 41
0.012816
  0
VERTEX
  8
0
 10
2.81967
 20
4.94308
 30
0.0
 40
0.012816
 41
0.012816
  0
VERTEX
  8
0
 10
2.80985
 20
4.9459
 30
0.0
 40
0.012816
 41
0.012816
  0
VERTEX
  8
0
 10
2.817
 20
4.94933
 30
0.0
 40
0.012816
 41
0.012816
  0
VERTEX
  8
0
 10
2.83649
 20
4.96403
 30
0.0
 40
0.012816
 41
0.012816
  0
VERTEX
  8
0
 10
2.85553
 20
4.98958
 30
0.0
 40
0.012816
 41
0.012816
  0
VERTEX
  8
0
 10
2.86692
 20
5.02251
 30
0.0
 40
0.012816
 41
0.012816
  0
VERTEX
  8
0
 10
2.87076
 20
5.05279
 30
0.0
 40
0.012816
 41
0.012816
  0
VERTEX
  8
0
 10
2.87076
 20
5.06282
 30
0.0
 40
0.012816
 41
0.012816
  0
VERTEX
  8
0
 10
2.87076
 20
5.1135
 30
0.0
 40
0.012816
 41
0.012816
  0
VERTEX
  8
0
 10
2.87076
 20
5.22743
 30
0.0
 40
0.012816
 41
0.012816
  0
VERTEX
  8
0
 10
2.87076
 20
5.2654
 30
0.0
 40
0.012816
 41
0.012816
  0
VERTEX
  8
0
 10
2.87076
 20
5.28299
 30
0.0
 40
0.012816
 41
0.012816
  0
VERTEX
  8
0
 10
2.86089
 20
5.33561
 30
0.0
 40
0.012816
 41
0.012816
  0
VERTEX
  8
0
 10
2.83783
 20
5.38456
 30
0.0
 40
0.012816
 41
0.012816
  0
VERTEX
  8
0
 10
2.83128
 20
5.39301
 30
0.0
 40
0.012816
 41
0.012816
  0
VERTEX
  8
0
 10
2.82807
 20
5.39725
 30
0.0
 40
0.012816
 41
0.012816
  0
VERTEX
  8
0
 10
2.81657
 20
5.40831
 30
0.0
 40
0.012816
 41
0.012816
  0
VERTEX
  8
0
 10
2.79883
 20
5.42253
 30
0.0
 40
0.012816
 41
0.012816
  0
VERTEX
  8
0
 10
2.7839
 20
5.43294
 30
0.0
 40
0.012816
 41
0.012816
  0
VERTEX
  8
0
 10
2.77767
 20
5.43701
 30
0.0
 40
0.012816
 41
0.012816
  0
VERTEX
  8
0
 10
2.77767
 20
5.43701
 30
0.0
 40
0.012816
 41
0.012816
  0
VERTEX
  8
0
 10
2.82221
 20
5.48893
 30
0.0
 40
0.012816
 41
0.012816
  0
VERTEX
  8
0
 10
3.26807
 20
6.00771
 30
0.0
 40
0.012816
 41
0.012816
  0
VERTEX
  8
0
 10
3.31267
 20
6.05957
 30
0.0
 40
0.012816
 41
0.012816
  0
VERTEX
  8
0
 10
3.31267
 20
6.05957
 30
0.0
 40
0.012816
 41
0.012816
  0
VERTEX
  8
0
 10
3.32368
 20
6.07146
 30
0.0
 40
0.012816
 41
0.012816
  0
VERTEX
  8
0
 10
3.35042
 20
6.10026
 30
0.0
 40
0.012816
 41
0.012816
  0
VERTEX
  8
0
 10
3.38336
 20
6.13585
 30
0.0
 40
0.012816
 41
0.012816
  0
VERTEX
  8
0
 10
3.4056
 20
6.16
 30
0.0
 40
0.012816
 41
0.012816
  0
VERTEX
  8
0
 10
3.41297
 20
6.16803
 30
0.0
 40
0.012816
 41
0.012816
  0
VERTEX
  8
0
 10
3.41797
 20
6.1735
 30
0.0
 40
0.012816
 41
0.012816
  0
VERTEX
  8
0
 10
3.4681
 20
6.22819
 30
0.0
 40
0.012816
 41
0.012816
  0
VERTEX
  8
0
 10
3.47314
 20
6.23361
 30
0.0
 40
0.012816
 41
0.012816
  0
VERTEX
  8
0
 10
3.48074
 20
6.23438
 30
0.0
 40
0.012816
 41
0.012816
  0
VERTEX
  8
0
 10
3.55701
 20
6.24197
 30
0.0
 40
0.012816
 41
0.012816
  0
VERTEX
  8
0
 10
3.56467
 20
6.24274
 30
0.0
 40
0.012816
 41
0.012816
  0
VERTEX
  8
0
 10
3.59494
 20
6.24576
 30
0.0
 40
0.012816
 41
0.012816
  0
VERTEX
  8
0
 10
3.68554
 20
6.25808
 30
0.0
 40
0.012816
 41
0.012816
  0
VERTEX
  8
0
 10
3.78738
 20
6.2786
 30
0.0
 40
0.012816
 41
0.012816
  0
VERTEX
  8
0
 10
3.87506
 20
6.3055
 30
0.0
 40
0.012816
 41
0.012816
  0
VERTEX
  8
0
 10
3.9344
 20
6.33024
 30
0.0
 40
0.012816
 41
0.012816
  0
VERTEX
  8
0
 10
3.95344
 20
6.33996
 30
0.0
 40
0.012816
 41
0.012816
  0
VERTEX
  8
0
 10
3.97732
 20
6.35221
 30
0.0
 40
0.012816
 41
0.012816
  0
VERTEX
  8
0
 10
4.04536
 20
6.39611
 30
0.0
 40
0.012816
 41
0.012816
  0
VERTEX
  8
0
 10
4.11692
 20
6.45996
 30
0.0
 40
0.012816
 41
0.012816
  0
VERTEX
  8
0
 10
4.16889
 20
6.53256
 30
0.0
 40
0.012816
 41
0.012816
  0
VERTEX
  8
0
 10
4.19635
 20
6.59353
 30
0.0
 40
0.012816
 41
0.012816
  0
VERTEX
  8
0
 10
4.20226
 20
6.61475
 30
0.0
 40
0.012816
 41
0.012816
  0
VERTEX
  8
0
 10
4.20856
 20
6.63743
 30
0.0
 40
0.012816
 41
0.012816
  0
VERTEX
  8
0
 10
4.21246
 20
6.7416
 30
0.0
 40
0.012816
 41
0.012816
  0
VERTEX
  8
0
 10
4.1805
 20
6.82736
 30
0.0
 40
0.012816
 41
0.012816
  0
VERTEX
  8
0
 10
4.16889
 20
6.84082
 30
0.0
 40
0.012816
 41
0.012816
  0
VERTEX
  8
0
 10
4.16049
 20
6.85053
 30
0.0
 40
0.012816
 41
0.012816
  0
VERTEX
  8
0
 10
4.13049
 20
6.87554
 30
0.0
 40
0.012816
 41
0.012816
  0
VERTEX
  8
0
 10
4.07943
 20
6.90386
 30
0.0
 40
0.012816
 41
0.012816
  0
VERTEX
  8
0
 10
4.01215
 20
6.92736
 30
0.0
 40
0.012816
 41
0.012816
  0
VERTEX
  8
0
 10
3.9471
 20
6.94336
 30
0.0
 40
0.012816
 41
0.012816
  0
VERTEX
  8
0
 10
3.92524
 20
6.9476
 30
0.0
 40
0.012816
 41
0.012816
  0
VERTEX
  8
0
 10
3.90913
 20
6.95074
 30
0.0
 40
0.012816
 41
0.012816
  0
VERTEX
  8
0
 10
3.83963
 20
6.96625
 30
0.0
 40
0.012816
 41
0.012816
  0
VERTEX
  8
0
 10
3.79161
 20
6.97976
 30
0.0
 40
0.012816
 41
0.012816
  0
VERTEX
  8
0
 10
3.78629
 20
6.98188
 30
0.0
 40
0.012816
 41
0.012816
  0
VERTEX
  8
0
 10
3.78222
 20
6.98351
 30
0.0
 40
0.012816
 41
0.012816
  0
VERTEX
  8
0
 10
3.771
 20
6.99056
 30
0.0
 40
0.012816
 41
0.012816
  0
VERTEX
  8
0
 10
3.76047
 20
7.00467
 30
0.0
 40
0.012816
 41
0.012816
  0
VERTEX
  8
0
 10
3.75244
 20
7.02854
 30
0.0
 40
0.012816
 41
0.012816
  0
VERTEX
  8
0
 10
3.74658
 20
7.05692
 30
0.0
 40
0.012816
 41
0.012816
  0
VERTEX
  8
0
 10
3.74496
 20
7.0664
 30
0.0
 40
0.012816
 41
0.012816
  0
VERTEX
  8
0
 10
3.74289
 20
7.07829
 30
0.0
 40
0.012816
 41
0.012816
  0
VERTEX
  8
0
 10
3.73535
 20
7.11356
 30
0.0
 40
0.012816
 41
0.012816
  0
VERTEX
  8
0
 10
3.7239
 20
7.14979
 30
0.0
 40
0.012816
 41
0.012816
  0
VERTEX
  8
0
 10
3.70779
 20
7.18192
 30
0.0
 40
0.012816
 41
0.012816
  0
VERTEX
  8
0
 10
3.69049
 20
7.20811
 30
0.0
 40
0.012816
 41
0.012816
  0
VERTEX
  8
0
 10
3.68435
 20
7.21647
 30
0.0
 40
0.012816
 41
0.012816
  0
VERTEX
  8
0
 10
3.6805
 20
7.22174
 30
0.0
 40
0.012816
 41
0.012816
  0
VERTEX
  8
0
 10
3.66868
 20
7.23719
 30
0.0
 40
0.012816
 41
0.012816
  0
VERTEX
  8
0
 10
3.65663
 20
7.25146
 30
0.0
 40
0.012816
 41
0.012816
  0
VERTEX
  8
0
 10
3.64567
 20
7.26204
 30
0.0
 40
0.012816
 41
0.012816
  0
VERTEX
  8
0
 10
3.63639
 20
7.26942
 30
0.0
 40
0.012816
 41
0.012816
  0
VERTEX
  8
0
 10
3.63325
 20
7.27171
 30
0.0
 40
0.012816
 41
0.012816
  0
VERTEX
  8
0
 10
3.62532
 20
7.2774
 30
0.0
 40
0.012816
 41
0.012816
  0
VERTEX
  8
0
 10
3.59858
 20
7.29015
 30
0.0
 40
0.012816
 41
0.012816
  0
VERTEX
  8
0
 10
3.55458
 20
7.3035
 30
0.0
 40
0.012816
 41
0.012816
  0
VERTEX
  8
0
 10
3.50418
 20
7.31147
 30
0.0
 40
0.012816
 41
0.012816
  0
VERTEX
  8
0
 10
3.46382
 20
7.31401
 30
0.0
 40
0.012816
 41
0.012816
  0
VERTEX
  8
0
 10
3.45042
 20
7.31392
 30
0.0
 40
0.012816
 41
0.012816
  0
SEQEND
 8
0
  0
POLYLINE
  8
0
 62
     0
 66
     1
 10
0
 20
0
 30
0.0
 70
     1
 40
0.922754
 41
0.922754
  0
VERTEX
  8
0
 10
3.4834
 20
7.24843
 30
0.0
 40
0.012816
 41
0.012816
  0
VERTEX
  8
0
 10
3.48058
 20
7.24843
 30
0.0
 40
0.012816
 41
0.012816
  0
VERTEX
  8
0
 10
3.47228
 20
7.24783
 30
0.0
 40
0.012816
 41
0.012816
  0
VERTEX
  8
0
 10
3.47581
 20
7.24599
 30
0.0
 40
0.012816
 41
0.012816
  0
VERTEX
  8
0
 10
3.49035
 20
7.24289
 30
0.0
 40
0.012816
 41
0.012816
  0
VERTEX
  8
0
 10
3.51232
 20
7.23856
 30
0.0
 40
0.012816
 41
0.012816
  0
VERTEX
  8
0
 10
3.53814
 20
7.23301
 30
0.0
 40
0.012816
 41
0.012816
  0
VERTEX
  8
0
 10
3.56429
 20
7.22624
 30
0.0
 40
0.012816
 41
0.012816
  0
VERTEX
  8
0
 10
3.58708
 20
7.21821
 30
0.0
 40
0.012816
 41
0.012816
  0
VERTEX
  8
0
 10
3.59961
 20
7.21192
 30
0.0
 40
0.012816
 41
0.012816
  0
VERTEX
  8
0
 10
3.60303
 20
7.20893
 30
0.0
 40
0.012816
 41
0.012816
  0
VERTEX
  8
0
 10
3.60801
 20
7.20458
 30
0.0
 40
0.012816
 41
0.012816
  0
VERTEX
  8
0
 10
3.62121
 20
7.18924
 30
0.0
 40
0.012816
 41
0.012816
  0
VERTEX
  8
0
 10
3.64019
 20
7.16276
 30
0.0
 40
0.012816
 41
0.012816
  0
VERTEX
  8
0
 10
3.65647
 20
7.13499
 30
0.0
 40
0.012816
 41
0.012816
  0
VERTEX
  8
0
 10
3.66461
 20
7.11757
 30
0.0
 40
0.012816
 41
0.012816
  0
VERTEX
  8
0
 10
3.66635
 20
7.11149
 30
0.0
 40
0.012816
 41
0.012816
  0
VERTEX
  8
0
 10
3.66786
 20
7.10607
 30
0.0
 40
0.012816
 41
0.012816
  0
VERTEX
  8
0
 10
3.67449
 20
7.06799
 30
0.0
 40
0.012816
 41
0.012816
  0
VERTEX
  8
0
 10
3.67854
 20
7.02403
 30
0.0
 40
0.012816
 41
0.012816
  0
VERTEX
  8
0
 10
3.67882
 20
7.01568
 30
0.0
 40
0.012816
 41
0.012816
  0
VERTEX
  8
0
 10
3.67925
 20
7.00196
 30
0.0
 40
0.012816
 41
0.012816
  0
VERTEX
  8
0
 10
3.68826
 20
6.96089
 30
0.0
 40
0.012816
 41
0.012816
  0
VERTEX
  8
0
 10
3.7099
 20
6.90218
 30
0.0
 40
0.012816
 41
0.012816
  0
VERTEX
  8
0
 10
3.73833
 20
6.85157
 30
0.0
 40
0.012816
 41
0.012816
  0
VERTEX
  8
0
 10
3.75922
 20
6.82596
 30
0.0
 40
0.012816
 41
0.012816
  0
VERTEX
  8
0
 10
3.76812
 20
6.82069
 30
0.0
 40
0.012816
 41
0.012816
  0
VERTEX
  8
0
 10
3.77083
 20
6.81912
 30
0.0
 40
0.012816
 41
0.012816
  0
VERTEX
  8
0
 10
3.78054
 20
6.81685
 30
0.0
 40
0.012816
 41
0.012816
  0
VERTEX
  8
0
 10
3.78478
 20
6.82357
 30
0.0
 40
0.012816
 41
0.012816
  0
VERTEX
  8
0
 10
3.78082
 20
6.83931
 30
0.0
 40
0.012816
 41
0.012816
  0
VERTEX
  8
0
 10
3.77208
 20
6.85688
 30
0.0
 40
0.012816
 41
0.012816
  0
VERTEX
  8
0
 10
3.76867
 20
6.86242
 30
0.0
 40
0.012816
 41
0.012816
  0
VERTEX
  8
0
 10
3.76346
 20
6.87076
 30
0.0
 40
0.012816
 41
0.012816
  0
VERTEX
  8
0
 10
3.74989
 20
6.89708
 30
0.0
 40
0.012816
 41
0.012816
  0
VERTEX
  8
0
 10
3.74474
 20
6.91818
 30
0.0
 40
0.012816
 41
0.012816
  0
VERTEX
  8
0
 10
3.75299
 20
6.92503
 30
0.0
 40
0.012816
 41
0.012816
  0
VERTEX
  8
0
 10
3.76969
 20
6.91971
 30
0.0
 40
0.012816
 41
0.012816
  0
VERTEX
  8
0
 10
3.77468
 20
6.91689
 30
0.0
 40
0.012816
 41
0.012816
  0
VERTEX
  8
0
 10
3.77869
 20
6.91461
 30
0.0
 40
0.012816
 41
0.012816
  0
VERTEX
  8
0
 10
3.794
 20
6.90913
 30
0.0
 40
0.012816
 41
0.012816
  0
VERTEX
  8
0
 10
3.82622
 20
6.89979
 30
0.0
 40
0.012816
 41
0.012816
  0
VERTEX
  8
0
 10
3.86936
 20
6.88943
 30
0.0
 40
0.012816
 41
0.012816
  0
VERTEX
  8
0
 10
3.90821
 20
6.88113
 30
0.0
 40
0.012816
 41
0.012816
  0
VERTEX
  8
0
 10
3.92122
 20
6.87858
 30
0.0
 40
0.012816
 41
0.012816
  0
VERTEX
  8
0
 10
3.93251
 20
6.87642
 30
0.0
 40
0.012816
 41
0.012816
  0
VERTEX
  8
0
 10
3.96631
 20
6.86903
 30
0.0
 40
0.012816
 41
0.012816
  0
VERTEX
  8
0
 10
4.00672
 20
6.859
 30
0.0
 40
0.012816
 41
0.012816
  0
VERTEX
  8
0
 10
4.03922
 20
6.84944
 30
0.0
 40
0.012816
 41
0.012816
  0
VERTEX
  8
0
 10
4.05572
 20
6.84364
 30
0.0
 40
0.012816
 41
0.012816
  0
VERTEX
  8
0
 10
4.06065
 20
6.84119
 30
0.0
 40
0.012816
 41
0.012816
  0
VERTEX
  8
0
 10
4.06261
 20
6.84022
 30
0.0
 40
0.012816
 41
0.012816
  0
VERTEX
  8
0
 10
4.07519
 20
6.83236
 30
0.0
 40
0.012816
 41
0.012816
  0
VERTEX
  8
0
 10
4.08778
 20
6.82286
 30
0.0
 40
0.012816
 41
0.012816
  0
VERTEX
  8
0
 10
4.08985
 20
6.82107
 30
0.0
 40
0.012816
 41
0.012816
  0
VERTEX
  8
0
 10
4.10157
 20
6.81076
 30
0.0
 40
0.012816
 41
0.012816
  0
VERTEX
  8
0
 10
4.12847
 20
6.77007
 30
0.0
 40
0.012816
 41
0.012816
  0
VERTEX
  8
0
 10
4.14333
 20
6.70806
 30
0.0
 40
0.012816
 41
0.012816
  0
VERTEX
  8
0
 10
4.13428
 20
6.63867
 30
0.0
 40
0.012816
 41
0.012816
  0
VERTEX
  8
0
 10
4.11154
 20
6.58247
 30
0.0
 40
0.012816
 41
0.012816
  0
VERTEX
  8
0
 10
4.10118
 20
6.56543
 30
0.0
 40
0.012816
 41
0.012816
  0
VERTEX
  8
0
 10
4.09261
 20
6.55149
 30
0.0
 40
0.012816
 41
0.012816
  0
VERTEX
  8
0
 10
4.03901
 20
6.48768
 30
0.0
 40
0.012816
 41
0.012816
  0
VERTEX
  8
0
 10
3.97163
 20
6.43272
 30
0.0
 40
0.012816
 41
0.012816
  0
VERTEX
  8
0
 10
3.95617
 20
6.42312
 30
0.0
 40
0.012816
 41
0.012816
  0
VERTEX
  8
0
 10
3.94482
 20
6.41613
 30
0.0
 40
0.012816
 41
0.012816
  0
VERTEX
  8
0
 10
3.898
 20
6.39085
 30
0.0
 40
0.012816
 41
0.012816
  0
VERTEX
  8
0
 10
3.85069
 20
6.37224
 30
0.0
 40
0.012816
 41
0.012816
  0
VERTEX
  8
0
 10
3.83919
 20
6.36854
 30
0.0
 40
0.012816
 41
0.012816
  0
VERTEX
  8
0
 10
3.82254
 20
6.36328
 30
0.0
 40
0.012816
 41
0.012816
  0
VERTEX
  8
0
 10
3.77149
 20
6.35075
 30
0.0
 40
0.012816
 41
0.012816
  0
VERTEX
  8
0
 10
3.68317
 20
6.33236
 30
0.0
 40
0.012816
 41
0.012816
  0
VERTEX
  8
0
 10
3.58951
 20
6.3164
 30
0.0
 40
0.012816
 41
0.012816
  0
VERTEX
  8
0
 10
3.52692
 20
6.30767
 30
0.0
 40
0.012816
 41
0.012816
  0
VERTEX
  8
0
 10
3.50597
 20
6.30561
 30
0.0
 40
0.012816
 41
0.012816
  0
VERTEX
  8
0
 10
3.49924
 20
6.30496
 30
0.0
 40
0.012816
 41
0.012816
  0
VERTEX
  8
0
 10
3.47922
 20
6.30274
 30
0.0
 40
0.012816
 41
0.012816
  0
VERTEX
  8
0
 10
3.46229
 20
6.29964
 30
0.0
 40
0.012816
 41
0.012816
  0
VERTEX
  8
0
 10
3.45025
 20
6.29508
 30
0.0
 40
0.012816
 41
0.012816
  0
VERTEX
  8
0
 10
3.44108
 20
6.28965
 30
0.0
 40
0.012816
 41
0.012816
  0
VERTEX
  8
0
 10
3.43815
 20
6.28771
 30
0.0
 40
0.012816
 41
0.012816
  0
VERTEX
  8
0
 10
3.4344
 20
6.28526
 30
0.0
 40
0.012816
 41
0.012816
  0
VERTEX
  8
0
 10
3.42432
 20
6.27604
 30
0.0
 40
0.012816
 41
0.012816
  0
VERTEX
  8
0
 10
3.40153
 20
6.25429
 30
0.0
 40
0.012816
 41
0.012816
  0
VERTEX
  8
0
 10
3.37321
 20
6.22607
 30
0.0
 40
0.012816
 41
0.012816
  0
VERTEX
  8
0
 10
3.34261
 20
6.19493
 30
0.0
 40
0.012816
 41
0.012816
  0
VERTEX
  8
0
 10
3.31304
 20
6.1645
 30
0.0
 40
0.012816
 41
0.012816
  0
VERTEX
  8
0
 10
3.28788
 20
6.13835
 30
0.0
 40
0.012816
 41
0.012816
  0
VERTEX
  8
0
 10
3.27029
 20
6.12001
 30
0.0
 40
0.012816
 41
0.012816
  0
VERTEX
  8
0
 10
3.26372
 20
6.11307
 30
0.0
 40
0.012816
 41
0.012816
  0
VERTEX
  8
0
 10
3.26372
 20
6.11307
 30
0.0
 40
0.012816
 41
0.012816
  0
VERTEX
  8
0
 10
3.2379
 20
6.08339
 30
0.0
 40
0.012816
 41
0.012816
  0
VERTEX
  8
0
 10
2.98004
 20
5.78646
 30
0.0
 40
0.012816
 41
0.012816
  0
VERTEX
  8
0
 10
2.95426
 20
5.75672
 30
0.0
 40
0.012816
 41
0.012816
  0
VERTEX
  8
0
 10
2.8896
 20
5.68229
 30
0.0
 40
0.012816
 41
0.012816
  0
VERTEX
  8
0
 10
2.24306
 20
4.93788
 30
0.0
 40
0.012816
 41
0.012816
  0
VERTEX
  8
0
 10
2.17844
 20
4.86344
 30
0.0
 40
0.012816
 41
0.012816
  0
VERTEX
  8
0
 10
2.17844
 20
4.86344
 30
0.0
 40
0.012816
 41
0.012816
  0
VERTEX
  8
0
 10
2.17063
 20
4.85374
 30
0.0
 40
0.012816
 41
0.012816
  0
VERTEX
  8
0
 10
2.15001
 20
4.82807
 30
0.0
 40
0.012816
 41
0.012816
  0
VERTEX
  8
0
 10
2.12088
 20
4.7915
 30
0.0
 40
0.012816
 41
0.012816
  0
VERTEX
  8
0
 10
2.0874
 20
4.74924
 30
0.0
 40
0.012816
 41
0.012816
  0
VERTEX
  8
0
 10
2.05376
 20
4.70643
 30
0.0
 40
0.012816
 41
0.012816
  0
VERTEX
  8
0
 10
2.02425
 20
4.66824
 30
0.0
 40
0.012816
 41
0.012816
  0
VERTEX
  8
0
 10
2.00304
 20
4.63976
 30
0.0
 40
0.012816
 41
0.012816
  0
VERTEX
  8
0
 10
1.99507
 20
4.62912
 30
0.0
 40
0.012816
 41
0.012816
  0
VERTEX
  8
0
 10
1.99442
 20
4.62614
 30
0.0
 40
0.012816
 41
0.012816
  0
VERTEX
  8
0
 10
1.99397
 20
4.62414
 30
0.0
 40
0.012816
 41
0.012816
  0
VERTEX
  8
0
 10
1.99854
 20
4.6034
 30
0.0
 40
0.012816
 41
0.012816
  0
VERTEX
  8
0
 10
2.0134
 20
4.56429
 30
0.0
 40
0.012816
 41
0.012816
  0
VERTEX
  8
0
 10
2.01812
 20
4.55311
 30
0.0
 40
0.012816
 41
0.012816
  0
VERTEX
  8
0
 10
2.02121
 20
4.54579
 30
0.0
 40
0.012816
 41
0.012816
  0
VERTEX
  8
0
 10
2.02897
 20
4.523
 30
0.0
 40
0.012816
 41
0.012816
  0
VERTEX
  8
0
 10
2.03917
 20
4.48725
 30
0.0
 40
0.012816
 41
0.012816
  0
VERTEX
  8
0
 10
2.04731
 20
4.45079
 30
0.0
 40
0.012816
 41
0.012816
  0
VERTEX
  8
0
 10
2.05143
 20
4.42665
 30
0.0
 40
0.012816
 41
0.012816
  0
VERTEX
  8
0
 10
2.05231
 20
4.41851
 30
0.0
 40
0.012816
 41
0.012816
  0
VERTEX
  8
0
 10
2.05311
 20
4.41015
 30
0.0
 40
0.012816
 41
0.012816
  0
VERTEX
  8
0
 10
2.05365
 20
4.38482
 30
0.0
 40
0.012816
 41
0.012816
  0
VERTEX
  8
0
 10
2.05263
 20
4.34299
 30
0.0
 40
0.012816
 41
0.012816
  0
VERTEX
  8
0
 10
2.04943
 20
4.3004
 30
0.0
 40
0.012816
 41
0.012816
  0
VERTEX
  8
0
 10
2.04617
 20
4.27322
 30
0.0
 40
0.012816
 41
0.012816
  0
VERTEX
  8
0
 10
2.04454
 20
4.26426
 30
0.0
 40
0.012816
 41
0.012816
  0
VERTEX
  8
0
 10
2.03993
 20
4.23964
 30
0.0
 40
0.012816
 41
0.012816
  0
VERTEX
  8
0
 10
2.00493
 20
4.13118
 30
0.0
 40
0.012816
 41
0.012816
  0
VERTEX
  8
0
 10
1.95518
 20
4.04536
 30
0.0
 40
0.012816
 41
0.012816
  0
VERTEX
  8
0
 10
1.94325
 20
4.03196
 30
0.0
 40
0.012816
 41
0.012816
  0
VERTEX
  8
0
 10
1.93956
 20
4.02783
 30
0.0
 40
0.012816
 41
0.012816
  0
VERTEX
  8
0
 10
1.91086
 20
4.00358
 30
0.0
 40
0.012816
 41
0.012816
  0
VERTEX
  8
0
 10
1.87967
 20
3.98292
 30
0.0
 40
0.012816
 41
0.012816
  0
VERTEX
  8
0
 10
1.87472
 20
3.98053
 30
0.0
 40
0.012816
 41
0.012816
  0
VERTEX
  8
0
 10
1.85628
 20
3.97174
 30
0.0
 40
0.012816
 41
0.012816
  0
VERTEX
  8
0
 10
1.75575
 20
3.96262
 30
0.0
 40
0.012816
 41
0.012816
  0
VERTEX
  8
0
 10
1.65881
 20
3.99799
 30
0.0
 40
0.012816
 41
0.012816
  0
VERTEX
  8
0
 10
1.64214
 20
4.01139
 30
0.0
 40
0.012816
 41
0.012816
  0
VERTEX
  8
0
 10
1.63103
 20
4.0204
 30
0.0
 40
0.012816
 41
0.012816
  0
VERTEX
  8
0
 10
1.60086
 20
4.05126
 30
0.0
 40
0.012816
 41
0.012816
  0
VERTEX
  8
0
 10
1.55817
 20
4.10308
 30
0.0
 40
0.012816
 41
0.012816
  0
VERTEX
  8
0
 10
1.52007
 20
4.1589
 30
0.0
 40
0.012816
 41
0.012816
  0
VERTEX
  8
0
 10
1.49838
 20
4.19721
 30
0.0
 40
0.012816
 41
0.012816
  0
VERTEX
  8
0
 10
1.49268
 20
4.21056
 30
0.0
 40
0.012816
 41
0.012816
  0
VERTEX
  8
0
 10
1.48958
 20
4.21778
 30
0.0
 40
0.012816
 41
0.012816
  0
VERTEX
  8
0
 10
1.48269
 20
4.24382
 30
0.0
 40
0.012816
 41
0.012816
  0
VERTEX
  8
0
 10
1.48699
 20
4.25922
 30
0.0
 40
0.012816
 41
0.012816
  0
VERTEX
  8
0
 10
1.48947
 20
4.26107
 30
0.0
 40
0.012816
 41
0.012816
  0
VERTEX
  8
0
 10
1.49278
 20
4.26357
 30
0.0
 40
0.012816
 41
0.012816
  0
VERTEX
  8
0
 10
1.51438
 20
4.26069
 30
0.0
 40
0.012816
 41
0.012816
  0
VERTEX
  8
0
 10
1.54454
 20
4.23622
 30
0.0
 40
0.012816
 41
0.012816
  0
VERTEX
  8
0
 10
1.55214
 20
4.22792
 30
0.0
 40
0.012816
 41
0.012816
  0
VERTEX
  8
0
 10
1.55658
 20
4.22304
 30
0.0
 40
0.012816
 41
0.012816
  0
VERTEX
  8
0
 10
1.57135
 20
4.20947
 30
0.0
 40
0.012816
 41
0.012816
  0
VERTEX
  8
0
 10
1.58219
 20
4.20404
 30
0.0
 40
0.012816
 41
0.012816
  0
VERTEX
  8
0
 10
1.58356
 20
4.21158
 30
0.0
 40
0.012816
 41
0.012816
  0
VERTEX
  8
0
 10
1.57693
 20
4.227
 30
0.0
 40
0.012816
 41
0.012816
  0
VERTEX
  8
0
 10
1.57422
 20
4.23178
 30
0.0
 40
0.012816
 41
0.012816
  0
VERTEX
  8
0
 10
1.57129
 20
4.23693
 30
0.0
 40
0.012816
 41
0.012816
  0
VERTEX
  8
0
 10
1.5485
 20
4.26378
 30
0.0
 40
0.012816
 41
0.012816
  0
VERTEX
  8
0
 10
1.52181
 20
4.28526
 30
0.0
 40
0.012816
 41
0.012816
  0
VERTEX
  8
0
 10
1.51699
 20
4.28771
 30
0.0
 40
0.012816
 41
0.012816
  0
VERTEX
  8
0
 10
1.51492
 20
4.28879
 30
0.0
 40
0.012816
 41
0.012816
  0
VERTEX
  8
0
 10
1.48731
 20
4.29736
 30
0.0
 40
0.012816
 41
0.012816
  0
VERTEX
  8
0
 10
1.4459
 20
4.30783
 30
0.0
 40
0.012816
 41
0.012816
  0
VERTEX
  8
0
 10
1.43696
 20
4.30979
 30
0.0
 40
0.012816
 41
0.012816
  0
VERTEX
  8
0
 10
1.419
 20
4.31381
 30
0.0
 40
0.012816
 41
0.012816
  0
VERTEX
  8
0
 10
1.36567
 20
4.32807
 30
0.0
 40
0.012816
 41
0.012816
  0
VERTEX
  8
0
 10
1.3049
 20
4.34868
 30
0.0
 40
0.012816
 41
0.012816
  0
VERTEX
  8
0
 10
1.25526
 20
4.37142
 30
0.0
 40
0.012816
 41
0.012816
  0
VERTEX
  8
0
 10
1.22618
 20
4.38894
 30
0.0
 40
0.012816
 41
0.012816
  0
VERTEX
  8
0
 10
1.2175
 20
4.39594
 30
0.0
 40
0.012816
 41
0.012816
  0
VERTEX
  8
0
 10
1.21213
 20
4.40028
 30
0.0
 40
0.012816
 41
0.012816
  0
VERTEX
  8
0
 10
1.18376
 20
4.43169
 30
0.0
 40
0.012816
 41
0.012816
  0
VERTEX
  8
0
 10
1.16108
 20
4.46625
 30
0.0
 40
0.012816
 41
0.012816
  0
VERTEX
  8
0
 10
1.15858
 20
4.47211
 30
0.0
 40
0.012816
 41
0.012816
  0
VERTEX
  8
0
 10
1.15392
 20
4.48301
 30
0.0
 40
0.012816
 41
0.012816
  0
VERTEX
  8
0
 10
1.14708
 20
4.51867
 30
0.0
 40
0.012816
 41
0.012816
  0
VERTEX
  8
0
 10
1.14654
 20
4.57286
 30
0.0
 40
0.012816
 41
0.012816
  0
VERTEX
  8
0
 10
1.1562
 20
4.62679
 30
0.0
 40
0.012816
 41
0.012816
  0
VERTEX
  8
0
 10
1.16911
 20
4.66211
 30
0.0
 40
0.012816
 41
0.012816
  0
VERTEX
  8
0
 10
1.17551
 20
4.67258
 30
0.0
 40
0.012816
 41
0.012816
  0
VERTEX
  8
0
 10
1.17719
 20
4.6754
 30
0.0
 40
0.012816
 41
0.012816
  0
VERTEX
  8
0
 10
1.18289
 20
4.68343
 30
0.0
 40
0.012816
 41
0.012816
  0
VERTEX
  8
0
 10
1.19271
 20
4.69379
 30
0.0
 40
0.012816
 41
0.012816
  0
VERTEX
  8
0
 10
1.2086
 20
4.70708
 30
0.0
 40
0.012816
 41
0.012816
  0
VERTEX
  8
0
 10
1.22787
 20
4.72179
 30
0.0
 40
0.012816
 41
0.012816
  0
VERTEX
  8
0
 10
1.23432
 20
4.72661
 30
0.0
 40
0.012816
 41
0.012816
  0
VERTEX
  8
0
 10
1.24349
 20
4.73351
 30
0.0
 40
0.012816
 41
0.012816
  0
VERTEX
  8
0
 10
1.27767
 20
4.75738
 30
0.0
 40
0.012816
 41
0.012816
  0
VERTEX
  8
0
 10
1.30398
 20
4.77197
 30
0.0
 40
0.012816
 41
0.012816
  0
VERTEX
  8
0
 10
1.30924
 20
4.77425
 30
0.0
 40
0.012816
 41
0.012816
  0
VERTEX
  8
0
 10
1.32281
 20
4.78022
 30
0.0
 40
0.012816
 41
0.012816
  0
VERTEX
  8
0
 10
1.39958
 20
4.80528
 30
0.0
 40
0.012816
 41
0.012816
  0
VERTEX
  8
0
 10
1.50461
 20
4.82867
 30
0.0
 40
0.012816
 41
0.012816
  0
VERTEX
  8
0
 10
1.53233
 20
4.83371
 30
0.0
 40
0.012816
 41
0.012816
  0
VERTEX
  8
0
 10
1.54368
 20
4.83583
 30
0.0
 40
0.012816
 41
0.012816
  0
VERTEX
  8
0
 10
1.57781
 20
4.84229
 30
0.0
 40
0.012816
 41
0.012816
  0
VERTEX
  8
0
 10
1.61865
 20
4.85037
 30
0.0
 40
0.012816
 41
0.012816
  0
VERTEX
  8
0
 10
1.65044
 20
4.85699
 30
0.0
 40
0.012816
 41
0.012816
  0
VERTEX
  8
0
 10
1.66536
 20
4.86035
 30
0.0
 40
0.012816
 41
0.012816
  0
VERTEX
  8
0
 10
1.66872
 20
4.86128
 30
0.0
 40
0.012816
 41
0.012816
  0
VERTEX
  8
0
 10
1.67219
 20
4.86231
 30
0.0
 40
0.012816
 41
0.012816
  0
VERTEX
  8
0
 10
1.68267
 20
4.86572
 30
0.0
 40
0.012816
 41
0.012816
  0
VERTEX
  8
0
 10
1.69282
 20
4.87061
 30
0.0
 40
0.012816
 41
0.012816
  0
VERTEX
  8
0
 10
1.70301
 20
4.87831
 30
0.0
 40
0.012816
 41
0.012816
  0
VERTEX
  8
0
 10
1.71365
 20
4.88803
 30
0.0
 40
0.012816
 41
0.012816
  0
VERTEX
  8
0
 10
1.71713
 20
4.89128
 30
0.0
 40
0.012816
 41
0.012816
  0
VERTEX
  8
0
 10
1.72612
 20
4.8999
 30
0.0
 40
0.012816
 41
0.012816
  0
VERTEX
  8
0
 10
1.75293
 20
4.92606
 30
0.0
 40
0.012816
 41
0.012816
  0
VERTEX
  8
0
 10
1.80122
 20
4.9739
 30
0.0
 40
0.012816
 41
0.012816
  0
VERTEX
  8
0
 10
1.85764
 20
5.03039
 30
0.0
 40
0.012816
 41
0.012816
  0
VERTEX
  8
0
 10
1.91764
 20
5.09099
 30
0.0
 40
0.012816
 41
0.012816
  0
VERTEX
  8
0
 10
1.97683
 20
5.15121
 30
0.0
 40
0.012816
 41
0.012816
  0
VERTEX
  8
0
 10
2.03076
 20
5.2066
 30
0.0
 40
0.012816
 41
0.012816
  0
VERTEX
  8
0
 10
2.07508
 20
5.25261
 30
0.0
 40
0.012816
 41
0.012816
  0
VERTEX
  8
0
 10
2.09782
 20
5.27658
 30
0.0
 40
0.012816
 41
0.012816
  0
VERTEX
  8
0
 10
2.10525
 20
5.28472
 30
0.0
 40
0.012816
 41
0.012816
  0
VERTEX
  8
0
 10
2.10867
 20
5.28847
 30
0.0
 40
0.012816
 41
0.012816
  0
VERTEX
  8
0
 10
2.13211
 20
5.31358
 30
0.0
 40
0.012816
 41
0.012816
  0
VERTEX
  8
0
 10
2.15756
 20
5.34017
 30
0.0
 40
0.012816
 41
0.012816
  0
VERTEX
  8
0
 10
2.16194
 20
5.34467
 30
0.0
 40
0.012816
 41
0.012816
  0
VERTEX
  8
0
 10
2.16629
 20
5.34924
 30
0.0
 40
0.012816
 41
0.012816
  0
VERTEX
  8
0
 10
2.197
 20
5.38124
 30
0.0
 40
0.012816
 41
0.012816
  0
VERTEX
  8
0
 10
2.23062
 20
5.41678
 30
0.0
 40
0.012816
 41
0.012816
  0
VERTEX
  8
0
 10
2.23654
 20
5.42301
 30
0.0
 40
0.012816
 41
0.012816
  0
VERTEX
  8
0
 10
2.24214
 20
5.42899
 30
0.0
 40
0.012816
 41
0.012816
  0
VERTEX
  8
0
 10
2.259
 20
5.44689
 30
0.0
 40
0.012816
 41
0.012816
  0
VERTEX
  8
0
 10
2.28857
 20
5.47819
 30
0.0
 40
0.012816
 41
0.012816
  0
VERTEX
  8
0
 10
2.32146
 20
5.51286
 30
0.0
 40
0.012816
 41
0.012816
  0
VERTEX
  8
0
 10
2.34571
 20
5.53836
 30
0.0
 40
0.012816
 41
0.012816
  0
VERTEX
  8
0
 10
2.35379
 20
5.54682
 30
0.0
 40
0.012816
 41
0.012816
  0
VERTEX
  8
0
 10
2.35792
 20
5.55122
 30
0.0
 40
0.012816
 41
0.012816
  0
VERTEX
  8
0
 10
2.37039
 20
5.5644
 30
0.0
 40
0.012816
 41
0.012816
  0
VERTEX
  8
0
 10
2.38872
 20
5.58382
 30
0.0
 40
0.012816
 41
0.012816
  0
VERTEX
  8
0
 10
2.40761
 20
5.60385
 30
0.0
 40
0.012816
 41
0.012816
  0
VERTEX
  8
0
 10
2.42572
 20
5.62315
 30
0.0
 40
0.012816
 41
0.012816
  0
VERTEX
  8
0
 10
2.44194
 20
5.64046
 30
0.0
 40
0.012816
 41
0.012816
  0
VERTEX
  8
0
 10
2.45503
 20
5.65446
 30
0.0
 40
0.012816
 41
0.012816
  0
VERTEX
  8
0
 10
2.46376
 20
5.66379
 30
0.0
 40
0.012816
 41
0.012816
  0
VERTEX
  8
0
 10
2.46696
 20
5.66715
 30
0.0
 40
0.012816
 41
0.012816
  0
VERTEX
  8
0
 10
2.46696
 20
5.66715
 30
0.0
 40
0.012816
 41
0.012816
  0
VERTEX
  8
0
 10
2.52576
 20
5.73394
 30
0.0
 40
0.012816
 41
0.012816
  0
VERTEX
  8
0
 10
3.11393
 20
6.40147
 30
0.0
 40
0.012816
 41
0.012816
  0
VERTEX
  8
0
 10
3.17279
 20
6.46821
 30
0.0
 40
0.012816
 41
0.012816
  0
VERTEX
  8
0
 10
3.17279
 20
6.46821
 30
0.0
 40
0.012816
 41
0.012816
  0
VERTEX
  8
0
 10
3.18039
 20
6.48004
 30
0.0
 40
0.012816
 41
0.012816
  0
VERTEX
  8
0
 10
3.19754
 20
6.50922
 30
0.0
 40
0.012816
 41
0.012816
  0
VERTEX
  8
0
 10
3.21539
 20
6.54644
 30
0.0
 40
0.012816
 41
0.012816
  0
VERTEX
  8
0
 10
3.22444
 20
6.57314
 30
0.0
 40
0.012816
 41
0.012816
  0
VERTEX
  8
0
 10
3.22532
 20
6.58219
 30
0.0
 40
0.012816
 41
0.012816
  0
VERTEX
  8
0
 10
3.22607
 20
6.5905
 30
0.0
 40
0.012816
 41
0.012816
  0
VERTEX
  8
0
 10
3.22694
 20
6.6154
 30
0.0
 40
0.012816
 41
0.012816
  0
VERTEX
  8
0
 10
3.22433
 20
6.64751
 30
0.0
 40
0.012816
 41
0.012816
  0
VERTEX
  8
0
 10
3.21642
 20
6.68565
 30
0.0
 40
0.012816
 41
0.012816
  0
VERTEX
  8
0
 10
3.20589
 20
6.72424
 30
0.0
 40
0.012816
 41
0.012816
  0
VERTEX
  8
0
 10
3.20215
 20
6.73699
 30
0.0
 40
0.012816
 41
0.012816
  0
VERTEX
  8
0
 10
3.19336
 20
6.76671
 30
0.0
 40
0.012816
 41
0.012816
  0
VERTEX
  8
0
 10
3.17421
 20
6.85796
 30
0.0
 40
0.012816
 41
0.012816
  0
VERTEX
  8
0
 10
3.16629
 20
6.96371
 30
0.0
 40
0.012816
 41
0.012816
  0
VERTEX
  8
0
 10
3.17833
 20
7.05306
 30
0.0
 40
0.012816
 41
0.012816
  0
VERTEX
  8
0
 10
3.19954
 20
7.10883
 30
0.0
 40
0.012816
 41
0.012816
  0
VERTEX
  8
0
 10
3.21035
 20
7.12489
 30
0.0
 40
0.012816
 41
0.012816
  0
VERTEX
  8
0
 10
3.21821
 20
7.13678
 30
0.0
 40
0.012816
 41
0.012816
  0
VERTEX
  8
0
 10
3.24675
 20
7.16917
 30
0.0
 40
0.012816
 41
0.012816
  0
VERTEX
  8
0
 10
3.29042
 20
7.20301
 30
0.0
 40
0.012816
 41
0.012816
  0
VERTEX
  8
0
 10
3.34196
 20
7.22706
 30
0.0
 40
0.012816
 41
0.012816
  0
VERTEX
  8
0
 10
3.38687
 20
7.23926
 30
0.0
 40
0.012816
 41
0.012816
  0
VERTEX
  8
0
 10
3.40213
 20
7.2416
 30
0.0
 40
0.012816
 41
0.012816
  0
VERTEX
  8
0
 10
3.40929
 20
7.24274
 30
0.0
 40
0.012816
 41
0.012816
  0
VERTEX
  8
0
 10
3.4311
 20
7.24468
 30
0.0
 40
0.012816
 41
0.012816
  0
VERTEX
  8
0
 10
3.46317
 20
7.24681
 30
0.0
 40
0.012816
 41
0.012816
  0
VERTEX
  8
0
 10
3.48503
 20
7.24804
 30
0.0
 40
0.012816
 41
0.012816
  0
VERTEX
  8
0
 10
3.48378
 20
7.24843
 30
0.0
 40
0.012816
 41
0.012816
  0
VERTEX
  8
0
 10
3.4834
 20
7.24843
 30
0.0
 40
0.012816
 41
0.012816
  0
SEQEND
 8
0
  0
POLYLINE
  8
0
 62
     0
 66
     1
 10
0
 20
0
 30
0.0
 70
     1
 40
0.922754
 41
0.922754
  0
VERTEX
  8
0
 10
0.911837
 20
6.92524
 30
0.0
 40
0.012816
 41
0.012816
  0
VERTEX
  8
0
 10
0.904622
 20
6.92524
 30
0.0
 40
0.012816
 41
0.012816
  0
VERTEX
  8
0
 10
0.885092
 20
6.91493
 30
0.0
 40
0.012816
 41
0.012816
  0
VERTEX
  8
0
 10
0.883029
 20
6.91287
 30
0.0
 40
0.012816
 41
0.012816
  0
VERTEX
  8
0
 10
0.880968
 20
6.91081
 30
0.0
 40
0.012816
 41
0.012816
  0
VERTEX
  8
0
 10
0.87066
 20
6.89079
 30
0.0
 40
0.012816
 41
0.012816
  0
VERTEX
  8
0
 10
0.87066
 20
6.88406
 30
0.0
 40
0.012816
 41
0.012816
  0
VERTEX
  8
0
 10
0.87066
 20
6.63129
 30
0.0
 40
0.012816
 41
0.012816
  0
VERTEX
  8
0
 10
0.87066
 20
6.06244
 30
0.0
 40
0.012816
 41
0.012816
  0
VERTEX
  8
0
 10
0.87066
 20
5.87283
 30
0.0
 40
0.012816
 41
0.012816
  0
VERTEX
  8
0
 10
0.908529
 20
5.87283
 30
0.0
 40
0.012816
 41
0.012816
  0
VERTEX
  8
0
 10
0.993761
 20
5.87283
 30
0.0
 40
0.012816
 41
0.012816
  0
VERTEX
  8
0
 10
1.02219
 20
5.87283
 30
0.0
 40
0.012816
 41
0.012816
  0
VERTEX
  8
0
 10
1.02219
 20
5.99018
 30
0.0
 40
0.012816
 41
0.012816
  0
VERTEX
  8
0
 10
1.02219
 20
6.25424
 30
0.0
 40
0.012816
 41
0.012816
  0
VERTEX
  8
0
 10
1.02219
 20
6.34224
 30
0.0
 40
0.012816
 41
0.012816
  0
VERTEX
  8
0
 10
1.1033
 20
6.34224
 30
0.0
 40
0.012816
 41
0.012816
  0
VERTEX
  8
0
 10
1.28575
 20
6.34224
 30
0.0
 40
0.012816
 41
0.012816
  0
VERTEX
  8
0
 10
1.34663
 20
6.34224
 30
0.0
 40
0.012816
 41
0.012816
  0
VERTEX
  8
0
 10
1.34663
 20
6.22488
 30
0.0
 40
0.012816
 41
0.012816
  0
VERTEX
  8
0
 10
1.34663
 20
5.96089
 30
0.0
 40
0.012816
 41
0.012816
  0
VERTEX
  8
0
 10
1.34663
 20
5.87283
 30
0.0
 40
0.012816
 41
0.012816
  0
VERTEX
  8
0
 10
1.35786
 20
5.87283
 30
0.0
 40
0.012816
 41
0.012816
  0
VERTEX
  8
0
 10
1.3916
 20
5.87283
 30
0.0
 40
0.012816
 41
0.012816
  0
VERTEX
  8
0
 10
1.44129
 20
5.87283
 30
0.0
 40
0.012816
 41
0.012816
  0
VERTEX
  8
0
 10
1.48156
 20
5.87283
 30
0.0
 40
0.012816
 41
0.012816
  0
VERTEX
  8
0
 10
1.49815
 20
5.87283
 30
0.0
 40
0.012816
 41
0.012816
  0
VERTEX
  8
0
 10
1.49815
 20
5.87283
 30
0.0
 40
0.012816
 41
0.012816
  0
VERTEX
  8
0
 10
1.49815
 20
6.12565
 30
0.0
 40
0.012816
 41
0.012816
  0
VERTEX
  8
0
 10
1.49815
 20
6.6945
 30
0.0
 40
0.012816
 41
0.012816
  0
VERTEX
  8
0
 10
1.49815
 20
6.88406
 30
0.0
 40
0.012816
 41
0.012816
  0
VERTEX
  8
0
 10
1.49815
 20
6.89128
 30
0.0
 40
0.012816
 41
0.012816
  0
VERTEX
  8
0
 10
1.48785
 20
6.91081
 30
0.0
 40
0.012816
 41
0.012816
  0
VERTEX
  8
0
 10
1.48583
 20
6.91287
 30
0.0
 40
0.012816
 41
0.012816
  0
VERTEX
  8
0
 10
1.48378
 20
6.91493
 30
0.0
 40
0.012816
 41
0.012816
  0
VERTEX
  8
0
 10
1.46365
 20
6.92524
 30
0.0
 40
0.012816
 41
0.012816
  0
VERTEX
  8
0
 10
1.45697
 20
6.92524
 30
0.0
 40
0.012816
 41
0.012816
  0
VERTEX
  8
0
 10
1.42936
 20
6.92524
 30
0.0
 40
0.012816
 41
0.012816
  0
VERTEX
  8
0
 10
1.3673
 20
6.92524
 30
0.0
 40
0.012816
 41
0.012816
  0
VERTEX
  8
0
 10
1.34663
 20
6.92524
 30
0.0
 40
0.012816
 41
0.012816
  0
VERTEX
  8
0
 10
1.34663
 20
6.81222
 30
0.0
 40
0.012816
 41
0.012816
  0
VERTEX
  8
0
 10
1.34663
 20
6.55794
 30
0.0
 40
0.012816
 41
0.012816
  0
VERTEX
  8
0
 10
1.34663
 20
6.47314
 30
0.0
 40
0.012816
 41
0.012816
  0
VERTEX
  8
0
 10
1.26552
 20
6.47314
 30
0.0
 40
0.012816
 41
0.012816
  0
VERTEX
  8
0
 10
1.08301
 20
6.47314
 30
0.0
 40
0.012816
 41
0.012816
  0
VERTEX
  8
0
 10
1.02219
 20
6.47314
 30
0.0
 40
0.012816
 41
0.012816
  0
VERTEX
  8
0
 10
1.02219
 20
6.48882
 30
0.0
 40
0.012816
 41
0.012816
  0
VERTEX
  8
0
 10
1.02219
 20
6.53586
 30
0.0
 40
0.012816
 41
0.012816
  0
VERTEX
  8
0
 10
1.02219
 20
6.60736
 30
0.0
 40
0.012816
 41
0.012816
  0
VERTEX
  8
0
 10
1.02219
 20
6.68246
 30
0.0
 40
0.012816
 41
0.012816
  0
VERTEX
  8
0
 10
1.02219
 20
6.75575
 30
0.0
 40
0.012816
 41
0.012816
  0
VERTEX
  8
0
 10
1.02219
 20
6.82194
 30
0.0
 40
0.012816
 41
0.012816
  0
VERTEX
  8
0
 10
1.02219
 20
6.87582
 30
0.0
 40
0.012816
 41
0.012816
  0
VERTEX
  8
0
 10
1.02219
 20
6.912
 30
0.0
 40
0.012816
 41
0.012816
  0
VERTEX
  8
0
 10
1.02219
 20
6.92524
 30
0.0
 40
0.012816
 41
0.012816
  0
VERTEX
  8
0
 10
1.02219
 20
6.92524
 30
0.0
 40
0.012816
 41
0.012816
  0
VERTEX
  8
0
 10
0.994575
 20
6.92524
 30
0.0
 40
0.012816
 41
0.012816
  0
VERTEX
  8
0
 10
0.932508
 20
6.92524
 30
0.0
 40
0.012816
 41
0.012816
  0
VERTEX
  8
0
 10
0.911837
 20
6.92524
 30
0.0
 40
0.012816
 41
0.012816
  0
SEQEND
 8
0
  0
POLYLINE
  8
0
 62
     0
 66
     1
 10
0
 20
0
 30
0.0
 70
     1
 40
0.922754
 41
0.922754
  0
VERTEX
  8
0
 10
2.15283
 20
6.80994
 30
0.0
 40
0.012816
 41
0.012816
  0
VERTEX
  8
0
 10
2.15283
 20
6.80994
 30
0.0
 40
0.012816
 41
0.012816
  0
VERTEX
  8
0
 10
2.15283
 20
6.78662
 30
0.0
 40
0.012816
 41
0.012816
  0
VERTEX
  8
0
 10
2.15283
 20
6.72271
 30
0.0
 40
0.012816
 41
0.012816
  0
VERTEX
  8
0
 10
2.15283
 20
6.62765
 30
0.0
 40
0.012816
 41
0.012816
  0
VERTEX
  8
0
 10
2.15283
 20
6.51074
 30
0.0
 40
0.012816
 41
0.012816
  0
VERTEX
  8
0
 10
2.15283
 20
6.3814
 30
0.0
 40
0.012816
 41
0.012816
  0
VERTEX
  8
0
 10
2.15283
 20
6.24892
 30
0.0
 40
0.012816
 41
0.012816
  0
VERTEX
  8
0
 10
2.15283
 20
6.12267
 30
0.0
 40
0.012816
 41
0.012816
  0
VERTEX
  8
0
 10
2.15283
 20
6.03965
 30
0.0
 40
0.012816
 41
0.012816
  0
VERTEX
  8
0
 10
2.15283
 20
6.01199
 30
0.0
 40
0.012816
 41
0.012816
  0
VERTEX
  8
0
 10
2.15283
 20
5.99681
 30
0.0
 40
0.012816
 41
0.012816
  0
VERTEX
  8
0
 10
2.16276
 20
5.95111
 30
0.0
 40
0.012816
 41
0.012816
  0
VERTEX
  8
0
 10
2.19271
 20
5.90767
 30
0.0
 40
0.012816
 41
0.012816
  0
VERTEX
  8
0
 10
2.24262
 20
5.88157
 30
0.0
 40
0.012816
 41
0.012816
  0
VERTEX
  8
0
 10
2.29503
 20
5.87283
 30
0.0
 40
0.012816
 41
0.012816
  0
VERTEX
  8
0
 10
2.31256
 20
5.87283
 30
0.0
 40
0.012816
 41
0.012816
  0
VERTEX
  8
0
 10
2.33768
 20
5.87283
 30
0.0
 40
0.012816
 41
0.012816
  0
VERTEX
  8
0
 10
2.39415
 20
5.87283
 30
0.0
 40
0.012816
 41
0.012816
  0
VERTEX
  8
0
 10
2.41303
 20
5.87283
 30
0.0
 40
0.012816
 41
0.012816
  0
VERTEX
  8
0
 10
2.41303
 20
5.90272
 30
0.0
 40
0.012816
 41
0.012816
  0
VERTEX
  8
0
 10
2.41303
 20
5.96989
 30
0.0
 40
0.012816
 41
0.012816
  0
VERTEX
  8
0
 10
2.41303
 20
5.99224
 30
0.0
 40
0.012816
 41
0.012816
  0
VERTEX
  8
0
 10
2.40192
 20
5.99224
 30
0.0
 40
0.012816
 41
0.012816
  0
VERTEX
  8
0
 10
2.37196
 20
5.9916
 30
0.0
 40
0.012816
 41
0.012816
  0
VERTEX
  8
0
 10
2.36854
 20
5.99143
 30
0.0
 40
0.012816
 41
0.012816
  0
VERTEX
  8
0
 10
2.36524
 20
5.99132
 30
0.0
 40
0.012816
 41
0.012816
  0
VERTEX
  8
0
 10
2.33643
 20
5.99474
 30
0.0
 40
0.012816
 41
0.012816
  0
VERTEX
  8
0
 10
2.33399
 20
5.99556
 30
0.0
 40
0.012816
 41
0.012816
  0
VERTEX
  8
0
 10
2.32861
 20
5.99735
 30
0.0
 40
0.012816
 41
0.012816
  0
VERTEX
  8
0
 10
2.30985
 20
6.01594
 30
0.0
 40
0.012816
 41
0.012816
  0
VERTEX
  8
0
 10
2.30186
 20
6.04574
 30
0.0
 40
0.012816
 41
0.012816
  0
VERTEX
  8
0
 10
2.30186
 20
6.05567
 30
0.0
 40
0.012816
 41
0.012816
  0
VERTEX
  8
0
 10
2.30186
 20
6.24425
 30
0.0
 40
0.012816
 41
0.012816
  0
VERTEX
  8
0
 10
2.30186
 20
6.66857
 30
0.0
 40
0.012816
 41
0.012816
  0
VERTEX
  8
0
 10
2.30186
 20
6.80994
 30
0.0
 40
0.012816
 41
0.012816
  0
VERTEX
  8
0
 10
2.2646
 20
6.80994
 30
0.0
 40
0.012816
 41
0.012816
  0
VERTEX
  8
0
 10
2.18078
 20
6.80994
 30
0.0
 40
0.012816
 41
0.012816
  0
VERTEX
  8
0
 10
2.15283
 20
6.80994
 30
0.0
 40
0.012816
 41
0.012816
  0
SEQEND
 8
0
  0
POLYLINE
  8
0
 62
     0
 66
     1
 10
0
 20
0
 30
0.0
 70
     1
 40
0.922754
 41
0.922754
  0
VERTEX
  8
0
 10
1.77322
 20
6.67817
 30
0.0
 40
0.012816
 41
0.012816
  0
VERTEX
  8
0
 10
1.75558
 20
6.67817
 30
0.0
 40
0.012816
 41
0.012816
  0
VERTEX
  8
0
 10
1.70275
 20
6.66644
 30
0.0
 40
0.012816
 41
0.012816
  0
VERTEX
  8
0
 10
1.64968
 20
6.63911
 30
0.0
 40
0.012816
 41
0.012816
  0
VERTEX
  8
0
 10
1.63981
 20
6.63124
 30
0.0
 40
0.012816
 41
0.012816
  0
VERTEX
  8
0
 10
1.62924
 20
6.62289
 30
0.0
 40
0.012816
 41
0.012816
  0
VERTEX
  8
0
 10
1.59224
 20
6.57547
 30
0.0
 40
0.012816
 41
0.012816
  0
VERTEX
  8
0
 10
1.57639
 20
6.52533
 30
0.0
 40
0.012816
 41
0.012816
  0
VERTEX
  8
0
 10
1.57639
 20
6.50857
 30
0.0
 40
0.012816
 41
0.012816
  0
VERTEX
  8
0
 10
1.57639
 20
6.3929
 30
0.0
 40
0.012816
 41
0.012816
  0
VERTEX
  8
0
 10
1.57639
 20
6.1326
 30
0.0
 40
0.012816
 41
0.012816
  0
VERTEX
  8
0
 10
1.57639
 20
6.04579
 30
0.0
 40
0.012816
 41
0.012816
  0
VERTEX
  8
0
 10
1.57639
 20
6.02908
 30
0.0
 40
0.012816
 41
0.012816
  0
VERTEX
  8
0
 10
1.59224
 20
5.97889
 30
0.0
 40
0.012816
 41
0.012816
  0
VERTEX
  8
0
 10
1.62924
 20
5.93147
 30
0.0
 40
0.012816
 41
0.012816
  0
VERTEX
  8
0
 10
1.63981
 20
5.92307
 30
0.0
 40
0.012816
 41
0.012816
  0
VERTEX
  8
0
 10
1.64953
 20
5.91542
 30
0.0
 40
0.012816
 41
0.012816
  0
VERTEX
  8
0
 10
1.70236
 20
5.88851
 30
0.0
 40
0.012816
 41
0.012816
  0
VERTEX
  8
0
 10
1.75549
 20
5.87696
 30
0.0
 40
0.012816
 41
0.012816
  0
VERTEX
  8
0
 10
1.77322
 20
5.87696
 30
0.0
 40
0.012816
 41
0.012816
  0
VERTEX
  8
0
 10
1.79975
 20
5.87696
 30
0.0
 40
0.012816
 41
0.012816
  0
VERTEX
  8
0
 10
1.85949
 20
5.87696
 30
0.0
 40
0.012816
 41
0.012816
  0
VERTEX
  8
0
 10
1.87944
 20
5.87696
 30
0.0
 40
0.012816
 41
0.012816
  0
VERTEX
  8
0
 10
1.89686
 20
5.87696
 30
0.0
 40
0.012816
 41
0.012816
  0
VERTEX
  8
0
 10
1.94922
 20
5.88872
 30
0.0
 40
0.012816
 41
0.012816
  0
VERTEX
  8
0
 10
2.00088
 20
5.91607
 30
0.0
 40
0.012816
 41
0.012816
  0
VERTEX
  8
0
 10
2.01036
 20
5.92389
 30
0.0
 40
0.012816
 41
0.012816
  0
VERTEX
  8
0
 10
2.02051
 20
5.9324
 30
0.0
 40
0.012816
 41
0.012816
  0
VERTEX
  8
0
 10
2.05604
 20
5.97987
 30
0.0
 40
0.012816
 41
0.012816
  0
VERTEX
  8
0
 10
2.07129
 20
6.02935
 30
0.0
 40
0.012816
 41
0.012816
  0
VERTEX
  8
0
 10
2.07129
 20
6.04579
 30
0.0
 40
0.012816
 41
0.012816
  0
VERTEX
  8
0
 10
2.07129
 20
6.16151
 30
0.0
 40
0.012816
 41
0.012816
  0
VERTEX
  8
0
 10
2.07129
 20
6.42182
 30
0.0
 40
0.012816
 41
0.012816
  0
VERTEX
  8
0
 10
2.07129
 20
6.50857
 30
0.0
 40
0.012816
 41
0.012816
  0
VERTEX
  8
0
 10
2.07129
 20
6.52518
 30
0.0
 40
0.012816
 41
0.012816
  0
VERTEX
  8
0
 10
2.05604
 20
6.57487
 30
0.0
 40
0.012816
 41
0.012816
  0
VERTEX
  8
0
 10
2.02051
 20
6.62207
 30
0.0
 40
0.012816
 41
0.012816
  0
VERTEX
  8
0
 10
2.01036
 20
6.63043
 30
0.0
 40
0.012816
 41
0.012816
  0
VERTEX
  8
0
 10
2.0006
 20
6.6384
 30
0.0
 40
0.012816
 41
0.012816
  0
VERTEX
  8
0
 10
1.9484
 20
6.66629
 30
0.0
 40
0.012816
 41
0.012816
  0
VERTEX
  8
0
 10
1.89665
 20
6.67817
 30
0.0
 40
0.012816
 41
0.012816
  0
VERTEX
  8
0
 10
1.87944
 20
6.67817
 30
0.0
 40
0.012816
 41
0.012816
  0
VERTEX
  8
0
 10
1.85286
 20
6.67817
 30
0.0
 40
0.012816
 41
0.012816
  0
VERTEX
  8
0
 10
1.79312
 20
6.67817
 30
0.0
 40
0.012816
 41
0.012816
  0
VERTEX
  8
0
 10
1.77322
 20
6.67817
 30
0.0
 40
0.012816
 41
0.012816
  0
SEQEND
 8
0
  0
POLYLINE
  8
0
 62
     0
 66
     1
 10
0
 20
0
 30
0.0
 70
     1
 40
0.922754
 41
0.922754
  0
VERTEX
  8
0
 10
1.7831
 20
6.55632
 30
0.0
 40
0.012816
 41
0.012816
  0
VERTEX
  8
0
 10
1.80263
 20
6.55632
 30
0.0
 40
0.012816
 41
0.012816
  0
VERTEX
  8
0
 10
1.84663
 20
6.55632
 30
0.0
 40
0.012816
 41
0.012816
  0
VERTEX
  8
0
 10
1.86133
 20
6.55632
 30
0.0
 40
0.012816
 41
0.012816
  0
VERTEX
  8
0
 10
1.86871
 20
6.55632
 30
0.0
 40
0.012816
 41
0.012816
  0
VERTEX
  8
0
 10
1.89094
 20
6.55078
 30
0.0
 40
0.012816
 41
0.012816
  0
VERTEX
  8
0
 10
1.90944
 20
6.53782
 30
0.0
 40
0.012816
 41
0.012816
  0
VERTEX
  8
0
 10
1.91237
 20
6.53407
 30
0.0
 40
0.012816
 41
0.012816
  0
VERTEX
  8
0
 10
1.91536
 20
6.53054
 30
0.0
 40
0.012816
 41
0.012816
  0
VERTEX
  8
0
 10
1.92594
 20
6.51019
 30
0.0
 40
0.012816
 41
0.012816
  0
VERTEX
  8
0
 10
1.9305
 20
6.48861
 30
0.0
 40
0.012816
 41
0.012816
  0
VERTEX
  8
0
 10
1.9305
 20
6.48139
 30
0.0
 40
0.012816
 41
0.012816
  0
VERTEX
  8
0
 10
1.9305
 20
6.37929
 30
0.0
 40
0.012816
 41
0.012816
  0
VERTEX
  8
0
 10
1.9305
 20
6.14953
 30
0.0
 40
0.012816
 41
0.012816
  0
VERTEX
  8
0
 10
1.9305
 20
6.07292
 30
0.0
 40
0.012816
 41
0.012816
  0
VERTEX
  8
0
 10
1.9305
 20
6.05957
 30
0.0
 40
0.012816
 41
0.012816
  0
VERTEX
  8
0
 10
1.91536
 20
6.02317
 30
0.0
 40
0.012816
 41
0.012816
  0
VERTEX
  8
0
 10
1.91237
 20
6.01942
 30
0.0
 40
0.012816
 41
0.012816
  0
VERTEX
  8
0
 10
1.90944
 20
6.0159
 30
0.0
 40
0.012816
 41
0.012816
  0
VERTEX
  8
0
 10
1.89094
 20
6.00336
 30
0.0
 40
0.012816
 41
0.012816
  0
VERTEX
  8
0
 10
1.86871
 20
5.99799
 30
0.0
 40
0.012816
 41
0.012816
  0
VERTEX
  8
0
 10
1.86133
 20
5.99799
 30
0.0
 40
0.012816
 41
0.012816
  0
VERTEX
  8
0
 10
1.84174
 20
5.99799
 30
0.0
 40
0.012816
 41
0.012816
  0
VERTEX
  8
0
 10
1.79775
 20
5.99799
 30
0.0
 40
0.012816
 41
0.012816
  0
VERTEX
  8
0
 10
1.7831
 20
5.99799
 30
0.0
 40
0.012816
 41
0.012816
  0
VERTEX
  8
0
 10
1.77561
 20
5.99799
 30
0.0
 40
0.012816
 41
0.012816
  0
VERTEX
  8
0
 10
1.75319
 20
6.00336
 30
0.0
 40
0.012816
 41
0.012816
  0
VERTEX
  8
0
 10
1.73546
 20
6.0159
 30
0.0
 40
0.012816
 41
0.012816
  0
VERTEX
  8
0
 10
1.73286
 20
6.01942
 30
0.0
 40
0.012816
 41
0.012816
  0
VERTEX
  8
0
 10
1.73025
 20
6.02317
 30
0.0
 40
0.012816
 41
0.012816
  0
VERTEX
  8
0
 10
1.71724
 20
6.06049
 30
0.0
 40
0.012816
 41
0.012816
  0
VERTEX
  8
0
 10
1.71724
 20
6.07292
 30
0.0
 40
0.012816
 41
0.012816
  0
VERTEX
  8
0
 10
1.71724
 20
6.17507
 30
0.0
 40
0.012816
 41
0.012816
  0
VERTEX
  8
0
 10
1.71724
 20
6.40483
 30
0.0
 40
0.012816
 41
0.012816
  0
VERTEX
  8
0
 10
1.71724
 20
6.48139
 30
0.0
 40
0.012816
 41
0.012816
  0
VERTEX
  8
0
 10
1.71724
 20
6.49457
 30
0.0
 40
0.012816
 41
0.012816
  0
VERTEX
  8
0
 10
1.73025
 20
6.53054
 30
0.0
 40
0.012816
 41
0.012816
  0
VERTEX
  8
0
 10
1.73286
 20
6.53407
 30
0.0
 40
0.012816
 41
0.012816
  0
VERTEX
  8
0
 10
1.73546
 20
6.53782
 30
0.0
 40
0.012816
 41
0.012816
  0
VERTEX
  8
0
 10
1.75319
 20
6.55078
 30
0.0
 40
0.012816
 41
0.012816
  0
VERTEX
  8
0
 10
1.77561
 20
6.55632
 30
0.0
 40
0.012816
 41
0.012816
  0
VERTEX
  8
0
 10
1.7831
 20
6.55632
 30
0.0
 40
0.012816
 41
0.012816
  0
SEQEND
 8
0
  0
POLYLINE
  8
0
 62
     0
 66
     1
 10
0
 20
0
 30
0.0
 70
     1
 40
0.922754
 41
0.922754
  0
VERTEX
  8
0
 10
2.70454
 20
6.55632
 30
0.0
 40
0.012816
 41
0.012816
  0
VERTEX
  8
0
 10
2.72407
 20
6.55632
 30
0.0
 40
0.012816
 41
0.012816
  0
VERTEX
  8
0
 10
2.76807
 20
6.55632
 30
0.0
 40
0.012816
 41
0.012816
  0
VERTEX
  8
0
 10
2.78276
 20
6.55632
 30
0.0
 40
0.012816
 41
0.012816
  0
VERTEX
  8
0
 10
2.79015
 20
6.55632
 30
0.0
 40
0.012816
 41
0.012816
  0
VERTEX
  8
0
 10
2.81239
 20
6.55078
 30
0.0
 40
0.012816
 41
0.012816
  0
VERTEX
  8
0
 10
2.83094
 20
6.53782
 30
0.0
 40
0.012816
 41
0.012816
  0
VERTEX
  8
0
 10
2.83382
 20
6.53407
 30
0.0
 40
0.012816
 41
0.012816
  0
VERTEX
  8
0
 10
2.83681
 20
6.53054
 30
0.0
 40
0.012816
 41
0.012816
  0
VERTEX
  8
0
 10
2.84739
 20
6.51019
 30
0.0
 40
0.012816
 41
0.012816
  0
VERTEX
  8
0
 10
2.85194
 20
6.48861
 30
0.0
 40
0.012816
 41
0.012816
  0
VERTEX
  8
0
 10
2.85194
 20
6.48139
 30
0.0
 40
0.012816
 41
0.012816
  0
VERTEX
  8
0
 10
2.85194
 20
6.41064
 30
0.0
 40
0.012816
 41
0.012816
  0
VERTEX
  8
0
 10
2.85194
 20
6.25146
 30
0.0
 40
0.012816
 41
0.012816
  0
VERTEX
  8
0
 10
2.85194
 20
6.1984
 30
0.0
 40
0.012816
 41
0.012816
  0
VERTEX
  8
0
 10
2.84847
 20
6.1945
 30
0.0
 40
0.012816
 41
0.012816
  0
VERTEX
  8
0
 10
2.83365
 20
6.17751
 30
0.0
 40
0.012816
 41
0.012816
  0
VERTEX
  8
0
 10
2.81917
 20
6.16092
 30
0.0
 40
0.012816
 41
0.012816
  0
VERTEX
  8
0
 10
2.81592
 20
6.15717
 30
0.0
 40
0.012816
 41
0.012816
  0
VERTEX
  8
0
 10
2.8035
 20
6.14301
 30
0.0
 40
0.012816
 41
0.012816
  0
VERTEX
  8
0
 10
2.74468
 20
6.07611
 30
0.0
 40
0.012816
 41
0.012816
  0
VERTEX
  8
0
 10
2.68951
 20
6.01378
 30
0.0
 40
0.012816
 41
0.012816
  0
VERTEX
  8
0
 10
2.67887
 20
6.00179
 30
0.0
 40
0.012816
 41
0.012816
  0
VERTEX
  8
0
 10
2.67626
 20
6.00265
 30
0.0
 40
0.012816
 41
0.012816
  0
VERTEX
  8
0
 10
2.65582
 20
6.01736
 30
0.0
 40
0.012816
 41
0.012816
  0
VERTEX
  8
0
 10
2.65429
 20
6.01942
 30
0.0
 40
0.012816
 41
0.012816
  0
VERTEX
  8
0
 10
2.65169
 20
6.02317
 30
0.0
 40
0.012816
 41
0.012816
  0
VERTEX
  8
0
 10
2.63867
 20
6.06049
 30
0.0
 40
0.012816
 41
0.012816
  0
VERTEX
  8
0
 10
2.63867
 20
6.07292
 30
0.0
 40
0.012816
 41
0.012816
  0
VERTEX
  8
0
 10
2.63867
 20
6.17507
 30
0.0
 40
0.012816
 41
0.012816
  0
VERTEX
  8
0
 10
2.63867
 20
6.40483
 30
0.0
 40
0.012816
 41
0.012816
  0
VERTEX
  8
0
 10
2.63867
 20
6.48139
 30
0.0
 40
0.012816
 41
0.012816
  0
VERTEX
  8
0
 10
2.63867
 20
6.49457
 30
0.0
 40
0.012816
 41
0.012816
  0
VERTEX
  8
0
 10
2.65169
 20
6.53054
 30
0.0
 40
0.012816
 41
0.012816
  0
VERTEX
  8
0
 10
2.65429
 20
6.53407
 30
0.0
 40
0.012816
 41
0.012816
  0
VERTEX
  8
0
 10
2.6569
 20
6.53782
 30
0.0
 40
0.012816
 41
0.012816
  0
VERTEX
  8
0
 10
2.67469
 20
6.55078
 30
0.0
 40
0.012816
 41
0.012816
  0
VERTEX
  8
0
 10
2.69706
 20
6.55632
 30
0.0
 40
0.012816
 41
0.012816
  0
VERTEX
  8
0
 10
2.70454
 20
6.55632
 30
0.0
 40
0.012816
 41
0.012816
  0
SEQEND
 8
0
  0
POLYLINE
  8
0
 62
     0
 66
     1
 10
0
 20
0
 30
0.0
 70
     1
 40
0.922754
 41
0.922754
  0
VERTEX
  8
0
 10
2.67469
 20
5.31722
 30
0.0
 40
0.012816
 41
0.012816
  0
VERTEX
  8
0
 10
2.67725
 20
5.32021
 30
0.0
 40
0.012816
 41
0.012816
  0
VERTEX
  8
0
 10
2.69162
 20
5.3234
 30
0.0
 40
0.012816
 41
0.012816
  0
VERTEX
  8
0
 10
2.70763
 20
5.30963
 30
0.0
 40
0.012816
 41
0.012816
  0
VERTEX
  8
0
 10
2.71951
 20
5.28467
 30
0.0
 40
0.012816
 41
0.012816
  0
VERTEX
  8
0
 10
2.72424
 20
5.26406
 30
0.0
 40
0.012816
 41
0.012816
  0
VERTEX
  8
0
 10
2.72424
 20
5.25717
 30
0.0
 40
0.012816
 41
0.012816
  0
VERTEX
  8
0
 10
2.72424
 20
5.20942
 30
0.0
 40
0.012816
 41
0.012816
  0
VERTEX
  8
0
 10
2.72424
 20
5.102
 30
0.0
 40
0.012816
 41
0.012816
  0
VERTEX
  8
0
 10
2.72424
 20
5.06614
 30
0.0
 40
0.012816
 41
0.012816
  0
VERTEX
  8
0
 10
2.72424
 20
5.05524
 30
0.0
 40
0.012816
 41
0.012816
  0
VERTEX
  8
0
 10
2.71257
 20
5.02576
 30
0.0
 40
0.012816
 41
0.012816
  0
VERTEX
  8
0
 10
2.71024
 20
5.02246
 30
0.0
 40
0.012816
 41
0.012816
  0
VERTEX
  8
0
 10
2.70801
 20
5.01921
 30
0.0
 40
0.012816
 41
0.012816
  0
VERTEX
  8
0
 10
2.69396
 20
5.00765
 30
0.0
 40
0.012816
 41
0.012816
  0
VERTEX
  8
0
 10
2.67708
 20
5.00271
 30
0.0
 40
0.012816
 41
0.012816
  0
VERTEX
  8
0
 10
2.6715
 20
5.00271
 30
0.0
 40
0.012816
 41
0.012816
  0
VERTEX
  8
0
 10
2.61257
 20
5.00271
 30
0.0
 40
0.012816
 41
0.012816
  0
VERTEX
  8
0
 10
2.48008
 20
5.00271
 30
0.0
 40
0.012816
 41
0.012816
  0
VERTEX
  8
0
 10
2.43599
 20
5.00271
 30
0.0
 40
0.012816
 41
0.012816
  0
VERTEX
  8
0
 10
2.43599
 20
5.01193
 30
0.0
 40
0.012816
 41
0.012816
  0
VERTEX
  8
0
 10
2.43599
 20
5.03261
 30
0.0
 40
0.012816
 41
0.012816
  0
VERTEX
  8
0
 10
2.43599
 20
5.03944
 30
0.0
 40
0.012816
 41
0.012816
  0
VERTEX
  8
0
 10
2.45583
 20
5.06261
 30
0.0
 40
0.012816
 41
0.012816
  0
VERTEX
  8
0
 10
2.65479
 20
5.29411
 30
0.0
 40
0.012816
 41
0.012816
  0
VERTEX
  8
0
 10
2.67469
 20
5.31722
 30
0.0
 40
0.012816
 41
0.012816
  0
SEQEND
 8
0
  0
POLYLINE
  8
0
 62
     0
 66
     1
 10
0
 20
0
 30
0.0
 70
     1
 40
0.922754
 41
0.922754
  0
VERTEX
  8
0
 10
4.33822
 20
5.20611
 30
0.0
 40
0.012816
 41
0.012816
  0
VERTEX
  8
0
 10
4.32183
 20
5.20611
 30
0.0
 40
0.012816
 41
0.012816
  0
VERTEX
  8
0
 10
4.27274
 20
5.19254
 30
0.0
 40
0.012816
 41
0.012816
  0
VERTEX
  8
0
 10
4.22743
 20
5.16081
 30
0.0
 40
0.012816
 41
0.012816
  0
VERTEX
  8
0
 10
4.21962
 20
5.15175
 30
0.0
 40
0.012816
 41
0.012816
  0
VERTEX
  8
0
 10
4.21246
 20
5.14328
 30
0.0
 40
0.012816
 41
0.012816
  0
VERTEX
  8
0
 10
4.1875
 20
5.09517
 30
0.0
 40
0.012816
 41
0.012816
  0
VERTEX
  8
0
 10
4.17681
 20
5.04438
 30
0.0
 40
0.012816
 41
0.012816
  0
VERTEX
  8
0
 10
4.17681
 20
5.0274
 30
0.0
 40
0.012816
 41
0.012816
  0
VERTEX
  8
0
 10
4.17681
 20
4.91504
 30
0.0
 40
0.012816
 41
0.012816
  0
VERTEX
  8
0
 10
4.17681
 20
4.66211
 30
0.0
 40
0.012816
 41
0.012816
  0
VERTEX
  8
0
 10
4.17681
 20
4.57781
 30
0.0
 40
0.012816
 41
0.012816
  0
VERTEX
  8
0
 10
4.17681
 20
4.56071
 30
0.0
 40
0.012816
 41
0.012816
  0
VERTEX
  8
0
 10
4.18869
 20
4.50928
 30
0.0
 40
0.012816
 41
0.012816
  0
VERTEX
  8
0
 10
4.21658
 20
4.4605
 30
0.0
 40
0.012816
 41
0.012816
  0
VERTEX
  8
0
 10
4.22456
 20
4.45182
 30
0.0
 40
0.012816
 41
0.012816
  0
VERTEX
  8
0
 10
4.23264
 20
4.44293
 30
0.0
 40
0.012816
 41
0.012816
  0
VERTEX
  8
0
 10
4.27929
 20
4.41168
 30
0.0
 40
0.012816
 41
0.012816
  0
VERTEX
  8
0
 10
4.32964
 20
4.39828
 30
0.0
 40
0.012816
 41
0.012816
  0
VERTEX
  8
0
 10
4.34646
 20
4.39828
 30
0.0
 40
0.012816
 41
0.012816
  0
VERTEX
  8
0
 10
4.39524
 20
4.39828
 30
0.0
 40
0.012816
 41
0.012816
  0
VERTEX
  8
0
 10
4.50499
 20
4.39828
 30
0.0
 40
0.012816
 41
0.012816
  0
VERTEX
  8
0
 10
4.54161
 20
4.39828
 30
0.0
 40
0.012816
 41
0.012816
  0
VERTEX
  8
0
 10
4.55951
 20
4.39828
 30
0.0
 40
0.012816
 41
0.012816
  0
VERTEX
  8
0
 10
4.60801
 20
4.41064
 30
0.0
 40
0.012816
 41
0.012816
  0
VERTEX
  8
0
 10
4.61322
 20
4.41308
 30
0.0
 40
0.012816
 41
0.012816
  0
VERTEX
  8
0
 10
4.62424
 20
4.41846
 30
0.0
 40
0.012816
 41
0.012816
  0
VERTEX
  8
0
 10
4.65446
 20
4.44069
 30
0.0
 40
0.012816
 41
0.012816
  0
VERTEX
  8
0
 10
4.68425
 20
4.47819
 30
0.0
 40
0.012816
 41
0.012816
  0
VERTEX
  8
0
 10
4.70264
 20
4.52556
 30
0.0
 40
0.012816
 41
0.012816
  0
VERTEX
  8
0
 10
4.70931
 20
4.56842
 30
0.0
 40
0.012816
 41
0.012816
  0
VERTEX
  8
0
 10
4.70958
 20
4.58274
 30
0.0
 40
0.012816
 41
0.012816
  0
VERTEX
  8
0
 10
4.67415
 20
4.58274
 30
0.0
 40
0.012816
 41
0.012816
  0
VERTEX
  8
0
 10
4.59451
 20
4.58274
 30
0.0
 40
0.012816
 41
0.012816
  0
VERTEX
  8
0
 10
4.56799
 20
4.58274
 30
0.0
 40
0.012816
 41
0.012816
  0
VERTEX
  8
0
 10
4.56808
 20
4.57796
 30
0.0
 40
0.012816
 41
0.012816
  0
VERTEX
  8
0
 10
4.56424
 20
4.55701
 30
0.0
 40
0.012816
 41
0.012816
  0
VERTEX
  8
0
 10
4.55436
 20
4.54021
 30
0.0
 40
0.012816
 41
0.012816
  0
VERTEX
  8
0
 10
4.55149
 20
4.53743
 30
0.0
 40
0.012816
 41
0.012816
  0
VERTEX
  8
0
 10
4.54872
 20
4.53483
 30
0.0
 40
0.012816
 41
0.012816
  0
VERTEX
  8
0
 10
4.51742
 20
4.52181
 30
0.0
 40
0.012816
 41
0.012816
  0
VERTEX
  8
0
 10
4.507
 20
4.52181
 30
0.0
 40
0.012816
 41
0.012816
  0
VERTEX
  8
0
 10
4.47569
 20
4.52181
 30
0.0
 40
0.012816
 41
0.012816
  0
VERTEX
  8
0
 10
4.40528
 20
4.52181
 30
0.0
 40
0.012816
 41
0.012816
  0
VERTEX
  8
0
 10
4.38183
 20
4.52181
 30
0.0
 40
0.012816
 41
0.012816
  0
VERTEX
  8
0
 10
4.37451
 20
4.52181
 30
0.0
 40
0.012816
 41
0.012816
  0
VERTEX
  8
0
 10
4.35265
 20
4.52593
 30
0.0
 40
0.012816
 41
0.012816
  0
VERTEX
  8
0
 10
4.33182
 20
4.53831
 30
0.0
 40
0.012816
 41
0.012816
  0
VERTEX
  8
0
 10
4.31928
 20
4.55892
 30
0.0
 40
0.012816
 41
0.012816
  0
VERTEX
  8
0
 10
4.31515
 20
4.58051
 30
0.0
 40
0.012816
 41
0.012816
  0
VERTEX
  8
0
 10
4.31515
 20
4.58768
 30
0.0
 40
0.012816
 41
0.012816
  0
VERTEX
  8
0
 10
4.31515
 20
4.59874
 30
0.0
 40
0.012816
 41
0.012816
  0
VERTEX
  8
0
 10
4.31515
 20
4.63194
 30
0.0
 40
0.012816
 41
0.012816
  0
VERTEX
  8
0
 10
4.31515
 20
4.68083
 30
0.0
 40
0.012816
 41
0.012816
  0
VERTEX
  8
0
 10
4.31515
 20
4.72043
 30
0.0
 40
0.012816
 41
0.012816
  0
VERTEX
  8
0
 10
4.31515
 20
4.73671
 30
0.0
 40
0.012816
 41
0.012816
  0
VERTEX
  8
0
 10
4.31515
 20
4.73671
 30
0.0
 40
0.012816
 41
0.012816
  0
VERTEX
  8
0
 10
4.37528
 20
4.73671
 30
0.0
 40
0.012816
 41
0.012816
  0
VERTEX
  8
0
 10
4.51053
 20
4.73671
 30
0.0
 40
0.012816
 41
0.012816
  0
VERTEX
  8
0
 10
4.55561
 20
4.73671
 30
0.0
 40
0.012816
 41
0.012816
  0
VERTEX
  8
0
 10
4.57172
 20
4.73671
 30
0.0
 40
0.012816
 41
0.012816
  0
VERTEX
  8
0
 10
4.62022
 20
4.75011
 30
0.0
 40
0.012816
 41
0.012816
  0
VERTEX
  8
0
 10
4.66238
 20
4.78136
 30
0.0
 40
0.012816
 41
0.012816
  0
VERTEX
  8
0
 10
4.66928
 20
4.79025
 30
0.0
 40
0.012816
 41
0.012816
  0
VERTEX
  8
0
 10
4.67567
 20
4.7985
 30
0.0
 40
0.012816
 41
0.012816
  0
VERTEX
  8
0
 10
4.69824
 20
4.84543
 30
0.0
 40
0.012816
 41
0.012816
  0
VERTEX
  8
0
 10
4.70796
 20
4.89546
 30
0.0
 40
0.012816
 41
0.012816
  0
VERTEX
  8
0
 10
4.70796
 20
4.91211
 30
0.0
 40
0.012816
 41
0.012816
  0
VERTEX
  8
0
 10
4.70796
 20
4.93892
 30
0.0
 40
0.012816
 41
0.012816
  0
VERTEX
  8
0
 10
4.70796
 20
4.99914
 30
0.0
 40
0.012816
 41
0.012816
  0
VERTEX
  8
0
 10
4.70796
 20
5.01921
 30
0.0
 40
0.012816
 41
0.012816
  0
VERTEX
  8
0
 10
4.70796
 20
5.03662
 30
0.0
 40
0.012816
 41
0.012816
  0
VERTEX
  8
0
 10
4.69743
 20
5.08882
 30
0.0
 40
0.012816
 41
0.012816
  0
VERTEX
  8
0
 10
4.67296
 20
5.13872
 30
0.0
 40
0.012816
 41
0.012816
  0
VERTEX
  8
0
 10
4.66596
 20
5.14763
 30
0.0
 40
0.012816
 41
0.012816
  0
VERTEX
  8
0
 10
4.65836
 20
5.15739
 30
0.0
 40
0.012816
 41
0.012816
  0
VERTEX
  8
0
 10
4.61367
 20
5.19151
 30
0.0
 40
0.012816
 41
0.012816
  0
VERTEX
  8
0
 10
4.56392
 20
5.20611
 30
0.0
 40
0.012816
 41
0.012816
  0
VERTEX
  8
0
 10
4.54736
 20
5.20611
 30
0.0
 40
0.012816
 41
0.012816
  0
VERTEX
  8
0
 10
4.49507
 20
5.20611
 30
0.0
 40
0.012816
 41
0.012816
  0
VERTEX
  8
0
 10
4.37739
 20
5.20611
 30
0.0
 40
0.012816
 41
0.012816
  0
VERTEX
  8
0
 10
4.33822
 20
5.20611
 30
0.0
 40
0.012816
 41
0.012816
  0
SEQEND
 8
0
  0
POLYLINE
  8
0
 62
     0
 66
     1
 10
0
 20
0
 30
0.0
 70
     1
 40
0.922754
 41
0.922754
  0
VERTEX
  8
0
 10
3.17796
 20
5.20361
 30
0.0
 40
0.012816
 41
0.012816
  0
VERTEX
  8
0
 10
3.16032
 20
5.20361
 30
0.0
 40
0.012816
 41
0.012816
  0
VERTEX
  8
0
 10
3.10753
 20
5.19189
 30
0.0
 40
0.012816
 41
0.012816
  0
VERTEX
  8
0
 10
3.05442
 20
5.16456
 30
0.0
 40
0.012816
 41
0.012816
  0
VERTEX
  8
0
 10
3.04454
 20
5.15668
 30
0.0
 40
0.012816
 41
0.012816
  0
VERTEX
  8
0
 10
3.03396
 20
5.14833
 30
0.0
 40
0.012816
 41
0.012816
  0
VERTEX
  8
0
 10
2.99696
 20
5.10092
 30
0.0
 40
0.012816
 41
0.012816
  0
VERTEX
  8
0
 10
2.98113
 20
5.05078
 30
0.0
 40
0.012816
 41
0.012816
  0
VERTEX
  8
0
 10
2.98113
 20
5.03401
 30
0.0
 40
0.012816
 41
0.012816
  0
VERTEX
  8
0
 10
2.98113
 20
4.91835
 30
0.0
 40
0.012816
 41
0.012816
  0
VERTEX
  8
0
 10
2.98113
 20
4.65804
 30
0.0
 40
0.012816
 41
0.012816
  0
VERTEX
  8
0
 10
2.98113
 20
4.57124
 30
0.0
 40
0.012816
 41
0.012816
  0
VERTEX
  8
0
 10
2.98113
 20
4.55453
 30
0.0
 40
0.012816
 41
0.012816
  0
VERTEX
  8
0
 10
2.99696
 20
4.50435
 30
0.0
 40
0.012816
 41
0.012816
  0
VERTEX
  8
0
 10
3.03396
 20
4.45692
 30
0.0
 40
0.012816
 41
0.012816
  0
VERTEX
  8
0
 10
3.04454
 20
4.44851
 30
0.0
 40
0.012816
 41
0.012816
  0
VERTEX
  8
0
 10
3.05425
 20
4.44086
 30
0.0
 40
0.012816
 41
0.012816
  0
VERTEX
  8
0
 10
3.1071
 20
4.41396
 30
0.0
 40
0.012816
 41
0.012816
  0
VERTEX
  8
0
 10
3.16021
 20
4.4024
 30
0.0
 40
0.012816
 41
0.012816
  0
VERTEX
  8
0
 10
3.17796
 20
4.4024
 30
0.0
 40
0.012816
 41
0.012816
  0
VERTEX
  8
0
 10
3.20449
 20
4.4024
 30
0.0
 40
0.012816
 41
0.012816
  0
VERTEX
  8
0
 10
3.26421
 20
4.4024
 30
0.0
 40
0.012816
 41
0.012816
  0
VERTEX
  8
0
 10
3.28418
 20
4.4024
 30
0.0
 40
0.012816
 41
0.012816
  0
VERTEX
  8
0
 10
3.3016
 20
4.4024
 30
0.0
 40
0.012816
 41
0.012816
  0
VERTEX
  8
0
 10
3.35394
 20
4.41417
 30
0.0
 40
0.012816
 41
0.012816
  0
VERTEX
  8
0
 10
3.4056
 20
4.44151
 30
0.0
 40
0.012816
 41
0.012816
  0
VERTEX
  8
0
 10
3.4151
 20
4.44933
 30
0.0
 40
0.012816
 41
0.012816
  0
VERTEX
  8
0
 10
3.42524
 20
4.45785
 30
0.0
 40
0.012816
 41
0.012816
  0
VERTEX
  8
0
 10
3.46078
 20
4.50537
 30
0.0
 40
0.012816
 41
0.012816
  0
VERTEX
  8
0
 10
3.47601
 20
4.55479
 30
0.0
 40
0.012816
 41
0.012816
  0
VERTEX
  8
0
 10
3.47601
 20
4.57124
 30
0.0
 40
0.012816
 41
0.012816
  0
VERTEX
  8
0
 10
3.47601
 20
4.68696
 30
0.0
 40
0.012816
 41
0.012816
  0
VERTEX
  8
0
 10
3.47601
 20
4.94726
 30
0.0
 40
0.012816
 41
0.012816
  0
VERTEX
  8
0
 10
3.47601
 20
5.03401
 30
0.0
 40
0.012816
 41
0.012816
  0
VERTEX
  8
0
 10
3.47601
 20
5.05062
 30
0.0
 40
0.012816
 41
0.012816
  0
VERTEX
  8
0
 10
3.46078
 20
5.10032
 30
0.0
 40
0.012816
 41
0.012816
  0
VERTEX
  8
0
 10
3.42524
 20
5.14751
 30
0.0
 40
0.012816
 41
0.012816
  0
VERTEX
  8
0
 10
3.4151
 20
5.15587
 30
0.0
 40
0.012816
 41
0.012816
  0
VERTEX
  8
0
 10
3.40533
 20
5.16385
 30
0.0
 40
0.012816
 41
0.012816
  0
VERTEX
  8
0
 10
3.35314
 20
5.19174
 30
0.0
 40
0.012816
 41
0.012816
  0
VERTEX
  8
0
 10
3.30138
 20
5.20361
 30
0.0
 40
0.012816
 41
0.012816
  0
VERTEX
  8
0
 10
3.28418
 20
5.20361
 30
0.0
 40
0.012816
 41
0.012816
  0
VERTEX
  8
0
 10
3.2576
 20
5.20361
 30
0.0
 40
0.012816
 41
0.012816
  0
VERTEX
  8
0
 10
3.19786
 20
5.20361
 30
0.0
 40
0.012816
 41
0.012816
  0
VERTEX
  8
0
 10
3.17796
 20
5.20361
 30
0.0
 40
0.012816
 41
0.012816
  0
SEQEND
 8
0
  0
POLYLINE
  8
0
 62
     0
 66
     1
 10
0
 20
0
 30
0.0
 70
     1
 40
0.922754
 41
0.922754
  0
VERTEX
  8
0
 10
3.55757
 20
5.20117
 30
0.0
 40
0.012816
 41
0.012816
  0
VERTEX
  8
0
 10
3.55751
 20
5.20117
 30
0.0
 40
0.012816
 41
0.012816
  0
VERTEX
  8
0
 10
3.55751
 20
5.17768
 30
0.0
 40
0.012816
 41
0.012816
  0
VERTEX
  8
0
 10
3.55751
 20
5.11344
 30
0.0
 40
0.012816
 41
0.012816
  0
VERTEX
  8
0
 10
3.55761
 20
5.0179
 30
0.0
 40
0.012816
 41
0.012816
  0
VERTEX
  8
0
 10
3.55772
 20
4.90039
 30
0.0
 40
0.012816
 41
0.012816
  0
VERTEX
  8
0
 10
3.55789
 20
4.7704
 30
0.0
 40
0.012816
 41
0.012816
  0
VERTEX
  8
0
 10
3.55806
 20
4.63721
 30
0.0
 40
0.012816
 41
0.012816
  0
VERTEX
  8
0
 10
3.55821
 20
4.51036
 30
0.0
 40
0.012816
 41
0.012816
  0
VERTEX
  8
0
 10
3.55832
 20
4.42692
 30
0.0
 40
0.012816
 41
0.012816
  0
VERTEX
  8
0
 10
3.55838
 20
4.39908
 30
0.0
 40
0.012816
 41
0.012816
  0
VERTEX
  8
0
 10
3.56879
 20
4.39908
 30
0.0
 40
0.012816
 41
0.012816
  0
VERTEX
  8
0
 10
3.60015
 20
4.39908
 30
0.0
 40
0.012816
 41
0.012816
  0
VERTEX
  8
0
 10
3.64638
 20
4.39908
 30
0.0
 40
0.012816
 41
0.012816
  0
VERTEX
  8
0
 10
3.68381
 20
4.39908
 30
0.0
 40
0.012816
 41
0.012816
  0
VERTEX
  8
0
 10
3.69922
 20
4.39908
 30
0.0
 40
0.012816
 41
0.012816
  0
VERTEX
  8
0
 10
3.69922
 20
4.39908
 30
0.0
 40
0.012816
 41
0.012816
  0
VERTEX
  8
0
 10
3.69922
 20
4.54633
 30
0.0
 40
0.012816
 41
0.012816
  0
VERTEX
  8
0
 10
3.69922
 20
4.87756
 30
0.0
 40
0.012816
 41
0.012816
  0
VERTEX
  8
0
 10
3.69922
 20
4.9879
 30
0.0
 40
0.012816
 41
0.012816
  0
VERTEX
  8
0
 10
3.69922
 20
4.99576
 30
0.0
 40
0.012816
 41
0.012816
  0
VERTEX
  8
0
 10
3.70264
 20
5.0165
 30
0.0
 40
0.012816
 41
0.012816
  0
VERTEX
  8
0
 10
3.70335
 20
5.01921
 30
0.0
 40
0.012816
 41
0.012816
  0
VERTEX
  8
0
 10
3.70551
 20
5.02924
 30
0.0
 40
0.012816
 41
0.012816
  0
VERTEX
  8
0
 10
3.72532
 20
5.06429
 30
0.0
 40
0.012816
 41
0.012816
  0
VERTEX
  8
0
 10
3.7551
 20
5.07932
 30
0.0
 40
0.012816
 41
0.012816
  0
VERTEX
  8
0
 10
3.76508
 20
5.07932
 30
0.0
 40
0.012816
 41
0.012816
  0
VERTEX
  8
0
 10
3.79514
 20
5.07932
 30
0.0
 40
0.012816
 41
0.012816
  0
VERTEX
  8
0
 10
3.86274
 20
5.07932
 30
0.0
 40
0.012816
 41
0.012816
  0
VERTEX
  8
0
 10
3.88531
 20
5.07932
 30
0.0
 40
0.012816
 41
0.012816
  0
VERTEX
  8
0
 10
3.89268
 20
5.07932
 30
0.0
 40
0.012816
 41
0.012816
  0
VERTEX
  8
0
 10
3.91493
 20
5.07379
 30
0.0
 40
0.012816
 41
0.012816
  0
VERTEX
  8
0
 10
3.93349
 20
5.06082
 30
0.0
 40
0.012816
 41
0.012816
  0
VERTEX
  8
0
 10
3.93636
 20
5.05707
 30
0.0
 40
0.012816
 41
0.012816
  0
VERTEX
  8
0
 10
3.93935
 20
5.05354
 30
0.0
 40
0.012816
 41
0.012816
  0
VERTEX
  8
0
 10
3.94993
 20
5.03321
 30
0.0
 40
0.012816
 41
0.012816
  0
VERTEX
  8
0
 10
3.95449
 20
5.01156
 30
0.0
 40
0.012816
 41
0.012816
  0
VERTEX
  8
0
 10
3.95449
 20
5.00435
 30
0.0
 40
0.012816
 41
0.012816
  0
VERTEX
  8
0
 10
3.95449
 20
4.85303
 30
0.0
 40
0.012816
 41
0.012816
  0
VERTEX
  8
0
 10
3.95449
 20
4.51258
 30
0.0
 40
0.012816
 41
0.012816
  0
VERTEX
  8
0
 10
3.95449
 20
4.39908
 30
0.0
 40
0.012816
 41
0.012816
  0
VERTEX
  8
0
 10
3.9649
 20
4.39908
 30
0.0
 40
0.012816
 41
0.012816
  0
VERTEX
  8
0
 10
3.99625
 20
4.39908
 30
0.0
 40
0.012816
 41
0.012816
  0
VERTEX
  8
0
 10
4.04243
 20
4.39908
 30
0.0
 40
0.012816
 41
0.012816
  0
VERTEX
  8
0
 10
4.07986
 20
4.39908
 30
0.0
 40
0.012816
 41
0.012816
  0
VERTEX
  8
0
 10
4.09526
 20
4.39908
 30
0.0
 40
0.012816
 41
0.012816
  0
VERTEX
  8
0
 10
4.09526
 20
4.39908
 30
0.0
 40
0.012816
 41
0.012816
  0
VERTEX
  8
0
 10
4.09526
 20
4.55724
 30
0.0
 40
0.012816
 41
0.012816
  0
VERTEX
  8
0
 10
4.09526
 20
4.91297
 30
0.0
 40
0.012816
 41
0.012816
  0
VERTEX
  8
0
 10
4.09526
 20
5.03153
 30
0.0
 40
0.012816
 41
0.012816
  0
VERTEX
  8
0
 10
4.09526
 20
5.04818
 30
0.0
 40
0.012816
 41
0.012816
  0
VERTEX
  8
0
 10
4.08208
 20
5.09804
 30
0.0
 40
0.012816
 41
0.012816
  0
VERTEX
  8
0
 10
4.05138
 20
5.14447
 30
0.0
 40
0.012816
 41
0.012816
  0
VERTEX
  8
0
 10
4.04258
 20
5.15256
 30
0.0
 40
0.012816
 41
0.012816
  0
VERTEX
  8
0
 10
4.03407
 20
5.16069
 30
0.0
 40
0.012816
 41
0.012816
  0
VERTEX
  8
0
 10
3.98639
 20
5.18901
 30
0.0
 40
0.012816
 41
0.012816
  0
VERTEX
  8
0
 10
3.93647
 20
5.20117
 30
0.0
 40
0.012816
 41
0.012816
  0
VERTEX
  8
0
 10
3.91986
 20
5.20117
 30
0.0
 40
0.012816
 41
0.012816
  0
VERTEX
  8
0
 10
3.88488
 20
5.20117
 30
0.0
 40
0.012816
 41
0.012816
  0
VERTEX
  8
0
 10
3.8061
 20
5.20117
 30
0.0
 40
0.012816
 41
0.012816
  0
VERTEX
  8
0
 10
3.77989
 20
5.20117
 30
0.0
 40
0.012816
 41
0.012816
  0
VERTEX
  8
0
 10
3.76779
 20
5.20117
 30
0.0
 40
0.012816
 41
0.012816
  0
VERTEX
  8
0
 10
3.7315
 20
5.18924
 30
0.0
 40
0.012816
 41
0.012816
  0
VERTEX
  8
0
 10
3.69146
 20
5.1614
 30
0.0
 40
0.012816
 41
0.012816
  0
VERTEX
  8
0
 10
3.68354
 20
5.15343
 30
0.0
 40
0.012816
 41
0.012816
  0
VERTEX
  8
0
 10
3.68354
 20
5.16536
 30
0.0
 40
0.012816
 41
0.012816
  0
VERTEX
  8
0
 10
3.68354
 20
5.19222
 30
0.0
 40
0.012816
 41
0.012816
  0
VERTEX
  8
0
 10
3.68354
 20
5.20117
 30
0.0
 40
0.012816
 41
0.012816
  0
VERTEX
  8
0
 10
3.65201
 20
5.20117
 30
0.0
 40
0.012816
 41
0.012816
  0
VERTEX
  8
0
 10
3.58117
 20
5.20117
 30
0.0
 40
0.012816
 41
0.012816
  0
VERTEX
  8
0
 10
3.55757
 20
5.20117
 30
0.0
 40
0.012816
 41
0.012816
  0
SEQEND
 8
0
  0
POLYLINE
  8
0
 62
     0
 66
     1
 10
0
 20
0
 30
0.0
 70
     1
 40
0.922754
 41
0.922754
  0
VERTEX
  8
0
 10
3.18782
 20
5.08176
 30
0.0
 40
0.012816
 41
0.012816
  0
VERTEX
  8
0
 10
3.20736
 20
5.08176
 30
0.0
 40
0.012816
 41
0.012816
  0
VERTEX
  8
0
 10
3.25136
 20
5.08176
 30
0.0
 40
0.012816
 41
0.012816
  0
VERTEX
  8
0
 10
3.26606
 20
5.08176
 30
0.0
 40
0.012816
 41
0.012816
  0
VERTEX
  8
0
 10
3.27344
 20
5.08176
 30
0.0
 40
0.012816
 41
0.012816
  0
VERTEX
  8
0
 10
3.29568
 20
5.07622
 30
0.0
 40
0.012816
 41
0.012816
  0
VERTEX
  8
0
 10
3.31418
 20
5.06326
 30
0.0
 40
0.012816
 41
0.012816
  0
VERTEX
  8
0
 10
3.31711
 20
5.05951
 30
0.0
 40
0.012816
 41
0.012816
  0
VERTEX
  8
0
 10
3.3201
 20
5.05599
 30
0.0
 40
0.012816
 41
0.012816
  0
VERTEX
  8
0
 10
3.33068
 20
5.03564
 30
0.0
 40
0.012816
 41
0.012816
  0
VERTEX
  8
0
 10
3.33524
 20
5.01406
 30
0.0
 40
0.012816
 41
0.012816
  0
VERTEX
  8
0
 10
3.33524
 20
5.00683
 30
0.0
 40
0.012816
 41
0.012816
  0
VERTEX
  8
0
 10
3.33524
 20
4.90474
 30
0.0
 40
0.012816
 41
0.012816
  0
VERTEX
  8
0
 10
3.33524
 20
4.67497
 30
0.0
 40
0.012816
 41
0.012816
  0
VERTEX
  8
0
 10
3.33524
 20
4.59836
 30
0.0
 40
0.012816
 41
0.012816
  0
VERTEX
  8
0
 10
3.33524
 20
4.58501
 30
0.0
 40
0.012816
 41
0.012816
  0
VERTEX
  8
0
 10
3.3201
 20
4.54861
 30
0.0
 40
0.012816
 41
0.012816
  0
VERTEX
  8
0
 10
3.31711
 20
4.54486
 30
0.0
 40
0.012816
 41
0.012816
  0
VERTEX
  8
0
 10
3.31418
 20
4.54135
 30
0.0
 40
0.012816
 41
0.012816
  0
VERTEX
  8
0
 10
3.29568
 20
4.52881
 30
0.0
 40
0.012816
 41
0.012816
  0
VERTEX
  8
0
 10
3.27344
 20
4.52344
 30
0.0
 40
0.012816
 41
0.012816
  0
VERTEX
  8
0
 10
3.26606
 20
4.52344
 30
0.0
 40
0.012816
 41
0.012816
  0
VERTEX
  8
0
 10
3.24647
 20
4.52344
 30
0.0
 40
0.012816
 41
0.012816
  0
VERTEX
  8
0
 10
3.20247
 20
4.52344
 30
0.0
 40
0.012816
 41
0.012816
  0
VERTEX
  8
0
 10
3.18782
 20
4.52344
 30
0.0
 40
0.012816
 41
0.012816
  0
VERTEX
  8
0
 10
3.18033
 20
4.52344
 30
0.0
 40
0.012816
 41
0.012816
  0
VERTEX
  8
0
 10
3.15793
 20
4.52881
 30
0.0
 40
0.012816
 41
0.012816
  0
VERTEX
  8
0
 10
3.14019
 20
4.54135
 30
0.0
 40
0.012816
 41
0.012816
  0
VERTEX
  8
0
 10
3.13758
 20
4.54486
 30
0.0
 40
0.012816
 41
0.012816
  0
VERTEX
  8
0
 10
3.13499
 20
4.54861
 30
0.0
 40
0.012816
 41
0.012816
  0
VERTEX
  8
0
 10
3.12196
 20
4.58594
 30
0.0
 40
0.012816
 41
0.012816
  0
VERTEX
  8
0
 10
3.12196
 20
4.59836
 30
0.0
 40
0.012816
 41
0.012816
  0
VERTEX
  8
0
 10
3.12196
 20
4.70053
 30
0.0
 40
0.012816
 41
0.012816
  0
VERTEX
  8
0
 10
3.12196
 20
4.93028
 30
0.0
 40
0.012816
 41
0.012816
  0
VERTEX
  8
0
 10
3.12196
 20
5.00683
 30
0.0
 40
0.012816
 41
0.012816
  0
VERTEX
  8
0
 10
3.12196
 20
5.02001
 30
0.0
 40
0.012816
 41
0.012816
  0
VERTEX
  8
0
 10
3.13499
 20
5.05599
 30
0.0
 40
0.012816
 41
0.012816
  0
VERTEX
  8
0
 10
3.13758
 20
5.05951
 30
0.0
 40
0.012816
 41
0.012816
  0
VERTEX
  8
0
 10
3.14019
 20
5.06326
 30
0.0
 40
0.012816
 41
0.012816
  0
VERTEX
  8
0
 10
3.15793
 20
5.07622
 30
0.0
 40
0.012816
 41
0.012816
  0
VERTEX
  8
0
 10
3.18033
 20
5.08176
 30
0.0
 40
0.012816
 41
0.012816
  0
VERTEX
  8
0
 10
3.18782
 20
5.08176
 30
0.0
 40
0.012816
 41
0.012816
  0
SEQEND
 8
0
  0
POLYLINE
  8
0
 62
     0
 66
     1
 10
0
 20
0
 30
0.0
 70
     1
 40
0.922754
 41
0.922754
  0
VERTEX
  8
0
 10
4.38183
 20
5.07844
 30
0.0
 40
0.012816
 41
0.012816
  0
VERTEX
  8
0
 10
4.41021
 20
5.07844
 30
0.0
 40
0.012816
 41
0.012816
  0
VERTEX
  8
0
 10
4.47418
 20
5.07844
 30
0.0
 40
0.012816
 41
0.012816
  0
VERTEX
  8
0
 10
4.4955
 20
5.07844
 30
0.0
 40
0.012816
 41
0.012816
  0
VERTEX
  8
0
 10
4.50863
 20
5.07844
 30
0.0
 40
0.012816
 41
0.012816
  0
VERTEX
  8
0
 10
4.5446
 20
5.06543
 30
0.0
 40
0.012816
 41
0.012816
  0
VERTEX
  8
0
 10
4.54818
 20
5.06282
 30
0.0
 40
0.012816
 41
0.012816
  0
VERTEX
  8
0
 10
4.55186
 20
5.06022
 30
0.0
 40
0.012816
 41
0.012816
  0
VERTEX
  8
0
 10
4.56483
 20
5.04249
 30
0.0
 40
0.012816
 41
0.012816
  0
VERTEX
  8
0
 10
4.57042
 20
5.02007
 30
0.0
 40
0.012816
 41
0.012816
  0
VERTEX
  8
0
 10
4.57042
 20
5.01258
 30
0.0
 40
0.012816
 41
0.012816
  0
VERTEX
  8
0
 10
4.57042
 20
4.99143
 30
0.0
 40
0.012816
 41
0.012816
  0
VERTEX
  8
0
 10
4.57042
 20
4.94374
 30
0.0
 40
0.012816
 41
0.012816
  0
VERTEX
  8
0
 10
4.57042
 20
4.92779
 30
0.0
 40
0.012816
 41
0.012816
  0
VERTEX
  8
0
 10
4.57042
 20
4.92036
 30
0.0
 40
0.012816
 41
0.012816
  0
VERTEX
  8
0
 10
4.56483
 20
4.89794
 30
0.0
 40
0.012816
 41
0.012816
  0
VERTEX
  8
0
 10
4.55186
 20
4.87896
 30
0.0
 40
0.012816
 41
0.012816
  0
VERTEX
  8
0
 10
4.54818
 20
4.87592
 30
0.0
 40
0.012816
 41
0.012816
  0
VERTEX
  8
0
 10
4.5446
 20
4.87304
 30
0.0
 40
0.012816
 41
0.012816
  0
VERTEX
  8
0
 10
4.50776
 20
4.85861
 30
0.0
 40
0.012816
 41
0.012816
  0
VERTEX
  8
0
 10
4.4955
 20
4.85861
 30
0.0
 40
0.012816
 41
0.012816
  0
VERTEX
  8
0
 10
4.4821
 20
4.85861
 30
0.0
 40
0.012816
 41
0.012816
  0
VERTEX
  8
0
 10
4.44194
 20
4.85861
 30
0.0
 40
0.012816
 41
0.012816
  0
VERTEX
  8
0
 10
4.38276
 20
4.85861
 30
0.0
 40
0.012816
 41
0.012816
  0
VERTEX
  8
0
 10
4.33485
 20
4.85861
 30
0.0
 40
0.012816
 41
0.012816
  0
VERTEX
  8
0
 10
4.31515
 20
4.85861
 30
0.0
 40
0.012816
 41
0.012816
  0
VERTEX
  8
0
 10
4.31515
 20
4.85861
 30
0.0
 40
0.012816
 41
0.012816
  0
VERTEX
  8
0
 10
4.31515
 20
4.89632
 30
0.0
 40
0.012816
 41
0.012816
  0
VERTEX
  8
0
 10
4.31515
 20
4.98107
 30
0.0
 40
0.012816
 41
0.012816
  0
VERTEX
  8
0
 10
4.31515
 20
5.00928
 30
0.0
 40
0.012816
 41
0.012816
  0
VERTEX
  8
0
 10
4.31515
 20
5.01687
 30
0.0
 40
0.012816
 41
0.012816
  0
VERTEX
  8
0
 10
4.31928
 20
5.03956
 30
0.0
 40
0.012816
 41
0.012816
  0
VERTEX
  8
0
 10
4.33182
 20
5.06119
 30
0.0
 40
0.012816
 41
0.012816
  0
VERTEX
  8
0
 10
4.35265
 20
5.07417
 30
0.0
 40
0.012816
 41
0.012816
  0
VERTEX
  8
0
 10
4.37451
 20
5.07844
 30
0.0
 40
0.012816
 41
0.012816
  0
VERTEX
  8
0
 10
4.38183
 20
5.07844
 30
0.0
 40
0.012816
 41
0.012816
  0
SEQEND
 8
0
  0
POLYLINE
  8
0
 62
     0
 66
     1
 10
0
 20
0
 30
0.0
 70
     1
 40
0.922754
 41
0.922754
  0
VERTEX
  8
0
 10
2.43599
 20
4.87181
 30
0.0
 40
0.012816
 41
0.012816
  0
VERTEX
  8
0
 10
2.49647
 20
4.87181
 30
0.0
 40
0.012816
 41
0.012816
  0
VERTEX
  8
0
 10
2.63271
 20
4.87181
 30
0.0
 40
0.012816
 41
0.012816
  0
VERTEX
  8
0
 10
2.67811
 20
4.87181
 30
0.0
 40
0.012816
 41
0.012816
  0
VERTEX
  8
0
 10
2.68582
 20
4.87181
 30
0.0
 40
0.012816
 41
0.012816
  0
VERTEX
  8
0
 10
2.70904
 20
4.86794
 30
0.0
 40
0.012816
 41
0.012816
  0
VERTEX
  8
0
 10
2.73118
 20
4.85639
 30
0.0
 40
0.012816
 41
0.012816
  0
VERTEX
  8
0
 10
2.74447
 20
4.83708
 30
0.0
 40
0.012816
 41
0.012816
  0
VERTEX
  8
0
 10
2.74892
 20
4.81679
 30
0.0
 40
0.012816
 41
0.012816
  0
VERTEX
  8
0
 10
2.74892
 20
4.81
 30
0.0
 40
0.012816
 41
0.012816
  0
VERTEX
  8
0
 10
2.74892
 20
4.75467
 30
0.0
 40
0.012816
 41
0.012816
  0
VERTEX
  8
0
 10
2.74892
 20
4.63004
 30
0.0
 40
0.012816
 41
0.012816
  0
VERTEX
  8
0
 10
2.74892
 20
4.58849
 30
0.0
 40
0.012816
 41
0.012816
  0
VERTEX
  8
0
 10
2.74892
 20
4.58138
 30
0.0
 40
0.012816
 41
0.012816
  0
VERTEX
  8
0
 10
2.74496
 20
4.56006
 30
0.0
 40
0.012816
 41
0.012816
  0
VERTEX
  8
0
 10
2.73324
 20
4.53971
 30
0.0
 40
0.012816
 41
0.012816
  0
VERTEX
  8
0
 10
2.71371
 20
4.5275
 30
0.0
 40
0.012816
 41
0.012816
  0
VERTEX
  8
0
 10
2.69319
 20
4.52344
 30
0.0
 40
0.012816
 41
0.012816
  0
VERTEX
  8
0
 10
2.68636
 20
4.52344
 30
0.0
 40
0.012816
 41
0.012816
  0
VERTEX
  8
0
 10
2.62375
 20
4.52344
 30
0.0
 40
0.012816
 41
0.012816
  0
VERTEX
  8
0
 10
2.48292
 20
4.52344
 30
0.0
 40
0.012816
 41
0.012816
  0
VERTEX
  8
0
 10
2.43599
 20
4.52344
 30
0.0
 40
0.012816
 41
0.012816
  0
VERTEX
  8
0
 10
2.43599
 20
4.61057
 30
0.0
 40
0.012816
 41
0.012816
  0
VERTEX
  8
0
 10
2.43599
 20
4.80653
 30
0.0
 40
0.012816
 41
0.012816
  0
VERTEX
  8
0
 10
2.43599
 20
4.87181
 30
0.0
 40
0.012816
 41
0.012816
  0
SEQEND
 8
0
  0
ENDSEC
  0
EOF
