M48
; DRILL file {KiCad 5.1.5-52549c5~86~ubuntu18.04.1} date Sat 06 Jun 2020 12:27:35 PM BST
; FORMAT={-:-/ absolute / inch / decimal}
; #@! TF.CreationDate,2020-06-06T12:27:35+01:00
; #@! TF.GenerationSoftware,Kicad,Pcbnew,5.1.5-52549c5~86~ubuntu18.04.1
FMAT,2
INCH
T1C0.0130
T2C0.0374
T3C0.0400
%
G90
G05
T1
X4.8785Y-3.399
X4.8905Y-3.677
X4.8905Y-3.754
X4.9075Y-2.941
X4.9162Y-3.5035
X4.9175Y-2.736
X4.9674Y-3.4856
X4.9805Y-2.588
X4.9835Y-4.156
X4.9865Y-3.246
X5.0015Y-3.056
X5.012Y-3.677
X5.0125Y-2.556
X5.0162Y-3.6035
X5.0305Y-2.948
X5.0815Y-4.032
X5.1085Y-3.856
X5.1415Y-3.856
X5.1615Y-3.2135
X5.1799Y-4.1586
X5.1875Y-3.2655
X5.244Y-3.006
X5.2995Y-3.159
X5.3105Y-2.6899
X5.3105Y-2.724
X5.3558Y-2.6447
X5.3655Y-4.096
X5.3862Y-2.754
X5.5178Y-3.7533
X5.5905Y-3.937
X5.8315Y-4.264
X5.8465Y-3.937
X5.8475Y-3.746
X5.8716Y-3.7234
X5.8795Y-3.9357
X5.8933Y-3.6848
X5.9184Y-4.018
X6.0445Y-3.254
X6.0924Y-3.857
X6.0924Y-3.984
X6.0924Y-4.017
X6.1624Y-3.679
X6.1845Y-3.02
X6.2095Y-2.647
X6.2095Y-2.823
X6.2255Y-3.679
X6.2944Y-4.017
X6.3299Y-4.264
T2
X5.9831Y-4.656
X6.0815Y-4.656
X6.1799Y-4.656
X4.9831Y-4.656
X5.0815Y-4.656
X5.1799Y-4.656
X5.4815Y-4.656
X5.5799Y-4.656
X5.6784Y-4.656
T3
X6.4815Y-2.456
X6.4815Y-2.556
X6.4815Y-2.656
X6.4815Y-2.756
X6.4815Y-2.856
X6.4815Y-2.956
X6.4815Y-3.056
X6.4815Y-3.156
X6.4815Y-3.256
X6.4815Y-3.356
X6.4815Y-3.456
X6.4815Y-3.556
X6.4815Y-3.656
X6.4815Y-3.756
X6.4815Y-3.856
X6.4815Y-3.956
X6.4815Y-4.056
X6.4815Y-4.156
X6.4815Y-4.256
X6.4815Y-4.356
X6.4815Y-4.456
X6.4815Y-4.556
X6.4815Y-4.656
X6.5815Y-2.456
X6.5815Y-2.556
X6.5815Y-2.656
X6.5815Y-2.756
X6.5815Y-2.856
X6.5815Y-2.956
X6.5815Y-3.056
X6.5815Y-3.156
X6.5815Y-3.256
X6.5815Y-3.356
X6.5815Y-3.456
X6.5815Y-3.556
X6.5815Y-3.656
X6.5815Y-3.756
X6.5815Y-3.856
X6.5815Y-3.956
X6.5815Y-4.056
X6.5815Y-4.156
X6.5815Y-4.256
X6.5815Y-4.356
X6.5815Y-4.456
X6.5815Y-4.556
X6.5815Y-4.656
X4.5815Y-2.456
X4.5815Y-2.556
X4.5815Y-2.656
X4.5815Y-2.756
X4.5815Y-2.856
X4.5815Y-2.956
X4.5815Y-3.056
X4.5815Y-3.156
X4.5815Y-3.256
X4.5815Y-3.356
X4.5815Y-3.456
X4.5815Y-3.556
X4.5815Y-3.656
X4.5815Y-3.756
X4.5815Y-3.856
X4.5815Y-3.956
X4.5815Y-4.056
X4.5815Y-4.156
X4.5815Y-4.256
X4.5815Y-4.356
X4.5815Y-4.456
X4.5815Y-4.556
X4.5815Y-4.656
X4.6815Y-2.456
X4.6815Y-2.556
X4.6815Y-2.656
X4.6815Y-2.756
X4.6815Y-2.856
X4.6815Y-2.956
X4.6815Y-3.056
X4.6815Y-3.156
X4.6815Y-3.256
X4.6815Y-3.356
X4.6815Y-3.456
X4.6815Y-3.556
X4.6815Y-3.656
X4.6815Y-3.756
X4.6815Y-3.856
X4.6815Y-3.956
X4.6815Y-4.056
X4.6815Y-4.156
X4.6815Y-4.256
X4.6815Y-4.356
X4.6815Y-4.456
X4.6815Y-4.556
X4.6815Y-4.656
T0
M30
