G04 #@! TF.GenerationSoftware,KiCad,Pcbnew,5.1.5-52549c5~86~ubuntu18.04.1*
G04 #@! TF.CreationDate,2020-06-06T12:27:41+01:00*
G04 #@! TF.ProjectId,holobone,686f6c6f-626f-46e6-952e-6b696361645f,rev?*
G04 #@! TF.SameCoordinates,Original*
G04 #@! TF.FileFunction,Soldermask,Bot*
G04 #@! TF.FilePolarity,Negative*
%FSLAX46Y46*%
G04 Gerber Fmt 4.6, Leading zero omitted, Abs format (unit mm)*
G04 Created by KiCad (PCBNEW 5.1.5-52549c5~86~ubuntu18.04.1) date 2020-06-06 12:27:41*
%MOMM*%
%LPD*%
G04 APERTURE LIST*
G04 #@! TA.AperFunction,Profile*
%ADD10C,0.002540*%
G04 #@! TD*
%ADD11C,0.010000*%
%ADD12R,1.828800X1.828800*%
%ADD13O,1.828800X1.828800*%
%ADD14O,1.801600X2.051600*%
%ADD15C,0.150000*%
G04 APERTURE END LIST*
D10*
X114465100Y-116357400D02*
G75*
G03X127165100Y-129057400I12700000J0D01*
G01*
X156375100Y-129057400D02*
G75*
G03X169075100Y-116357400I0J12700000D01*
G01*
X120815100Y-42697400D02*
G75*
G03X114465100Y-49047400I0J-6350000D01*
G01*
X135420100Y-42697400D02*
X120815100Y-42697400D01*
X135420100Y-64287400D02*
X135420100Y-42697400D01*
X153200100Y-64287400D02*
X135420100Y-64287400D01*
X153200100Y-49682400D02*
X153200100Y-64287400D01*
X169075100Y-49682400D02*
X153200100Y-49682400D01*
X169075100Y-116357400D02*
X169075100Y-49682400D01*
X127165100Y-129057400D02*
X156375100Y-129057400D01*
X114465100Y-49047400D02*
X114465100Y-116357400D01*
D11*
G04 #@! TO.C,G\002A\002A\002A*
G36*
X127386755Y-50921456D02*
G01*
X127383916Y-50849621D01*
X127377254Y-50801980D01*
X127365191Y-50769467D01*
X127346147Y-50743014D01*
X127336036Y-50731902D01*
X127284721Y-50677233D01*
X124844146Y-50677233D01*
X124793542Y-50731099D01*
X124769684Y-50760627D01*
X124754324Y-50794625D01*
X124745288Y-50843280D01*
X124740404Y-50916781D01*
X124738249Y-50990391D01*
X124737349Y-51083904D01*
X124738814Y-51164942D01*
X124742325Y-51221749D01*
X124744943Y-51238150D01*
X124767560Y-51284739D01*
X124800237Y-51328108D01*
X124844146Y-51375733D01*
X127284721Y-51375733D01*
X127336036Y-51321135D01*
X127358372Y-51294587D01*
X127373085Y-51265662D01*
X127381755Y-51225296D01*
X127385959Y-51164425D01*
X127387278Y-51073985D01*
X127387350Y-51026553D01*
X127386755Y-50921456D01*
G37*
X127386755Y-50921456D02*
X127383916Y-50849621D01*
X127377254Y-50801980D01*
X127365191Y-50769467D01*
X127346147Y-50743014D01*
X127336036Y-50731902D01*
X127284721Y-50677233D01*
X124844146Y-50677233D01*
X124793542Y-50731099D01*
X124769684Y-50760627D01*
X124754324Y-50794625D01*
X124745288Y-50843280D01*
X124740404Y-50916781D01*
X124738249Y-50990391D01*
X124737349Y-51083904D01*
X124738814Y-51164942D01*
X124742325Y-51221749D01*
X124744943Y-51238150D01*
X124767560Y-51284739D01*
X124800237Y-51328108D01*
X124844146Y-51375733D01*
X127284721Y-51375733D01*
X127336036Y-51321135D01*
X127358372Y-51294587D01*
X127373085Y-51265662D01*
X127381755Y-51225296D01*
X127385959Y-51164425D01*
X127387278Y-51073985D01*
X127387350Y-51026553D01*
X127386755Y-50921456D01*
G36*
X126424267Y-53248861D02*
G01*
X126423609Y-53074027D01*
X126421013Y-52936508D01*
X126415548Y-52831299D01*
X126406282Y-52753392D01*
X126392283Y-52697782D01*
X126372618Y-52659464D01*
X126346357Y-52633429D01*
X126312568Y-52614674D01*
X126305666Y-52611706D01*
X126236087Y-52594238D01*
X126140219Y-52584722D01*
X126033351Y-52583141D01*
X125930770Y-52589476D01*
X125847765Y-52603708D01*
X125821799Y-52612292D01*
X125787260Y-52630615D01*
X125760175Y-52656625D01*
X125739661Y-52695224D01*
X125724834Y-52751312D01*
X125714810Y-52829790D01*
X125708707Y-52935557D01*
X125705639Y-53073516D01*
X125704725Y-53248565D01*
X125704719Y-53261578D01*
X125704981Y-53413716D01*
X125706136Y-53529097D01*
X125708606Y-53613292D01*
X125712810Y-53671874D01*
X125719168Y-53710416D01*
X125728100Y-53734491D01*
X125740028Y-53749670D01*
X125741642Y-53751124D01*
X125807800Y-53797806D01*
X125891431Y-53841729D01*
X125976932Y-53875958D01*
X126048703Y-53893561D01*
X126064434Y-53894566D01*
X126126217Y-53884499D01*
X126202112Y-53858782D01*
X126244519Y-53839072D01*
X126301318Y-53809671D01*
X126344736Y-53784867D01*
X126376561Y-53758786D01*
X126398582Y-53725552D01*
X126412590Y-53679290D01*
X126420374Y-53614126D01*
X126423721Y-53524183D01*
X126424423Y-53403588D01*
X126424267Y-53248861D01*
G37*
X126424267Y-53248861D02*
X126423609Y-53074027D01*
X126421013Y-52936508D01*
X126415548Y-52831299D01*
X126406282Y-52753392D01*
X126392283Y-52697782D01*
X126372618Y-52659464D01*
X126346357Y-52633429D01*
X126312568Y-52614674D01*
X126305666Y-52611706D01*
X126236087Y-52594238D01*
X126140219Y-52584722D01*
X126033351Y-52583141D01*
X125930770Y-52589476D01*
X125847765Y-52603708D01*
X125821799Y-52612292D01*
X125787260Y-52630615D01*
X125760175Y-52656625D01*
X125739661Y-52695224D01*
X125724834Y-52751312D01*
X125714810Y-52829790D01*
X125708707Y-52935557D01*
X125705639Y-53073516D01*
X125704725Y-53248565D01*
X125704719Y-53261578D01*
X125704981Y-53413716D01*
X125706136Y-53529097D01*
X125708606Y-53613292D01*
X125712810Y-53671874D01*
X125719168Y-53710416D01*
X125728100Y-53734491D01*
X125740028Y-53749670D01*
X125741642Y-53751124D01*
X125807800Y-53797806D01*
X125891431Y-53841729D01*
X125976932Y-53875958D01*
X126048703Y-53893561D01*
X126064434Y-53894566D01*
X126126217Y-53884499D01*
X126202112Y-53858782D01*
X126244519Y-53839072D01*
X126301318Y-53809671D01*
X126344736Y-53784867D01*
X126376561Y-53758786D01*
X126398582Y-53725552D01*
X126412590Y-53679290D01*
X126420374Y-53614126D01*
X126423721Y-53524183D01*
X126424423Y-53403588D01*
X126424267Y-53248861D01*
G36*
X129212976Y-52752095D02*
G01*
X129195700Y-52771075D01*
X129169367Y-52794172D01*
X129131645Y-52822813D01*
X129080204Y-52858422D01*
X129012714Y-52902422D01*
X128926843Y-52956240D01*
X128820261Y-53021298D01*
X128690637Y-53099023D01*
X128535641Y-53190838D01*
X128352943Y-53298167D01*
X128140210Y-53422437D01*
X127895114Y-53565070D01*
X127651959Y-53706241D01*
X127381570Y-53863012D01*
X127145265Y-53999784D01*
X126940571Y-54117905D01*
X126765015Y-54218724D01*
X126616124Y-54303587D01*
X126491426Y-54373844D01*
X126388448Y-54430842D01*
X126304716Y-54475931D01*
X126237758Y-54510458D01*
X126185102Y-54535771D01*
X126144273Y-54553219D01*
X126112800Y-54564149D01*
X126088209Y-54569911D01*
X126068029Y-54571851D01*
X126064201Y-54571900D01*
X126044550Y-54570573D01*
X126020989Y-54565690D01*
X125991036Y-54555899D01*
X125952206Y-54539848D01*
X125902016Y-54516183D01*
X125837983Y-54483551D01*
X125757624Y-54440601D01*
X125658454Y-54385980D01*
X125537991Y-54318335D01*
X125393752Y-54236313D01*
X125223252Y-54138562D01*
X125024008Y-54023729D01*
X124793537Y-53890462D01*
X124529356Y-53737408D01*
X124487259Y-53713002D01*
X124211442Y-53552935D01*
X123969958Y-53412388D01*
X123760402Y-53289844D01*
X123580368Y-53183788D01*
X123427452Y-53092705D01*
X123299248Y-53015079D01*
X123193353Y-52949394D01*
X123107361Y-52894135D01*
X123038866Y-52847786D01*
X122985465Y-52808832D01*
X122944752Y-52775757D01*
X122914322Y-52747045D01*
X122891770Y-52721182D01*
X122874804Y-52696830D01*
X122866138Y-52690854D01*
X122859641Y-52707138D01*
X122855070Y-52749618D01*
X122852182Y-52822226D01*
X122850733Y-52928898D01*
X122850481Y-53073566D01*
X122850512Y-53090233D01*
X122851605Y-53226342D01*
X122854116Y-53352216D01*
X122857772Y-53460146D01*
X122862301Y-53542422D01*
X122867433Y-53591337D01*
X122868311Y-53595634D01*
X122892540Y-53663152D01*
X122924918Y-53720332D01*
X122949289Y-53739329D01*
X123007668Y-53777889D01*
X123097399Y-53834413D01*
X123215826Y-53907299D01*
X123360293Y-53994949D01*
X123528145Y-54095762D01*
X123716726Y-54208137D01*
X123923379Y-54330475D01*
X124145449Y-54461176D01*
X124380280Y-54598638D01*
X124456333Y-54643004D01*
X124724660Y-54799376D01*
X124958944Y-54935779D01*
X125161709Y-55053577D01*
X125335476Y-55154133D01*
X125482767Y-55238812D01*
X125606107Y-55308976D01*
X125708017Y-55365991D01*
X125791019Y-55411219D01*
X125857637Y-55446025D01*
X125910393Y-55471772D01*
X125951809Y-55489825D01*
X125984408Y-55501546D01*
X126010713Y-55508300D01*
X126033246Y-55511451D01*
X126054530Y-55512362D01*
X126064434Y-55512404D01*
X126086075Y-55512026D01*
X126107855Y-55510001D01*
X126132308Y-55504962D01*
X126161968Y-55495542D01*
X126199368Y-55480373D01*
X126247044Y-55458088D01*
X126307529Y-55427321D01*
X126383356Y-55386702D01*
X126477060Y-55334866D01*
X126591176Y-55270444D01*
X126728235Y-55192069D01*
X126890774Y-55098374D01*
X127081326Y-54987992D01*
X127302424Y-54859555D01*
X127556603Y-54711696D01*
X127662517Y-54650059D01*
X127893342Y-54515418D01*
X128114284Y-54385945D01*
X128322497Y-54263343D01*
X128515139Y-54149314D01*
X128689365Y-54045559D01*
X128842331Y-53953782D01*
X128971193Y-53875685D01*
X129073108Y-53812969D01*
X129145231Y-53767338D01*
X129184719Y-53740492D01*
X129190824Y-53735301D01*
X129219656Y-53696827D01*
X129241855Y-53650544D01*
X129258230Y-53590744D01*
X129269589Y-53511721D01*
X129276739Y-53407770D01*
X129280488Y-53273183D01*
X129281645Y-53102255D01*
X129281649Y-53093879D01*
X129281767Y-52663609D01*
X129212976Y-52752095D01*
G37*
X129212976Y-52752095D02*
X129195700Y-52771075D01*
X129169367Y-52794172D01*
X129131645Y-52822813D01*
X129080204Y-52858422D01*
X129012714Y-52902422D01*
X128926843Y-52956240D01*
X128820261Y-53021298D01*
X128690637Y-53099023D01*
X128535641Y-53190838D01*
X128352943Y-53298167D01*
X128140210Y-53422437D01*
X127895114Y-53565070D01*
X127651959Y-53706241D01*
X127381570Y-53863012D01*
X127145265Y-53999784D01*
X126940571Y-54117905D01*
X126765015Y-54218724D01*
X126616124Y-54303587D01*
X126491426Y-54373844D01*
X126388448Y-54430842D01*
X126304716Y-54475931D01*
X126237758Y-54510458D01*
X126185102Y-54535771D01*
X126144273Y-54553219D01*
X126112800Y-54564149D01*
X126088209Y-54569911D01*
X126068029Y-54571851D01*
X126064201Y-54571900D01*
X126044550Y-54570573D01*
X126020989Y-54565690D01*
X125991036Y-54555899D01*
X125952206Y-54539848D01*
X125902016Y-54516183D01*
X125837983Y-54483551D01*
X125757624Y-54440601D01*
X125658454Y-54385980D01*
X125537991Y-54318335D01*
X125393752Y-54236313D01*
X125223252Y-54138562D01*
X125024008Y-54023729D01*
X124793537Y-53890462D01*
X124529356Y-53737408D01*
X124487259Y-53713002D01*
X124211442Y-53552935D01*
X123969958Y-53412388D01*
X123760402Y-53289844D01*
X123580368Y-53183788D01*
X123427452Y-53092705D01*
X123299248Y-53015079D01*
X123193353Y-52949394D01*
X123107361Y-52894135D01*
X123038866Y-52847786D01*
X122985465Y-52808832D01*
X122944752Y-52775757D01*
X122914322Y-52747045D01*
X122891770Y-52721182D01*
X122874804Y-52696830D01*
X122866138Y-52690854D01*
X122859641Y-52707138D01*
X122855070Y-52749618D01*
X122852182Y-52822226D01*
X122850733Y-52928898D01*
X122850481Y-53073566D01*
X122850512Y-53090233D01*
X122851605Y-53226342D01*
X122854116Y-53352216D01*
X122857772Y-53460146D01*
X122862301Y-53542422D01*
X122867433Y-53591337D01*
X122868311Y-53595634D01*
X122892540Y-53663152D01*
X122924918Y-53720332D01*
X122949289Y-53739329D01*
X123007668Y-53777889D01*
X123097399Y-53834413D01*
X123215826Y-53907299D01*
X123360293Y-53994949D01*
X123528145Y-54095762D01*
X123716726Y-54208137D01*
X123923379Y-54330475D01*
X124145449Y-54461176D01*
X124380280Y-54598638D01*
X124456333Y-54643004D01*
X124724660Y-54799376D01*
X124958944Y-54935779D01*
X125161709Y-55053577D01*
X125335476Y-55154133D01*
X125482767Y-55238812D01*
X125606107Y-55308976D01*
X125708017Y-55365991D01*
X125791019Y-55411219D01*
X125857637Y-55446025D01*
X125910393Y-55471772D01*
X125951809Y-55489825D01*
X125984408Y-55501546D01*
X126010713Y-55508300D01*
X126033246Y-55511451D01*
X126054530Y-55512362D01*
X126064434Y-55512404D01*
X126086075Y-55512026D01*
X126107855Y-55510001D01*
X126132308Y-55504962D01*
X126161968Y-55495542D01*
X126199368Y-55480373D01*
X126247044Y-55458088D01*
X126307529Y-55427321D01*
X126383356Y-55386702D01*
X126477060Y-55334866D01*
X126591176Y-55270444D01*
X126728235Y-55192069D01*
X126890774Y-55098374D01*
X127081326Y-54987992D01*
X127302424Y-54859555D01*
X127556603Y-54711696D01*
X127662517Y-54650059D01*
X127893342Y-54515418D01*
X128114284Y-54385945D01*
X128322497Y-54263343D01*
X128515139Y-54149314D01*
X128689365Y-54045559D01*
X128842331Y-53953782D01*
X128971193Y-53875685D01*
X129073108Y-53812969D01*
X129145231Y-53767338D01*
X129184719Y-53740492D01*
X129190824Y-53735301D01*
X129219656Y-53696827D01*
X129241855Y-53650544D01*
X129258230Y-53590744D01*
X129269589Y-53511721D01*
X129276739Y-53407770D01*
X129280488Y-53273183D01*
X129281645Y-53102255D01*
X129281649Y-53093879D01*
X129281767Y-52663609D01*
X129212976Y-52752095D01*
G36*
X129280914Y-50804233D02*
G01*
X129279936Y-50667173D01*
X129277302Y-50539448D01*
X129273309Y-50429013D01*
X129268257Y-50343823D01*
X129262442Y-50291832D01*
X129261535Y-50287443D01*
X129229072Y-50210690D01*
X129174908Y-50139699D01*
X129172082Y-50136936D01*
X129143007Y-50115859D01*
X129080173Y-50075405D01*
X128986506Y-50017321D01*
X128864934Y-49943357D01*
X128718382Y-49855262D01*
X128549776Y-49754783D01*
X128362044Y-49643669D01*
X128158111Y-49523669D01*
X127940904Y-49396532D01*
X127713349Y-49264006D01*
X127636996Y-49219685D01*
X127370616Y-49065235D01*
X127138287Y-48930704D01*
X126937468Y-48814719D01*
X126765620Y-48715908D01*
X126620204Y-48632900D01*
X126498679Y-48564322D01*
X126398507Y-48508801D01*
X126317147Y-48464967D01*
X126252060Y-48431447D01*
X126200707Y-48406868D01*
X126160547Y-48389859D01*
X126129042Y-48379048D01*
X126103651Y-48373062D01*
X126081835Y-48370529D01*
X126064434Y-48370067D01*
X126043658Y-48370760D01*
X126021438Y-48373756D01*
X125995234Y-48380426D01*
X125962508Y-48392142D01*
X125920718Y-48410277D01*
X125867326Y-48436202D01*
X125799791Y-48471290D01*
X125715575Y-48516912D01*
X125612138Y-48574441D01*
X125486940Y-48645250D01*
X125337441Y-48730709D01*
X125161101Y-48832191D01*
X124955383Y-48951068D01*
X124717744Y-49088712D01*
X124491872Y-49219685D01*
X124261561Y-49353597D01*
X124040639Y-49482694D01*
X123832032Y-49605226D01*
X123638667Y-49719445D01*
X123463469Y-49823603D01*
X123309365Y-49915951D01*
X123179282Y-49994740D01*
X123076145Y-50058221D01*
X123002882Y-50104647D01*
X122962418Y-50132269D01*
X122956786Y-50136936D01*
X122901981Y-50207013D01*
X122868148Y-50284078D01*
X122867332Y-50287443D01*
X122861396Y-50334165D01*
X122856267Y-50415118D01*
X122852244Y-50522204D01*
X122849625Y-50647323D01*
X122848706Y-50782377D01*
X122848716Y-50793650D01*
X122849084Y-50936919D01*
X122850033Y-51042593D01*
X122852028Y-51115409D01*
X122855535Y-51160105D01*
X122861019Y-51181419D01*
X122868947Y-51184088D01*
X122879784Y-51172851D01*
X122885252Y-51165216D01*
X122923396Y-51113619D01*
X122952934Y-51077394D01*
X122976036Y-51061173D01*
X123032498Y-51025850D01*
X123118952Y-50973381D01*
X123232031Y-50905721D01*
X123368370Y-50824826D01*
X123524601Y-50732650D01*
X123697358Y-50631148D01*
X123883275Y-50522276D01*
X124078986Y-50407989D01*
X124281123Y-50290242D01*
X124486320Y-50170990D01*
X124691210Y-50052187D01*
X124892428Y-49935790D01*
X125086606Y-49823753D01*
X125270378Y-49718032D01*
X125440377Y-49620581D01*
X125593238Y-49533356D01*
X125725593Y-49458312D01*
X125834076Y-49397403D01*
X125915320Y-49352586D01*
X125965959Y-49325814D01*
X125980452Y-49319156D01*
X126049169Y-49307000D01*
X126112590Y-49309836D01*
X126141126Y-49322295D01*
X126203337Y-49354518D01*
X126296360Y-49404890D01*
X126417332Y-49471797D01*
X126563390Y-49553622D01*
X126731670Y-49648751D01*
X126919311Y-49755569D01*
X127123448Y-49872461D01*
X127341218Y-49997812D01*
X127569759Y-50130005D01*
X127683107Y-50195801D01*
X127954161Y-50353401D01*
X128190946Y-50491310D01*
X128395855Y-50611004D01*
X128571278Y-50713960D01*
X128719609Y-50801658D01*
X128843238Y-50875573D01*
X128944557Y-50937184D01*
X129025957Y-50987968D01*
X129089831Y-51029404D01*
X129138571Y-51062968D01*
X129174567Y-51090138D01*
X129200211Y-51112391D01*
X129217895Y-51131207D01*
X129230011Y-51148061D01*
X129233218Y-51153483D01*
X129281071Y-51238150D01*
X129280914Y-50804233D01*
G37*
X129280914Y-50804233D02*
X129279936Y-50667173D01*
X129277302Y-50539448D01*
X129273309Y-50429013D01*
X129268257Y-50343823D01*
X129262442Y-50291832D01*
X129261535Y-50287443D01*
X129229072Y-50210690D01*
X129174908Y-50139699D01*
X129172082Y-50136936D01*
X129143007Y-50115859D01*
X129080173Y-50075405D01*
X128986506Y-50017321D01*
X128864934Y-49943357D01*
X128718382Y-49855262D01*
X128549776Y-49754783D01*
X128362044Y-49643669D01*
X128158111Y-49523669D01*
X127940904Y-49396532D01*
X127713349Y-49264006D01*
X127636996Y-49219685D01*
X127370616Y-49065235D01*
X127138287Y-48930704D01*
X126937468Y-48814719D01*
X126765620Y-48715908D01*
X126620204Y-48632900D01*
X126498679Y-48564322D01*
X126398507Y-48508801D01*
X126317147Y-48464967D01*
X126252060Y-48431447D01*
X126200707Y-48406868D01*
X126160547Y-48389859D01*
X126129042Y-48379048D01*
X126103651Y-48373062D01*
X126081835Y-48370529D01*
X126064434Y-48370067D01*
X126043658Y-48370760D01*
X126021438Y-48373756D01*
X125995234Y-48380426D01*
X125962508Y-48392142D01*
X125920718Y-48410277D01*
X125867326Y-48436202D01*
X125799791Y-48471290D01*
X125715575Y-48516912D01*
X125612138Y-48574441D01*
X125486940Y-48645250D01*
X125337441Y-48730709D01*
X125161101Y-48832191D01*
X124955383Y-48951068D01*
X124717744Y-49088712D01*
X124491872Y-49219685D01*
X124261561Y-49353597D01*
X124040639Y-49482694D01*
X123832032Y-49605226D01*
X123638667Y-49719445D01*
X123463469Y-49823603D01*
X123309365Y-49915951D01*
X123179282Y-49994740D01*
X123076145Y-50058221D01*
X123002882Y-50104647D01*
X122962418Y-50132269D01*
X122956786Y-50136936D01*
X122901981Y-50207013D01*
X122868148Y-50284078D01*
X122867332Y-50287443D01*
X122861396Y-50334165D01*
X122856267Y-50415118D01*
X122852244Y-50522204D01*
X122849625Y-50647323D01*
X122848706Y-50782377D01*
X122848716Y-50793650D01*
X122849084Y-50936919D01*
X122850033Y-51042593D01*
X122852028Y-51115409D01*
X122855535Y-51160105D01*
X122861019Y-51181419D01*
X122868947Y-51184088D01*
X122879784Y-51172851D01*
X122885252Y-51165216D01*
X122923396Y-51113619D01*
X122952934Y-51077394D01*
X122976036Y-51061173D01*
X123032498Y-51025850D01*
X123118952Y-50973381D01*
X123232031Y-50905721D01*
X123368370Y-50824826D01*
X123524601Y-50732650D01*
X123697358Y-50631148D01*
X123883275Y-50522276D01*
X124078986Y-50407989D01*
X124281123Y-50290242D01*
X124486320Y-50170990D01*
X124691210Y-50052187D01*
X124892428Y-49935790D01*
X125086606Y-49823753D01*
X125270378Y-49718032D01*
X125440377Y-49620581D01*
X125593238Y-49533356D01*
X125725593Y-49458312D01*
X125834076Y-49397403D01*
X125915320Y-49352586D01*
X125965959Y-49325814D01*
X125980452Y-49319156D01*
X126049169Y-49307000D01*
X126112590Y-49309836D01*
X126141126Y-49322295D01*
X126203337Y-49354518D01*
X126296360Y-49404890D01*
X126417332Y-49471797D01*
X126563390Y-49553622D01*
X126731670Y-49648751D01*
X126919311Y-49755569D01*
X127123448Y-49872461D01*
X127341218Y-49997812D01*
X127569759Y-50130005D01*
X127683107Y-50195801D01*
X127954161Y-50353401D01*
X128190946Y-50491310D01*
X128395855Y-50611004D01*
X128571278Y-50713960D01*
X128719609Y-50801658D01*
X128843238Y-50875573D01*
X128944557Y-50937184D01*
X129025957Y-50987968D01*
X129089831Y-51029404D01*
X129138571Y-51062968D01*
X129174567Y-51090138D01*
X129200211Y-51112391D01*
X129217895Y-51131207D01*
X129230011Y-51148061D01*
X129233218Y-51153483D01*
X129281071Y-51238150D01*
X129280914Y-50804233D01*
G04 #@! TD*
D12*
G04 #@! TO.C,P2*
X164630100Y-62382400D03*
D13*
X167170100Y-62382400D03*
X164630100Y-64922400D03*
X167170100Y-64922400D03*
X164630100Y-67462400D03*
X167170100Y-67462400D03*
X164630100Y-70002400D03*
X167170100Y-70002400D03*
X164630100Y-72542400D03*
X167170100Y-72542400D03*
X164630100Y-75082400D03*
X167170100Y-75082400D03*
X164630100Y-77622400D03*
X167170100Y-77622400D03*
X164630100Y-80162400D03*
X167170100Y-80162400D03*
X164630100Y-82702400D03*
X167170100Y-82702400D03*
X164630100Y-85242400D03*
X167170100Y-85242400D03*
X164630100Y-87782400D03*
X167170100Y-87782400D03*
X164630100Y-90322400D03*
X167170100Y-90322400D03*
X164630100Y-92862400D03*
X167170100Y-92862400D03*
X164630100Y-95402400D03*
X167170100Y-95402400D03*
X164630100Y-97942400D03*
X167170100Y-97942400D03*
X164630100Y-100482400D03*
X167170100Y-100482400D03*
X164630100Y-103022400D03*
X167170100Y-103022400D03*
X164630100Y-105562400D03*
X167170100Y-105562400D03*
X164630100Y-108102400D03*
X167170100Y-108102400D03*
X164630100Y-110642400D03*
X167170100Y-110642400D03*
X164630100Y-113182400D03*
X167170100Y-113182400D03*
X164630100Y-115722400D03*
X167170100Y-115722400D03*
X164630100Y-118262400D03*
X167170100Y-118262400D03*
G04 #@! TD*
D14*
G04 #@! TO.C,DRIVE B*
X156970100Y-118262400D03*
X154470100Y-118262400D03*
D15*
G36*
X152631928Y-117237876D02*
G01*
X152657646Y-117241691D01*
X152682867Y-117248008D01*
X152707348Y-117256767D01*
X152730851Y-117267884D01*
X152753152Y-117281251D01*
X152774036Y-117296739D01*
X152793301Y-117314199D01*
X152810761Y-117333464D01*
X152826249Y-117354348D01*
X152839616Y-117376649D01*
X152850733Y-117400152D01*
X152859492Y-117424633D01*
X152865809Y-117449854D01*
X152869624Y-117475572D01*
X152870900Y-117501541D01*
X152870900Y-119023259D01*
X152869624Y-119049228D01*
X152865809Y-119074946D01*
X152859492Y-119100167D01*
X152850733Y-119124648D01*
X152839616Y-119148151D01*
X152826249Y-119170452D01*
X152810761Y-119191336D01*
X152793301Y-119210601D01*
X152774036Y-119228061D01*
X152753152Y-119243549D01*
X152730851Y-119256916D01*
X152707348Y-119268033D01*
X152682867Y-119276792D01*
X152657646Y-119283109D01*
X152631928Y-119286924D01*
X152605959Y-119288200D01*
X151334241Y-119288200D01*
X151308272Y-119286924D01*
X151282554Y-119283109D01*
X151257333Y-119276792D01*
X151232852Y-119268033D01*
X151209349Y-119256916D01*
X151187048Y-119243549D01*
X151166164Y-119228061D01*
X151146899Y-119210601D01*
X151129439Y-119191336D01*
X151113951Y-119170452D01*
X151100584Y-119148151D01*
X151089467Y-119124648D01*
X151080708Y-119100167D01*
X151074391Y-119074946D01*
X151070576Y-119049228D01*
X151069300Y-119023259D01*
X151069300Y-117501541D01*
X151070576Y-117475572D01*
X151074391Y-117449854D01*
X151080708Y-117424633D01*
X151089467Y-117400152D01*
X151100584Y-117376649D01*
X151113951Y-117354348D01*
X151129439Y-117333464D01*
X151146899Y-117314199D01*
X151166164Y-117296739D01*
X151187048Y-117281251D01*
X151209349Y-117267884D01*
X151232852Y-117256767D01*
X151257333Y-117248008D01*
X151282554Y-117241691D01*
X151308272Y-117237876D01*
X151334241Y-117236600D01*
X152605959Y-117236600D01*
X152631928Y-117237876D01*
G37*
G04 #@! TD*
D14*
G04 #@! TO.C,DRIVE A*
X144230100Y-118262400D03*
X141730100Y-118262400D03*
D15*
G36*
X139891928Y-117237876D02*
G01*
X139917646Y-117241691D01*
X139942867Y-117248008D01*
X139967348Y-117256767D01*
X139990851Y-117267884D01*
X140013152Y-117281251D01*
X140034036Y-117296739D01*
X140053301Y-117314199D01*
X140070761Y-117333464D01*
X140086249Y-117354348D01*
X140099616Y-117376649D01*
X140110733Y-117400152D01*
X140119492Y-117424633D01*
X140125809Y-117449854D01*
X140129624Y-117475572D01*
X140130900Y-117501541D01*
X140130900Y-119023259D01*
X140129624Y-119049228D01*
X140125809Y-119074946D01*
X140119492Y-119100167D01*
X140110733Y-119124648D01*
X140099616Y-119148151D01*
X140086249Y-119170452D01*
X140070761Y-119191336D01*
X140053301Y-119210601D01*
X140034036Y-119228061D01*
X140013152Y-119243549D01*
X139990851Y-119256916D01*
X139967348Y-119268033D01*
X139942867Y-119276792D01*
X139917646Y-119283109D01*
X139891928Y-119286924D01*
X139865959Y-119288200D01*
X138594241Y-119288200D01*
X138568272Y-119286924D01*
X138542554Y-119283109D01*
X138517333Y-119276792D01*
X138492852Y-119268033D01*
X138469349Y-119256916D01*
X138447048Y-119243549D01*
X138426164Y-119228061D01*
X138406899Y-119210601D01*
X138389439Y-119191336D01*
X138373951Y-119170452D01*
X138360584Y-119148151D01*
X138349467Y-119124648D01*
X138340708Y-119100167D01*
X138334391Y-119074946D01*
X138330576Y-119049228D01*
X138329300Y-119023259D01*
X138329300Y-117501541D01*
X138330576Y-117475572D01*
X138334391Y-117449854D01*
X138340708Y-117424633D01*
X138349467Y-117400152D01*
X138360584Y-117376649D01*
X138373951Y-117354348D01*
X138389439Y-117333464D01*
X138406899Y-117314199D01*
X138426164Y-117296739D01*
X138447048Y-117281251D01*
X138469349Y-117267884D01*
X138492852Y-117256767D01*
X138517333Y-117248008D01*
X138542554Y-117241691D01*
X138568272Y-117237876D01*
X138594241Y-117236600D01*
X139865959Y-117236600D01*
X139891928Y-117237876D01*
G37*
G04 #@! TD*
D14*
G04 #@! TO.C,INPUT*
X131570100Y-118262400D03*
X129070100Y-118262400D03*
D15*
G36*
X127231928Y-117237876D02*
G01*
X127257646Y-117241691D01*
X127282867Y-117248008D01*
X127307348Y-117256767D01*
X127330851Y-117267884D01*
X127353152Y-117281251D01*
X127374036Y-117296739D01*
X127393301Y-117314199D01*
X127410761Y-117333464D01*
X127426249Y-117354348D01*
X127439616Y-117376649D01*
X127450733Y-117400152D01*
X127459492Y-117424633D01*
X127465809Y-117449854D01*
X127469624Y-117475572D01*
X127470900Y-117501541D01*
X127470900Y-119023259D01*
X127469624Y-119049228D01*
X127465809Y-119074946D01*
X127459492Y-119100167D01*
X127450733Y-119124648D01*
X127439616Y-119148151D01*
X127426249Y-119170452D01*
X127410761Y-119191336D01*
X127393301Y-119210601D01*
X127374036Y-119228061D01*
X127353152Y-119243549D01*
X127330851Y-119256916D01*
X127307348Y-119268033D01*
X127282867Y-119276792D01*
X127257646Y-119283109D01*
X127231928Y-119286924D01*
X127205959Y-119288200D01*
X125934241Y-119288200D01*
X125908272Y-119286924D01*
X125882554Y-119283109D01*
X125857333Y-119276792D01*
X125832852Y-119268033D01*
X125809349Y-119256916D01*
X125787048Y-119243549D01*
X125766164Y-119228061D01*
X125746899Y-119210601D01*
X125729439Y-119191336D01*
X125713951Y-119170452D01*
X125700584Y-119148151D01*
X125689467Y-119124648D01*
X125680708Y-119100167D01*
X125674391Y-119074946D01*
X125670576Y-119049228D01*
X125669300Y-119023259D01*
X125669300Y-117501541D01*
X125670576Y-117475572D01*
X125674391Y-117449854D01*
X125680708Y-117424633D01*
X125689467Y-117400152D01*
X125700584Y-117376649D01*
X125713951Y-117354348D01*
X125729439Y-117333464D01*
X125746899Y-117314199D01*
X125766164Y-117296739D01*
X125787048Y-117281251D01*
X125809349Y-117267884D01*
X125832852Y-117256767D01*
X125857333Y-117248008D01*
X125882554Y-117241691D01*
X125908272Y-117237876D01*
X125934241Y-117236600D01*
X127205959Y-117236600D01*
X127231928Y-117237876D01*
G37*
G04 #@! TD*
D12*
G04 #@! TO.C,P1*
X116370100Y-62382400D03*
D13*
X118910100Y-62382400D03*
X116370100Y-64922400D03*
X118910100Y-64922400D03*
X116370100Y-67462400D03*
X118910100Y-67462400D03*
X116370100Y-70002400D03*
X118910100Y-70002400D03*
X116370100Y-72542400D03*
X118910100Y-72542400D03*
X116370100Y-75082400D03*
X118910100Y-75082400D03*
X116370100Y-77622400D03*
X118910100Y-77622400D03*
X116370100Y-80162400D03*
X118910100Y-80162400D03*
X116370100Y-82702400D03*
X118910100Y-82702400D03*
X116370100Y-85242400D03*
X118910100Y-85242400D03*
X116370100Y-87782400D03*
X118910100Y-87782400D03*
X116370100Y-90322400D03*
X118910100Y-90322400D03*
X116370100Y-92862400D03*
X118910100Y-92862400D03*
X116370100Y-95402400D03*
X118910100Y-95402400D03*
X116370100Y-97942400D03*
X118910100Y-97942400D03*
X116370100Y-100482400D03*
X118910100Y-100482400D03*
X116370100Y-103022400D03*
X118910100Y-103022400D03*
X116370100Y-105562400D03*
X118910100Y-105562400D03*
X116370100Y-108102400D03*
X118910100Y-108102400D03*
X116370100Y-110642400D03*
X118910100Y-110642400D03*
X116370100Y-113182400D03*
X118910100Y-113182400D03*
X116370100Y-115722400D03*
X118910100Y-115722400D03*
X116370100Y-118262400D03*
X118910100Y-118262400D03*
G04 #@! TD*
M02*
