G04 #@! TF.GenerationSoftware,KiCad,Pcbnew,5.1.5-52549c5~86~ubuntu18.04.1*
G04 #@! TF.CreationDate,2020-06-06T12:27:41+01:00*
G04 #@! TF.ProjectId,holobone,686f6c6f-626f-46e6-952e-6b696361645f,rev?*
G04 #@! TF.SameCoordinates,Original*
G04 #@! TF.FileFunction,Legend,Top*
G04 #@! TF.FilePolarity,Positive*
%FSLAX46Y46*%
G04 Gerber Fmt 4.6, Leading zero omitted, Abs format (unit mm)*
G04 Created by KiCad (PCBNEW 5.1.5-52549c5~86~ubuntu18.04.1) date 2020-06-06 12:27:41*
%MOMM*%
%LPD*%
G04 APERTURE LIST*
%ADD10C,0.150000*%
G04 #@! TA.AperFunction,Profile*
%ADD11C,0.002540*%
G04 #@! TD*
%ADD12C,0.010000*%
%ADD13C,0.120000*%
G04 APERTURE END LIST*
D10*
X159794719Y-51541995D02*
X160794719Y-51541995D01*
X159794719Y-52494376D02*
X159794719Y-52018185D01*
X160794719Y-52018185D01*
X159794719Y-52827709D02*
X160794719Y-52827709D01*
X160794719Y-53065804D01*
X160747100Y-53208661D01*
X160651861Y-53303900D01*
X160556623Y-53351519D01*
X160366147Y-53399138D01*
X160223290Y-53399138D01*
X160032814Y-53351519D01*
X159937576Y-53303900D01*
X159842338Y-53208661D01*
X159794719Y-53065804D01*
X159794719Y-52827709D01*
X160080433Y-53780090D02*
X160080433Y-54256280D01*
X159794719Y-53684852D02*
X160794719Y-54018185D01*
X159794719Y-54351519D01*
X160747100Y-55970566D02*
X160794719Y-55875328D01*
X160794719Y-55732471D01*
X160747100Y-55589614D01*
X160651861Y-55494376D01*
X160556623Y-55446757D01*
X160366147Y-55399138D01*
X160223290Y-55399138D01*
X160032814Y-55446757D01*
X159937576Y-55494376D01*
X159842338Y-55589614D01*
X159794719Y-55732471D01*
X159794719Y-55827709D01*
X159842338Y-55970566D01*
X159889957Y-56018185D01*
X160223290Y-56018185D01*
X160223290Y-55827709D01*
X159794719Y-56875328D02*
X160318528Y-56875328D01*
X160413766Y-56827709D01*
X160461385Y-56732471D01*
X160461385Y-56541995D01*
X160413766Y-56446757D01*
X159842338Y-56875328D02*
X159794719Y-56780090D01*
X159794719Y-56541995D01*
X159842338Y-56446757D01*
X159937576Y-56399138D01*
X160032814Y-56399138D01*
X160128052Y-56446757D01*
X160175671Y-56541995D01*
X160175671Y-56780090D01*
X160223290Y-56875328D01*
X159794719Y-57494376D02*
X159842338Y-57399138D01*
X159937576Y-57351519D01*
X160794719Y-57351519D01*
X160461385Y-57780090D02*
X159794719Y-58018185D01*
X160461385Y-58256280D01*
X159794719Y-58780090D02*
X159842338Y-58684852D01*
X159889957Y-58637233D01*
X159985195Y-58589614D01*
X160270909Y-58589614D01*
X160366147Y-58637233D01*
X160413766Y-58684852D01*
X160461385Y-58780090D01*
X160461385Y-58922947D01*
X160413766Y-59018185D01*
X160366147Y-59065804D01*
X160270909Y-59113423D01*
X159985195Y-59113423D01*
X159889957Y-59065804D01*
X159842338Y-59018185D01*
X159794719Y-58922947D01*
X159794719Y-58780090D01*
X158192338Y-51494376D02*
X158144719Y-51589614D01*
X158144719Y-51780090D01*
X158192338Y-51875328D01*
X158287576Y-51922947D01*
X158335195Y-51922947D01*
X158430433Y-51875328D01*
X158478052Y-51780090D01*
X158478052Y-51637233D01*
X158525671Y-51541995D01*
X158620909Y-51494376D01*
X158668528Y-51494376D01*
X158763766Y-51541995D01*
X158811385Y-51637233D01*
X158811385Y-51780090D01*
X158763766Y-51875328D01*
X158144719Y-52351519D02*
X158811385Y-52351519D01*
X159144719Y-52351519D02*
X159097100Y-52303900D01*
X159049480Y-52351519D01*
X159097100Y-52399138D01*
X159144719Y-52351519D01*
X159049480Y-52351519D01*
X158811385Y-53256280D02*
X158001861Y-53256280D01*
X157906623Y-53208661D01*
X157859004Y-53161042D01*
X157811385Y-53065804D01*
X157811385Y-52922947D01*
X157859004Y-52827709D01*
X158192338Y-53256280D02*
X158144719Y-53161042D01*
X158144719Y-52970566D01*
X158192338Y-52875328D01*
X158239957Y-52827709D01*
X158335195Y-52780090D01*
X158620909Y-52780090D01*
X158716147Y-52827709D01*
X158763766Y-52875328D01*
X158811385Y-52970566D01*
X158811385Y-53161042D01*
X158763766Y-53256280D01*
X158811385Y-53732471D02*
X158144719Y-53732471D01*
X158716147Y-53732471D02*
X158763766Y-53780090D01*
X158811385Y-53875328D01*
X158811385Y-54018185D01*
X158763766Y-54113423D01*
X158668528Y-54161042D01*
X158144719Y-54161042D01*
X158144719Y-55065804D02*
X158668528Y-55065804D01*
X158763766Y-55018185D01*
X158811385Y-54922947D01*
X158811385Y-54732471D01*
X158763766Y-54637233D01*
X158192338Y-55065804D02*
X158144719Y-54970566D01*
X158144719Y-54732471D01*
X158192338Y-54637233D01*
X158287576Y-54589614D01*
X158382814Y-54589614D01*
X158478052Y-54637233D01*
X158525671Y-54732471D01*
X158525671Y-54970566D01*
X158573290Y-55065804D01*
X158144719Y-55684852D02*
X158192338Y-55589614D01*
X158287576Y-55541995D01*
X159144719Y-55541995D01*
X158144719Y-57256280D02*
X159144719Y-57256280D01*
X158192338Y-57256280D02*
X158144719Y-57161042D01*
X158144719Y-56970566D01*
X158192338Y-56875328D01*
X158239957Y-56827709D01*
X158335195Y-56780090D01*
X158620909Y-56780090D01*
X158716147Y-56827709D01*
X158763766Y-56875328D01*
X158811385Y-56970566D01*
X158811385Y-57161042D01*
X158763766Y-57256280D01*
X158144719Y-57732471D02*
X158811385Y-57732471D01*
X158620909Y-57732471D02*
X158716147Y-57780090D01*
X158763766Y-57827709D01*
X158811385Y-57922947D01*
X158811385Y-58018185D01*
X158144719Y-58351519D02*
X158811385Y-58351519D01*
X159144719Y-58351519D02*
X159097100Y-58303900D01*
X159049480Y-58351519D01*
X159097100Y-58399138D01*
X159144719Y-58351519D01*
X159049480Y-58351519D01*
X158811385Y-58732471D02*
X158144719Y-58970566D01*
X158811385Y-59208661D01*
X158192338Y-59970566D02*
X158144719Y-59875328D01*
X158144719Y-59684852D01*
X158192338Y-59589614D01*
X158287576Y-59541995D01*
X158668528Y-59541995D01*
X158763766Y-59589614D01*
X158811385Y-59684852D01*
X158811385Y-59875328D01*
X158763766Y-59970566D01*
X158668528Y-60018185D01*
X158573290Y-60018185D01*
X158478052Y-59541995D01*
X158144719Y-60446757D02*
X158811385Y-60446757D01*
X158620909Y-60446757D02*
X158716147Y-60494376D01*
X158763766Y-60541995D01*
X158811385Y-60637233D01*
X158811385Y-60732471D01*
X157018528Y-51875328D02*
X156970909Y-52018185D01*
X156923290Y-52065804D01*
X156828052Y-52113423D01*
X156685195Y-52113423D01*
X156589957Y-52065804D01*
X156542338Y-52018185D01*
X156494719Y-51922947D01*
X156494719Y-51541995D01*
X157494719Y-51541995D01*
X157494719Y-51875328D01*
X157447100Y-51970566D01*
X157399480Y-52018185D01*
X157304242Y-52065804D01*
X157209004Y-52065804D01*
X157113766Y-52018185D01*
X157066147Y-51970566D01*
X157018528Y-51875328D01*
X157018528Y-51541995D01*
X157018528Y-52875328D02*
X156970909Y-53018185D01*
X156923290Y-53065804D01*
X156828052Y-53113423D01*
X156685195Y-53113423D01*
X156589957Y-53065804D01*
X156542338Y-53018185D01*
X156494719Y-52922947D01*
X156494719Y-52541995D01*
X157494719Y-52541995D01*
X157494719Y-52875328D01*
X157447100Y-52970566D01*
X157399480Y-53018185D01*
X157304242Y-53065804D01*
X157209004Y-53065804D01*
X157113766Y-53018185D01*
X157066147Y-52970566D01*
X157018528Y-52875328D01*
X157018528Y-52541995D01*
X157018528Y-53875328D02*
X156970909Y-54018185D01*
X156923290Y-54065804D01*
X156828052Y-54113423D01*
X156685195Y-54113423D01*
X156589957Y-54065804D01*
X156542338Y-54018185D01*
X156494719Y-53922947D01*
X156494719Y-53541995D01*
X157494719Y-53541995D01*
X157494719Y-53875328D01*
X157447100Y-53970566D01*
X157399480Y-54018185D01*
X157304242Y-54065804D01*
X157209004Y-54065804D01*
X157113766Y-54018185D01*
X157066147Y-53970566D01*
X157018528Y-53875328D01*
X157018528Y-53541995D01*
X156542338Y-55732471D02*
X156494719Y-55637233D01*
X156494719Y-55446757D01*
X156542338Y-55351519D01*
X156589957Y-55303900D01*
X156685195Y-55256280D01*
X156970909Y-55256280D01*
X157066147Y-55303900D01*
X157113766Y-55351519D01*
X157161385Y-55446757D01*
X157161385Y-55637233D01*
X157113766Y-55732471D01*
X156494719Y-56589614D02*
X157018528Y-56589614D01*
X157113766Y-56541995D01*
X157161385Y-56446757D01*
X157161385Y-56256280D01*
X157113766Y-56161042D01*
X156542338Y-56589614D02*
X156494719Y-56494376D01*
X156494719Y-56256280D01*
X156542338Y-56161042D01*
X156637576Y-56113423D01*
X156732814Y-56113423D01*
X156828052Y-56161042D01*
X156875671Y-56256280D01*
X156875671Y-56494376D01*
X156923290Y-56589614D01*
X157161385Y-57065804D02*
X156161385Y-57065804D01*
X157113766Y-57065804D02*
X157161385Y-57161042D01*
X157161385Y-57351519D01*
X157113766Y-57446757D01*
X157066147Y-57494376D01*
X156970909Y-57541995D01*
X156685195Y-57541995D01*
X156589957Y-57494376D01*
X156542338Y-57446757D01*
X156494719Y-57351519D01*
X156494719Y-57161042D01*
X156542338Y-57065804D01*
X156542338Y-58351519D02*
X156494719Y-58256280D01*
X156494719Y-58065804D01*
X156542338Y-57970566D01*
X156637576Y-57922947D01*
X157018528Y-57922947D01*
X157113766Y-57970566D01*
X157161385Y-58065804D01*
X157161385Y-58256280D01*
X157113766Y-58351519D01*
X157018528Y-58399138D01*
X156923290Y-58399138D01*
X156828052Y-57922947D01*
X155844719Y-51399138D02*
X154844719Y-51732471D01*
X155844719Y-52065804D01*
X154844719Y-52922947D02*
X154844719Y-52351519D01*
X154844719Y-52637233D02*
X155844719Y-52637233D01*
X155701861Y-52541995D01*
X155606623Y-52446757D01*
X155559004Y-52351519D01*
X154939957Y-53351519D02*
X154892338Y-53399138D01*
X154844719Y-53351519D01*
X154892338Y-53303900D01*
X154939957Y-53351519D01*
X154844719Y-53351519D01*
X155844719Y-54018185D02*
X155844719Y-54113423D01*
X155797100Y-54208661D01*
X155749480Y-54256280D01*
X155654242Y-54303900D01*
X155463766Y-54351519D01*
X155225671Y-54351519D01*
X155035195Y-54303900D01*
X154939957Y-54256280D01*
X154892338Y-54208661D01*
X154844719Y-54113423D01*
X154844719Y-54018185D01*
X154892338Y-53922947D01*
X154939957Y-53875328D01*
X155035195Y-53827709D01*
X155225671Y-53780090D01*
X155463766Y-53780090D01*
X155654242Y-53827709D01*
X155749480Y-53875328D01*
X155797100Y-53922947D01*
X155844719Y-54018185D01*
D11*
X114465100Y-116357400D02*
G75*
G03X127165100Y-129057400I12700000J0D01*
G01*
X156375100Y-129057400D02*
G75*
G03X169075100Y-116357400I0J12700000D01*
G01*
X120815100Y-42697400D02*
G75*
G03X114465100Y-49047400I0J-6350000D01*
G01*
X135420100Y-42697400D02*
X120815100Y-42697400D01*
X135420100Y-64287400D02*
X135420100Y-42697400D01*
X153200100Y-64287400D02*
X135420100Y-64287400D01*
X153200100Y-49682400D02*
X153200100Y-64287400D01*
X169075100Y-49682400D02*
X153200100Y-49682400D01*
X169075100Y-116357400D02*
X169075100Y-49682400D01*
X127165100Y-129057400D02*
X156375100Y-129057400D01*
X114465100Y-49047400D02*
X114465100Y-116357400D01*
D12*
G04 #@! TO.C, *
G36*
X150258088Y-81310460D02*
G01*
X150257205Y-81341103D01*
X150255462Y-81368917D01*
X150252684Y-81395651D01*
X150248696Y-81423056D01*
X150243322Y-81452882D01*
X150237700Y-81480653D01*
X150223832Y-81539235D01*
X150207988Y-81591944D01*
X150190079Y-81638972D01*
X150170015Y-81680508D01*
X150147710Y-81716742D01*
X150123074Y-81747866D01*
X150104982Y-81766173D01*
X150078518Y-81789162D01*
X150048394Y-81812925D01*
X150015692Y-81836768D01*
X149981493Y-81859993D01*
X149946879Y-81881905D01*
X149912932Y-81901809D01*
X149880732Y-81919008D01*
X149851361Y-81932807D01*
X149836870Y-81938670D01*
X149809209Y-81947675D01*
X149775843Y-81956107D01*
X149737398Y-81963868D01*
X149694500Y-81970862D01*
X149647778Y-81976992D01*
X149597856Y-81982162D01*
X149545363Y-81986273D01*
X149518478Y-81987895D01*
X149473154Y-81991277D01*
X149430758Y-81996501D01*
X149389487Y-82003922D01*
X149347537Y-82013895D01*
X149303103Y-82026774D01*
X149275800Y-82035610D01*
X149226448Y-82053244D01*
X149178437Y-82072632D01*
X149132293Y-82093460D01*
X149088544Y-82115412D01*
X149047715Y-82138174D01*
X149010332Y-82161431D01*
X148976921Y-82184867D01*
X148948008Y-82208169D01*
X148924120Y-82231021D01*
X148905783Y-82253108D01*
X148901304Y-82259756D01*
X148894554Y-82271241D01*
X148891873Y-82278446D01*
X148893297Y-82281995D01*
X148898862Y-82282513D01*
X148902577Y-82281952D01*
X148919089Y-82277249D01*
X148940345Y-82268462D01*
X148966261Y-82255630D01*
X148996752Y-82238793D01*
X149006674Y-82233028D01*
X149045005Y-82211079D01*
X149078732Y-82192992D01*
X149108207Y-82178659D01*
X149133782Y-82167972D01*
X149155810Y-82160822D01*
X149174641Y-82157101D01*
X149190628Y-82156700D01*
X149204123Y-82159511D01*
X149215478Y-82165425D01*
X149218497Y-82167770D01*
X149227611Y-82178371D01*
X149232362Y-82191466D01*
X149232721Y-82207482D01*
X149228662Y-82226846D01*
X149220157Y-82249986D01*
X149212011Y-82267704D01*
X149202702Y-82287818D01*
X149193600Y-82309784D01*
X149184596Y-82334004D01*
X149175582Y-82360881D01*
X149166449Y-82390817D01*
X149157088Y-82424215D01*
X149147392Y-82461476D01*
X149137251Y-82503005D01*
X149126557Y-82549203D01*
X149115201Y-82600472D01*
X149103074Y-82657215D01*
X149090269Y-82718858D01*
X149078917Y-82773634D01*
X149068471Y-82822879D01*
X149058757Y-82867321D01*
X149049602Y-82907687D01*
X149040833Y-82944705D01*
X149032278Y-82979101D01*
X149023763Y-83011603D01*
X149015115Y-83042938D01*
X149006161Y-83073833D01*
X149004400Y-83079749D01*
X148990967Y-83121918D01*
X148977246Y-83158820D01*
X148962624Y-83191527D01*
X148946486Y-83221114D01*
X148928216Y-83248654D01*
X148907201Y-83275221D01*
X148882825Y-83301888D01*
X148869614Y-83315175D01*
X148838388Y-83343909D01*
X148807409Y-83368133D01*
X148774672Y-83389274D01*
X148738171Y-83408758D01*
X148737638Y-83409019D01*
X148706540Y-83423374D01*
X148677866Y-83434625D01*
X148649097Y-83443657D01*
X148617720Y-83451357D01*
X148616988Y-83451517D01*
X148560339Y-83460648D01*
X148502001Y-83463888D01*
X148442273Y-83461376D01*
X148381456Y-83453251D01*
X148319848Y-83439654D01*
X148257748Y-83420723D01*
X148195457Y-83396598D01*
X148133274Y-83367419D01*
X148071498Y-83333324D01*
X148010429Y-83294453D01*
X147950366Y-83250946D01*
X147891609Y-83202941D01*
X147834457Y-83150579D01*
X147779209Y-83093999D01*
X147730830Y-83038950D01*
X147701734Y-83003118D01*
X147674299Y-82967098D01*
X147647625Y-82929609D01*
X147620817Y-82889369D01*
X147592977Y-82845097D01*
X147579563Y-82823004D01*
X147551360Y-82774742D01*
X147525937Y-82728187D01*
X147502924Y-82682400D01*
X147481945Y-82636443D01*
X147462627Y-82589378D01*
X147444598Y-82540264D01*
X147427484Y-82488165D01*
X147410911Y-82432140D01*
X147394506Y-82371252D01*
X147385110Y-82334100D01*
X147366152Y-82254528D01*
X147347365Y-82169755D01*
X147328950Y-82080925D01*
X147311107Y-81989188D01*
X147294039Y-81895689D01*
X147277945Y-81801576D01*
X147263027Y-81707997D01*
X147249485Y-81616098D01*
X147237520Y-81527026D01*
X147227333Y-81441930D01*
X147224735Y-81418112D01*
X147222009Y-81393223D01*
X147219237Y-81369168D01*
X147216552Y-81347023D01*
X147214089Y-81327867D01*
X147211983Y-81312777D01*
X147210369Y-81302830D01*
X147210252Y-81302225D01*
X147203421Y-81278194D01*
X147192383Y-81252292D01*
X147178080Y-81226366D01*
X147161451Y-81202262D01*
X147155758Y-81195195D01*
X147149051Y-81187679D01*
X147138196Y-81176124D01*
X147123591Y-81160923D01*
X147105631Y-81142474D01*
X147084714Y-81121170D01*
X147061236Y-81097409D01*
X147035593Y-81071586D01*
X147008182Y-81044095D01*
X146979400Y-81015334D01*
X146949643Y-80985696D01*
X146919307Y-80955578D01*
X146888789Y-80925376D01*
X146858486Y-80895485D01*
X146828794Y-80866300D01*
X146800110Y-80838217D01*
X146772830Y-80811631D01*
X146747351Y-80786939D01*
X146724069Y-80764536D01*
X146723100Y-80763608D01*
X146700722Y-80742356D01*
X146676641Y-80719849D01*
X146650519Y-80695783D01*
X146622018Y-80669858D01*
X146590802Y-80641772D01*
X146556532Y-80611223D01*
X146518872Y-80577910D01*
X146477483Y-80541530D01*
X146432029Y-80501783D01*
X146382171Y-80458366D01*
X146362738Y-80441483D01*
X146346515Y-80427396D01*
X146325642Y-80409272D01*
X146300264Y-80387235D01*
X146270525Y-80361411D01*
X146236570Y-80331927D01*
X146198545Y-80298907D01*
X146156593Y-80262477D01*
X146110859Y-80222763D01*
X146061487Y-80179890D01*
X146008624Y-80133984D01*
X145952412Y-80085171D01*
X145892997Y-80033577D01*
X145830524Y-79979326D01*
X145765137Y-79922545D01*
X145696981Y-79863359D01*
X145626200Y-79801894D01*
X145552939Y-79738275D01*
X145477343Y-79672628D01*
X145399557Y-79605079D01*
X145319724Y-79535753D01*
X145237991Y-79464777D01*
X145154501Y-79392274D01*
X145069399Y-79318372D01*
X144982829Y-79243196D01*
X144894938Y-79166871D01*
X144805868Y-79089523D01*
X144715765Y-79011278D01*
X144624774Y-78932261D01*
X144533039Y-78852598D01*
X144440704Y-78772415D01*
X144381538Y-78721035D01*
X144290392Y-78641889D01*
X144200285Y-78563653D01*
X144111340Y-78486437D01*
X144023684Y-78410347D01*
X143937440Y-78335493D01*
X143852735Y-78261983D01*
X143769692Y-78189926D01*
X143688438Y-78119428D01*
X143609096Y-78050600D01*
X143531792Y-77983548D01*
X143456651Y-77918382D01*
X143383798Y-77855210D01*
X143313357Y-77794140D01*
X143245455Y-77735279D01*
X143180215Y-77678738D01*
X143117764Y-77624623D01*
X143058224Y-77573043D01*
X143001723Y-77524107D01*
X142948385Y-77477923D01*
X142898334Y-77434598D01*
X142851696Y-77394242D01*
X142808596Y-77356963D01*
X142769158Y-77322869D01*
X142733508Y-77292068D01*
X142701771Y-77264668D01*
X142674071Y-77240778D01*
X142650534Y-77220507D01*
X142631285Y-77203961D01*
X142616448Y-77191251D01*
X142606149Y-77182484D01*
X142600512Y-77177768D01*
X142600363Y-77177647D01*
X142563400Y-77147824D01*
X142524295Y-77116429D01*
X142483468Y-77083793D01*
X142441342Y-77050245D01*
X142398339Y-77016116D01*
X142354880Y-76981736D01*
X142311389Y-76947435D01*
X142268285Y-76913545D01*
X142225993Y-76880394D01*
X142184933Y-76848314D01*
X142145527Y-76817634D01*
X142108198Y-76788686D01*
X142073367Y-76761799D01*
X142041457Y-76737303D01*
X142012889Y-76715530D01*
X141988085Y-76696809D01*
X141967467Y-76681470D01*
X141954172Y-76671786D01*
X141937899Y-76660228D01*
X141925719Y-76651974D01*
X141916662Y-76646489D01*
X141909761Y-76643242D01*
X141904049Y-76641698D01*
X141898861Y-76641325D01*
X141886066Y-76642636D01*
X141868504Y-76646605D01*
X141846021Y-76653281D01*
X141818468Y-76662717D01*
X141785693Y-76674962D01*
X141747543Y-76690068D01*
X141719359Y-76701625D01*
X141667435Y-76722306D01*
X141616553Y-76740734D01*
X141565241Y-76757357D01*
X141512029Y-76772622D01*
X141455448Y-76786977D01*
X141394027Y-76800871D01*
X141392275Y-76801246D01*
X141353953Y-76809110D01*
X141319894Y-76815268D01*
X141288309Y-76819939D01*
X141257411Y-76823340D01*
X141225410Y-76825690D01*
X141190520Y-76827208D01*
X141176375Y-76827606D01*
X141110610Y-76828129D01*
X141042972Y-76826585D01*
X140974783Y-76823081D01*
X140907366Y-76817724D01*
X140842043Y-76810620D01*
X140780134Y-76801876D01*
X140722963Y-76791600D01*
X140717588Y-76790499D01*
X140616314Y-76767177D01*
X140520018Y-76740257D01*
X140428752Y-76709762D01*
X140342567Y-76675713D01*
X140261515Y-76638132D01*
X140185648Y-76597042D01*
X140115018Y-76552464D01*
X140058775Y-76511565D01*
X140025338Y-76483337D01*
X139991635Y-76450661D01*
X139958539Y-76414634D01*
X139926922Y-76376354D01*
X139897654Y-76336920D01*
X139871609Y-76297428D01*
X139849657Y-76258978D01*
X139836436Y-76231555D01*
X139816711Y-76181864D01*
X139801617Y-76132690D01*
X139790850Y-76082595D01*
X139784108Y-76030143D01*
X139781089Y-75973897D01*
X139780984Y-75968225D01*
X139780736Y-75947778D01*
X139780643Y-75928835D01*
X139780701Y-75912561D01*
X139780904Y-75900120D01*
X139781247Y-75892676D01*
X139781315Y-75892025D01*
X139789586Y-75835423D01*
X139800177Y-75783486D01*
X139813480Y-75734827D01*
X139829886Y-75688060D01*
X139849788Y-75641799D01*
X139855387Y-75630087D01*
X139870583Y-75600906D01*
X139888202Y-75570415D01*
X139907100Y-75540426D01*
X139926137Y-75512749D01*
X139944170Y-75489195D01*
X139944495Y-75488800D01*
X139982117Y-75445744D01*
X140025178Y-75401199D01*
X140073088Y-75355671D01*
X140125257Y-75309663D01*
X140181095Y-75263679D01*
X140240012Y-75218224D01*
X140301418Y-75173802D01*
X140358020Y-75135324D01*
X140410123Y-75101900D01*
X140459466Y-75072152D01*
X140505833Y-75046176D01*
X140549007Y-75024072D01*
X140588772Y-75005937D01*
X140624911Y-74991869D01*
X140657209Y-74981966D01*
X140685450Y-74976326D01*
X140709415Y-74975048D01*
X140711507Y-74975160D01*
X140734059Y-74979307D01*
X140752936Y-74988194D01*
X140767809Y-75001163D01*
X140778348Y-75017556D01*
X140784225Y-75036718D01*
X140785111Y-75057989D01*
X140780676Y-75080713D01*
X140773415Y-75098814D01*
X140765614Y-75113315D01*
X140756322Y-75127884D01*
X140744962Y-75143222D01*
X140730956Y-75160028D01*
X140713727Y-75179003D01*
X140692698Y-75200847D01*
X140673101Y-75220512D01*
X140657200Y-75236349D01*
X140642630Y-75250972D01*
X140630052Y-75263708D01*
X140620130Y-75273883D01*
X140613527Y-75280822D01*
X140611060Y-75283614D01*
X140611092Y-75285394D01*
X140615580Y-75284331D01*
X140623577Y-75280915D01*
X140634135Y-75275639D01*
X140646305Y-75268992D01*
X140659141Y-75261466D01*
X140671695Y-75253552D01*
X140679990Y-75247914D01*
X140701581Y-75231234D01*
X140724343Y-75211125D01*
X140747117Y-75188810D01*
X140768749Y-75165514D01*
X140788080Y-75142459D01*
X140803956Y-75120870D01*
X140811571Y-75108729D01*
X140819217Y-75093070D01*
X140827708Y-75071229D01*
X140837014Y-75043312D01*
X140847103Y-75009427D01*
X140857943Y-74969679D01*
X140869503Y-74924176D01*
X140881751Y-74873023D01*
X140884370Y-74861737D01*
X140902370Y-74785793D01*
X140920008Y-74715619D01*
X140937464Y-74650661D01*
X140954920Y-74590362D01*
X140972556Y-74534165D01*
X140990555Y-74481517D01*
X141009097Y-74431859D01*
X141028364Y-74384637D01*
X141048536Y-74339295D01*
X141067552Y-74299762D01*
X141092706Y-74251588D01*
X141117698Y-74208766D01*
X141143285Y-74170369D01*
X141170228Y-74135465D01*
X141199283Y-74103125D01*
X141231210Y-74072420D01*
X141266766Y-74042419D01*
X141295438Y-74020439D01*
X141331026Y-73995121D01*
X141363912Y-73974120D01*
X141395430Y-73956852D01*
X141426915Y-73942732D01*
X141459701Y-73931175D01*
X141495121Y-73921596D01*
X141534511Y-73913410D01*
X141543107Y-73911866D01*
X141554432Y-73910110D01*
X141566626Y-73908746D01*
X141580636Y-73907730D01*
X141597407Y-73907022D01*
X141617884Y-73906579D01*
X141643013Y-73906357D01*
X141666913Y-73906311D01*
X141695340Y-73906374D01*
X141718539Y-73906593D01*
X141737631Y-73907025D01*
X141753738Y-73907730D01*
X141767980Y-73908765D01*
X141781480Y-73910188D01*
X141795357Y-73912059D01*
X141804686Y-73913476D01*
X141861722Y-73924107D01*
X141916075Y-73937642D01*
X141967037Y-73953833D01*
X142013901Y-73972431D01*
X142055960Y-73993191D01*
X142087600Y-74012483D01*
X142099460Y-74020885D01*
X142110902Y-74029896D01*
X142122369Y-74040012D01*
X142134299Y-74051731D01*
X142147135Y-74065550D01*
X142161316Y-74081967D01*
X142177285Y-74101477D01*
X142195480Y-74124579D01*
X142216344Y-74151771D01*
X142240316Y-74183548D01*
X142246243Y-74191460D01*
X142275148Y-74230468D01*
X142300378Y-74265424D01*
X142322395Y-74297097D01*
X142341659Y-74326255D01*
X142358631Y-74353667D01*
X142373770Y-74380100D01*
X142387538Y-74406323D01*
X142400395Y-74433103D01*
X142412801Y-74461209D01*
X142423486Y-74487087D01*
X142438274Y-74525069D01*
X142452410Y-74563979D01*
X142466018Y-74604291D01*
X142479220Y-74646483D01*
X142492138Y-74691032D01*
X142504895Y-74738413D01*
X142517614Y-74789104D01*
X142530417Y-74843582D01*
X142543427Y-74902322D01*
X142556766Y-74965802D01*
X142570556Y-75034498D01*
X142584921Y-75108887D01*
X142589216Y-75131612D01*
X142602959Y-75204281D01*
X142615741Y-75271090D01*
X142627555Y-75331993D01*
X142638391Y-75386947D01*
X142648240Y-75435908D01*
X142657093Y-75478833D01*
X142664942Y-75515677D01*
X142671777Y-75546397D01*
X142677589Y-75570949D01*
X142682370Y-75589289D01*
X142683138Y-75591987D01*
X142686448Y-75603134D01*
X142689797Y-75613390D01*
X142693476Y-75623111D01*
X142697777Y-75632652D01*
X142702993Y-75642367D01*
X142709413Y-75652611D01*
X142717332Y-75663739D01*
X142727040Y-75676105D01*
X142738830Y-75690066D01*
X142752993Y-75705974D01*
X142769820Y-75724186D01*
X142789605Y-75745056D01*
X142812639Y-75768939D01*
X142839213Y-75796189D01*
X142869620Y-75827162D01*
X142904151Y-75862212D01*
X142911724Y-75869891D01*
X142962541Y-75921296D01*
X143015752Y-75974897D01*
X143071013Y-76030359D01*
X143127981Y-76087346D01*
X143186314Y-76145519D01*
X143245667Y-76204544D01*
X143305700Y-76264082D01*
X143366068Y-76323799D01*
X143426428Y-76383356D01*
X143486439Y-76442417D01*
X143545757Y-76500647D01*
X143604038Y-76557707D01*
X143660941Y-76613262D01*
X143716122Y-76666975D01*
X143769238Y-76718509D01*
X143819947Y-76767527D01*
X143867905Y-76813694D01*
X143912770Y-76856672D01*
X143954199Y-76896124D01*
X143991848Y-76931715D01*
X144024447Y-76962243D01*
X144048450Y-76984672D01*
X144075682Y-77010254D01*
X144104807Y-77037725D01*
X144134491Y-77065824D01*
X144163399Y-77093288D01*
X144190197Y-77118854D01*
X144203738Y-77131828D01*
X144220840Y-77148209D01*
X144241983Y-77168405D01*
X144266594Y-77191870D01*
X144294098Y-77218058D01*
X144323919Y-77246423D01*
X144355486Y-77276418D01*
X144388221Y-77307499D01*
X144421553Y-77339119D01*
X144454905Y-77370731D01*
X144487704Y-77401791D01*
X144494250Y-77407987D01*
X144528235Y-77440151D01*
X144563907Y-77473919D01*
X144600561Y-77508625D01*
X144637495Y-77543602D01*
X144674004Y-77578183D01*
X144709384Y-77611701D01*
X144742931Y-77643489D01*
X144773941Y-77672881D01*
X144801711Y-77699209D01*
X144824450Y-77720777D01*
X144863481Y-77757791D01*
X144900300Y-77792664D01*
X144935196Y-77825658D01*
X144968458Y-77857035D01*
X145000372Y-77887056D01*
X145031229Y-77915981D01*
X145061317Y-77944073D01*
X145090923Y-77971592D01*
X145120336Y-77998800D01*
X145149845Y-78025958D01*
X145179739Y-78053328D01*
X145210304Y-78081170D01*
X145241831Y-78109746D01*
X145274607Y-78139317D01*
X145308921Y-78170145D01*
X145345060Y-78202490D01*
X145383315Y-78236615D01*
X145423972Y-78272779D01*
X145467321Y-78311246D01*
X145513649Y-78352275D01*
X145563246Y-78396129D01*
X145616399Y-78443068D01*
X145673397Y-78493354D01*
X145734529Y-78547247D01*
X145800082Y-78605010D01*
X145815050Y-78618197D01*
X145878254Y-78673875D01*
X145943660Y-78731494D01*
X146011015Y-78790832D01*
X146080071Y-78851668D01*
X146150575Y-78913780D01*
X146222277Y-78976948D01*
X146294926Y-79040951D01*
X146368271Y-79105567D01*
X146442060Y-79170576D01*
X146516044Y-79235756D01*
X146589971Y-79300887D01*
X146663589Y-79365746D01*
X146736649Y-79430114D01*
X146808900Y-79493768D01*
X146880089Y-79556489D01*
X146949968Y-79618055D01*
X147018283Y-79678244D01*
X147084785Y-79736836D01*
X147149223Y-79793609D01*
X147211345Y-79848343D01*
X147270901Y-79900817D01*
X147327640Y-79950809D01*
X147381310Y-79998098D01*
X147431661Y-80042463D01*
X147478443Y-80083683D01*
X147521403Y-80121538D01*
X147560292Y-80155805D01*
X147594857Y-80186264D01*
X147618115Y-80206759D01*
X147645926Y-80231180D01*
X147672874Y-80254673D01*
X147698489Y-80276840D01*
X147722300Y-80297281D01*
X147743837Y-80315597D01*
X147762631Y-80331388D01*
X147778210Y-80344256D01*
X147790106Y-80353801D01*
X147797847Y-80359624D01*
X147799090Y-80360459D01*
X147838142Y-80384637D01*
X147877944Y-80407618D01*
X147917755Y-80429057D01*
X147956834Y-80448609D01*
X147994438Y-80465930D01*
X148029828Y-80480674D01*
X148062260Y-80492498D01*
X148090994Y-80501056D01*
X148110575Y-80505279D01*
X148120389Y-80506483D01*
X148135117Y-80507721D01*
X148153326Y-80508897D01*
X148173583Y-80509920D01*
X148193434Y-80510665D01*
X148219322Y-80511219D01*
X148243757Y-80511154D01*
X148267378Y-80510357D01*
X148290826Y-80508715D01*
X148314737Y-80506115D01*
X148339753Y-80502443D01*
X148366511Y-80497587D01*
X148395651Y-80491433D01*
X148427812Y-80483868D01*
X148463633Y-80474779D01*
X148503753Y-80464053D01*
X148548811Y-80451576D01*
X148585238Y-80441284D01*
X148661481Y-80420068D01*
X148732598Y-80401282D01*
X148799277Y-80384799D01*
X148862206Y-80370491D01*
X148922072Y-80358232D01*
X148979563Y-80347895D01*
X149035365Y-80339353D01*
X149090167Y-80332480D01*
X149144656Y-80327148D01*
X149199519Y-80323231D01*
X149234948Y-80321417D01*
X149323729Y-80319915D01*
X149408538Y-80323366D01*
X149489378Y-80331770D01*
X149566252Y-80345127D01*
X149639163Y-80363437D01*
X149708114Y-80386703D01*
X149772688Y-80414718D01*
X149833813Y-80447925D01*
X149892057Y-80486528D01*
X149946993Y-80530082D01*
X149998189Y-80578146D01*
X150045217Y-80630276D01*
X150087646Y-80686029D01*
X150125048Y-80744963D01*
X150156992Y-80806633D01*
X150160736Y-80814862D01*
X150173281Y-80843869D01*
X150184427Y-80871983D01*
X150194433Y-80900133D01*
X150203558Y-80929248D01*
X150212060Y-80960256D01*
X150220198Y-80994086D01*
X150228231Y-81031666D01*
X150236417Y-81073925D01*
X150242970Y-81110137D01*
X150258111Y-81195862D01*
X150258287Y-81275237D01*
X150258088Y-81310460D01*
G37*
X150258088Y-81310460D02*
X150257205Y-81341103D01*
X150255462Y-81368917D01*
X150252684Y-81395651D01*
X150248696Y-81423056D01*
X150243322Y-81452882D01*
X150237700Y-81480653D01*
X150223832Y-81539235D01*
X150207988Y-81591944D01*
X150190079Y-81638972D01*
X150170015Y-81680508D01*
X150147710Y-81716742D01*
X150123074Y-81747866D01*
X150104982Y-81766173D01*
X150078518Y-81789162D01*
X150048394Y-81812925D01*
X150015692Y-81836768D01*
X149981493Y-81859993D01*
X149946879Y-81881905D01*
X149912932Y-81901809D01*
X149880732Y-81919008D01*
X149851361Y-81932807D01*
X149836870Y-81938670D01*
X149809209Y-81947675D01*
X149775843Y-81956107D01*
X149737398Y-81963868D01*
X149694500Y-81970862D01*
X149647778Y-81976992D01*
X149597856Y-81982162D01*
X149545363Y-81986273D01*
X149518478Y-81987895D01*
X149473154Y-81991277D01*
X149430758Y-81996501D01*
X149389487Y-82003922D01*
X149347537Y-82013895D01*
X149303103Y-82026774D01*
X149275800Y-82035610D01*
X149226448Y-82053244D01*
X149178437Y-82072632D01*
X149132293Y-82093460D01*
X149088544Y-82115412D01*
X149047715Y-82138174D01*
X149010332Y-82161431D01*
X148976921Y-82184867D01*
X148948008Y-82208169D01*
X148924120Y-82231021D01*
X148905783Y-82253108D01*
X148901304Y-82259756D01*
X148894554Y-82271241D01*
X148891873Y-82278446D01*
X148893297Y-82281995D01*
X148898862Y-82282513D01*
X148902577Y-82281952D01*
X148919089Y-82277249D01*
X148940345Y-82268462D01*
X148966261Y-82255630D01*
X148996752Y-82238793D01*
X149006674Y-82233028D01*
X149045005Y-82211079D01*
X149078732Y-82192992D01*
X149108207Y-82178659D01*
X149133782Y-82167972D01*
X149155810Y-82160822D01*
X149174641Y-82157101D01*
X149190628Y-82156700D01*
X149204123Y-82159511D01*
X149215478Y-82165425D01*
X149218497Y-82167770D01*
X149227611Y-82178371D01*
X149232362Y-82191466D01*
X149232721Y-82207482D01*
X149228662Y-82226846D01*
X149220157Y-82249986D01*
X149212011Y-82267704D01*
X149202702Y-82287818D01*
X149193600Y-82309784D01*
X149184596Y-82334004D01*
X149175582Y-82360881D01*
X149166449Y-82390817D01*
X149157088Y-82424215D01*
X149147392Y-82461476D01*
X149137251Y-82503005D01*
X149126557Y-82549203D01*
X149115201Y-82600472D01*
X149103074Y-82657215D01*
X149090269Y-82718858D01*
X149078917Y-82773634D01*
X149068471Y-82822879D01*
X149058757Y-82867321D01*
X149049602Y-82907687D01*
X149040833Y-82944705D01*
X149032278Y-82979101D01*
X149023763Y-83011603D01*
X149015115Y-83042938D01*
X149006161Y-83073833D01*
X149004400Y-83079749D01*
X148990967Y-83121918D01*
X148977246Y-83158820D01*
X148962624Y-83191527D01*
X148946486Y-83221114D01*
X148928216Y-83248654D01*
X148907201Y-83275221D01*
X148882825Y-83301888D01*
X148869614Y-83315175D01*
X148838388Y-83343909D01*
X148807409Y-83368133D01*
X148774672Y-83389274D01*
X148738171Y-83408758D01*
X148737638Y-83409019D01*
X148706540Y-83423374D01*
X148677866Y-83434625D01*
X148649097Y-83443657D01*
X148617720Y-83451357D01*
X148616988Y-83451517D01*
X148560339Y-83460648D01*
X148502001Y-83463888D01*
X148442273Y-83461376D01*
X148381456Y-83453251D01*
X148319848Y-83439654D01*
X148257748Y-83420723D01*
X148195457Y-83396598D01*
X148133274Y-83367419D01*
X148071498Y-83333324D01*
X148010429Y-83294453D01*
X147950366Y-83250946D01*
X147891609Y-83202941D01*
X147834457Y-83150579D01*
X147779209Y-83093999D01*
X147730830Y-83038950D01*
X147701734Y-83003118D01*
X147674299Y-82967098D01*
X147647625Y-82929609D01*
X147620817Y-82889369D01*
X147592977Y-82845097D01*
X147579563Y-82823004D01*
X147551360Y-82774742D01*
X147525937Y-82728187D01*
X147502924Y-82682400D01*
X147481945Y-82636443D01*
X147462627Y-82589378D01*
X147444598Y-82540264D01*
X147427484Y-82488165D01*
X147410911Y-82432140D01*
X147394506Y-82371252D01*
X147385110Y-82334100D01*
X147366152Y-82254528D01*
X147347365Y-82169755D01*
X147328950Y-82080925D01*
X147311107Y-81989188D01*
X147294039Y-81895689D01*
X147277945Y-81801576D01*
X147263027Y-81707997D01*
X147249485Y-81616098D01*
X147237520Y-81527026D01*
X147227333Y-81441930D01*
X147224735Y-81418112D01*
X147222009Y-81393223D01*
X147219237Y-81369168D01*
X147216552Y-81347023D01*
X147214089Y-81327867D01*
X147211983Y-81312777D01*
X147210369Y-81302830D01*
X147210252Y-81302225D01*
X147203421Y-81278194D01*
X147192383Y-81252292D01*
X147178080Y-81226366D01*
X147161451Y-81202262D01*
X147155758Y-81195195D01*
X147149051Y-81187679D01*
X147138196Y-81176124D01*
X147123591Y-81160923D01*
X147105631Y-81142474D01*
X147084714Y-81121170D01*
X147061236Y-81097409D01*
X147035593Y-81071586D01*
X147008182Y-81044095D01*
X146979400Y-81015334D01*
X146949643Y-80985696D01*
X146919307Y-80955578D01*
X146888789Y-80925376D01*
X146858486Y-80895485D01*
X146828794Y-80866300D01*
X146800110Y-80838217D01*
X146772830Y-80811631D01*
X146747351Y-80786939D01*
X146724069Y-80764536D01*
X146723100Y-80763608D01*
X146700722Y-80742356D01*
X146676641Y-80719849D01*
X146650519Y-80695783D01*
X146622018Y-80669858D01*
X146590802Y-80641772D01*
X146556532Y-80611223D01*
X146518872Y-80577910D01*
X146477483Y-80541530D01*
X146432029Y-80501783D01*
X146382171Y-80458366D01*
X146362738Y-80441483D01*
X146346515Y-80427396D01*
X146325642Y-80409272D01*
X146300264Y-80387235D01*
X146270525Y-80361411D01*
X146236570Y-80331927D01*
X146198545Y-80298907D01*
X146156593Y-80262477D01*
X146110859Y-80222763D01*
X146061487Y-80179890D01*
X146008624Y-80133984D01*
X145952412Y-80085171D01*
X145892997Y-80033577D01*
X145830524Y-79979326D01*
X145765137Y-79922545D01*
X145696981Y-79863359D01*
X145626200Y-79801894D01*
X145552939Y-79738275D01*
X145477343Y-79672628D01*
X145399557Y-79605079D01*
X145319724Y-79535753D01*
X145237991Y-79464777D01*
X145154501Y-79392274D01*
X145069399Y-79318372D01*
X144982829Y-79243196D01*
X144894938Y-79166871D01*
X144805868Y-79089523D01*
X144715765Y-79011278D01*
X144624774Y-78932261D01*
X144533039Y-78852598D01*
X144440704Y-78772415D01*
X144381538Y-78721035D01*
X144290392Y-78641889D01*
X144200285Y-78563653D01*
X144111340Y-78486437D01*
X144023684Y-78410347D01*
X143937440Y-78335493D01*
X143852735Y-78261983D01*
X143769692Y-78189926D01*
X143688438Y-78119428D01*
X143609096Y-78050600D01*
X143531792Y-77983548D01*
X143456651Y-77918382D01*
X143383798Y-77855210D01*
X143313357Y-77794140D01*
X143245455Y-77735279D01*
X143180215Y-77678738D01*
X143117764Y-77624623D01*
X143058224Y-77573043D01*
X143001723Y-77524107D01*
X142948385Y-77477923D01*
X142898334Y-77434598D01*
X142851696Y-77394242D01*
X142808596Y-77356963D01*
X142769158Y-77322869D01*
X142733508Y-77292068D01*
X142701771Y-77264668D01*
X142674071Y-77240778D01*
X142650534Y-77220507D01*
X142631285Y-77203961D01*
X142616448Y-77191251D01*
X142606149Y-77182484D01*
X142600512Y-77177768D01*
X142600363Y-77177647D01*
X142563400Y-77147824D01*
X142524295Y-77116429D01*
X142483468Y-77083793D01*
X142441342Y-77050245D01*
X142398339Y-77016116D01*
X142354880Y-76981736D01*
X142311389Y-76947435D01*
X142268285Y-76913545D01*
X142225993Y-76880394D01*
X142184933Y-76848314D01*
X142145527Y-76817634D01*
X142108198Y-76788686D01*
X142073367Y-76761799D01*
X142041457Y-76737303D01*
X142012889Y-76715530D01*
X141988085Y-76696809D01*
X141967467Y-76681470D01*
X141954172Y-76671786D01*
X141937899Y-76660228D01*
X141925719Y-76651974D01*
X141916662Y-76646489D01*
X141909761Y-76643242D01*
X141904049Y-76641698D01*
X141898861Y-76641325D01*
X141886066Y-76642636D01*
X141868504Y-76646605D01*
X141846021Y-76653281D01*
X141818468Y-76662717D01*
X141785693Y-76674962D01*
X141747543Y-76690068D01*
X141719359Y-76701625D01*
X141667435Y-76722306D01*
X141616553Y-76740734D01*
X141565241Y-76757357D01*
X141512029Y-76772622D01*
X141455448Y-76786977D01*
X141394027Y-76800871D01*
X141392275Y-76801246D01*
X141353953Y-76809110D01*
X141319894Y-76815268D01*
X141288309Y-76819939D01*
X141257411Y-76823340D01*
X141225410Y-76825690D01*
X141190520Y-76827208D01*
X141176375Y-76827606D01*
X141110610Y-76828129D01*
X141042972Y-76826585D01*
X140974783Y-76823081D01*
X140907366Y-76817724D01*
X140842043Y-76810620D01*
X140780134Y-76801876D01*
X140722963Y-76791600D01*
X140717588Y-76790499D01*
X140616314Y-76767177D01*
X140520018Y-76740257D01*
X140428752Y-76709762D01*
X140342567Y-76675713D01*
X140261515Y-76638132D01*
X140185648Y-76597042D01*
X140115018Y-76552464D01*
X140058775Y-76511565D01*
X140025338Y-76483337D01*
X139991635Y-76450661D01*
X139958539Y-76414634D01*
X139926922Y-76376354D01*
X139897654Y-76336920D01*
X139871609Y-76297428D01*
X139849657Y-76258978D01*
X139836436Y-76231555D01*
X139816711Y-76181864D01*
X139801617Y-76132690D01*
X139790850Y-76082595D01*
X139784108Y-76030143D01*
X139781089Y-75973897D01*
X139780984Y-75968225D01*
X139780736Y-75947778D01*
X139780643Y-75928835D01*
X139780701Y-75912561D01*
X139780904Y-75900120D01*
X139781247Y-75892676D01*
X139781315Y-75892025D01*
X139789586Y-75835423D01*
X139800177Y-75783486D01*
X139813480Y-75734827D01*
X139829886Y-75688060D01*
X139849788Y-75641799D01*
X139855387Y-75630087D01*
X139870583Y-75600906D01*
X139888202Y-75570415D01*
X139907100Y-75540426D01*
X139926137Y-75512749D01*
X139944170Y-75489195D01*
X139944495Y-75488800D01*
X139982117Y-75445744D01*
X140025178Y-75401199D01*
X140073088Y-75355671D01*
X140125257Y-75309663D01*
X140181095Y-75263679D01*
X140240012Y-75218224D01*
X140301418Y-75173802D01*
X140358020Y-75135324D01*
X140410123Y-75101900D01*
X140459466Y-75072152D01*
X140505833Y-75046176D01*
X140549007Y-75024072D01*
X140588772Y-75005937D01*
X140624911Y-74991869D01*
X140657209Y-74981966D01*
X140685450Y-74976326D01*
X140709415Y-74975048D01*
X140711507Y-74975160D01*
X140734059Y-74979307D01*
X140752936Y-74988194D01*
X140767809Y-75001163D01*
X140778348Y-75017556D01*
X140784225Y-75036718D01*
X140785111Y-75057989D01*
X140780676Y-75080713D01*
X140773415Y-75098814D01*
X140765614Y-75113315D01*
X140756322Y-75127884D01*
X140744962Y-75143222D01*
X140730956Y-75160028D01*
X140713727Y-75179003D01*
X140692698Y-75200847D01*
X140673101Y-75220512D01*
X140657200Y-75236349D01*
X140642630Y-75250972D01*
X140630052Y-75263708D01*
X140620130Y-75273883D01*
X140613527Y-75280822D01*
X140611060Y-75283614D01*
X140611092Y-75285394D01*
X140615580Y-75284331D01*
X140623577Y-75280915D01*
X140634135Y-75275639D01*
X140646305Y-75268992D01*
X140659141Y-75261466D01*
X140671695Y-75253552D01*
X140679990Y-75247914D01*
X140701581Y-75231234D01*
X140724343Y-75211125D01*
X140747117Y-75188810D01*
X140768749Y-75165514D01*
X140788080Y-75142459D01*
X140803956Y-75120870D01*
X140811571Y-75108729D01*
X140819217Y-75093070D01*
X140827708Y-75071229D01*
X140837014Y-75043312D01*
X140847103Y-75009427D01*
X140857943Y-74969679D01*
X140869503Y-74924176D01*
X140881751Y-74873023D01*
X140884370Y-74861737D01*
X140902370Y-74785793D01*
X140920008Y-74715619D01*
X140937464Y-74650661D01*
X140954920Y-74590362D01*
X140972556Y-74534165D01*
X140990555Y-74481517D01*
X141009097Y-74431859D01*
X141028364Y-74384637D01*
X141048536Y-74339295D01*
X141067552Y-74299762D01*
X141092706Y-74251588D01*
X141117698Y-74208766D01*
X141143285Y-74170369D01*
X141170228Y-74135465D01*
X141199283Y-74103125D01*
X141231210Y-74072420D01*
X141266766Y-74042419D01*
X141295438Y-74020439D01*
X141331026Y-73995121D01*
X141363912Y-73974120D01*
X141395430Y-73956852D01*
X141426915Y-73942732D01*
X141459701Y-73931175D01*
X141495121Y-73921596D01*
X141534511Y-73913410D01*
X141543107Y-73911866D01*
X141554432Y-73910110D01*
X141566626Y-73908746D01*
X141580636Y-73907730D01*
X141597407Y-73907022D01*
X141617884Y-73906579D01*
X141643013Y-73906357D01*
X141666913Y-73906311D01*
X141695340Y-73906374D01*
X141718539Y-73906593D01*
X141737631Y-73907025D01*
X141753738Y-73907730D01*
X141767980Y-73908765D01*
X141781480Y-73910188D01*
X141795357Y-73912059D01*
X141804686Y-73913476D01*
X141861722Y-73924107D01*
X141916075Y-73937642D01*
X141967037Y-73953833D01*
X142013901Y-73972431D01*
X142055960Y-73993191D01*
X142087600Y-74012483D01*
X142099460Y-74020885D01*
X142110902Y-74029896D01*
X142122369Y-74040012D01*
X142134299Y-74051731D01*
X142147135Y-74065550D01*
X142161316Y-74081967D01*
X142177285Y-74101477D01*
X142195480Y-74124579D01*
X142216344Y-74151771D01*
X142240316Y-74183548D01*
X142246243Y-74191460D01*
X142275148Y-74230468D01*
X142300378Y-74265424D01*
X142322395Y-74297097D01*
X142341659Y-74326255D01*
X142358631Y-74353667D01*
X142373770Y-74380100D01*
X142387538Y-74406323D01*
X142400395Y-74433103D01*
X142412801Y-74461209D01*
X142423486Y-74487087D01*
X142438274Y-74525069D01*
X142452410Y-74563979D01*
X142466018Y-74604291D01*
X142479220Y-74646483D01*
X142492138Y-74691032D01*
X142504895Y-74738413D01*
X142517614Y-74789104D01*
X142530417Y-74843582D01*
X142543427Y-74902322D01*
X142556766Y-74965802D01*
X142570556Y-75034498D01*
X142584921Y-75108887D01*
X142589216Y-75131612D01*
X142602959Y-75204281D01*
X142615741Y-75271090D01*
X142627555Y-75331993D01*
X142638391Y-75386947D01*
X142648240Y-75435908D01*
X142657093Y-75478833D01*
X142664942Y-75515677D01*
X142671777Y-75546397D01*
X142677589Y-75570949D01*
X142682370Y-75589289D01*
X142683138Y-75591987D01*
X142686448Y-75603134D01*
X142689797Y-75613390D01*
X142693476Y-75623111D01*
X142697777Y-75632652D01*
X142702993Y-75642367D01*
X142709413Y-75652611D01*
X142717332Y-75663739D01*
X142727040Y-75676105D01*
X142738830Y-75690066D01*
X142752993Y-75705974D01*
X142769820Y-75724186D01*
X142789605Y-75745056D01*
X142812639Y-75768939D01*
X142839213Y-75796189D01*
X142869620Y-75827162D01*
X142904151Y-75862212D01*
X142911724Y-75869891D01*
X142962541Y-75921296D01*
X143015752Y-75974897D01*
X143071013Y-76030359D01*
X143127981Y-76087346D01*
X143186314Y-76145519D01*
X143245667Y-76204544D01*
X143305700Y-76264082D01*
X143366068Y-76323799D01*
X143426428Y-76383356D01*
X143486439Y-76442417D01*
X143545757Y-76500647D01*
X143604038Y-76557707D01*
X143660941Y-76613262D01*
X143716122Y-76666975D01*
X143769238Y-76718509D01*
X143819947Y-76767527D01*
X143867905Y-76813694D01*
X143912770Y-76856672D01*
X143954199Y-76896124D01*
X143991848Y-76931715D01*
X144024447Y-76962243D01*
X144048450Y-76984672D01*
X144075682Y-77010254D01*
X144104807Y-77037725D01*
X144134491Y-77065824D01*
X144163399Y-77093288D01*
X144190197Y-77118854D01*
X144203738Y-77131828D01*
X144220840Y-77148209D01*
X144241983Y-77168405D01*
X144266594Y-77191870D01*
X144294098Y-77218058D01*
X144323919Y-77246423D01*
X144355486Y-77276418D01*
X144388221Y-77307499D01*
X144421553Y-77339119D01*
X144454905Y-77370731D01*
X144487704Y-77401791D01*
X144494250Y-77407987D01*
X144528235Y-77440151D01*
X144563907Y-77473919D01*
X144600561Y-77508625D01*
X144637495Y-77543602D01*
X144674004Y-77578183D01*
X144709384Y-77611701D01*
X144742931Y-77643489D01*
X144773941Y-77672881D01*
X144801711Y-77699209D01*
X144824450Y-77720777D01*
X144863481Y-77757791D01*
X144900300Y-77792664D01*
X144935196Y-77825658D01*
X144968458Y-77857035D01*
X145000372Y-77887056D01*
X145031229Y-77915981D01*
X145061317Y-77944073D01*
X145090923Y-77971592D01*
X145120336Y-77998800D01*
X145149845Y-78025958D01*
X145179739Y-78053328D01*
X145210304Y-78081170D01*
X145241831Y-78109746D01*
X145274607Y-78139317D01*
X145308921Y-78170145D01*
X145345060Y-78202490D01*
X145383315Y-78236615D01*
X145423972Y-78272779D01*
X145467321Y-78311246D01*
X145513649Y-78352275D01*
X145563246Y-78396129D01*
X145616399Y-78443068D01*
X145673397Y-78493354D01*
X145734529Y-78547247D01*
X145800082Y-78605010D01*
X145815050Y-78618197D01*
X145878254Y-78673875D01*
X145943660Y-78731494D01*
X146011015Y-78790832D01*
X146080071Y-78851668D01*
X146150575Y-78913780D01*
X146222277Y-78976948D01*
X146294926Y-79040951D01*
X146368271Y-79105567D01*
X146442060Y-79170576D01*
X146516044Y-79235756D01*
X146589971Y-79300887D01*
X146663589Y-79365746D01*
X146736649Y-79430114D01*
X146808900Y-79493768D01*
X146880089Y-79556489D01*
X146949968Y-79618055D01*
X147018283Y-79678244D01*
X147084785Y-79736836D01*
X147149223Y-79793609D01*
X147211345Y-79848343D01*
X147270901Y-79900817D01*
X147327640Y-79950809D01*
X147381310Y-79998098D01*
X147431661Y-80042463D01*
X147478443Y-80083683D01*
X147521403Y-80121538D01*
X147560292Y-80155805D01*
X147594857Y-80186264D01*
X147618115Y-80206759D01*
X147645926Y-80231180D01*
X147672874Y-80254673D01*
X147698489Y-80276840D01*
X147722300Y-80297281D01*
X147743837Y-80315597D01*
X147762631Y-80331388D01*
X147778210Y-80344256D01*
X147790106Y-80353801D01*
X147797847Y-80359624D01*
X147799090Y-80360459D01*
X147838142Y-80384637D01*
X147877944Y-80407618D01*
X147917755Y-80429057D01*
X147956834Y-80448609D01*
X147994438Y-80465930D01*
X148029828Y-80480674D01*
X148062260Y-80492498D01*
X148090994Y-80501056D01*
X148110575Y-80505279D01*
X148120389Y-80506483D01*
X148135117Y-80507721D01*
X148153326Y-80508897D01*
X148173583Y-80509920D01*
X148193434Y-80510665D01*
X148219322Y-80511219D01*
X148243757Y-80511154D01*
X148267378Y-80510357D01*
X148290826Y-80508715D01*
X148314737Y-80506115D01*
X148339753Y-80502443D01*
X148366511Y-80497587D01*
X148395651Y-80491433D01*
X148427812Y-80483868D01*
X148463633Y-80474779D01*
X148503753Y-80464053D01*
X148548811Y-80451576D01*
X148585238Y-80441284D01*
X148661481Y-80420068D01*
X148732598Y-80401282D01*
X148799277Y-80384799D01*
X148862206Y-80370491D01*
X148922072Y-80358232D01*
X148979563Y-80347895D01*
X149035365Y-80339353D01*
X149090167Y-80332480D01*
X149144656Y-80327148D01*
X149199519Y-80323231D01*
X149234948Y-80321417D01*
X149323729Y-80319915D01*
X149408538Y-80323366D01*
X149489378Y-80331770D01*
X149566252Y-80345127D01*
X149639163Y-80363437D01*
X149708114Y-80386703D01*
X149772688Y-80414718D01*
X149833813Y-80447925D01*
X149892057Y-80486528D01*
X149946993Y-80530082D01*
X149998189Y-80578146D01*
X150045217Y-80630276D01*
X150087646Y-80686029D01*
X150125048Y-80744963D01*
X150156992Y-80806633D01*
X150160736Y-80814862D01*
X150173281Y-80843869D01*
X150184427Y-80871983D01*
X150194433Y-80900133D01*
X150203558Y-80929248D01*
X150212060Y-80960256D01*
X150220198Y-80994086D01*
X150228231Y-81031666D01*
X150236417Y-81073925D01*
X150242970Y-81110137D01*
X150258111Y-81195862D01*
X150258287Y-81275237D01*
X150258088Y-81310460D01*
D10*
G04 #@! TO.C,P2*
X168440100Y-119532400D02*
X168440100Y-61112400D01*
X163360100Y-119532400D02*
X163360100Y-63652400D01*
X168440100Y-119532400D02*
X163360100Y-119532400D01*
X168440100Y-61112400D02*
X165900100Y-61112400D01*
X164630100Y-60832400D02*
X163080100Y-60832400D01*
X165900100Y-61112400D02*
X165900100Y-63652400D01*
X165900100Y-63652400D02*
X163360100Y-63652400D01*
X163080100Y-60832400D02*
X163080100Y-62382400D01*
G04 #@! TO.C,U3*
X147673700Y-98690800D02*
X147673700Y-97340800D01*
X142548700Y-98690800D02*
X142548700Y-103340800D01*
X147798700Y-98690800D02*
X147798700Y-103340800D01*
X142548700Y-98690800D02*
X142773700Y-98690800D01*
X142548700Y-103340800D02*
X142773700Y-103340800D01*
X147798700Y-103340800D02*
X147573700Y-103340800D01*
X147798700Y-98690800D02*
X147673700Y-98690800D01*
D13*
G04 #@! TO.C,R21*
X128550600Y-69879822D02*
X128550600Y-70396978D01*
X129970600Y-69879822D02*
X129970600Y-70396978D01*
G04 #@! TO.C,R20*
X133907600Y-66568978D02*
X133907600Y-66051822D01*
X132487600Y-66568978D02*
X132487600Y-66051822D01*
G04 #@! TO.C,R17*
X124319100Y-63076478D02*
X124319100Y-62559322D01*
X122899100Y-63076478D02*
X122899100Y-62559322D01*
G04 #@! TO.C,R15*
X143097778Y-94438400D02*
X142580622Y-94438400D01*
X143097778Y-95858400D02*
X142580622Y-95858400D01*
G04 #@! TO.C,R14*
X124867600Y-62559322D02*
X124867600Y-63076478D01*
X126287600Y-62559322D02*
X126287600Y-63076478D01*
G04 #@! TO.C,R12*
X139530322Y-100709800D02*
X140047478Y-100709800D01*
X139530322Y-99289800D02*
X140047478Y-99289800D01*
G04 #@! TO.C,R9*
X140049778Y-101321800D02*
X139532622Y-101321800D01*
X140049778Y-102741800D02*
X139532622Y-102741800D01*
G04 #@! TO.C,R8*
X139528022Y-98677800D02*
X140045178Y-98677800D01*
X139528022Y-97257800D02*
X140045178Y-97257800D01*
G04 #@! TO.C,R7*
X130519100Y-66051822D02*
X130519100Y-66568978D01*
X131939100Y-66051822D02*
X131939100Y-66568978D01*
G04 #@! TO.C,R6*
X129970600Y-74206978D02*
X129970600Y-73689822D01*
X128550600Y-74206978D02*
X128550600Y-73689822D01*
G04 #@! TO.C,R5*
X130125078Y-91758700D02*
X129607922Y-91758700D01*
X130125078Y-93178700D02*
X129607922Y-93178700D01*
G04 #@! TO.C,R4*
X130116078Y-93727200D02*
X129598922Y-93727200D01*
X130116078Y-95147200D02*
X129598922Y-95147200D01*
G04 #@! TO.C,R3*
X130107078Y-89790200D02*
X129589922Y-89790200D01*
X130107078Y-91210200D02*
X129589922Y-91210200D01*
G04 #@! TO.C,R2*
X130107078Y-85853200D02*
X129589922Y-85853200D01*
X130107078Y-87273200D02*
X129589922Y-87273200D01*
G04 #@! TO.C,R1*
X130107078Y-83884700D02*
X129589922Y-83884700D01*
X130107078Y-85304700D02*
X129589922Y-85304700D01*
G04 #@! TO.C,C17*
X133907600Y-70378978D02*
X133907600Y-69861822D01*
X132487600Y-70378978D02*
X132487600Y-69861822D01*
G04 #@! TO.C,C16*
X122899100Y-66387322D02*
X122899100Y-66904478D01*
X124319100Y-66387322D02*
X124319100Y-66904478D01*
G04 #@! TO.C,C15*
X131939100Y-70396978D02*
X131939100Y-69879822D01*
X130519100Y-70396978D02*
X130519100Y-69879822D01*
G04 #@! TO.C,C14*
X130519100Y-73689822D02*
X130519100Y-74206978D01*
X131939100Y-73689822D02*
X131939100Y-74206978D01*
G04 #@! TO.C,C12*
X132487600Y-73689822D02*
X132487600Y-74206978D01*
X133907600Y-73689822D02*
X133907600Y-74206978D01*
G04 #@! TO.C,C10*
X123486522Y-77062400D02*
X124003678Y-77062400D01*
X123486522Y-75642400D02*
X124003678Y-75642400D01*
G04 #@! TO.C,C9*
X159726700Y-70207878D02*
X159726700Y-69690722D01*
X158306700Y-70207878D02*
X158306700Y-69690722D01*
G04 #@! TO.C,C8*
X158306700Y-73200522D02*
X158306700Y-73717678D01*
X159726700Y-73200522D02*
X159726700Y-73717678D01*
G04 #@! TO.C,C7*
X159328378Y-106020800D02*
X158811222Y-106020800D01*
X159328378Y-107440800D02*
X158811222Y-107440800D01*
G04 #@! TO.C,C6*
X159326978Y-94438400D02*
X158809822Y-94438400D01*
X159326978Y-95858400D02*
X158809822Y-95858400D01*
G04 #@! TO.C,C5*
X146526778Y-106020800D02*
X146009622Y-106020800D01*
X146526778Y-107440800D02*
X146009622Y-107440800D01*
G04 #@! TO.C,C4*
X146577578Y-94438400D02*
X146060422Y-94438400D01*
X146577578Y-95858400D02*
X146060422Y-95858400D01*
G04 #@! TO.C,C3*
X130107078Y-87821700D02*
X129589922Y-87821700D01*
X130107078Y-89241700D02*
X129589922Y-89241700D01*
D10*
G04 #@! TO.C,U5*
X157617800Y-69413700D02*
X157617800Y-68063700D01*
X152492800Y-69413700D02*
X152492800Y-74063700D01*
X157742800Y-69413700D02*
X157742800Y-74063700D01*
X152492800Y-69413700D02*
X152717800Y-69413700D01*
X152492800Y-74063700D02*
X152717800Y-74063700D01*
X157742800Y-74063700D02*
X157517800Y-74063700D01*
X157742800Y-69413700D02*
X157617800Y-69413700D01*
D13*
G04 #@! TO.C,U1*
X158878300Y-83317200D02*
X157418300Y-83317200D01*
X158878300Y-80157200D02*
X156718300Y-80157200D01*
X158878300Y-80157200D02*
X158878300Y-81087200D01*
X158878300Y-83317200D02*
X158878300Y-82387200D01*
G04 #@! TO.C,R24*
X155843978Y-106020800D02*
X155326822Y-106020800D01*
X155843978Y-107440800D02*
X155326822Y-107440800D01*
G04 #@! TO.C,R23*
X143021578Y-106020800D02*
X142504422Y-106020800D01*
X143021578Y-107440800D02*
X142504422Y-107440800D01*
G04 #@! TO.C,R22*
X152282022Y-100709800D02*
X152799178Y-100709800D01*
X152282022Y-99289800D02*
X152799178Y-99289800D01*
G04 #@! TO.C,R19*
X139532622Y-104773800D02*
X140049778Y-104773800D01*
X139532622Y-103353800D02*
X140049778Y-103353800D01*
G04 #@! TO.C,R18*
X155842578Y-94438400D02*
X155325422Y-94438400D01*
X155842578Y-95858400D02*
X155325422Y-95858400D01*
G04 #@! TO.C,R16*
X152282022Y-104799200D02*
X152799178Y-104799200D01*
X152282022Y-103379200D02*
X152799178Y-103379200D01*
G04 #@! TO.C,R13*
X152282022Y-98677800D02*
X152799178Y-98677800D01*
X152282022Y-97257800D02*
X152799178Y-97257800D01*
G04 #@! TO.C,R11*
X152799178Y-101347200D02*
X152282022Y-101347200D01*
X152799178Y-102767200D02*
X152282022Y-102767200D01*
G04 #@! TO.C,R10*
X158358578Y-78182400D02*
X157841422Y-78182400D01*
X158358578Y-79602400D02*
X157841422Y-79602400D01*
G04 #@! TO.C,C2*
X156018300Y-81970378D02*
X156018300Y-81453222D01*
X154598300Y-81970378D02*
X154598300Y-81453222D01*
G04 #@! TO.C,C1*
X157846022Y-85292000D02*
X158363178Y-85292000D01*
X157846022Y-83872000D02*
X158363178Y-83872000D01*
G04 #@! TO.C,U6*
X125790600Y-73597900D02*
X125790600Y-70597900D01*
X122570600Y-72097900D02*
X122570600Y-70597900D01*
D10*
G04 #@! TO.C,U4*
X160452100Y-98696600D02*
X160452100Y-97346600D01*
X155327100Y-98696600D02*
X155327100Y-103346600D01*
X160577100Y-98696600D02*
X160577100Y-103346600D01*
X155327100Y-98696600D02*
X155552100Y-98696600D01*
X155327100Y-103346600D02*
X155552100Y-103346600D01*
X160577100Y-103346600D02*
X160352100Y-103346600D01*
X160577100Y-98696600D02*
X160452100Y-98696600D01*
G04 #@! TO.C,U2*
X126721600Y-85254200D02*
X126721600Y-83904200D01*
X123571600Y-85254200D02*
X123571600Y-89904200D01*
X126821600Y-85254200D02*
X126821600Y-89904200D01*
X123571600Y-85254200D02*
X123771600Y-85254200D01*
X123571600Y-89904200D02*
X123771600Y-89904200D01*
X126821600Y-89904200D02*
X126621600Y-89904200D01*
X126821600Y-85254200D02*
X126721600Y-85254200D01*
D13*
G04 #@! TO.C,SW1*
X133892600Y-77692900D02*
X123612600Y-77692900D01*
X133892600Y-83012900D02*
X133892600Y-77692900D01*
X123612600Y-83012900D02*
X133892600Y-83012900D01*
X123612600Y-77692900D02*
X123612600Y-83012900D01*
X131402600Y-77752900D02*
X129752600Y-77752900D01*
X131402600Y-82952900D02*
X131402600Y-77752900D01*
X126102600Y-82952900D02*
X131402600Y-82952900D01*
X126102600Y-77752900D02*
X126102600Y-82952900D01*
X127752600Y-77752900D02*
X126102600Y-77752900D01*
X129752600Y-77752900D02*
G75*
G02X127752600Y-77752900I-1000000J0D01*
G01*
G04 #@! TO.C,L1*
X132322100Y-45922400D02*
X132322100Y-48922400D01*
X119722100Y-45922400D02*
X132322100Y-45922400D01*
X119722100Y-48922400D02*
X119722100Y-45922400D01*
X119722100Y-58522400D02*
X119722100Y-55522400D01*
X132322100Y-58522400D02*
X119722100Y-58522400D01*
X132322100Y-55522400D02*
X132322100Y-58522400D01*
G04 #@! TO.C,DRIVE B*
X152270100Y-116162400D02*
X151970100Y-116762400D01*
X151670100Y-116162400D02*
X152270100Y-116162400D01*
X151970100Y-116762400D02*
X151670100Y-116162400D01*
X157220100Y-119862400D02*
X156720100Y-119862400D01*
X157220100Y-125362400D02*
X157220100Y-119862400D01*
X156720100Y-125362400D02*
X157220100Y-125362400D01*
X156720100Y-119862400D02*
X156720100Y-125362400D01*
X154720100Y-119862400D02*
X154220100Y-119862400D01*
X154720100Y-125362400D02*
X154720100Y-119862400D01*
X154220100Y-125362400D02*
X154720100Y-125362400D01*
X154220100Y-119862400D02*
X154220100Y-125362400D01*
X152220100Y-119862400D02*
X151720100Y-119862400D01*
X152220100Y-125362400D02*
X152220100Y-119862400D01*
X151720100Y-125362400D02*
X152220100Y-125362400D01*
X151720100Y-119862400D02*
X151720100Y-125362400D01*
X158110100Y-114252400D02*
X158110100Y-118752400D01*
X159530100Y-114252400D02*
X158110100Y-114252400D01*
X159530100Y-125972400D02*
X159530100Y-114252400D01*
X154470100Y-125972400D02*
X159530100Y-125972400D01*
X150830100Y-114252400D02*
X150830100Y-118752400D01*
X149410100Y-114252400D02*
X150830100Y-114252400D01*
X149410100Y-125972400D02*
X149410100Y-114252400D01*
X154470100Y-125972400D02*
X149410100Y-125972400D01*
G04 #@! TO.C,DRIVE A*
X139530100Y-116162400D02*
X139230100Y-116762400D01*
X138930100Y-116162400D02*
X139530100Y-116162400D01*
X139230100Y-116762400D02*
X138930100Y-116162400D01*
X144480100Y-119862400D02*
X143980100Y-119862400D01*
X144480100Y-125362400D02*
X144480100Y-119862400D01*
X143980100Y-125362400D02*
X144480100Y-125362400D01*
X143980100Y-119862400D02*
X143980100Y-125362400D01*
X141980100Y-119862400D02*
X141480100Y-119862400D01*
X141980100Y-125362400D02*
X141980100Y-119862400D01*
X141480100Y-125362400D02*
X141980100Y-125362400D01*
X141480100Y-119862400D02*
X141480100Y-125362400D01*
X139480100Y-119862400D02*
X138980100Y-119862400D01*
X139480100Y-125362400D02*
X139480100Y-119862400D01*
X138980100Y-125362400D02*
X139480100Y-125362400D01*
X138980100Y-119862400D02*
X138980100Y-125362400D01*
X145370100Y-114252400D02*
X145370100Y-118752400D01*
X146790100Y-114252400D02*
X145370100Y-114252400D01*
X146790100Y-125972400D02*
X146790100Y-114252400D01*
X141730100Y-125972400D02*
X146790100Y-125972400D01*
X138090100Y-114252400D02*
X138090100Y-118752400D01*
X136670100Y-114252400D02*
X138090100Y-114252400D01*
X136670100Y-125972400D02*
X136670100Y-114252400D01*
X141730100Y-125972400D02*
X136670100Y-125972400D01*
G04 #@! TO.C,INPUT*
X126870100Y-116162400D02*
X126570100Y-116762400D01*
X126270100Y-116162400D02*
X126870100Y-116162400D01*
X126570100Y-116762400D02*
X126270100Y-116162400D01*
X131820100Y-119862400D02*
X131320100Y-119862400D01*
X131820100Y-125362400D02*
X131820100Y-119862400D01*
X131320100Y-125362400D02*
X131820100Y-125362400D01*
X131320100Y-119862400D02*
X131320100Y-125362400D01*
X129320100Y-119862400D02*
X128820100Y-119862400D01*
X129320100Y-125362400D02*
X129320100Y-119862400D01*
X128820100Y-125362400D02*
X129320100Y-125362400D01*
X128820100Y-119862400D02*
X128820100Y-125362400D01*
X126820100Y-119862400D02*
X126320100Y-119862400D01*
X126820100Y-125362400D02*
X126820100Y-119862400D01*
X126320100Y-125362400D02*
X126820100Y-125362400D01*
X126320100Y-119862400D02*
X126320100Y-125362400D01*
X132710100Y-114252400D02*
X132710100Y-118752400D01*
X134130100Y-114252400D02*
X132710100Y-114252400D01*
X134130100Y-125972400D02*
X134130100Y-114252400D01*
X129070100Y-125972400D02*
X134130100Y-125972400D01*
X125430100Y-114252400D02*
X125430100Y-118752400D01*
X124010100Y-114252400D02*
X125430100Y-114252400D01*
X124010100Y-125972400D02*
X124010100Y-114252400D01*
X129070100Y-125972400D02*
X124010100Y-125972400D01*
D10*
G04 #@! TO.C,P1*
X120180100Y-119532400D02*
X120180100Y-61112400D01*
X115100100Y-119532400D02*
X115100100Y-63652400D01*
X120180100Y-119532400D02*
X115100100Y-119532400D01*
X120180100Y-61112400D02*
X117640100Y-61112400D01*
X116370100Y-60832400D02*
X114820100Y-60832400D01*
X117640100Y-61112400D02*
X117640100Y-63652400D01*
X117640100Y-63652400D02*
X115100100Y-63652400D01*
X114820100Y-60832400D02*
X114820100Y-62382400D01*
G04 #@! TD*
G04 #@! TO.C,P2*
X163917404Y-60497980D02*
X163917404Y-59497980D01*
X164298357Y-59497980D01*
X164393595Y-59545600D01*
X164441214Y-59593219D01*
X164488833Y-59688457D01*
X164488833Y-59831314D01*
X164441214Y-59926552D01*
X164393595Y-59974171D01*
X164298357Y-60021790D01*
X163917404Y-60021790D01*
X164869785Y-59593219D02*
X164917404Y-59545600D01*
X165012642Y-59497980D01*
X165250738Y-59497980D01*
X165345976Y-59545600D01*
X165393595Y-59593219D01*
X165441214Y-59688457D01*
X165441214Y-59783695D01*
X165393595Y-59926552D01*
X164822166Y-60497980D01*
X165441214Y-60497980D01*
G04 #@! TO.C,U3*
X142571719Y-103606695D02*
X141762195Y-103606695D01*
X141666957Y-103654314D01*
X141619338Y-103701933D01*
X141571719Y-103797171D01*
X141571719Y-103987647D01*
X141619338Y-104082885D01*
X141666957Y-104130504D01*
X141762195Y-104178123D01*
X142571719Y-104178123D01*
X142571719Y-104559076D02*
X142571719Y-105178123D01*
X142190766Y-104844790D01*
X142190766Y-104987647D01*
X142143147Y-105082885D01*
X142095528Y-105130504D01*
X142000290Y-105178123D01*
X141762195Y-105178123D01*
X141666957Y-105130504D01*
X141619338Y-105082885D01*
X141571719Y-104987647D01*
X141571719Y-104701933D01*
X141619338Y-104606695D01*
X141666957Y-104559076D01*
G04 #@! TO.C,R21*
X126001519Y-69486542D02*
X126477709Y-69153209D01*
X126001519Y-68915114D02*
X127001519Y-68915114D01*
X127001519Y-69296066D01*
X126953900Y-69391304D01*
X126906280Y-69438923D01*
X126811042Y-69486542D01*
X126668185Y-69486542D01*
X126572947Y-69438923D01*
X126525328Y-69391304D01*
X126477709Y-69296066D01*
X126477709Y-68915114D01*
X126906280Y-69867495D02*
X126953900Y-69915114D01*
X127001519Y-70010352D01*
X127001519Y-70248447D01*
X126953900Y-70343685D01*
X126906280Y-70391304D01*
X126811042Y-70438923D01*
X126715804Y-70438923D01*
X126572947Y-70391304D01*
X126001519Y-69819876D01*
X126001519Y-70438923D01*
X126001519Y-71391304D02*
X126001519Y-70819876D01*
X126001519Y-71105590D02*
X127001519Y-71105590D01*
X126858661Y-71010352D01*
X126763423Y-70915114D01*
X126715804Y-70819876D01*
G04 #@! TO.C,R20*
X132757919Y-62679342D02*
X133234109Y-62346009D01*
X132757919Y-62107914D02*
X133757919Y-62107914D01*
X133757919Y-62488866D01*
X133710300Y-62584104D01*
X133662680Y-62631723D01*
X133567442Y-62679342D01*
X133424585Y-62679342D01*
X133329347Y-62631723D01*
X133281728Y-62584104D01*
X133234109Y-62488866D01*
X133234109Y-62107914D01*
X133662680Y-63060295D02*
X133710300Y-63107914D01*
X133757919Y-63203152D01*
X133757919Y-63441247D01*
X133710300Y-63536485D01*
X133662680Y-63584104D01*
X133567442Y-63631723D01*
X133472204Y-63631723D01*
X133329347Y-63584104D01*
X132757919Y-63012676D01*
X132757919Y-63631723D01*
X133757919Y-64250771D02*
X133757919Y-64346009D01*
X133710300Y-64441247D01*
X133662680Y-64488866D01*
X133567442Y-64536485D01*
X133376966Y-64584104D01*
X133138871Y-64584104D01*
X132948395Y-64536485D01*
X132853157Y-64488866D01*
X132805538Y-64441247D01*
X132757919Y-64346009D01*
X132757919Y-64250771D01*
X132805538Y-64155533D01*
X132853157Y-64107914D01*
X132948395Y-64060295D01*
X133138871Y-64012676D01*
X133376966Y-64012676D01*
X133567442Y-64060295D01*
X133662680Y-64107914D01*
X133710300Y-64155533D01*
X133757919Y-64250771D01*
G04 #@! TO.C,R17*
X121226319Y-62171342D02*
X121702509Y-61838009D01*
X121226319Y-61599914D02*
X122226319Y-61599914D01*
X122226319Y-61980866D01*
X122178700Y-62076104D01*
X122131080Y-62123723D01*
X122035842Y-62171342D01*
X121892985Y-62171342D01*
X121797747Y-62123723D01*
X121750128Y-62076104D01*
X121702509Y-61980866D01*
X121702509Y-61599914D01*
X121226319Y-63123723D02*
X121226319Y-62552295D01*
X121226319Y-62838009D02*
X122226319Y-62838009D01*
X122083461Y-62742771D01*
X121988223Y-62647533D01*
X121940604Y-62552295D01*
X122226319Y-63457057D02*
X122226319Y-64123723D01*
X121226319Y-63695152D01*
G04 #@! TO.C,R15*
X142194042Y-93314780D02*
X141860709Y-92838590D01*
X141622614Y-93314780D02*
X141622614Y-92314780D01*
X142003566Y-92314780D01*
X142098804Y-92362400D01*
X142146423Y-92410019D01*
X142194042Y-92505257D01*
X142194042Y-92648114D01*
X142146423Y-92743352D01*
X142098804Y-92790971D01*
X142003566Y-92838590D01*
X141622614Y-92838590D01*
X143146423Y-93314780D02*
X142574995Y-93314780D01*
X142860709Y-93314780D02*
X142860709Y-92314780D01*
X142765471Y-92457638D01*
X142670233Y-92552876D01*
X142574995Y-92600495D01*
X144051185Y-92314780D02*
X143574995Y-92314780D01*
X143527376Y-92790971D01*
X143574995Y-92743352D01*
X143670233Y-92695733D01*
X143908328Y-92695733D01*
X144003566Y-92743352D01*
X144051185Y-92790971D01*
X144098804Y-92886209D01*
X144098804Y-93124304D01*
X144051185Y-93219542D01*
X144003566Y-93267161D01*
X143908328Y-93314780D01*
X143670233Y-93314780D01*
X143574995Y-93267161D01*
X143527376Y-93219542D01*
G04 #@! TO.C,R14*
X127525519Y-62171342D02*
X128001709Y-61838009D01*
X127525519Y-61599914D02*
X128525519Y-61599914D01*
X128525519Y-61980866D01*
X128477900Y-62076104D01*
X128430280Y-62123723D01*
X128335042Y-62171342D01*
X128192185Y-62171342D01*
X128096947Y-62123723D01*
X128049328Y-62076104D01*
X128001709Y-61980866D01*
X128001709Y-61599914D01*
X127525519Y-63123723D02*
X127525519Y-62552295D01*
X127525519Y-62838009D02*
X128525519Y-62838009D01*
X128382661Y-62742771D01*
X128287423Y-62647533D01*
X128239804Y-62552295D01*
X128192185Y-63980866D02*
X127525519Y-63980866D01*
X128573138Y-63742771D02*
X127858852Y-63504676D01*
X127858852Y-64123723D01*
G04 #@! TO.C,R12*
X136148842Y-100452180D02*
X135815509Y-99975990D01*
X135577414Y-100452180D02*
X135577414Y-99452180D01*
X135958366Y-99452180D01*
X136053604Y-99499800D01*
X136101223Y-99547419D01*
X136148842Y-99642657D01*
X136148842Y-99785514D01*
X136101223Y-99880752D01*
X136053604Y-99928371D01*
X135958366Y-99975990D01*
X135577414Y-99975990D01*
X137101223Y-100452180D02*
X136529795Y-100452180D01*
X136815509Y-100452180D02*
X136815509Y-99452180D01*
X136720271Y-99595038D01*
X136625033Y-99690276D01*
X136529795Y-99737895D01*
X137482176Y-99547419D02*
X137529795Y-99499800D01*
X137625033Y-99452180D01*
X137863128Y-99452180D01*
X137958366Y-99499800D01*
X138005985Y-99547419D01*
X138053604Y-99642657D01*
X138053604Y-99737895D01*
X138005985Y-99880752D01*
X137434557Y-100452180D01*
X138053604Y-100452180D01*
G04 #@! TO.C,R9*
X137107633Y-102484180D02*
X136774300Y-102007990D01*
X136536204Y-102484180D02*
X136536204Y-101484180D01*
X136917157Y-101484180D01*
X137012395Y-101531800D01*
X137060014Y-101579419D01*
X137107633Y-101674657D01*
X137107633Y-101817514D01*
X137060014Y-101912752D01*
X137012395Y-101960371D01*
X136917157Y-102007990D01*
X136536204Y-102007990D01*
X137583823Y-102484180D02*
X137774300Y-102484180D01*
X137869538Y-102436561D01*
X137917157Y-102388942D01*
X138012395Y-102246085D01*
X138060014Y-102055609D01*
X138060014Y-101674657D01*
X138012395Y-101579419D01*
X137964776Y-101531800D01*
X137869538Y-101484180D01*
X137679061Y-101484180D01*
X137583823Y-101531800D01*
X137536204Y-101579419D01*
X137488585Y-101674657D01*
X137488585Y-101912752D01*
X137536204Y-102007990D01*
X137583823Y-102055609D01*
X137679061Y-102103228D01*
X137869538Y-102103228D01*
X137964776Y-102055609D01*
X138012395Y-102007990D01*
X138060014Y-101912752D01*
G04 #@! TO.C,R8*
X137107633Y-98420180D02*
X136774300Y-97943990D01*
X136536204Y-98420180D02*
X136536204Y-97420180D01*
X136917157Y-97420180D01*
X137012395Y-97467800D01*
X137060014Y-97515419D01*
X137107633Y-97610657D01*
X137107633Y-97753514D01*
X137060014Y-97848752D01*
X137012395Y-97896371D01*
X136917157Y-97943990D01*
X136536204Y-97943990D01*
X137679061Y-97848752D02*
X137583823Y-97801133D01*
X137536204Y-97753514D01*
X137488585Y-97658276D01*
X137488585Y-97610657D01*
X137536204Y-97515419D01*
X137583823Y-97467800D01*
X137679061Y-97420180D01*
X137869538Y-97420180D01*
X137964776Y-97467800D01*
X138012395Y-97515419D01*
X138060014Y-97610657D01*
X138060014Y-97658276D01*
X138012395Y-97753514D01*
X137964776Y-97801133D01*
X137869538Y-97848752D01*
X137679061Y-97848752D01*
X137583823Y-97896371D01*
X137536204Y-97943990D01*
X137488585Y-98039228D01*
X137488585Y-98229704D01*
X137536204Y-98324942D01*
X137583823Y-98372561D01*
X137679061Y-98420180D01*
X137869538Y-98420180D01*
X137964776Y-98372561D01*
X138012395Y-98324942D01*
X138060014Y-98229704D01*
X138060014Y-98039228D01*
X138012395Y-97943990D01*
X137964776Y-97896371D01*
X137869538Y-97848752D01*
G04 #@! TO.C,R7*
X130776719Y-63587333D02*
X131252909Y-63254000D01*
X130776719Y-63015904D02*
X131776719Y-63015904D01*
X131776719Y-63396857D01*
X131729100Y-63492095D01*
X131681480Y-63539714D01*
X131586242Y-63587333D01*
X131443385Y-63587333D01*
X131348147Y-63539714D01*
X131300528Y-63492095D01*
X131252909Y-63396857D01*
X131252909Y-63015904D01*
X131776719Y-63920666D02*
X131776719Y-64587333D01*
X130776719Y-64158761D01*
G04 #@! TO.C,R6*
X127246119Y-73772733D02*
X127722309Y-73439400D01*
X127246119Y-73201304D02*
X128246119Y-73201304D01*
X128246119Y-73582257D01*
X128198500Y-73677495D01*
X128150880Y-73725114D01*
X128055642Y-73772733D01*
X127912785Y-73772733D01*
X127817547Y-73725114D01*
X127769928Y-73677495D01*
X127722309Y-73582257D01*
X127722309Y-73201304D01*
X128246119Y-74629876D02*
X128246119Y-74439400D01*
X128198500Y-74344161D01*
X128150880Y-74296542D01*
X128008023Y-74201304D01*
X127817547Y-74153685D01*
X127436595Y-74153685D01*
X127341357Y-74201304D01*
X127293738Y-74248923D01*
X127246119Y-74344161D01*
X127246119Y-74534638D01*
X127293738Y-74629876D01*
X127341357Y-74677495D01*
X127436595Y-74725114D01*
X127674690Y-74725114D01*
X127769928Y-74677495D01*
X127817547Y-74629876D01*
X127865166Y-74534638D01*
X127865166Y-74344161D01*
X127817547Y-74248923D01*
X127769928Y-74201304D01*
X127674690Y-74153685D01*
G04 #@! TO.C,R5*
X132154633Y-92908380D02*
X131821300Y-92432190D01*
X131583204Y-92908380D02*
X131583204Y-91908380D01*
X131964157Y-91908380D01*
X132059395Y-91956000D01*
X132107014Y-92003619D01*
X132154633Y-92098857D01*
X132154633Y-92241714D01*
X132107014Y-92336952D01*
X132059395Y-92384571D01*
X131964157Y-92432190D01*
X131583204Y-92432190D01*
X133059395Y-91908380D02*
X132583204Y-91908380D01*
X132535585Y-92384571D01*
X132583204Y-92336952D01*
X132678442Y-92289333D01*
X132916538Y-92289333D01*
X133011776Y-92336952D01*
X133059395Y-92384571D01*
X133107014Y-92479809D01*
X133107014Y-92717904D01*
X133059395Y-92813142D01*
X133011776Y-92860761D01*
X132916538Y-92908380D01*
X132678442Y-92908380D01*
X132583204Y-92860761D01*
X132535585Y-92813142D01*
G04 #@! TO.C,R4*
X132129233Y-94889580D02*
X131795900Y-94413390D01*
X131557804Y-94889580D02*
X131557804Y-93889580D01*
X131938757Y-93889580D01*
X132033995Y-93937200D01*
X132081614Y-93984819D01*
X132129233Y-94080057D01*
X132129233Y-94222914D01*
X132081614Y-94318152D01*
X132033995Y-94365771D01*
X131938757Y-94413390D01*
X131557804Y-94413390D01*
X132986376Y-94222914D02*
X132986376Y-94889580D01*
X132748280Y-93841961D02*
X132510185Y-94556247D01*
X133129233Y-94556247D01*
G04 #@! TO.C,R3*
X132129233Y-90952580D02*
X131795900Y-90476390D01*
X131557804Y-90952580D02*
X131557804Y-89952580D01*
X131938757Y-89952580D01*
X132033995Y-90000200D01*
X132081614Y-90047819D01*
X132129233Y-90143057D01*
X132129233Y-90285914D01*
X132081614Y-90381152D01*
X132033995Y-90428771D01*
X131938757Y-90476390D01*
X131557804Y-90476390D01*
X132462566Y-89952580D02*
X133081614Y-89952580D01*
X132748280Y-90333533D01*
X132891138Y-90333533D01*
X132986376Y-90381152D01*
X133033995Y-90428771D01*
X133081614Y-90524009D01*
X133081614Y-90762104D01*
X133033995Y-90857342D01*
X132986376Y-90904961D01*
X132891138Y-90952580D01*
X132605423Y-90952580D01*
X132510185Y-90904961D01*
X132462566Y-90857342D01*
G04 #@! TO.C,R2*
X132129233Y-87015580D02*
X131795900Y-86539390D01*
X131557804Y-87015580D02*
X131557804Y-86015580D01*
X131938757Y-86015580D01*
X132033995Y-86063200D01*
X132081614Y-86110819D01*
X132129233Y-86206057D01*
X132129233Y-86348914D01*
X132081614Y-86444152D01*
X132033995Y-86491771D01*
X131938757Y-86539390D01*
X131557804Y-86539390D01*
X132510185Y-86110819D02*
X132557804Y-86063200D01*
X132653042Y-86015580D01*
X132891138Y-86015580D01*
X132986376Y-86063200D01*
X133033995Y-86110819D01*
X133081614Y-86206057D01*
X133081614Y-86301295D01*
X133033995Y-86444152D01*
X132462566Y-87015580D01*
X133081614Y-87015580D01*
G04 #@! TO.C,R1*
X132129233Y-85034380D02*
X131795900Y-84558190D01*
X131557804Y-85034380D02*
X131557804Y-84034380D01*
X131938757Y-84034380D01*
X132033995Y-84082000D01*
X132081614Y-84129619D01*
X132129233Y-84224857D01*
X132129233Y-84367714D01*
X132081614Y-84462952D01*
X132033995Y-84510571D01*
X131938757Y-84558190D01*
X131557804Y-84558190D01*
X133081614Y-85034380D02*
X132510185Y-85034380D01*
X132795900Y-85034380D02*
X132795900Y-84034380D01*
X132700661Y-84177238D01*
X132605423Y-84272476D01*
X132510185Y-84320095D01*
G04 #@! TO.C,C17*
X134681957Y-69461142D02*
X134634338Y-69413523D01*
X134586719Y-69270666D01*
X134586719Y-69175428D01*
X134634338Y-69032571D01*
X134729576Y-68937333D01*
X134824814Y-68889714D01*
X135015290Y-68842095D01*
X135158147Y-68842095D01*
X135348623Y-68889714D01*
X135443861Y-68937333D01*
X135539100Y-69032571D01*
X135586719Y-69175428D01*
X135586719Y-69270666D01*
X135539100Y-69413523D01*
X135491480Y-69461142D01*
X134586719Y-70413523D02*
X134586719Y-69842095D01*
X134586719Y-70127809D02*
X135586719Y-70127809D01*
X135443861Y-70032571D01*
X135348623Y-69937333D01*
X135301004Y-69842095D01*
X135586719Y-70746857D02*
X135586719Y-71413523D01*
X134586719Y-70984952D01*
G04 #@! TO.C,C16*
X121296157Y-66006742D02*
X121248538Y-65959123D01*
X121200919Y-65816266D01*
X121200919Y-65721028D01*
X121248538Y-65578171D01*
X121343776Y-65482933D01*
X121439014Y-65435314D01*
X121629490Y-65387695D01*
X121772347Y-65387695D01*
X121962823Y-65435314D01*
X122058061Y-65482933D01*
X122153300Y-65578171D01*
X122200919Y-65721028D01*
X122200919Y-65816266D01*
X122153300Y-65959123D01*
X122105680Y-66006742D01*
X121200919Y-66959123D02*
X121200919Y-66387695D01*
X121200919Y-66673409D02*
X122200919Y-66673409D01*
X122058061Y-66578171D01*
X121962823Y-66482933D01*
X121915204Y-66387695D01*
X122200919Y-67816266D02*
X122200919Y-67625790D01*
X122153300Y-67530552D01*
X122105680Y-67482933D01*
X121962823Y-67387695D01*
X121772347Y-67340076D01*
X121391395Y-67340076D01*
X121296157Y-67387695D01*
X121248538Y-67435314D01*
X121200919Y-67530552D01*
X121200919Y-67721028D01*
X121248538Y-67816266D01*
X121296157Y-67863885D01*
X121391395Y-67911504D01*
X121629490Y-67911504D01*
X121724728Y-67863885D01*
X121772347Y-67816266D01*
X121819966Y-67721028D01*
X121819966Y-67530552D01*
X121772347Y-67435314D01*
X121724728Y-67387695D01*
X121629490Y-67340076D01*
G04 #@! TO.C,C15*
X127366757Y-69486542D02*
X127319138Y-69438923D01*
X127271519Y-69296066D01*
X127271519Y-69200828D01*
X127319138Y-69057971D01*
X127414376Y-68962733D01*
X127509614Y-68915114D01*
X127700090Y-68867495D01*
X127842947Y-68867495D01*
X128033423Y-68915114D01*
X128128661Y-68962733D01*
X128223900Y-69057971D01*
X128271519Y-69200828D01*
X128271519Y-69296066D01*
X128223900Y-69438923D01*
X128176280Y-69486542D01*
X127271519Y-70438923D02*
X127271519Y-69867495D01*
X127271519Y-70153209D02*
X128271519Y-70153209D01*
X128128661Y-70057971D01*
X128033423Y-69962733D01*
X127985804Y-69867495D01*
X128271519Y-71343685D02*
X128271519Y-70867495D01*
X127795328Y-70819876D01*
X127842947Y-70867495D01*
X127890566Y-70962733D01*
X127890566Y-71200828D01*
X127842947Y-71296066D01*
X127795328Y-71343685D01*
X127700090Y-71391304D01*
X127461995Y-71391304D01*
X127366757Y-71343685D01*
X127319138Y-71296066D01*
X127271519Y-71200828D01*
X127271519Y-70962733D01*
X127319138Y-70867495D01*
X127366757Y-70819876D01*
G04 #@! TO.C,C14*
X134631157Y-73296542D02*
X134583538Y-73248923D01*
X134535919Y-73106066D01*
X134535919Y-73010828D01*
X134583538Y-72867971D01*
X134678776Y-72772733D01*
X134774014Y-72725114D01*
X134964490Y-72677495D01*
X135107347Y-72677495D01*
X135297823Y-72725114D01*
X135393061Y-72772733D01*
X135488300Y-72867971D01*
X135535919Y-73010828D01*
X135535919Y-73106066D01*
X135488300Y-73248923D01*
X135440680Y-73296542D01*
X134535919Y-74248923D02*
X134535919Y-73677495D01*
X134535919Y-73963209D02*
X135535919Y-73963209D01*
X135393061Y-73867971D01*
X135297823Y-73772733D01*
X135250204Y-73677495D01*
X135202585Y-75106066D02*
X134535919Y-75106066D01*
X135583538Y-74867971D02*
X134869252Y-74629876D01*
X134869252Y-75248923D01*
G04 #@! TO.C,C12*
X135926557Y-73296542D02*
X135878938Y-73248923D01*
X135831319Y-73106066D01*
X135831319Y-73010828D01*
X135878938Y-72867971D01*
X135974176Y-72772733D01*
X136069414Y-72725114D01*
X136259890Y-72677495D01*
X136402747Y-72677495D01*
X136593223Y-72725114D01*
X136688461Y-72772733D01*
X136783700Y-72867971D01*
X136831319Y-73010828D01*
X136831319Y-73106066D01*
X136783700Y-73248923D01*
X136736080Y-73296542D01*
X135831319Y-74248923D02*
X135831319Y-73677495D01*
X135831319Y-73963209D02*
X136831319Y-73963209D01*
X136688461Y-73867971D01*
X136593223Y-73772733D01*
X136545604Y-73677495D01*
X136736080Y-74629876D02*
X136783700Y-74677495D01*
X136831319Y-74772733D01*
X136831319Y-75010828D01*
X136783700Y-75106066D01*
X136736080Y-75153685D01*
X136640842Y-75201304D01*
X136545604Y-75201304D01*
X136402747Y-75153685D01*
X135831319Y-74582257D01*
X135831319Y-75201304D01*
G04 #@! TO.C,C10*
X126039642Y-76709542D02*
X125992023Y-76757161D01*
X125849166Y-76804780D01*
X125753928Y-76804780D01*
X125611071Y-76757161D01*
X125515833Y-76661923D01*
X125468214Y-76566685D01*
X125420595Y-76376209D01*
X125420595Y-76233352D01*
X125468214Y-76042876D01*
X125515833Y-75947638D01*
X125611071Y-75852400D01*
X125753928Y-75804780D01*
X125849166Y-75804780D01*
X125992023Y-75852400D01*
X126039642Y-75900019D01*
X126992023Y-76804780D02*
X126420595Y-76804780D01*
X126706309Y-76804780D02*
X126706309Y-75804780D01*
X126611071Y-75947638D01*
X126515833Y-76042876D01*
X126420595Y-76090495D01*
X127611071Y-75804780D02*
X127706309Y-75804780D01*
X127801547Y-75852400D01*
X127849166Y-75900019D01*
X127896785Y-75995257D01*
X127944404Y-76185733D01*
X127944404Y-76423828D01*
X127896785Y-76614304D01*
X127849166Y-76709542D01*
X127801547Y-76757161D01*
X127706309Y-76804780D01*
X127611071Y-76804780D01*
X127515833Y-76757161D01*
X127468214Y-76709542D01*
X127420595Y-76614304D01*
X127372976Y-76423828D01*
X127372976Y-76185733D01*
X127420595Y-75995257D01*
X127468214Y-75900019D01*
X127515833Y-75852400D01*
X127611071Y-75804780D01*
G04 #@! TO.C,C9*
X160539157Y-69784933D02*
X160491538Y-69737314D01*
X160443919Y-69594457D01*
X160443919Y-69499219D01*
X160491538Y-69356361D01*
X160586776Y-69261123D01*
X160682014Y-69213504D01*
X160872490Y-69165885D01*
X161015347Y-69165885D01*
X161205823Y-69213504D01*
X161301061Y-69261123D01*
X161396300Y-69356361D01*
X161443919Y-69499219D01*
X161443919Y-69594457D01*
X161396300Y-69737314D01*
X161348680Y-69784933D01*
X160443919Y-70261123D02*
X160443919Y-70451600D01*
X160491538Y-70546838D01*
X160539157Y-70594457D01*
X160682014Y-70689695D01*
X160872490Y-70737314D01*
X161253442Y-70737314D01*
X161348680Y-70689695D01*
X161396300Y-70642076D01*
X161443919Y-70546838D01*
X161443919Y-70356361D01*
X161396300Y-70261123D01*
X161348680Y-70213504D01*
X161253442Y-70165885D01*
X161015347Y-70165885D01*
X160920109Y-70213504D01*
X160872490Y-70261123D01*
X160824871Y-70356361D01*
X160824871Y-70546838D01*
X160872490Y-70642076D01*
X160920109Y-70689695D01*
X161015347Y-70737314D01*
G04 #@! TO.C,C8*
X160539157Y-73290133D02*
X160491538Y-73242514D01*
X160443919Y-73099657D01*
X160443919Y-73004419D01*
X160491538Y-72861561D01*
X160586776Y-72766323D01*
X160682014Y-72718704D01*
X160872490Y-72671085D01*
X161015347Y-72671085D01*
X161205823Y-72718704D01*
X161301061Y-72766323D01*
X161396300Y-72861561D01*
X161443919Y-73004419D01*
X161443919Y-73099657D01*
X161396300Y-73242514D01*
X161348680Y-73290133D01*
X161015347Y-73861561D02*
X161062966Y-73766323D01*
X161110585Y-73718704D01*
X161205823Y-73671085D01*
X161253442Y-73671085D01*
X161348680Y-73718704D01*
X161396300Y-73766323D01*
X161443919Y-73861561D01*
X161443919Y-74052038D01*
X161396300Y-74147276D01*
X161348680Y-74194895D01*
X161253442Y-74242514D01*
X161205823Y-74242514D01*
X161110585Y-74194895D01*
X161062966Y-74147276D01*
X161015347Y-74052038D01*
X161015347Y-73861561D01*
X160967728Y-73766323D01*
X160920109Y-73718704D01*
X160824871Y-73671085D01*
X160634395Y-73671085D01*
X160539157Y-73718704D01*
X160491538Y-73766323D01*
X160443919Y-73861561D01*
X160443919Y-74052038D01*
X160491538Y-74147276D01*
X160539157Y-74194895D01*
X160634395Y-74242514D01*
X160824871Y-74242514D01*
X160920109Y-74194895D01*
X160967728Y-74147276D01*
X161015347Y-74052038D01*
G04 #@! TO.C,C7*
X158903133Y-108737942D02*
X158855514Y-108785561D01*
X158712657Y-108833180D01*
X158617419Y-108833180D01*
X158474561Y-108785561D01*
X158379323Y-108690323D01*
X158331704Y-108595085D01*
X158284085Y-108404609D01*
X158284085Y-108261752D01*
X158331704Y-108071276D01*
X158379323Y-107976038D01*
X158474561Y-107880800D01*
X158617419Y-107833180D01*
X158712657Y-107833180D01*
X158855514Y-107880800D01*
X158903133Y-107928419D01*
X159236466Y-107833180D02*
X159903133Y-107833180D01*
X159474561Y-108833180D01*
G04 #@! TO.C,C6*
X158900833Y-92533742D02*
X158853214Y-92581361D01*
X158710357Y-92628980D01*
X158615119Y-92628980D01*
X158472261Y-92581361D01*
X158377023Y-92486123D01*
X158329404Y-92390885D01*
X158281785Y-92200409D01*
X158281785Y-92057552D01*
X158329404Y-91867076D01*
X158377023Y-91771838D01*
X158472261Y-91676600D01*
X158615119Y-91628980D01*
X158710357Y-91628980D01*
X158853214Y-91676600D01*
X158900833Y-91724219D01*
X159757976Y-91628980D02*
X159567500Y-91628980D01*
X159472261Y-91676600D01*
X159424642Y-91724219D01*
X159329404Y-91867076D01*
X159281785Y-92057552D01*
X159281785Y-92438504D01*
X159329404Y-92533742D01*
X159377023Y-92581361D01*
X159472261Y-92628980D01*
X159662738Y-92628980D01*
X159757976Y-92581361D01*
X159805595Y-92533742D01*
X159853214Y-92438504D01*
X159853214Y-92200409D01*
X159805595Y-92105171D01*
X159757976Y-92057552D01*
X159662738Y-92009933D01*
X159472261Y-92009933D01*
X159377023Y-92057552D01*
X159329404Y-92105171D01*
X159281785Y-92200409D01*
G04 #@! TO.C,C5*
X146101533Y-108737942D02*
X146053914Y-108785561D01*
X145911057Y-108833180D01*
X145815819Y-108833180D01*
X145672961Y-108785561D01*
X145577723Y-108690323D01*
X145530104Y-108595085D01*
X145482485Y-108404609D01*
X145482485Y-108261752D01*
X145530104Y-108071276D01*
X145577723Y-107976038D01*
X145672961Y-107880800D01*
X145815819Y-107833180D01*
X145911057Y-107833180D01*
X146053914Y-107880800D01*
X146101533Y-107928419D01*
X147006295Y-107833180D02*
X146530104Y-107833180D01*
X146482485Y-108309371D01*
X146530104Y-108261752D01*
X146625342Y-108214133D01*
X146863438Y-108214133D01*
X146958676Y-108261752D01*
X147006295Y-108309371D01*
X147053914Y-108404609D01*
X147053914Y-108642704D01*
X147006295Y-108737942D01*
X146958676Y-108785561D01*
X146863438Y-108833180D01*
X146625342Y-108833180D01*
X146530104Y-108785561D01*
X146482485Y-108737942D01*
G04 #@! TO.C,C4*
X146150033Y-93244942D02*
X146102414Y-93292561D01*
X145959557Y-93340180D01*
X145864319Y-93340180D01*
X145721461Y-93292561D01*
X145626223Y-93197323D01*
X145578604Y-93102085D01*
X145530985Y-92911609D01*
X145530985Y-92768752D01*
X145578604Y-92578276D01*
X145626223Y-92483038D01*
X145721461Y-92387800D01*
X145864319Y-92340180D01*
X145959557Y-92340180D01*
X146102414Y-92387800D01*
X146150033Y-92435419D01*
X147007176Y-92673514D02*
X147007176Y-93340180D01*
X146769080Y-92292561D02*
X146530985Y-93006847D01*
X147150033Y-93006847D01*
G04 #@! TO.C,C3*
X132180033Y-88876142D02*
X132132414Y-88923761D01*
X131989557Y-88971380D01*
X131894319Y-88971380D01*
X131751461Y-88923761D01*
X131656223Y-88828523D01*
X131608604Y-88733285D01*
X131560985Y-88542809D01*
X131560985Y-88399952D01*
X131608604Y-88209476D01*
X131656223Y-88114238D01*
X131751461Y-88019000D01*
X131894319Y-87971380D01*
X131989557Y-87971380D01*
X132132414Y-88019000D01*
X132180033Y-88066619D01*
X132513366Y-87971380D02*
X133132414Y-87971380D01*
X132799080Y-88352333D01*
X132941938Y-88352333D01*
X133037176Y-88399952D01*
X133084795Y-88447571D01*
X133132414Y-88542809D01*
X133132414Y-88780904D01*
X133084795Y-88876142D01*
X133037176Y-88923761D01*
X132941938Y-88971380D01*
X132656223Y-88971380D01*
X132560985Y-88923761D01*
X132513366Y-88876142D01*
G04 #@! TO.C,U5*
X151842719Y-70967695D02*
X151033195Y-70967695D01*
X150937957Y-71015314D01*
X150890338Y-71062933D01*
X150842719Y-71158171D01*
X150842719Y-71348647D01*
X150890338Y-71443885D01*
X150937957Y-71491504D01*
X151033195Y-71539123D01*
X151842719Y-71539123D01*
X151842719Y-72491504D02*
X151842719Y-72015314D01*
X151366528Y-71967695D01*
X151414147Y-72015314D01*
X151461766Y-72110552D01*
X151461766Y-72348647D01*
X151414147Y-72443885D01*
X151366528Y-72491504D01*
X151271290Y-72539123D01*
X151033195Y-72539123D01*
X150937957Y-72491504D01*
X150890338Y-72443885D01*
X150842719Y-72348647D01*
X150842719Y-72110552D01*
X150890338Y-72015314D01*
X150937957Y-71967695D01*
G04 #@! TO.C,U1*
X161291519Y-80975295D02*
X160481995Y-80975295D01*
X160386757Y-81022914D01*
X160339138Y-81070533D01*
X160291519Y-81165771D01*
X160291519Y-81356247D01*
X160339138Y-81451485D01*
X160386757Y-81499104D01*
X160481995Y-81546723D01*
X161291519Y-81546723D01*
X160291519Y-82546723D02*
X160291519Y-81975295D01*
X160291519Y-82261009D02*
X161291519Y-82261009D01*
X161148661Y-82165771D01*
X161053423Y-82070533D01*
X161005804Y-81975295D01*
G04 #@! TO.C,R24*
X154942542Y-108833180D02*
X154609209Y-108356990D01*
X154371114Y-108833180D02*
X154371114Y-107833180D01*
X154752066Y-107833180D01*
X154847304Y-107880800D01*
X154894923Y-107928419D01*
X154942542Y-108023657D01*
X154942542Y-108166514D01*
X154894923Y-108261752D01*
X154847304Y-108309371D01*
X154752066Y-108356990D01*
X154371114Y-108356990D01*
X155323495Y-107928419D02*
X155371114Y-107880800D01*
X155466352Y-107833180D01*
X155704447Y-107833180D01*
X155799685Y-107880800D01*
X155847304Y-107928419D01*
X155894923Y-108023657D01*
X155894923Y-108118895D01*
X155847304Y-108261752D01*
X155275876Y-108833180D01*
X155894923Y-108833180D01*
X156752066Y-108166514D02*
X156752066Y-108833180D01*
X156513971Y-107785561D02*
X156275876Y-108499847D01*
X156894923Y-108499847D01*
G04 #@! TO.C,R23*
X142120142Y-108833180D02*
X141786809Y-108356990D01*
X141548714Y-108833180D02*
X141548714Y-107833180D01*
X141929666Y-107833180D01*
X142024904Y-107880800D01*
X142072523Y-107928419D01*
X142120142Y-108023657D01*
X142120142Y-108166514D01*
X142072523Y-108261752D01*
X142024904Y-108309371D01*
X141929666Y-108356990D01*
X141548714Y-108356990D01*
X142501095Y-107928419D02*
X142548714Y-107880800D01*
X142643952Y-107833180D01*
X142882047Y-107833180D01*
X142977285Y-107880800D01*
X143024904Y-107928419D01*
X143072523Y-108023657D01*
X143072523Y-108118895D01*
X143024904Y-108261752D01*
X142453476Y-108833180D01*
X143072523Y-108833180D01*
X143405857Y-107833180D02*
X144024904Y-107833180D01*
X143691571Y-108214133D01*
X143834428Y-108214133D01*
X143929666Y-108261752D01*
X143977285Y-108309371D01*
X144024904Y-108404609D01*
X144024904Y-108642704D01*
X143977285Y-108737942D01*
X143929666Y-108785561D01*
X143834428Y-108833180D01*
X143548714Y-108833180D01*
X143453476Y-108785561D01*
X143405857Y-108737942D01*
G04 #@! TO.C,R22*
X148899642Y-100452180D02*
X148566309Y-99975990D01*
X148328214Y-100452180D02*
X148328214Y-99452180D01*
X148709166Y-99452180D01*
X148804404Y-99499800D01*
X148852023Y-99547419D01*
X148899642Y-99642657D01*
X148899642Y-99785514D01*
X148852023Y-99880752D01*
X148804404Y-99928371D01*
X148709166Y-99975990D01*
X148328214Y-99975990D01*
X149280595Y-99547419D02*
X149328214Y-99499800D01*
X149423452Y-99452180D01*
X149661547Y-99452180D01*
X149756785Y-99499800D01*
X149804404Y-99547419D01*
X149852023Y-99642657D01*
X149852023Y-99737895D01*
X149804404Y-99880752D01*
X149232976Y-100452180D01*
X149852023Y-100452180D01*
X150232976Y-99547419D02*
X150280595Y-99499800D01*
X150375833Y-99452180D01*
X150613928Y-99452180D01*
X150709166Y-99499800D01*
X150756785Y-99547419D01*
X150804404Y-99642657D01*
X150804404Y-99737895D01*
X150756785Y-99880752D01*
X150185357Y-100452180D01*
X150804404Y-100452180D01*
G04 #@! TO.C,R19*
X136174242Y-104516180D02*
X135840909Y-104039990D01*
X135602814Y-104516180D02*
X135602814Y-103516180D01*
X135983766Y-103516180D01*
X136079004Y-103563800D01*
X136126623Y-103611419D01*
X136174242Y-103706657D01*
X136174242Y-103849514D01*
X136126623Y-103944752D01*
X136079004Y-103992371D01*
X135983766Y-104039990D01*
X135602814Y-104039990D01*
X137126623Y-104516180D02*
X136555195Y-104516180D01*
X136840909Y-104516180D02*
X136840909Y-103516180D01*
X136745671Y-103659038D01*
X136650433Y-103754276D01*
X136555195Y-103801895D01*
X137602814Y-104516180D02*
X137793290Y-104516180D01*
X137888528Y-104468561D01*
X137936147Y-104420942D01*
X138031385Y-104278085D01*
X138079004Y-104087609D01*
X138079004Y-103706657D01*
X138031385Y-103611419D01*
X137983766Y-103563800D01*
X137888528Y-103516180D01*
X137698052Y-103516180D01*
X137602814Y-103563800D01*
X137555195Y-103611419D01*
X137507576Y-103706657D01*
X137507576Y-103944752D01*
X137555195Y-104039990D01*
X137602814Y-104087609D01*
X137698052Y-104135228D01*
X137888528Y-104135228D01*
X137983766Y-104087609D01*
X138031385Y-104039990D01*
X138079004Y-103944752D01*
G04 #@! TO.C,R18*
X154944842Y-92654380D02*
X154611509Y-92178190D01*
X154373414Y-92654380D02*
X154373414Y-91654380D01*
X154754366Y-91654380D01*
X154849604Y-91702000D01*
X154897223Y-91749619D01*
X154944842Y-91844857D01*
X154944842Y-91987714D01*
X154897223Y-92082952D01*
X154849604Y-92130571D01*
X154754366Y-92178190D01*
X154373414Y-92178190D01*
X155897223Y-92654380D02*
X155325795Y-92654380D01*
X155611509Y-92654380D02*
X155611509Y-91654380D01*
X155516271Y-91797238D01*
X155421033Y-91892476D01*
X155325795Y-91940095D01*
X156468652Y-92082952D02*
X156373414Y-92035333D01*
X156325795Y-91987714D01*
X156278176Y-91892476D01*
X156278176Y-91844857D01*
X156325795Y-91749619D01*
X156373414Y-91702000D01*
X156468652Y-91654380D01*
X156659128Y-91654380D01*
X156754366Y-91702000D01*
X156801985Y-91749619D01*
X156849604Y-91844857D01*
X156849604Y-91892476D01*
X156801985Y-91987714D01*
X156754366Y-92035333D01*
X156659128Y-92082952D01*
X156468652Y-92082952D01*
X156373414Y-92130571D01*
X156325795Y-92178190D01*
X156278176Y-92273428D01*
X156278176Y-92463904D01*
X156325795Y-92559142D01*
X156373414Y-92606761D01*
X156468652Y-92654380D01*
X156659128Y-92654380D01*
X156754366Y-92606761D01*
X156801985Y-92559142D01*
X156849604Y-92463904D01*
X156849604Y-92273428D01*
X156801985Y-92178190D01*
X156754366Y-92130571D01*
X156659128Y-92082952D01*
G04 #@! TO.C,R16*
X148925042Y-104541580D02*
X148591709Y-104065390D01*
X148353614Y-104541580D02*
X148353614Y-103541580D01*
X148734566Y-103541580D01*
X148829804Y-103589200D01*
X148877423Y-103636819D01*
X148925042Y-103732057D01*
X148925042Y-103874914D01*
X148877423Y-103970152D01*
X148829804Y-104017771D01*
X148734566Y-104065390D01*
X148353614Y-104065390D01*
X149877423Y-104541580D02*
X149305995Y-104541580D01*
X149591709Y-104541580D02*
X149591709Y-103541580D01*
X149496471Y-103684438D01*
X149401233Y-103779676D01*
X149305995Y-103827295D01*
X150734566Y-103541580D02*
X150544090Y-103541580D01*
X150448852Y-103589200D01*
X150401233Y-103636819D01*
X150305995Y-103779676D01*
X150258376Y-103970152D01*
X150258376Y-104351104D01*
X150305995Y-104446342D01*
X150353614Y-104493961D01*
X150448852Y-104541580D01*
X150639328Y-104541580D01*
X150734566Y-104493961D01*
X150782185Y-104446342D01*
X150829804Y-104351104D01*
X150829804Y-104113009D01*
X150782185Y-104017771D01*
X150734566Y-103970152D01*
X150639328Y-103922533D01*
X150448852Y-103922533D01*
X150353614Y-103970152D01*
X150305995Y-104017771D01*
X150258376Y-104113009D01*
G04 #@! TO.C,R13*
X148899642Y-98420180D02*
X148566309Y-97943990D01*
X148328214Y-98420180D02*
X148328214Y-97420180D01*
X148709166Y-97420180D01*
X148804404Y-97467800D01*
X148852023Y-97515419D01*
X148899642Y-97610657D01*
X148899642Y-97753514D01*
X148852023Y-97848752D01*
X148804404Y-97896371D01*
X148709166Y-97943990D01*
X148328214Y-97943990D01*
X149852023Y-98420180D02*
X149280595Y-98420180D01*
X149566309Y-98420180D02*
X149566309Y-97420180D01*
X149471071Y-97563038D01*
X149375833Y-97658276D01*
X149280595Y-97705895D01*
X150185357Y-97420180D02*
X150804404Y-97420180D01*
X150471071Y-97801133D01*
X150613928Y-97801133D01*
X150709166Y-97848752D01*
X150756785Y-97896371D01*
X150804404Y-97991609D01*
X150804404Y-98229704D01*
X150756785Y-98324942D01*
X150709166Y-98372561D01*
X150613928Y-98420180D01*
X150328214Y-98420180D01*
X150232976Y-98372561D01*
X150185357Y-98324942D01*
G04 #@! TO.C,R11*
X148899642Y-102509580D02*
X148566309Y-102033390D01*
X148328214Y-102509580D02*
X148328214Y-101509580D01*
X148709166Y-101509580D01*
X148804404Y-101557200D01*
X148852023Y-101604819D01*
X148899642Y-101700057D01*
X148899642Y-101842914D01*
X148852023Y-101938152D01*
X148804404Y-101985771D01*
X148709166Y-102033390D01*
X148328214Y-102033390D01*
X149852023Y-102509580D02*
X149280595Y-102509580D01*
X149566309Y-102509580D02*
X149566309Y-101509580D01*
X149471071Y-101652438D01*
X149375833Y-101747676D01*
X149280595Y-101795295D01*
X150804404Y-102509580D02*
X150232976Y-102509580D01*
X150518690Y-102509580D02*
X150518690Y-101509580D01*
X150423452Y-101652438D01*
X150328214Y-101747676D01*
X150232976Y-101795295D01*
G04 #@! TO.C,R10*
X160863042Y-79344780D02*
X160529709Y-78868590D01*
X160291614Y-79344780D02*
X160291614Y-78344780D01*
X160672566Y-78344780D01*
X160767804Y-78392400D01*
X160815423Y-78440019D01*
X160863042Y-78535257D01*
X160863042Y-78678114D01*
X160815423Y-78773352D01*
X160767804Y-78820971D01*
X160672566Y-78868590D01*
X160291614Y-78868590D01*
X161815423Y-79344780D02*
X161243995Y-79344780D01*
X161529709Y-79344780D02*
X161529709Y-78344780D01*
X161434471Y-78487638D01*
X161339233Y-78582876D01*
X161243995Y-78630495D01*
X162434471Y-78344780D02*
X162529709Y-78344780D01*
X162624947Y-78392400D01*
X162672566Y-78440019D01*
X162720185Y-78535257D01*
X162767804Y-78725733D01*
X162767804Y-78963828D01*
X162720185Y-79154304D01*
X162672566Y-79249542D01*
X162624947Y-79297161D01*
X162529709Y-79344780D01*
X162434471Y-79344780D01*
X162339233Y-79297161D01*
X162291614Y-79249542D01*
X162243995Y-79154304D01*
X162196376Y-78963828D01*
X162196376Y-78725733D01*
X162243995Y-78535257D01*
X162291614Y-78440019D01*
X162339233Y-78392400D01*
X162434471Y-78344780D01*
G04 #@! TO.C,C2*
X155116233Y-84329542D02*
X155068614Y-84377161D01*
X154925757Y-84424780D01*
X154830519Y-84424780D01*
X154687661Y-84377161D01*
X154592423Y-84281923D01*
X154544804Y-84186685D01*
X154497185Y-83996209D01*
X154497185Y-83853352D01*
X154544804Y-83662876D01*
X154592423Y-83567638D01*
X154687661Y-83472400D01*
X154830519Y-83424780D01*
X154925757Y-83424780D01*
X155068614Y-83472400D01*
X155116233Y-83520019D01*
X155497185Y-83520019D02*
X155544804Y-83472400D01*
X155640042Y-83424780D01*
X155878138Y-83424780D01*
X155973376Y-83472400D01*
X156020995Y-83520019D01*
X156068614Y-83615257D01*
X156068614Y-83710495D01*
X156020995Y-83853352D01*
X155449566Y-84424780D01*
X156068614Y-84424780D01*
G04 #@! TO.C,C1*
X160501033Y-84939142D02*
X160453414Y-84986761D01*
X160310557Y-85034380D01*
X160215319Y-85034380D01*
X160072461Y-84986761D01*
X159977223Y-84891523D01*
X159929604Y-84796285D01*
X159881985Y-84605809D01*
X159881985Y-84462952D01*
X159929604Y-84272476D01*
X159977223Y-84177238D01*
X160072461Y-84082000D01*
X160215319Y-84034380D01*
X160310557Y-84034380D01*
X160453414Y-84082000D01*
X160501033Y-84129619D01*
X161453414Y-85034380D02*
X160881985Y-85034380D01*
X161167700Y-85034380D02*
X161167700Y-84034380D01*
X161072461Y-84177238D01*
X160977223Y-84272476D01*
X160881985Y-84320095D01*
G04 #@! TO.C,TP13*
X147880604Y-112380780D02*
X148452033Y-112380780D01*
X148166319Y-113380780D02*
X148166319Y-112380780D01*
X148785366Y-113380780D02*
X148785366Y-112380780D01*
X149166319Y-112380780D01*
X149261557Y-112428400D01*
X149309176Y-112476019D01*
X149356795Y-112571257D01*
X149356795Y-112714114D01*
X149309176Y-112809352D01*
X149261557Y-112856971D01*
X149166319Y-112904590D01*
X148785366Y-112904590D01*
X150309176Y-113380780D02*
X149737747Y-113380780D01*
X150023461Y-113380780D02*
X150023461Y-112380780D01*
X149928223Y-112523638D01*
X149832985Y-112618876D01*
X149737747Y-112666495D01*
X150642509Y-112380780D02*
X151261557Y-112380780D01*
X150928223Y-112761733D01*
X151071080Y-112761733D01*
X151166319Y-112809352D01*
X151213938Y-112856971D01*
X151261557Y-112952209D01*
X151261557Y-113190304D01*
X151213938Y-113285542D01*
X151166319Y-113333161D01*
X151071080Y-113380780D01*
X150785366Y-113380780D01*
X150690128Y-113333161D01*
X150642509Y-113285542D01*
G04 #@! TO.C,TP12*
X135129804Y-112380780D02*
X135701233Y-112380780D01*
X135415519Y-113380780D02*
X135415519Y-112380780D01*
X136034566Y-113380780D02*
X136034566Y-112380780D01*
X136415519Y-112380780D01*
X136510757Y-112428400D01*
X136558376Y-112476019D01*
X136605995Y-112571257D01*
X136605995Y-112714114D01*
X136558376Y-112809352D01*
X136510757Y-112856971D01*
X136415519Y-112904590D01*
X136034566Y-112904590D01*
X137558376Y-113380780D02*
X136986947Y-113380780D01*
X137272661Y-113380780D02*
X137272661Y-112380780D01*
X137177423Y-112523638D01*
X137082185Y-112618876D01*
X136986947Y-112666495D01*
X137939328Y-112476019D02*
X137986947Y-112428400D01*
X138082185Y-112380780D01*
X138320280Y-112380780D01*
X138415519Y-112428400D01*
X138463138Y-112476019D01*
X138510757Y-112571257D01*
X138510757Y-112666495D01*
X138463138Y-112809352D01*
X137891709Y-113380780D01*
X138510757Y-113380780D01*
G04 #@! TO.C,5V*
X129673623Y-60564780D02*
X129197433Y-60564780D01*
X129149814Y-61040971D01*
X129197433Y-60993352D01*
X129292671Y-60945733D01*
X129530766Y-60945733D01*
X129626004Y-60993352D01*
X129673623Y-61040971D01*
X129721242Y-61136209D01*
X129721242Y-61374304D01*
X129673623Y-61469542D01*
X129626004Y-61517161D01*
X129530766Y-61564780D01*
X129292671Y-61564780D01*
X129197433Y-61517161D01*
X129149814Y-61469542D01*
X130006957Y-60564780D02*
X130340290Y-61564780D01*
X130673623Y-60564780D01*
G04 #@! TO.C,TP10*
X158243804Y-112380780D02*
X158815233Y-112380780D01*
X158529519Y-113380780D02*
X158529519Y-112380780D01*
X159148566Y-113380780D02*
X159148566Y-112380780D01*
X159529519Y-112380780D01*
X159624757Y-112428400D01*
X159672376Y-112476019D01*
X159719995Y-112571257D01*
X159719995Y-112714114D01*
X159672376Y-112809352D01*
X159624757Y-112856971D01*
X159529519Y-112904590D01*
X159148566Y-112904590D01*
X160672376Y-113380780D02*
X160100947Y-113380780D01*
X160386661Y-113380780D02*
X160386661Y-112380780D01*
X160291423Y-112523638D01*
X160196185Y-112618876D01*
X160100947Y-112666495D01*
X161291423Y-112380780D02*
X161386661Y-112380780D01*
X161481900Y-112428400D01*
X161529519Y-112476019D01*
X161577138Y-112571257D01*
X161624757Y-112761733D01*
X161624757Y-112999828D01*
X161577138Y-113190304D01*
X161529519Y-113285542D01*
X161481900Y-113333161D01*
X161386661Y-113380780D01*
X161291423Y-113380780D01*
X161196185Y-113333161D01*
X161148566Y-113285542D01*
X161100947Y-113190304D01*
X161053328Y-112999828D01*
X161053328Y-112761733D01*
X161100947Y-112571257D01*
X161148566Y-112476019D01*
X161196185Y-112428400D01*
X161291423Y-112380780D01*
G04 #@! TO.C,TP9*
X141092395Y-112456980D02*
X141663823Y-112456980D01*
X141378109Y-113456980D02*
X141378109Y-112456980D01*
X141997157Y-113456980D02*
X141997157Y-112456980D01*
X142378109Y-112456980D01*
X142473347Y-112504600D01*
X142520966Y-112552219D01*
X142568585Y-112647457D01*
X142568585Y-112790314D01*
X142520966Y-112885552D01*
X142473347Y-112933171D01*
X142378109Y-112980790D01*
X141997157Y-112980790D01*
X143044776Y-113456980D02*
X143235252Y-113456980D01*
X143330490Y-113409361D01*
X143378109Y-113361742D01*
X143473347Y-113218885D01*
X143520966Y-113028409D01*
X143520966Y-112647457D01*
X143473347Y-112552219D01*
X143425728Y-112504600D01*
X143330490Y-112456980D01*
X143140014Y-112456980D01*
X143044776Y-112504600D01*
X142997157Y-112552219D01*
X142949538Y-112647457D01*
X142949538Y-112885552D01*
X142997157Y-112980790D01*
X143044776Y-113028409D01*
X143140014Y-113076028D01*
X143330490Y-113076028D01*
X143425728Y-113028409D01*
X143473347Y-112980790D01*
X143520966Y-112885552D01*
G04 #@! TO.C,TP8*
X152452319Y-77122495D02*
X152452319Y-77693923D01*
X151452319Y-77408209D02*
X152452319Y-77408209D01*
X151452319Y-78027257D02*
X152452319Y-78027257D01*
X152452319Y-78408209D01*
X152404700Y-78503447D01*
X152357080Y-78551066D01*
X152261842Y-78598685D01*
X152118985Y-78598685D01*
X152023747Y-78551066D01*
X151976128Y-78503447D01*
X151928509Y-78408209D01*
X151928509Y-78027257D01*
X152023747Y-79170114D02*
X152071366Y-79074876D01*
X152118985Y-79027257D01*
X152214223Y-78979638D01*
X152261842Y-78979638D01*
X152357080Y-79027257D01*
X152404700Y-79074876D01*
X152452319Y-79170114D01*
X152452319Y-79360590D01*
X152404700Y-79455828D01*
X152357080Y-79503447D01*
X152261842Y-79551066D01*
X152214223Y-79551066D01*
X152118985Y-79503447D01*
X152071366Y-79455828D01*
X152023747Y-79360590D01*
X152023747Y-79170114D01*
X151976128Y-79074876D01*
X151928509Y-79027257D01*
X151833271Y-78979638D01*
X151642795Y-78979638D01*
X151547557Y-79027257D01*
X151499938Y-79074876D01*
X151452319Y-79170114D01*
X151452319Y-79360590D01*
X151499938Y-79455828D01*
X151547557Y-79503447D01*
X151642795Y-79551066D01*
X151833271Y-79551066D01*
X151928509Y-79503447D01*
X151976128Y-79455828D01*
X152023747Y-79360590D01*
G04 #@! TO.C,TP7*
X148331395Y-95769180D02*
X148902823Y-95769180D01*
X148617109Y-96769180D02*
X148617109Y-95769180D01*
X149236157Y-96769180D02*
X149236157Y-95769180D01*
X149617109Y-95769180D01*
X149712347Y-95816800D01*
X149759966Y-95864419D01*
X149807585Y-95959657D01*
X149807585Y-96102514D01*
X149759966Y-96197752D01*
X149712347Y-96245371D01*
X149617109Y-96292990D01*
X149236157Y-96292990D01*
X150140919Y-95769180D02*
X150807585Y-95769180D01*
X150379014Y-96769180D01*
G04 #@! TO.C,TP6*
X159227995Y-76160380D02*
X159799423Y-76160380D01*
X159513709Y-77160380D02*
X159513709Y-76160380D01*
X160132757Y-77160380D02*
X160132757Y-76160380D01*
X160513709Y-76160380D01*
X160608947Y-76208000D01*
X160656566Y-76255619D01*
X160704185Y-76350857D01*
X160704185Y-76493714D01*
X160656566Y-76588952D01*
X160608947Y-76636571D01*
X160513709Y-76684190D01*
X160132757Y-76684190D01*
X161561328Y-76160380D02*
X161370852Y-76160380D01*
X161275614Y-76208000D01*
X161227995Y-76255619D01*
X161132757Y-76398476D01*
X161085138Y-76588952D01*
X161085138Y-76969904D01*
X161132757Y-77065142D01*
X161180376Y-77112761D01*
X161275614Y-77160380D01*
X161466090Y-77160380D01*
X161561328Y-77112761D01*
X161608947Y-77065142D01*
X161656566Y-76969904D01*
X161656566Y-76731809D01*
X161608947Y-76636571D01*
X161561328Y-76588952D01*
X161466090Y-76541333D01*
X161275614Y-76541333D01*
X161180376Y-76588952D01*
X161132757Y-76636571D01*
X161085138Y-76731809D01*
G04 #@! TO.C,VREF*
X154940214Y-86879180D02*
X155273547Y-87879180D01*
X155606880Y-86879180D01*
X156511642Y-87879180D02*
X156178309Y-87402990D01*
X155940214Y-87879180D02*
X155940214Y-86879180D01*
X156321166Y-86879180D01*
X156416404Y-86926800D01*
X156464023Y-86974419D01*
X156511642Y-87069657D01*
X156511642Y-87212514D01*
X156464023Y-87307752D01*
X156416404Y-87355371D01*
X156321166Y-87402990D01*
X155940214Y-87402990D01*
X156940214Y-87355371D02*
X157273547Y-87355371D01*
X157416404Y-87879180D02*
X156940214Y-87879180D01*
X156940214Y-86879180D01*
X157416404Y-86879180D01*
X158178309Y-87355371D02*
X157844976Y-87355371D01*
X157844976Y-87879180D02*
X157844976Y-86879180D01*
X158321166Y-86879180D01*
G04 #@! TO.C,GND*
X129570100Y-99872895D02*
X129617719Y-99777657D01*
X129617719Y-99634800D01*
X129570100Y-99491942D01*
X129474861Y-99396704D01*
X129379623Y-99349085D01*
X129189147Y-99301466D01*
X129046290Y-99301466D01*
X128855814Y-99349085D01*
X128760576Y-99396704D01*
X128665338Y-99491942D01*
X128617719Y-99634800D01*
X128617719Y-99730038D01*
X128665338Y-99872895D01*
X128712957Y-99920514D01*
X129046290Y-99920514D01*
X129046290Y-99730038D01*
X128617719Y-100349085D02*
X129617719Y-100349085D01*
X128617719Y-100920514D01*
X129617719Y-100920514D01*
X128617719Y-101396704D02*
X129617719Y-101396704D01*
X129617719Y-101634800D01*
X129570100Y-101777657D01*
X129474861Y-101872895D01*
X129379623Y-101920514D01*
X129189147Y-101968133D01*
X129046290Y-101968133D01*
X128855814Y-101920514D01*
X128760576Y-101872895D01*
X128665338Y-101777657D01*
X128617719Y-101634800D01*
X128617719Y-101396704D01*
G04 #@! TO.C,15V*
X131106919Y-99990352D02*
X131106919Y-99418923D01*
X131106919Y-99704638D02*
X132106919Y-99704638D01*
X131964061Y-99609400D01*
X131868823Y-99514161D01*
X131821204Y-99418923D01*
X132106919Y-100895114D02*
X132106919Y-100418923D01*
X131630728Y-100371304D01*
X131678347Y-100418923D01*
X131725966Y-100514161D01*
X131725966Y-100752257D01*
X131678347Y-100847495D01*
X131630728Y-100895114D01*
X131535490Y-100942733D01*
X131297395Y-100942733D01*
X131202157Y-100895114D01*
X131154538Y-100847495D01*
X131106919Y-100752257D01*
X131106919Y-100514161D01*
X131154538Y-100418923D01*
X131202157Y-100371304D01*
X132106919Y-101228447D02*
X131106919Y-101561780D01*
X132106919Y-101895114D01*
G04 #@! TO.C,-15V*
X126484071Y-98263295D02*
X126484071Y-99025200D01*
X126103119Y-100025200D02*
X126103119Y-99453771D01*
X126103119Y-99739485D02*
X127103119Y-99739485D01*
X126960261Y-99644247D01*
X126865023Y-99549009D01*
X126817404Y-99453771D01*
X127103119Y-100929961D02*
X127103119Y-100453771D01*
X126626928Y-100406152D01*
X126674547Y-100453771D01*
X126722166Y-100549009D01*
X126722166Y-100787104D01*
X126674547Y-100882342D01*
X126626928Y-100929961D01*
X126531690Y-100977580D01*
X126293595Y-100977580D01*
X126198357Y-100929961D01*
X126150738Y-100882342D01*
X126103119Y-100787104D01*
X126103119Y-100549009D01*
X126150738Y-100453771D01*
X126198357Y-100406152D01*
X127103119Y-101263295D02*
X126103119Y-101596628D01*
X127103119Y-101929961D01*
G04 #@! TO.C,U6*
X121972319Y-71335995D02*
X121162795Y-71335995D01*
X121067557Y-71383614D01*
X121019938Y-71431233D01*
X120972319Y-71526471D01*
X120972319Y-71716947D01*
X121019938Y-71812185D01*
X121067557Y-71859804D01*
X121162795Y-71907423D01*
X121972319Y-71907423D01*
X121972319Y-72812185D02*
X121972319Y-72621709D01*
X121924700Y-72526471D01*
X121877080Y-72478852D01*
X121734223Y-72383614D01*
X121543747Y-72335995D01*
X121162795Y-72335995D01*
X121067557Y-72383614D01*
X121019938Y-72431233D01*
X120972319Y-72526471D01*
X120972319Y-72716947D01*
X121019938Y-72812185D01*
X121067557Y-72859804D01*
X121162795Y-72907423D01*
X121400890Y-72907423D01*
X121496128Y-72859804D01*
X121543747Y-72812185D01*
X121591366Y-72716947D01*
X121591366Y-72526471D01*
X121543747Y-72431233D01*
X121496128Y-72383614D01*
X121400890Y-72335995D01*
G04 #@! TO.C,U4*
X155373319Y-103581295D02*
X154563795Y-103581295D01*
X154468557Y-103628914D01*
X154420938Y-103676533D01*
X154373319Y-103771771D01*
X154373319Y-103962247D01*
X154420938Y-104057485D01*
X154468557Y-104105104D01*
X154563795Y-104152723D01*
X155373319Y-104152723D01*
X155039985Y-105057485D02*
X154373319Y-105057485D01*
X155420938Y-104819390D02*
X154706652Y-104581295D01*
X154706652Y-105200342D01*
G04 #@! TO.C,U2*
X128068319Y-86817295D02*
X127258795Y-86817295D01*
X127163557Y-86864914D01*
X127115938Y-86912533D01*
X127068319Y-87007771D01*
X127068319Y-87198247D01*
X127115938Y-87293485D01*
X127163557Y-87341104D01*
X127258795Y-87388723D01*
X128068319Y-87388723D01*
X127973080Y-87817295D02*
X128020700Y-87864914D01*
X128068319Y-87960152D01*
X128068319Y-88198247D01*
X128020700Y-88293485D01*
X127973080Y-88341104D01*
X127877842Y-88388723D01*
X127782604Y-88388723D01*
X127639747Y-88341104D01*
X127068319Y-87769676D01*
X127068319Y-88388723D01*
G04 #@! TO.C,SW1*
X135497938Y-79006866D02*
X135450319Y-79149723D01*
X135450319Y-79387819D01*
X135497938Y-79483057D01*
X135545557Y-79530676D01*
X135640795Y-79578295D01*
X135736033Y-79578295D01*
X135831271Y-79530676D01*
X135878890Y-79483057D01*
X135926509Y-79387819D01*
X135974128Y-79197342D01*
X136021747Y-79102104D01*
X136069366Y-79054485D01*
X136164604Y-79006866D01*
X136259842Y-79006866D01*
X136355080Y-79054485D01*
X136402700Y-79102104D01*
X136450319Y-79197342D01*
X136450319Y-79435438D01*
X136402700Y-79578295D01*
X136450319Y-79911628D02*
X135450319Y-80149723D01*
X136164604Y-80340200D01*
X135450319Y-80530676D01*
X136450319Y-80768771D01*
X135450319Y-81673533D02*
X135450319Y-81102104D01*
X135450319Y-81387819D02*
X136450319Y-81387819D01*
X136307461Y-81292580D01*
X136212223Y-81197342D01*
X136164604Y-81102104D01*
G04 #@! TO.C,L1*
X125855433Y-45274780D02*
X125379242Y-45274780D01*
X125379242Y-44274780D01*
X126712576Y-45274780D02*
X126141147Y-45274780D01*
X126426861Y-45274780D02*
X126426861Y-44274780D01*
X126331623Y-44417638D01*
X126236385Y-44512876D01*
X126141147Y-44560495D01*
G04 #@! TO.C,DRIVE B*
X151708195Y-127503180D02*
X151708195Y-126503180D01*
X151946290Y-126503180D01*
X152089147Y-126550800D01*
X152184385Y-126646038D01*
X152232004Y-126741276D01*
X152279623Y-126931752D01*
X152279623Y-127074609D01*
X152232004Y-127265085D01*
X152184385Y-127360323D01*
X152089147Y-127455561D01*
X151946290Y-127503180D01*
X151708195Y-127503180D01*
X153279623Y-127503180D02*
X152946290Y-127026990D01*
X152708195Y-127503180D02*
X152708195Y-126503180D01*
X153089147Y-126503180D01*
X153184385Y-126550800D01*
X153232004Y-126598419D01*
X153279623Y-126693657D01*
X153279623Y-126836514D01*
X153232004Y-126931752D01*
X153184385Y-126979371D01*
X153089147Y-127026990D01*
X152708195Y-127026990D01*
X153708195Y-127503180D02*
X153708195Y-126503180D01*
X154041528Y-126503180D02*
X154374861Y-127503180D01*
X154708195Y-126503180D01*
X155041528Y-126979371D02*
X155374861Y-126979371D01*
X155517719Y-127503180D02*
X155041528Y-127503180D01*
X155041528Y-126503180D01*
X155517719Y-126503180D01*
X157041528Y-126979371D02*
X157184385Y-127026990D01*
X157232004Y-127074609D01*
X157279623Y-127169847D01*
X157279623Y-127312704D01*
X157232004Y-127407942D01*
X157184385Y-127455561D01*
X157089147Y-127503180D01*
X156708195Y-127503180D01*
X156708195Y-126503180D01*
X157041528Y-126503180D01*
X157136766Y-126550800D01*
X157184385Y-126598419D01*
X157232004Y-126693657D01*
X157232004Y-126788895D01*
X157184385Y-126884133D01*
X157136766Y-126931752D01*
X157041528Y-126979371D01*
X156708195Y-126979371D01*
G04 #@! TO.C,DRIVE A*
X139054223Y-127503180D02*
X139054223Y-126503180D01*
X139292319Y-126503180D01*
X139435176Y-126550800D01*
X139530414Y-126646038D01*
X139578033Y-126741276D01*
X139625652Y-126931752D01*
X139625652Y-127074609D01*
X139578033Y-127265085D01*
X139530414Y-127360323D01*
X139435176Y-127455561D01*
X139292319Y-127503180D01*
X139054223Y-127503180D01*
X140625652Y-127503180D02*
X140292319Y-127026990D01*
X140054223Y-127503180D02*
X140054223Y-126503180D01*
X140435176Y-126503180D01*
X140530414Y-126550800D01*
X140578033Y-126598419D01*
X140625652Y-126693657D01*
X140625652Y-126836514D01*
X140578033Y-126931752D01*
X140530414Y-126979371D01*
X140435176Y-127026990D01*
X140054223Y-127026990D01*
X141054223Y-127503180D02*
X141054223Y-126503180D01*
X141387557Y-126503180D02*
X141720890Y-127503180D01*
X142054223Y-126503180D01*
X142387557Y-126979371D02*
X142720890Y-126979371D01*
X142863747Y-127503180D02*
X142387557Y-127503180D01*
X142387557Y-126503180D01*
X142863747Y-126503180D01*
X144006604Y-127217466D02*
X144482795Y-127217466D01*
X143911366Y-127503180D02*
X144244700Y-126503180D01*
X144578033Y-127503180D01*
G04 #@! TO.C,INPUT*
X127141528Y-127477780D02*
X127141528Y-126477780D01*
X127617719Y-127477780D02*
X127617719Y-126477780D01*
X128189147Y-127477780D01*
X128189147Y-126477780D01*
X128665338Y-127477780D02*
X128665338Y-126477780D01*
X129046290Y-126477780D01*
X129141528Y-126525400D01*
X129189147Y-126573019D01*
X129236766Y-126668257D01*
X129236766Y-126811114D01*
X129189147Y-126906352D01*
X129141528Y-126953971D01*
X129046290Y-127001590D01*
X128665338Y-127001590D01*
X129665338Y-126477780D02*
X129665338Y-127287304D01*
X129712957Y-127382542D01*
X129760576Y-127430161D01*
X129855814Y-127477780D01*
X130046290Y-127477780D01*
X130141528Y-127430161D01*
X130189147Y-127382542D01*
X130236766Y-127287304D01*
X130236766Y-126477780D01*
X130570100Y-126477780D02*
X131141528Y-126477780D01*
X130855814Y-127477780D02*
X130855814Y-126477780D01*
G04 #@! TO.C,P1*
X115632004Y-60523380D02*
X115632004Y-59523380D01*
X116012957Y-59523380D01*
X116108195Y-59571000D01*
X116155814Y-59618619D01*
X116203433Y-59713857D01*
X116203433Y-59856714D01*
X116155814Y-59951952D01*
X116108195Y-59999571D01*
X116012957Y-60047190D01*
X115632004Y-60047190D01*
X117155814Y-60523380D02*
X116584385Y-60523380D01*
X116870100Y-60523380D02*
X116870100Y-59523380D01*
X116774861Y-59666238D01*
X116679623Y-59761476D01*
X116584385Y-59809095D01*
G04 #@! TD*
M02*
